G04 #@! TF.GenerationSoftware,KiCad,Pcbnew,(5.1.9)-1*
G04 #@! TF.CreationDate,2022-04-26T12:58:29-07:00*
G04 #@! TF.ProjectId,NES-CN-ROM-256-05,4e45532d-434e-42d5-924f-4d2d3235362d,v01*
G04 #@! TF.SameCoordinates,Original*
G04 #@! TF.FileFunction,Legend,Top*
G04 #@! TF.FilePolarity,Positive*
%FSLAX46Y46*%
G04 Gerber Fmt 4.6, Leading zero omitted, Abs format (unit mm)*
G04 Created by KiCad (PCBNEW (5.1.9)-1) date 2022-04-26 12:58:29*
%MOMM*%
%LPD*%
G01*
G04 APERTURE LIST*
%ADD10C,0.150000*%
%ADD11C,0.120000*%
%ADD12C,0.100000*%
%ADD13C,1.300000*%
%ADD14O,1.700000X1.700000*%
%ADD15C,1.700000*%
G04 APERTURE END LIST*
D10*
X183809523Y-72252380D02*
X183809523Y-71252380D01*
X184380952Y-72252380D01*
X184380952Y-71252380D01*
X184857142Y-71728571D02*
X185190476Y-71728571D01*
X185333333Y-72252380D02*
X184857142Y-72252380D01*
X184857142Y-71252380D01*
X185333333Y-71252380D01*
X185714285Y-72204761D02*
X185857142Y-72252380D01*
X186095238Y-72252380D01*
X186190476Y-72204761D01*
X186238095Y-72157142D01*
X186285714Y-72061904D01*
X186285714Y-71966666D01*
X186238095Y-71871428D01*
X186190476Y-71823809D01*
X186095238Y-71776190D01*
X185904761Y-71728571D01*
X185809523Y-71680952D01*
X185761904Y-71633333D01*
X185714285Y-71538095D01*
X185714285Y-71442857D01*
X185761904Y-71347619D01*
X185809523Y-71300000D01*
X185904761Y-71252380D01*
X186142857Y-71252380D01*
X186285714Y-71300000D01*
X186714285Y-71871428D02*
X187476190Y-71871428D01*
X188523809Y-72157142D02*
X188476190Y-72204761D01*
X188333333Y-72252380D01*
X188238095Y-72252380D01*
X188095238Y-72204761D01*
X188000000Y-72109523D01*
X187952380Y-72014285D01*
X187904761Y-71823809D01*
X187904761Y-71680952D01*
X187952380Y-71490476D01*
X188000000Y-71395238D01*
X188095238Y-71300000D01*
X188238095Y-71252380D01*
X188333333Y-71252380D01*
X188476190Y-71300000D01*
X188523809Y-71347619D01*
X188952380Y-72252380D02*
X188952380Y-71252380D01*
X189523809Y-72252380D01*
X189523809Y-71252380D01*
X190000000Y-71871428D02*
X190761904Y-71871428D01*
X191809523Y-72252380D02*
X191476190Y-71776190D01*
X191238095Y-72252380D02*
X191238095Y-71252380D01*
X191619047Y-71252380D01*
X191714285Y-71300000D01*
X191761904Y-71347619D01*
X191809523Y-71442857D01*
X191809523Y-71585714D01*
X191761904Y-71680952D01*
X191714285Y-71728571D01*
X191619047Y-71776190D01*
X191238095Y-71776190D01*
X192428571Y-71252380D02*
X192619047Y-71252380D01*
X192714285Y-71300000D01*
X192809523Y-71395238D01*
X192857142Y-71585714D01*
X192857142Y-71919047D01*
X192809523Y-72109523D01*
X192714285Y-72204761D01*
X192619047Y-72252380D01*
X192428571Y-72252380D01*
X192333333Y-72204761D01*
X192238095Y-72109523D01*
X192190476Y-71919047D01*
X192190476Y-71585714D01*
X192238095Y-71395238D01*
X192333333Y-71300000D01*
X192428571Y-71252380D01*
X193285714Y-72252380D02*
X193285714Y-71252380D01*
X193619047Y-71966666D01*
X193952380Y-71252380D01*
X193952380Y-72252380D01*
X194428571Y-71871428D02*
X195190476Y-71871428D01*
X195619047Y-71347619D02*
X195666666Y-71300000D01*
X195761904Y-71252380D01*
X196000000Y-71252380D01*
X196095238Y-71300000D01*
X196142857Y-71347619D01*
X196190476Y-71442857D01*
X196190476Y-71538095D01*
X196142857Y-71680952D01*
X195571428Y-72252380D01*
X196190476Y-72252380D01*
X197095238Y-71252380D02*
X196619047Y-71252380D01*
X196571428Y-71728571D01*
X196619047Y-71680952D01*
X196714285Y-71633333D01*
X196952380Y-71633333D01*
X197047619Y-71680952D01*
X197095238Y-71728571D01*
X197142857Y-71823809D01*
X197142857Y-72061904D01*
X197095238Y-72157142D01*
X197047619Y-72204761D01*
X196952380Y-72252380D01*
X196714285Y-72252380D01*
X196619047Y-72204761D01*
X196571428Y-72157142D01*
X198000000Y-71252380D02*
X197809523Y-71252380D01*
X197714285Y-71300000D01*
X197666666Y-71347619D01*
X197571428Y-71490476D01*
X197523809Y-71680952D01*
X197523809Y-72061904D01*
X197571428Y-72157142D01*
X197619047Y-72204761D01*
X197714285Y-72252380D01*
X197904761Y-72252380D01*
X198000000Y-72204761D01*
X198047619Y-72157142D01*
X198095238Y-72061904D01*
X198095238Y-71823809D01*
X198047619Y-71728571D01*
X198000000Y-71680952D01*
X197904761Y-71633333D01*
X197714285Y-71633333D01*
X197619047Y-71680952D01*
X197571428Y-71728571D01*
X197523809Y-71823809D01*
X198523809Y-71871428D02*
X199285714Y-71871428D01*
X199952380Y-71252380D02*
X200047619Y-71252380D01*
X200142857Y-71300000D01*
X200190476Y-71347619D01*
X200238095Y-71442857D01*
X200285714Y-71633333D01*
X200285714Y-71871428D01*
X200238095Y-72061904D01*
X200190476Y-72157142D01*
X200142857Y-72204761D01*
X200047619Y-72252380D01*
X199952380Y-72252380D01*
X199857142Y-72204761D01*
X199809523Y-72157142D01*
X199761904Y-72061904D01*
X199714285Y-71871428D01*
X199714285Y-71633333D01*
X199761904Y-71442857D01*
X199809523Y-71347619D01*
X199857142Y-71300000D01*
X199952380Y-71252380D01*
X201190476Y-71252380D02*
X200714285Y-71252380D01*
X200666666Y-71728571D01*
X200714285Y-71680952D01*
X200809523Y-71633333D01*
X201047619Y-71633333D01*
X201142857Y-71680952D01*
X201190476Y-71728571D01*
X201238095Y-71823809D01*
X201238095Y-72061904D01*
X201190476Y-72157142D01*
X201142857Y-72204761D01*
X201047619Y-72252380D01*
X200809523Y-72252380D01*
X200714285Y-72204761D01*
X200666666Y-72157142D01*
X118190476Y-112202380D02*
X118809523Y-112202380D01*
X118476190Y-112583333D01*
X118619047Y-112583333D01*
X118714285Y-112630952D01*
X118761904Y-112678571D01*
X118809523Y-112773809D01*
X118809523Y-113011904D01*
X118761904Y-113107142D01*
X118714285Y-113154761D01*
X118619047Y-113202380D01*
X118333333Y-113202380D01*
X118238095Y-113154761D01*
X118190476Y-113107142D01*
X119666666Y-112202380D02*
X119476190Y-112202380D01*
X119380952Y-112250000D01*
X119333333Y-112297619D01*
X119238095Y-112440476D01*
X119190476Y-112630952D01*
X119190476Y-113011904D01*
X119238095Y-113107142D01*
X119285714Y-113154761D01*
X119380952Y-113202380D01*
X119571428Y-113202380D01*
X119666666Y-113154761D01*
X119714285Y-113107142D01*
X119761904Y-113011904D01*
X119761904Y-112773809D01*
X119714285Y-112678571D01*
X119666666Y-112630952D01*
X119571428Y-112583333D01*
X119380952Y-112583333D01*
X119285714Y-112630952D01*
X119238095Y-112678571D01*
X119190476Y-112773809D01*
X133690476Y-112202380D02*
X134309523Y-112202380D01*
X133976190Y-112583333D01*
X134119047Y-112583333D01*
X134214285Y-112630952D01*
X134261904Y-112678571D01*
X134309523Y-112773809D01*
X134309523Y-113011904D01*
X134261904Y-113107142D01*
X134214285Y-113154761D01*
X134119047Y-113202380D01*
X133833333Y-113202380D01*
X133738095Y-113154761D01*
X133690476Y-113107142D01*
X134928571Y-112202380D02*
X135023809Y-112202380D01*
X135119047Y-112250000D01*
X135166666Y-112297619D01*
X135214285Y-112392857D01*
X135261904Y-112583333D01*
X135261904Y-112821428D01*
X135214285Y-113011904D01*
X135166666Y-113107142D01*
X135119047Y-113154761D01*
X135023809Y-113202380D01*
X134928571Y-113202380D01*
X134833333Y-113154761D01*
X134785714Y-113107142D01*
X134738095Y-113011904D01*
X134690476Y-112821428D01*
X134690476Y-112583333D01*
X134738095Y-112392857D01*
X134785714Y-112297619D01*
X134833333Y-112250000D01*
X134928571Y-112202380D01*
X146238095Y-112297619D02*
X146285714Y-112250000D01*
X146380952Y-112202380D01*
X146619047Y-112202380D01*
X146714285Y-112250000D01*
X146761904Y-112297619D01*
X146809523Y-112392857D01*
X146809523Y-112488095D01*
X146761904Y-112630952D01*
X146190476Y-113202380D01*
X146809523Y-113202380D01*
X147714285Y-112202380D02*
X147238095Y-112202380D01*
X147190476Y-112678571D01*
X147238095Y-112630952D01*
X147333333Y-112583333D01*
X147571428Y-112583333D01*
X147666666Y-112630952D01*
X147714285Y-112678571D01*
X147761904Y-112773809D01*
X147761904Y-113011904D01*
X147714285Y-113107142D01*
X147666666Y-113154761D01*
X147571428Y-113202380D01*
X147333333Y-113202380D01*
X147238095Y-113154761D01*
X147190476Y-113107142D01*
X158738095Y-112297619D02*
X158785714Y-112250000D01*
X158880952Y-112202380D01*
X159119047Y-112202380D01*
X159214285Y-112250000D01*
X159261904Y-112297619D01*
X159309523Y-112392857D01*
X159309523Y-112488095D01*
X159261904Y-112630952D01*
X158690476Y-113202380D01*
X159309523Y-113202380D01*
X159928571Y-112202380D02*
X160023809Y-112202380D01*
X160119047Y-112250000D01*
X160166666Y-112297619D01*
X160214285Y-112392857D01*
X160261904Y-112583333D01*
X160261904Y-112821428D01*
X160214285Y-113011904D01*
X160166666Y-113107142D01*
X160119047Y-113154761D01*
X160023809Y-113202380D01*
X159928571Y-113202380D01*
X159833333Y-113154761D01*
X159785714Y-113107142D01*
X159738095Y-113011904D01*
X159690476Y-112821428D01*
X159690476Y-112583333D01*
X159738095Y-112392857D01*
X159785714Y-112297619D01*
X159833333Y-112250000D01*
X159928571Y-112202380D01*
X171809523Y-113202380D02*
X171238095Y-113202380D01*
X171523809Y-113202380D02*
X171523809Y-112202380D01*
X171428571Y-112345238D01*
X171333333Y-112440476D01*
X171238095Y-112488095D01*
X172714285Y-112202380D02*
X172238095Y-112202380D01*
X172190476Y-112678571D01*
X172238095Y-112630952D01*
X172333333Y-112583333D01*
X172571428Y-112583333D01*
X172666666Y-112630952D01*
X172714285Y-112678571D01*
X172761904Y-112773809D01*
X172761904Y-113011904D01*
X172714285Y-113107142D01*
X172666666Y-113154761D01*
X172571428Y-113202380D01*
X172333333Y-113202380D01*
X172238095Y-113154761D01*
X172190476Y-113107142D01*
X184309523Y-113202380D02*
X183738095Y-113202380D01*
X184023809Y-113202380D02*
X184023809Y-112202380D01*
X183928571Y-112345238D01*
X183833333Y-112440476D01*
X183738095Y-112488095D01*
X184928571Y-112202380D02*
X185023809Y-112202380D01*
X185119047Y-112250000D01*
X185166666Y-112297619D01*
X185214285Y-112392857D01*
X185261904Y-112583333D01*
X185261904Y-112821428D01*
X185214285Y-113011904D01*
X185166666Y-113107142D01*
X185119047Y-113154761D01*
X185023809Y-113202380D01*
X184928571Y-113202380D01*
X184833333Y-113154761D01*
X184785714Y-113107142D01*
X184738095Y-113011904D01*
X184690476Y-112821428D01*
X184690476Y-112583333D01*
X184738095Y-112392857D01*
X184785714Y-112297619D01*
X184833333Y-112250000D01*
X184928571Y-112202380D01*
X207835714Y-113202380D02*
X207264285Y-113202380D01*
X207550000Y-113202380D02*
X207550000Y-112202380D01*
X207454761Y-112345238D01*
X207359523Y-112440476D01*
X207264285Y-112488095D01*
X197288095Y-112202380D02*
X196811904Y-112202380D01*
X196764285Y-112678571D01*
X196811904Y-112630952D01*
X196907142Y-112583333D01*
X197145238Y-112583333D01*
X197240476Y-112630952D01*
X197288095Y-112678571D01*
X197335714Y-112773809D01*
X197335714Y-113011904D01*
X197288095Y-113107142D01*
X197240476Y-113154761D01*
X197145238Y-113202380D01*
X196907142Y-113202380D01*
X196811904Y-113154761D01*
X196764285Y-113107142D01*
X121926190Y-93116666D02*
X122402380Y-93116666D01*
X121830952Y-93402380D02*
X122164285Y-92402380D01*
X122497619Y-93402380D01*
X122688095Y-92402380D02*
X123021428Y-93402380D01*
X123354761Y-92402380D01*
X124259523Y-93402380D02*
X123926190Y-92926190D01*
X123688095Y-93402380D02*
X123688095Y-92402380D01*
X124069047Y-92402380D01*
X124164285Y-92450000D01*
X124211904Y-92497619D01*
X124259523Y-92592857D01*
X124259523Y-92735714D01*
X124211904Y-92830952D01*
X124164285Y-92878571D01*
X124069047Y-92926190D01*
X123688095Y-92926190D01*
X124688095Y-93021428D02*
X125450000Y-93021428D01*
X126497619Y-93307142D02*
X126450000Y-93354761D01*
X126307142Y-93402380D01*
X126211904Y-93402380D01*
X126069047Y-93354761D01*
X125973809Y-93259523D01*
X125926190Y-93164285D01*
X125878571Y-92973809D01*
X125878571Y-92830952D01*
X125926190Y-92640476D01*
X125973809Y-92545238D01*
X126069047Y-92450000D01*
X126211904Y-92402380D01*
X126307142Y-92402380D01*
X126450000Y-92450000D01*
X126497619Y-92497619D01*
X126926190Y-93402380D02*
X126926190Y-92402380D01*
X127973809Y-93307142D02*
X127926190Y-93354761D01*
X127783333Y-93402380D01*
X127688095Y-93402380D01*
X127545238Y-93354761D01*
X127450000Y-93259523D01*
X127402380Y-93164285D01*
X127354761Y-92973809D01*
X127354761Y-92830952D01*
X127402380Y-92640476D01*
X127450000Y-92545238D01*
X127545238Y-92450000D01*
X127688095Y-92402380D01*
X127783333Y-92402380D01*
X127926190Y-92450000D01*
X127973809Y-92497619D01*
D11*
X171220000Y-87550000D02*
G75*
G03*
X171220000Y-87550000I-2120000J0D01*
G01*
X169100000Y-88390000D02*
X169100000Y-89630000D01*
X169100000Y-85470000D02*
X169100000Y-86710000D01*
X169140000Y-88390000D02*
X169140000Y-89630000D01*
X169140000Y-85470000D02*
X169140000Y-86710000D01*
X169180000Y-88390000D02*
X169180000Y-89629000D01*
X169180000Y-85471000D02*
X169180000Y-86710000D01*
X169220000Y-85473000D02*
X169220000Y-86710000D01*
X169220000Y-88390000D02*
X169220000Y-89627000D01*
X169260000Y-85476000D02*
X169260000Y-86710000D01*
X169260000Y-88390000D02*
X169260000Y-89624000D01*
X169300000Y-85479000D02*
X169300000Y-86710000D01*
X169300000Y-88390000D02*
X169300000Y-89621000D01*
X169340000Y-85483000D02*
X169340000Y-86710000D01*
X169340000Y-88390000D02*
X169340000Y-89617000D01*
X169380000Y-85488000D02*
X169380000Y-86710000D01*
X169380000Y-88390000D02*
X169380000Y-89612000D01*
X169420000Y-85494000D02*
X169420000Y-86710000D01*
X169420000Y-88390000D02*
X169420000Y-89606000D01*
X169460000Y-85500000D02*
X169460000Y-86710000D01*
X169460000Y-88390000D02*
X169460000Y-89600000D01*
X169500000Y-85508000D02*
X169500000Y-86710000D01*
X169500000Y-88390000D02*
X169500000Y-89592000D01*
X169540000Y-85516000D02*
X169540000Y-86710000D01*
X169540000Y-88390000D02*
X169540000Y-89584000D01*
X169580000Y-85525000D02*
X169580000Y-86710000D01*
X169580000Y-88390000D02*
X169580000Y-89575000D01*
X169620000Y-85534000D02*
X169620000Y-86710000D01*
X169620000Y-88390000D02*
X169620000Y-89566000D01*
X169660000Y-85545000D02*
X169660000Y-86710000D01*
X169660000Y-88390000D02*
X169660000Y-89555000D01*
X169700000Y-85556000D02*
X169700000Y-86710000D01*
X169700000Y-88390000D02*
X169700000Y-89544000D01*
X169740000Y-85568000D02*
X169740000Y-86710000D01*
X169740000Y-88390000D02*
X169740000Y-89532000D01*
X169780000Y-85582000D02*
X169780000Y-86710000D01*
X169780000Y-88390000D02*
X169780000Y-89518000D01*
X169821000Y-85596000D02*
X169821000Y-86710000D01*
X169821000Y-88390000D02*
X169821000Y-89504000D01*
X169861000Y-85610000D02*
X169861000Y-86710000D01*
X169861000Y-88390000D02*
X169861000Y-89490000D01*
X169901000Y-85626000D02*
X169901000Y-86710000D01*
X169901000Y-88390000D02*
X169901000Y-89474000D01*
X169941000Y-85643000D02*
X169941000Y-86710000D01*
X169941000Y-88390000D02*
X169941000Y-89457000D01*
X169981000Y-85661000D02*
X169981000Y-86710000D01*
X169981000Y-88390000D02*
X169981000Y-89439000D01*
X170021000Y-85680000D02*
X170021000Y-86710000D01*
X170021000Y-88390000D02*
X170021000Y-89420000D01*
X170061000Y-85699000D02*
X170061000Y-86710000D01*
X170061000Y-88390000D02*
X170061000Y-89401000D01*
X170101000Y-85720000D02*
X170101000Y-86710000D01*
X170101000Y-88390000D02*
X170101000Y-89380000D01*
X170141000Y-85742000D02*
X170141000Y-86710000D01*
X170141000Y-88390000D02*
X170141000Y-89358000D01*
X170181000Y-85765000D02*
X170181000Y-86710000D01*
X170181000Y-88390000D02*
X170181000Y-89335000D01*
X170221000Y-85790000D02*
X170221000Y-86710000D01*
X170221000Y-88390000D02*
X170221000Y-89310000D01*
X170261000Y-85815000D02*
X170261000Y-86710000D01*
X170261000Y-88390000D02*
X170261000Y-89285000D01*
X170301000Y-85842000D02*
X170301000Y-86710000D01*
X170301000Y-88390000D02*
X170301000Y-89258000D01*
X170341000Y-85870000D02*
X170341000Y-86710000D01*
X170341000Y-88390000D02*
X170341000Y-89230000D01*
X170381000Y-85900000D02*
X170381000Y-86710000D01*
X170381000Y-88390000D02*
X170381000Y-89200000D01*
X170421000Y-85931000D02*
X170421000Y-86710000D01*
X170421000Y-88390000D02*
X170421000Y-89169000D01*
X170461000Y-85963000D02*
X170461000Y-86710000D01*
X170461000Y-88390000D02*
X170461000Y-89137000D01*
X170501000Y-85998000D02*
X170501000Y-86710000D01*
X170501000Y-88390000D02*
X170501000Y-89102000D01*
X170541000Y-86034000D02*
X170541000Y-86710000D01*
X170541000Y-88390000D02*
X170541000Y-89066000D01*
X170581000Y-86072000D02*
X170581000Y-86710000D01*
X170581000Y-88390000D02*
X170581000Y-89028000D01*
X170621000Y-86112000D02*
X170621000Y-86710000D01*
X170621000Y-88390000D02*
X170621000Y-88988000D01*
X170661000Y-86154000D02*
X170661000Y-86710000D01*
X170661000Y-88390000D02*
X170661000Y-88946000D01*
X170701000Y-86199000D02*
X170701000Y-88901000D01*
X170741000Y-86246000D02*
X170741000Y-88854000D01*
X170781000Y-86296000D02*
X170781000Y-88804000D01*
X170821000Y-86350000D02*
X170821000Y-88750000D01*
X170861000Y-86408000D02*
X170861000Y-88692000D01*
X170901000Y-86470000D02*
X170901000Y-88630000D01*
X170941000Y-86537000D02*
X170941000Y-88563000D01*
X170981000Y-86610000D02*
X170981000Y-88490000D01*
X171021000Y-86691000D02*
X171021000Y-88409000D01*
X171061000Y-86782000D02*
X171061000Y-88318000D01*
X171101000Y-86886000D02*
X171101000Y-88214000D01*
X171141000Y-87013000D02*
X171141000Y-88087000D01*
X171181000Y-87180000D02*
X171181000Y-87920000D01*
X166830199Y-86355000D02*
X167230199Y-86355000D01*
X167030199Y-86155000D02*
X167030199Y-86555000D01*
X116800000Y-95940000D02*
X116800000Y-95980000D01*
X116800000Y-101360000D02*
X116800000Y-101320000D01*
X115130000Y-95980000D02*
X115130000Y-101320000D01*
X118470000Y-95980000D02*
X115130000Y-95980000D01*
X118470000Y-101320000D02*
X118470000Y-95980000D01*
X115130000Y-101320000D02*
X118470000Y-101320000D01*
X208780000Y-100470000D02*
X212120000Y-100470000D01*
X212120000Y-100470000D02*
X212120000Y-95130000D01*
X212120000Y-95130000D02*
X208780000Y-95130000D01*
X208780000Y-95130000D02*
X208780000Y-100470000D01*
X210450000Y-100510000D02*
X210450000Y-100470000D01*
X210450000Y-95090000D02*
X210450000Y-95130000D01*
X173590000Y-77580000D02*
X173590000Y-79820000D01*
X173830000Y-77580000D02*
X173830000Y-79820000D01*
X173710000Y-77580000D02*
X173710000Y-79820000D01*
X177880000Y-78700000D02*
X177230000Y-78700000D01*
X172340000Y-78700000D02*
X172990000Y-78700000D01*
X177230000Y-77580000D02*
X172990000Y-77580000D01*
X177230000Y-79820000D02*
X177230000Y-77580000D01*
X172990000Y-79820000D02*
X177230000Y-79820000D01*
X172990000Y-77580000D02*
X172990000Y-79820000D01*
X172990000Y-80280000D02*
X172990000Y-82520000D01*
X172990000Y-82520000D02*
X177230000Y-82520000D01*
X177230000Y-82520000D02*
X177230000Y-80280000D01*
X177230000Y-80280000D02*
X172990000Y-80280000D01*
X172340000Y-81400000D02*
X172990000Y-81400000D01*
X177880000Y-81400000D02*
X177230000Y-81400000D01*
X173710000Y-80280000D02*
X173710000Y-82520000D01*
X173830000Y-80280000D02*
X173830000Y-82520000D01*
X173590000Y-80280000D02*
X173590000Y-82520000D01*
X202830000Y-80760000D02*
X202830000Y-79110000D01*
X182390000Y-80760000D02*
X202830000Y-80760000D01*
X182390000Y-75460000D02*
X182390000Y-80760000D01*
X202830000Y-75460000D02*
X182390000Y-75460000D01*
X202830000Y-77110000D02*
X202830000Y-75460000D01*
X202830000Y-79110000D02*
G75*
G02*
X202830000Y-77110000I0J1000000D01*
G01*
X129380000Y-97560000D02*
X129380000Y-95910000D01*
X129380000Y-95910000D02*
X119100000Y-95910000D01*
X119100000Y-95910000D02*
X119100000Y-101210000D01*
X119100000Y-101210000D02*
X129380000Y-101210000D01*
X129380000Y-101210000D02*
X129380000Y-99560000D01*
X129380000Y-99560000D02*
G75*
G02*
X129380000Y-97560000I0J1000000D01*
G01*
X166480000Y-96570000D02*
X166480000Y-91110000D01*
X166480000Y-91110000D02*
X130800000Y-91110000D01*
X130800000Y-91110000D02*
X130800000Y-104030000D01*
X130800000Y-104030000D02*
X166480000Y-104030000D01*
X166480000Y-104030000D02*
X166480000Y-98570000D01*
X166480000Y-98570000D02*
G75*
G02*
X166480000Y-96570000I0J1000000D01*
G01*
X208050000Y-104030000D02*
X208050000Y-98570000D01*
X172370000Y-104030000D02*
X208050000Y-104030000D01*
X172370000Y-91110000D02*
X172370000Y-104030000D01*
X208050000Y-91110000D02*
X172370000Y-91110000D01*
X208050000Y-96570000D02*
X208050000Y-91110000D01*
X208050000Y-98570000D02*
G75*
G02*
X208050000Y-96570000I0J1000000D01*
G01*
X196250000Y-109850000D02*
X195650000Y-109850000D01*
X196950000Y-107750000D02*
X196950000Y-109150000D01*
X195650000Y-107050000D02*
X196250000Y-107050000D01*
X194950000Y-109150000D02*
X194950000Y-107750000D01*
X194950000Y-107750000D02*
G75*
G02*
X195650000Y-107050000I700000J0D01*
G01*
X196250000Y-107050000D02*
G75*
G02*
X196950000Y-107750000I0J-700000D01*
G01*
X196950000Y-109150000D02*
G75*
G02*
X196250000Y-109850000I-700000J0D01*
G01*
X195650000Y-109850000D02*
G75*
G02*
X194950000Y-109150000I0J700000D01*
G01*
X204050000Y-109850000D02*
X203450000Y-109850000D01*
X204750000Y-107750000D02*
X204750000Y-109150000D01*
X203450000Y-107050000D02*
X204050000Y-107050000D01*
X202750000Y-109150000D02*
X202750000Y-107750000D01*
X202750000Y-107750000D02*
G75*
G02*
X203450000Y-107050000I700000J0D01*
G01*
X204050000Y-107050000D02*
G75*
G02*
X204750000Y-107750000I0J-700000D01*
G01*
X204750000Y-109150000D02*
G75*
G02*
X204050000Y-109850000I-700000J0D01*
G01*
X203450000Y-109850000D02*
G75*
G02*
X202750000Y-109150000I0J700000D01*
G01*
X169100000Y-75300000D02*
X168500000Y-75300000D01*
X169800000Y-73200000D02*
X169800000Y-74600000D01*
X168500000Y-72500000D02*
X169100000Y-72500000D01*
X167800000Y-74600000D02*
X167800000Y-73200000D01*
X167800000Y-73200000D02*
G75*
G02*
X168500000Y-72500000I700000J0D01*
G01*
X169100000Y-72500000D02*
G75*
G02*
X169800000Y-73200000I0J-700000D01*
G01*
X169800000Y-74600000D02*
G75*
G02*
X169100000Y-75300000I-700000J0D01*
G01*
X168500000Y-75300000D02*
G75*
G02*
X167800000Y-74600000I0J700000D01*
G01*
X174500000Y-75300000D02*
X173900000Y-75300000D01*
X175200000Y-73200000D02*
X175200000Y-74600000D01*
X173900000Y-72500000D02*
X174500000Y-72500000D01*
X173200000Y-74600000D02*
X173200000Y-73200000D01*
X173200000Y-73200000D02*
G75*
G02*
X173900000Y-72500000I700000J0D01*
G01*
X174500000Y-72500000D02*
G75*
G02*
X175200000Y-73200000I0J-700000D01*
G01*
X175200000Y-74600000D02*
G75*
G02*
X174500000Y-75300000I-700000J0D01*
G01*
X173900000Y-75300000D02*
G75*
G02*
X173200000Y-74600000I0J700000D01*
G01*
D10*
X168933333Y-90957142D02*
X168885714Y-91004761D01*
X168742857Y-91052380D01*
X168647619Y-91052380D01*
X168504761Y-91004761D01*
X168409523Y-90909523D01*
X168361904Y-90814285D01*
X168314285Y-90623809D01*
X168314285Y-90480952D01*
X168361904Y-90290476D01*
X168409523Y-90195238D01*
X168504761Y-90100000D01*
X168647619Y-90052380D01*
X168742857Y-90052380D01*
X168885714Y-90100000D01*
X168933333Y-90147619D01*
X169885714Y-91052380D02*
X169314285Y-91052380D01*
X169600000Y-91052380D02*
X169600000Y-90052380D01*
X169504761Y-90195238D01*
X169409523Y-90290476D01*
X169314285Y-90338095D01*
X116633333Y-104607142D02*
X116585714Y-104654761D01*
X116442857Y-104702380D01*
X116347619Y-104702380D01*
X116204761Y-104654761D01*
X116109523Y-104559523D01*
X116061904Y-104464285D01*
X116014285Y-104273809D01*
X116014285Y-104130952D01*
X116061904Y-103940476D01*
X116109523Y-103845238D01*
X116204761Y-103750000D01*
X116347619Y-103702380D01*
X116442857Y-103702380D01*
X116585714Y-103750000D01*
X116633333Y-103797619D01*
X117014285Y-103797619D02*
X117061904Y-103750000D01*
X117157142Y-103702380D01*
X117395238Y-103702380D01*
X117490476Y-103750000D01*
X117538095Y-103797619D01*
X117585714Y-103892857D01*
X117585714Y-103988095D01*
X117538095Y-104130952D01*
X116966666Y-104702380D01*
X117585714Y-104702380D01*
X210283333Y-103757142D02*
X210235714Y-103804761D01*
X210092857Y-103852380D01*
X209997619Y-103852380D01*
X209854761Y-103804761D01*
X209759523Y-103709523D01*
X209711904Y-103614285D01*
X209664285Y-103423809D01*
X209664285Y-103280952D01*
X209711904Y-103090476D01*
X209759523Y-102995238D01*
X209854761Y-102900000D01*
X209997619Y-102852380D01*
X210092857Y-102852380D01*
X210235714Y-102900000D01*
X210283333Y-102947619D01*
X210616666Y-102852380D02*
X211235714Y-102852380D01*
X210902380Y-103233333D01*
X211045238Y-103233333D01*
X211140476Y-103280952D01*
X211188095Y-103328571D01*
X211235714Y-103423809D01*
X211235714Y-103661904D01*
X211188095Y-103757142D01*
X211140476Y-103804761D01*
X211045238Y-103852380D01*
X210759523Y-103852380D01*
X210664285Y-103804761D01*
X210616666Y-103757142D01*
X174661904Y-79152380D02*
X174661904Y-78152380D01*
X174900000Y-78152380D01*
X175042857Y-78200000D01*
X175138095Y-78295238D01*
X175185714Y-78390476D01*
X175233333Y-78580952D01*
X175233333Y-78723809D01*
X175185714Y-78914285D01*
X175138095Y-79009523D01*
X175042857Y-79104761D01*
X174900000Y-79152380D01*
X174661904Y-79152380D01*
X176185714Y-79152380D02*
X175614285Y-79152380D01*
X175900000Y-79152380D02*
X175900000Y-78152380D01*
X175804761Y-78295238D01*
X175709523Y-78390476D01*
X175614285Y-78438095D01*
X174661904Y-81852380D02*
X174661904Y-80852380D01*
X174900000Y-80852380D01*
X175042857Y-80900000D01*
X175138095Y-80995238D01*
X175185714Y-81090476D01*
X175233333Y-81280952D01*
X175233333Y-81423809D01*
X175185714Y-81614285D01*
X175138095Y-81709523D01*
X175042857Y-81804761D01*
X174900000Y-81852380D01*
X174661904Y-81852380D01*
X175614285Y-80947619D02*
X175661904Y-80900000D01*
X175757142Y-80852380D01*
X175995238Y-80852380D01*
X176090476Y-80900000D01*
X176138095Y-80947619D01*
X176185714Y-81042857D01*
X176185714Y-81138095D01*
X176138095Y-81280952D01*
X175566666Y-81852380D01*
X176185714Y-81852380D01*
X203338095Y-77652380D02*
X203338095Y-78461904D01*
X203385714Y-78557142D01*
X203433333Y-78604761D01*
X203528571Y-78652380D01*
X203719047Y-78652380D01*
X203814285Y-78604761D01*
X203861904Y-78557142D01*
X203909523Y-78461904D01*
X203909523Y-77652380D01*
X204338095Y-77747619D02*
X204385714Y-77700000D01*
X204480952Y-77652380D01*
X204719047Y-77652380D01*
X204814285Y-77700000D01*
X204861904Y-77747619D01*
X204909523Y-77842857D01*
X204909523Y-77938095D01*
X204861904Y-78080952D01*
X204290476Y-78652380D01*
X204909523Y-78652380D01*
X119238095Y-92402380D02*
X119238095Y-93211904D01*
X119285714Y-93307142D01*
X119333333Y-93354761D01*
X119428571Y-93402380D01*
X119619047Y-93402380D01*
X119714285Y-93354761D01*
X119761904Y-93307142D01*
X119809523Y-93211904D01*
X119809523Y-92402380D01*
X120190476Y-92402380D02*
X120809523Y-92402380D01*
X120476190Y-92783333D01*
X120619047Y-92783333D01*
X120714285Y-92830952D01*
X120761904Y-92878571D01*
X120809523Y-92973809D01*
X120809523Y-93211904D01*
X120761904Y-93307142D01*
X120714285Y-93354761D01*
X120619047Y-93402380D01*
X120333333Y-93402380D01*
X120238095Y-93354761D01*
X120190476Y-93307142D01*
X131388095Y-87402380D02*
X131388095Y-88211904D01*
X131435714Y-88307142D01*
X131483333Y-88354761D01*
X131578571Y-88402380D01*
X131769047Y-88402380D01*
X131864285Y-88354761D01*
X131911904Y-88307142D01*
X131959523Y-88211904D01*
X131959523Y-87402380D01*
X132864285Y-87735714D02*
X132864285Y-88402380D01*
X132626190Y-87354761D02*
X132388095Y-88069047D01*
X133007142Y-88069047D01*
X134671428Y-88307142D02*
X134623809Y-88354761D01*
X134480952Y-88402380D01*
X134385714Y-88402380D01*
X134242857Y-88354761D01*
X134147619Y-88259523D01*
X134100000Y-88164285D01*
X134052380Y-87973809D01*
X134052380Y-87830952D01*
X134100000Y-87640476D01*
X134147619Y-87545238D01*
X134242857Y-87450000D01*
X134385714Y-87402380D01*
X134480952Y-87402380D01*
X134623809Y-87450000D01*
X134671428Y-87497619D01*
X135100000Y-88402380D02*
X135100000Y-87402380D01*
X135100000Y-87878571D02*
X135671428Y-87878571D01*
X135671428Y-88402380D02*
X135671428Y-87402380D01*
X136719047Y-88402380D02*
X136385714Y-87926190D01*
X136147619Y-88402380D02*
X136147619Y-87402380D01*
X136528571Y-87402380D01*
X136623809Y-87450000D01*
X136671428Y-87497619D01*
X136719047Y-87592857D01*
X136719047Y-87735714D01*
X136671428Y-87830952D01*
X136623809Y-87878571D01*
X136528571Y-87926190D01*
X136147619Y-87926190D01*
X137147619Y-88021428D02*
X137909523Y-88021428D01*
X138957142Y-88402380D02*
X138623809Y-87926190D01*
X138385714Y-88402380D02*
X138385714Y-87402380D01*
X138766666Y-87402380D01*
X138861904Y-87450000D01*
X138909523Y-87497619D01*
X138957142Y-87592857D01*
X138957142Y-87735714D01*
X138909523Y-87830952D01*
X138861904Y-87878571D01*
X138766666Y-87926190D01*
X138385714Y-87926190D01*
X139576190Y-87402380D02*
X139766666Y-87402380D01*
X139861904Y-87450000D01*
X139957142Y-87545238D01*
X140004761Y-87735714D01*
X140004761Y-88069047D01*
X139957142Y-88259523D01*
X139861904Y-88354761D01*
X139766666Y-88402380D01*
X139576190Y-88402380D01*
X139480952Y-88354761D01*
X139385714Y-88259523D01*
X139338095Y-88069047D01*
X139338095Y-87735714D01*
X139385714Y-87545238D01*
X139480952Y-87450000D01*
X139576190Y-87402380D01*
X140433333Y-88402380D02*
X140433333Y-87402380D01*
X140766666Y-88116666D01*
X141100000Y-87402380D01*
X141100000Y-88402380D01*
X172988095Y-87402380D02*
X172988095Y-88211904D01*
X173035714Y-88307142D01*
X173083333Y-88354761D01*
X173178571Y-88402380D01*
X173369047Y-88402380D01*
X173464285Y-88354761D01*
X173511904Y-88307142D01*
X173559523Y-88211904D01*
X173559523Y-87402380D01*
X174511904Y-87402380D02*
X174035714Y-87402380D01*
X173988095Y-87878571D01*
X174035714Y-87830952D01*
X174130952Y-87783333D01*
X174369047Y-87783333D01*
X174464285Y-87830952D01*
X174511904Y-87878571D01*
X174559523Y-87973809D01*
X174559523Y-88211904D01*
X174511904Y-88307142D01*
X174464285Y-88354761D01*
X174369047Y-88402380D01*
X174130952Y-88402380D01*
X174035714Y-88354761D01*
X173988095Y-88307142D01*
X175723809Y-88402380D02*
X175723809Y-87402380D01*
X176104761Y-87402380D01*
X176200000Y-87450000D01*
X176247619Y-87497619D01*
X176295238Y-87592857D01*
X176295238Y-87735714D01*
X176247619Y-87830952D01*
X176200000Y-87878571D01*
X176104761Y-87926190D01*
X175723809Y-87926190D01*
X177295238Y-88402380D02*
X176961904Y-87926190D01*
X176723809Y-88402380D02*
X176723809Y-87402380D01*
X177104761Y-87402380D01*
X177200000Y-87450000D01*
X177247619Y-87497619D01*
X177295238Y-87592857D01*
X177295238Y-87735714D01*
X177247619Y-87830952D01*
X177200000Y-87878571D01*
X177104761Y-87926190D01*
X176723809Y-87926190D01*
X178247619Y-87450000D02*
X178152380Y-87402380D01*
X178009523Y-87402380D01*
X177866666Y-87450000D01*
X177771428Y-87545238D01*
X177723809Y-87640476D01*
X177676190Y-87830952D01*
X177676190Y-87973809D01*
X177723809Y-88164285D01*
X177771428Y-88259523D01*
X177866666Y-88354761D01*
X178009523Y-88402380D01*
X178104761Y-88402380D01*
X178247619Y-88354761D01*
X178295238Y-88307142D01*
X178295238Y-87973809D01*
X178104761Y-87973809D01*
X178723809Y-88021428D02*
X179485714Y-88021428D01*
X180533333Y-88402380D02*
X180200000Y-87926190D01*
X179961904Y-88402380D02*
X179961904Y-87402380D01*
X180342857Y-87402380D01*
X180438095Y-87450000D01*
X180485714Y-87497619D01*
X180533333Y-87592857D01*
X180533333Y-87735714D01*
X180485714Y-87830952D01*
X180438095Y-87878571D01*
X180342857Y-87926190D01*
X179961904Y-87926190D01*
X181152380Y-87402380D02*
X181342857Y-87402380D01*
X181438095Y-87450000D01*
X181533333Y-87545238D01*
X181580952Y-87735714D01*
X181580952Y-88069047D01*
X181533333Y-88259523D01*
X181438095Y-88354761D01*
X181342857Y-88402380D01*
X181152380Y-88402380D01*
X181057142Y-88354761D01*
X180961904Y-88259523D01*
X180914285Y-88069047D01*
X180914285Y-87735714D01*
X180961904Y-87545238D01*
X181057142Y-87450000D01*
X181152380Y-87402380D01*
X182009523Y-88402380D02*
X182009523Y-87402380D01*
X182342857Y-88116666D01*
X182676190Y-87402380D01*
X182676190Y-88402380D01*
X191259523Y-107902380D02*
X191878571Y-107902380D01*
X191545238Y-108283333D01*
X191688095Y-108283333D01*
X191783333Y-108330952D01*
X191830952Y-108378571D01*
X191878571Y-108473809D01*
X191878571Y-108711904D01*
X191830952Y-108807142D01*
X191783333Y-108854761D01*
X191688095Y-108902380D01*
X191402380Y-108902380D01*
X191307142Y-108854761D01*
X191259523Y-108807142D01*
X192259523Y-107997619D02*
X192307142Y-107950000D01*
X192402380Y-107902380D01*
X192640476Y-107902380D01*
X192735714Y-107950000D01*
X192783333Y-107997619D01*
X192830952Y-108092857D01*
X192830952Y-108188095D01*
X192783333Y-108330952D01*
X192211904Y-108902380D01*
X192830952Y-108902380D01*
X193164285Y-108902380D02*
X193688095Y-108235714D01*
X193164285Y-108235714D02*
X193688095Y-108902380D01*
X194211904Y-108330952D02*
X194116666Y-108283333D01*
X194069047Y-108235714D01*
X194021428Y-108140476D01*
X194021428Y-108092857D01*
X194069047Y-107997619D01*
X194116666Y-107950000D01*
X194211904Y-107902380D01*
X194402380Y-107902380D01*
X194497619Y-107950000D01*
X194545238Y-107997619D01*
X194592857Y-108092857D01*
X194592857Y-108140476D01*
X194545238Y-108235714D01*
X194497619Y-108283333D01*
X194402380Y-108330952D01*
X194211904Y-108330952D01*
X194116666Y-108378571D01*
X194069047Y-108426190D01*
X194021428Y-108521428D01*
X194021428Y-108711904D01*
X194069047Y-108807142D01*
X194116666Y-108854761D01*
X194211904Y-108902380D01*
X194402380Y-108902380D01*
X194497619Y-108854761D01*
X194545238Y-108807142D01*
X194592857Y-108711904D01*
X194592857Y-108521428D01*
X194545238Y-108426190D01*
X194497619Y-108378571D01*
X194402380Y-108330952D01*
X205678571Y-108902380D02*
X205107142Y-108902380D01*
X205392857Y-108902380D02*
X205392857Y-107902380D01*
X205297619Y-108045238D01*
X205202380Y-108140476D01*
X205107142Y-108188095D01*
X206535714Y-107902380D02*
X206345238Y-107902380D01*
X206250000Y-107950000D01*
X206202380Y-107997619D01*
X206107142Y-108140476D01*
X206059523Y-108330952D01*
X206059523Y-108711904D01*
X206107142Y-108807142D01*
X206154761Y-108854761D01*
X206250000Y-108902380D01*
X206440476Y-108902380D01*
X206535714Y-108854761D01*
X206583333Y-108807142D01*
X206630952Y-108711904D01*
X206630952Y-108473809D01*
X206583333Y-108378571D01*
X206535714Y-108330952D01*
X206440476Y-108283333D01*
X206250000Y-108283333D01*
X206154761Y-108330952D01*
X206107142Y-108378571D01*
X206059523Y-108473809D01*
X206964285Y-108902380D02*
X207488095Y-108235714D01*
X206964285Y-108235714D02*
X207488095Y-108902380D01*
X208011904Y-108330952D02*
X207916666Y-108283333D01*
X207869047Y-108235714D01*
X207821428Y-108140476D01*
X207821428Y-108092857D01*
X207869047Y-107997619D01*
X207916666Y-107950000D01*
X208011904Y-107902380D01*
X208202380Y-107902380D01*
X208297619Y-107950000D01*
X208345238Y-107997619D01*
X208392857Y-108092857D01*
X208392857Y-108140476D01*
X208345238Y-108235714D01*
X208297619Y-108283333D01*
X208202380Y-108330952D01*
X208011904Y-108330952D01*
X207916666Y-108378571D01*
X207869047Y-108426190D01*
X207821428Y-108521428D01*
X207821428Y-108711904D01*
X207869047Y-108807142D01*
X207916666Y-108854761D01*
X208011904Y-108902380D01*
X208202380Y-108902380D01*
X208297619Y-108854761D01*
X208345238Y-108807142D01*
X208392857Y-108711904D01*
X208392857Y-108521428D01*
X208345238Y-108426190D01*
X208297619Y-108378571D01*
X208202380Y-108330952D01*
X168514285Y-72002380D02*
X168514285Y-71002380D01*
X168514285Y-71478571D02*
X169085714Y-71478571D01*
X169085714Y-72002380D02*
X169085714Y-71002380D01*
X173866666Y-71002380D02*
X174200000Y-72002380D01*
X174533333Y-71002380D01*
%LPC*%
D12*
G36*
X210000000Y-125000000D02*
G01*
X116500000Y-125000000D01*
X116500000Y-113700000D01*
X210000000Y-113700000D01*
X210000000Y-125000000D01*
G37*
X210000000Y-125000000D02*
X116500000Y-125000000D01*
X116500000Y-113700000D01*
X210000000Y-113700000D01*
X210000000Y-125000000D01*
G36*
G01*
X167700000Y-88150000D02*
X167700000Y-86950000D01*
G75*
G02*
X167750000Y-86900000I50000J0D01*
G01*
X168950000Y-86900000D01*
G75*
G02*
X169000000Y-86950000I0J-50000D01*
G01*
X169000000Y-88150000D01*
G75*
G02*
X168950000Y-88200000I-50000J0D01*
G01*
X167750000Y-88200000D01*
G75*
G02*
X167700000Y-88150000I0J50000D01*
G01*
G37*
D13*
X169850000Y-87550000D03*
D14*
X116800000Y-94900000D03*
D15*
X116800000Y-102400000D03*
X210450000Y-101550000D03*
D14*
X210450000Y-94050000D03*
X178920000Y-78700000D03*
G36*
G01*
X170450000Y-79500000D02*
X170450000Y-77900000D01*
G75*
G02*
X170500000Y-77850000I50000J0D01*
G01*
X172100000Y-77850000D01*
G75*
G02*
X172150000Y-77900000I0J-50000D01*
G01*
X172150000Y-79500000D01*
G75*
G02*
X172100000Y-79550000I-50000J0D01*
G01*
X170500000Y-79550000D01*
G75*
G02*
X170450000Y-79500000I0J50000D01*
G01*
G37*
G36*
G01*
X170450000Y-82200000D02*
X170450000Y-80600000D01*
G75*
G02*
X170500000Y-80550000I50000J0D01*
G01*
X172100000Y-80550000D01*
G75*
G02*
X172150000Y-80600000I0J-50000D01*
G01*
X172150000Y-82200000D01*
G75*
G02*
X172100000Y-82250000I-50000J0D01*
G01*
X170500000Y-82250000D01*
G75*
G02*
X170450000Y-82200000I0J50000D01*
G01*
G37*
X178920000Y-81400000D03*
X201500000Y-81920000D03*
X183720000Y-74300000D03*
X198960000Y-81920000D03*
X186260000Y-74300000D03*
X196420000Y-81920000D03*
X188800000Y-74300000D03*
X193880000Y-81920000D03*
X191340000Y-74300000D03*
X191340000Y-81920000D03*
X193880000Y-74300000D03*
X188800000Y-81920000D03*
X196420000Y-74300000D03*
X186260000Y-81920000D03*
X198960000Y-74300000D03*
X183720000Y-81920000D03*
G36*
G01*
X200700000Y-73450000D02*
X202300000Y-73450000D01*
G75*
G02*
X202350000Y-73500000I0J-50000D01*
G01*
X202350000Y-75100000D01*
G75*
G02*
X202300000Y-75150000I-50000J0D01*
G01*
X200700000Y-75150000D01*
G75*
G02*
X200650000Y-75100000I0J50000D01*
G01*
X200650000Y-73500000D01*
G75*
G02*
X200700000Y-73450000I50000J0D01*
G01*
G37*
G36*
G01*
X127250000Y-93900000D02*
X128850000Y-93900000D01*
G75*
G02*
X128900000Y-93950000I0J-50000D01*
G01*
X128900000Y-95550000D01*
G75*
G02*
X128850000Y-95600000I-50000J0D01*
G01*
X127250000Y-95600000D01*
G75*
G02*
X127200000Y-95550000I0J50000D01*
G01*
X127200000Y-93950000D01*
G75*
G02*
X127250000Y-93900000I50000J0D01*
G01*
G37*
X120430000Y-102370000D03*
X125510000Y-94750000D03*
X122970000Y-102370000D03*
X122970000Y-94750000D03*
X125510000Y-102370000D03*
X120430000Y-94750000D03*
X128050000Y-102370000D03*
G36*
G01*
X164350000Y-89100000D02*
X165950000Y-89100000D01*
G75*
G02*
X166000000Y-89150000I0J-50000D01*
G01*
X166000000Y-90750000D01*
G75*
G02*
X165950000Y-90800000I-50000J0D01*
G01*
X164350000Y-90800000D01*
G75*
G02*
X164300000Y-90750000I0J50000D01*
G01*
X164300000Y-89150000D01*
G75*
G02*
X164350000Y-89100000I50000J0D01*
G01*
G37*
X132130000Y-105190000D03*
X162610000Y-89950000D03*
X134670000Y-105190000D03*
X160070000Y-89950000D03*
X137210000Y-105190000D03*
X157530000Y-89950000D03*
X139750000Y-105190000D03*
X154990000Y-89950000D03*
X142290000Y-105190000D03*
X152450000Y-89950000D03*
X144830000Y-105190000D03*
X149910000Y-89950000D03*
X147370000Y-105190000D03*
X147370000Y-89950000D03*
X149910000Y-105190000D03*
X144830000Y-89950000D03*
X152450000Y-105190000D03*
X142290000Y-89950000D03*
X154990000Y-105190000D03*
X139750000Y-89950000D03*
X157530000Y-105190000D03*
X137210000Y-89950000D03*
X160070000Y-105190000D03*
X134670000Y-89950000D03*
X162610000Y-105190000D03*
X132130000Y-89950000D03*
X165150000Y-105190000D03*
X206720000Y-105190000D03*
X173700000Y-89950000D03*
X204180000Y-105190000D03*
X176240000Y-89950000D03*
X201640000Y-105190000D03*
X178780000Y-89950000D03*
X199100000Y-105190000D03*
X181320000Y-89950000D03*
X196560000Y-105190000D03*
X183860000Y-89950000D03*
X194020000Y-105190000D03*
X186400000Y-89950000D03*
X191480000Y-105190000D03*
X188940000Y-89950000D03*
X188940000Y-105190000D03*
X191480000Y-89950000D03*
X186400000Y-105190000D03*
X194020000Y-89950000D03*
X183860000Y-105190000D03*
X196560000Y-89950000D03*
X181320000Y-105190000D03*
X199100000Y-89950000D03*
X178780000Y-105190000D03*
X201640000Y-89950000D03*
X176240000Y-105190000D03*
X204180000Y-89950000D03*
X173700000Y-105190000D03*
G36*
G01*
X205920000Y-89100000D02*
X207520000Y-89100000D01*
G75*
G02*
X207570000Y-89150000I0J-50000D01*
G01*
X207570000Y-90750000D01*
G75*
G02*
X207520000Y-90800000I-50000J0D01*
G01*
X205920000Y-90800000D01*
G75*
G02*
X205870000Y-90750000I0J50000D01*
G01*
X205870000Y-89150000D01*
G75*
G02*
X205920000Y-89100000I50000J0D01*
G01*
G37*
D12*
G36*
X195150602Y-107793889D02*
G01*
X195150602Y-107775466D01*
X195150843Y-107770565D01*
X195155653Y-107721734D01*
X195156373Y-107716881D01*
X195165945Y-107668756D01*
X195167137Y-107663995D01*
X195181381Y-107617040D01*
X195183034Y-107612421D01*
X195201811Y-107567088D01*
X195203909Y-107562651D01*
X195227040Y-107519378D01*
X195229562Y-107515171D01*
X195256822Y-107474372D01*
X195259746Y-107470430D01*
X195290874Y-107432501D01*
X195294169Y-107428866D01*
X195328866Y-107394169D01*
X195332501Y-107390874D01*
X195370430Y-107359746D01*
X195374372Y-107356822D01*
X195415171Y-107329562D01*
X195419378Y-107327040D01*
X195462651Y-107303909D01*
X195467088Y-107301811D01*
X195512421Y-107283034D01*
X195517040Y-107281381D01*
X195563995Y-107267137D01*
X195568756Y-107265945D01*
X195616881Y-107256373D01*
X195621734Y-107255653D01*
X195670565Y-107250843D01*
X195675466Y-107250602D01*
X195693889Y-107250602D01*
X195700000Y-107250000D01*
X196200000Y-107250000D01*
X196206111Y-107250602D01*
X196224534Y-107250602D01*
X196229435Y-107250843D01*
X196278266Y-107255653D01*
X196283119Y-107256373D01*
X196331244Y-107265945D01*
X196336005Y-107267137D01*
X196382960Y-107281381D01*
X196387579Y-107283034D01*
X196432912Y-107301811D01*
X196437349Y-107303909D01*
X196480622Y-107327040D01*
X196484829Y-107329562D01*
X196525628Y-107356822D01*
X196529570Y-107359746D01*
X196567499Y-107390874D01*
X196571134Y-107394169D01*
X196605831Y-107428866D01*
X196609126Y-107432501D01*
X196640254Y-107470430D01*
X196643178Y-107474372D01*
X196670438Y-107515171D01*
X196672960Y-107519378D01*
X196696091Y-107562651D01*
X196698189Y-107567088D01*
X196716966Y-107612421D01*
X196718619Y-107617040D01*
X196732863Y-107663995D01*
X196734055Y-107668756D01*
X196743627Y-107716881D01*
X196744347Y-107721734D01*
X196749157Y-107770565D01*
X196749398Y-107775466D01*
X196749398Y-107793889D01*
X196750000Y-107800000D01*
X196750000Y-108300000D01*
X196749039Y-108309755D01*
X196746194Y-108319134D01*
X196741573Y-108327779D01*
X196735355Y-108335355D01*
X196727779Y-108341573D01*
X196719134Y-108346194D01*
X196709755Y-108349039D01*
X196700000Y-108350000D01*
X195200000Y-108350000D01*
X195190245Y-108349039D01*
X195180866Y-108346194D01*
X195172221Y-108341573D01*
X195164645Y-108335355D01*
X195158427Y-108327779D01*
X195153806Y-108319134D01*
X195150961Y-108309755D01*
X195150000Y-108300000D01*
X195150000Y-107800000D01*
X195150602Y-107793889D01*
G37*
G36*
X195150961Y-108590245D02*
G01*
X195153806Y-108580866D01*
X195158427Y-108572221D01*
X195164645Y-108564645D01*
X195172221Y-108558427D01*
X195180866Y-108553806D01*
X195190245Y-108550961D01*
X195200000Y-108550000D01*
X196700000Y-108550000D01*
X196709755Y-108550961D01*
X196719134Y-108553806D01*
X196727779Y-108558427D01*
X196735355Y-108564645D01*
X196741573Y-108572221D01*
X196746194Y-108580866D01*
X196749039Y-108590245D01*
X196750000Y-108600000D01*
X196750000Y-109100000D01*
X196749398Y-109106111D01*
X196749398Y-109124534D01*
X196749157Y-109129435D01*
X196744347Y-109178266D01*
X196743627Y-109183119D01*
X196734055Y-109231244D01*
X196732863Y-109236005D01*
X196718619Y-109282960D01*
X196716966Y-109287579D01*
X196698189Y-109332912D01*
X196696091Y-109337349D01*
X196672960Y-109380622D01*
X196670438Y-109384829D01*
X196643178Y-109425628D01*
X196640254Y-109429570D01*
X196609126Y-109467499D01*
X196605831Y-109471134D01*
X196571134Y-109505831D01*
X196567499Y-109509126D01*
X196529570Y-109540254D01*
X196525628Y-109543178D01*
X196484829Y-109570438D01*
X196480622Y-109572960D01*
X196437349Y-109596091D01*
X196432912Y-109598189D01*
X196387579Y-109616966D01*
X196382960Y-109618619D01*
X196336005Y-109632863D01*
X196331244Y-109634055D01*
X196283119Y-109643627D01*
X196278266Y-109644347D01*
X196229435Y-109649157D01*
X196224534Y-109649398D01*
X196206111Y-109649398D01*
X196200000Y-109650000D01*
X195700000Y-109650000D01*
X195693889Y-109649398D01*
X195675466Y-109649398D01*
X195670565Y-109649157D01*
X195621734Y-109644347D01*
X195616881Y-109643627D01*
X195568756Y-109634055D01*
X195563995Y-109632863D01*
X195517040Y-109618619D01*
X195512421Y-109616966D01*
X195467088Y-109598189D01*
X195462651Y-109596091D01*
X195419378Y-109572960D01*
X195415171Y-109570438D01*
X195374372Y-109543178D01*
X195370430Y-109540254D01*
X195332501Y-109509126D01*
X195328866Y-109505831D01*
X195294169Y-109471134D01*
X195290874Y-109467499D01*
X195259746Y-109429570D01*
X195256822Y-109425628D01*
X195229562Y-109384829D01*
X195227040Y-109380622D01*
X195203909Y-109337349D01*
X195201811Y-109332912D01*
X195183034Y-109287579D01*
X195181381Y-109282960D01*
X195167137Y-109236005D01*
X195165945Y-109231244D01*
X195156373Y-109183119D01*
X195155653Y-109178266D01*
X195150843Y-109129435D01*
X195150602Y-109124534D01*
X195150602Y-109106111D01*
X195150000Y-109100000D01*
X195150000Y-108600000D01*
X195150961Y-108590245D01*
G37*
G36*
X202950961Y-108590245D02*
G01*
X202953806Y-108580866D01*
X202958427Y-108572221D01*
X202964645Y-108564645D01*
X202972221Y-108558427D01*
X202980866Y-108553806D01*
X202990245Y-108550961D01*
X203000000Y-108550000D01*
X204500000Y-108550000D01*
X204509755Y-108550961D01*
X204519134Y-108553806D01*
X204527779Y-108558427D01*
X204535355Y-108564645D01*
X204541573Y-108572221D01*
X204546194Y-108580866D01*
X204549039Y-108590245D01*
X204550000Y-108600000D01*
X204550000Y-109100000D01*
X204549398Y-109106111D01*
X204549398Y-109124534D01*
X204549157Y-109129435D01*
X204544347Y-109178266D01*
X204543627Y-109183119D01*
X204534055Y-109231244D01*
X204532863Y-109236005D01*
X204518619Y-109282960D01*
X204516966Y-109287579D01*
X204498189Y-109332912D01*
X204496091Y-109337349D01*
X204472960Y-109380622D01*
X204470438Y-109384829D01*
X204443178Y-109425628D01*
X204440254Y-109429570D01*
X204409126Y-109467499D01*
X204405831Y-109471134D01*
X204371134Y-109505831D01*
X204367499Y-109509126D01*
X204329570Y-109540254D01*
X204325628Y-109543178D01*
X204284829Y-109570438D01*
X204280622Y-109572960D01*
X204237349Y-109596091D01*
X204232912Y-109598189D01*
X204187579Y-109616966D01*
X204182960Y-109618619D01*
X204136005Y-109632863D01*
X204131244Y-109634055D01*
X204083119Y-109643627D01*
X204078266Y-109644347D01*
X204029435Y-109649157D01*
X204024534Y-109649398D01*
X204006111Y-109649398D01*
X204000000Y-109650000D01*
X203500000Y-109650000D01*
X203493889Y-109649398D01*
X203475466Y-109649398D01*
X203470565Y-109649157D01*
X203421734Y-109644347D01*
X203416881Y-109643627D01*
X203368756Y-109634055D01*
X203363995Y-109632863D01*
X203317040Y-109618619D01*
X203312421Y-109616966D01*
X203267088Y-109598189D01*
X203262651Y-109596091D01*
X203219378Y-109572960D01*
X203215171Y-109570438D01*
X203174372Y-109543178D01*
X203170430Y-109540254D01*
X203132501Y-109509126D01*
X203128866Y-109505831D01*
X203094169Y-109471134D01*
X203090874Y-109467499D01*
X203059746Y-109429570D01*
X203056822Y-109425628D01*
X203029562Y-109384829D01*
X203027040Y-109380622D01*
X203003909Y-109337349D01*
X203001811Y-109332912D01*
X202983034Y-109287579D01*
X202981381Y-109282960D01*
X202967137Y-109236005D01*
X202965945Y-109231244D01*
X202956373Y-109183119D01*
X202955653Y-109178266D01*
X202950843Y-109129435D01*
X202950602Y-109124534D01*
X202950602Y-109106111D01*
X202950000Y-109100000D01*
X202950000Y-108600000D01*
X202950961Y-108590245D01*
G37*
G36*
X202950602Y-107793889D02*
G01*
X202950602Y-107775466D01*
X202950843Y-107770565D01*
X202955653Y-107721734D01*
X202956373Y-107716881D01*
X202965945Y-107668756D01*
X202967137Y-107663995D01*
X202981381Y-107617040D01*
X202983034Y-107612421D01*
X203001811Y-107567088D01*
X203003909Y-107562651D01*
X203027040Y-107519378D01*
X203029562Y-107515171D01*
X203056822Y-107474372D01*
X203059746Y-107470430D01*
X203090874Y-107432501D01*
X203094169Y-107428866D01*
X203128866Y-107394169D01*
X203132501Y-107390874D01*
X203170430Y-107359746D01*
X203174372Y-107356822D01*
X203215171Y-107329562D01*
X203219378Y-107327040D01*
X203262651Y-107303909D01*
X203267088Y-107301811D01*
X203312421Y-107283034D01*
X203317040Y-107281381D01*
X203363995Y-107267137D01*
X203368756Y-107265945D01*
X203416881Y-107256373D01*
X203421734Y-107255653D01*
X203470565Y-107250843D01*
X203475466Y-107250602D01*
X203493889Y-107250602D01*
X203500000Y-107250000D01*
X204000000Y-107250000D01*
X204006111Y-107250602D01*
X204024534Y-107250602D01*
X204029435Y-107250843D01*
X204078266Y-107255653D01*
X204083119Y-107256373D01*
X204131244Y-107265945D01*
X204136005Y-107267137D01*
X204182960Y-107281381D01*
X204187579Y-107283034D01*
X204232912Y-107301811D01*
X204237349Y-107303909D01*
X204280622Y-107327040D01*
X204284829Y-107329562D01*
X204325628Y-107356822D01*
X204329570Y-107359746D01*
X204367499Y-107390874D01*
X204371134Y-107394169D01*
X204405831Y-107428866D01*
X204409126Y-107432501D01*
X204440254Y-107470430D01*
X204443178Y-107474372D01*
X204470438Y-107515171D01*
X204472960Y-107519378D01*
X204496091Y-107562651D01*
X204498189Y-107567088D01*
X204516966Y-107612421D01*
X204518619Y-107617040D01*
X204532863Y-107663995D01*
X204534055Y-107668756D01*
X204543627Y-107716881D01*
X204544347Y-107721734D01*
X204549157Y-107770565D01*
X204549398Y-107775466D01*
X204549398Y-107793889D01*
X204550000Y-107800000D01*
X204550000Y-108300000D01*
X204549039Y-108309755D01*
X204546194Y-108319134D01*
X204541573Y-108327779D01*
X204535355Y-108335355D01*
X204527779Y-108341573D01*
X204519134Y-108346194D01*
X204509755Y-108349039D01*
X204500000Y-108350000D01*
X203000000Y-108350000D01*
X202990245Y-108349039D01*
X202980866Y-108346194D01*
X202972221Y-108341573D01*
X202964645Y-108335355D01*
X202958427Y-108327779D01*
X202953806Y-108319134D01*
X202950961Y-108309755D01*
X202950000Y-108300000D01*
X202950000Y-107800000D01*
X202950602Y-107793889D01*
G37*
G36*
X168000961Y-74040245D02*
G01*
X168003806Y-74030866D01*
X168008427Y-74022221D01*
X168014645Y-74014645D01*
X168022221Y-74008427D01*
X168030866Y-74003806D01*
X168040245Y-74000961D01*
X168050000Y-74000000D01*
X169550000Y-74000000D01*
X169559755Y-74000961D01*
X169569134Y-74003806D01*
X169577779Y-74008427D01*
X169585355Y-74014645D01*
X169591573Y-74022221D01*
X169596194Y-74030866D01*
X169599039Y-74040245D01*
X169600000Y-74050000D01*
X169600000Y-74550000D01*
X169599398Y-74556111D01*
X169599398Y-74574534D01*
X169599157Y-74579435D01*
X169594347Y-74628266D01*
X169593627Y-74633119D01*
X169584055Y-74681244D01*
X169582863Y-74686005D01*
X169568619Y-74732960D01*
X169566966Y-74737579D01*
X169548189Y-74782912D01*
X169546091Y-74787349D01*
X169522960Y-74830622D01*
X169520438Y-74834829D01*
X169493178Y-74875628D01*
X169490254Y-74879570D01*
X169459126Y-74917499D01*
X169455831Y-74921134D01*
X169421134Y-74955831D01*
X169417499Y-74959126D01*
X169379570Y-74990254D01*
X169375628Y-74993178D01*
X169334829Y-75020438D01*
X169330622Y-75022960D01*
X169287349Y-75046091D01*
X169282912Y-75048189D01*
X169237579Y-75066966D01*
X169232960Y-75068619D01*
X169186005Y-75082863D01*
X169181244Y-75084055D01*
X169133119Y-75093627D01*
X169128266Y-75094347D01*
X169079435Y-75099157D01*
X169074534Y-75099398D01*
X169056111Y-75099398D01*
X169050000Y-75100000D01*
X168550000Y-75100000D01*
X168543889Y-75099398D01*
X168525466Y-75099398D01*
X168520565Y-75099157D01*
X168471734Y-75094347D01*
X168466881Y-75093627D01*
X168418756Y-75084055D01*
X168413995Y-75082863D01*
X168367040Y-75068619D01*
X168362421Y-75066966D01*
X168317088Y-75048189D01*
X168312651Y-75046091D01*
X168269378Y-75022960D01*
X168265171Y-75020438D01*
X168224372Y-74993178D01*
X168220430Y-74990254D01*
X168182501Y-74959126D01*
X168178866Y-74955831D01*
X168144169Y-74921134D01*
X168140874Y-74917499D01*
X168109746Y-74879570D01*
X168106822Y-74875628D01*
X168079562Y-74834829D01*
X168077040Y-74830622D01*
X168053909Y-74787349D01*
X168051811Y-74782912D01*
X168033034Y-74737579D01*
X168031381Y-74732960D01*
X168017137Y-74686005D01*
X168015945Y-74681244D01*
X168006373Y-74633119D01*
X168005653Y-74628266D01*
X168000843Y-74579435D01*
X168000602Y-74574534D01*
X168000602Y-74556111D01*
X168000000Y-74550000D01*
X168000000Y-74050000D01*
X168000961Y-74040245D01*
G37*
G36*
X168000602Y-73243889D02*
G01*
X168000602Y-73225466D01*
X168000843Y-73220565D01*
X168005653Y-73171734D01*
X168006373Y-73166881D01*
X168015945Y-73118756D01*
X168017137Y-73113995D01*
X168031381Y-73067040D01*
X168033034Y-73062421D01*
X168051811Y-73017088D01*
X168053909Y-73012651D01*
X168077040Y-72969378D01*
X168079562Y-72965171D01*
X168106822Y-72924372D01*
X168109746Y-72920430D01*
X168140874Y-72882501D01*
X168144169Y-72878866D01*
X168178866Y-72844169D01*
X168182501Y-72840874D01*
X168220430Y-72809746D01*
X168224372Y-72806822D01*
X168265171Y-72779562D01*
X168269378Y-72777040D01*
X168312651Y-72753909D01*
X168317088Y-72751811D01*
X168362421Y-72733034D01*
X168367040Y-72731381D01*
X168413995Y-72717137D01*
X168418756Y-72715945D01*
X168466881Y-72706373D01*
X168471734Y-72705653D01*
X168520565Y-72700843D01*
X168525466Y-72700602D01*
X168543889Y-72700602D01*
X168550000Y-72700000D01*
X169050000Y-72700000D01*
X169056111Y-72700602D01*
X169074534Y-72700602D01*
X169079435Y-72700843D01*
X169128266Y-72705653D01*
X169133119Y-72706373D01*
X169181244Y-72715945D01*
X169186005Y-72717137D01*
X169232960Y-72731381D01*
X169237579Y-72733034D01*
X169282912Y-72751811D01*
X169287349Y-72753909D01*
X169330622Y-72777040D01*
X169334829Y-72779562D01*
X169375628Y-72806822D01*
X169379570Y-72809746D01*
X169417499Y-72840874D01*
X169421134Y-72844169D01*
X169455831Y-72878866D01*
X169459126Y-72882501D01*
X169490254Y-72920430D01*
X169493178Y-72924372D01*
X169520438Y-72965171D01*
X169522960Y-72969378D01*
X169546091Y-73012651D01*
X169548189Y-73017088D01*
X169566966Y-73062421D01*
X169568619Y-73067040D01*
X169582863Y-73113995D01*
X169584055Y-73118756D01*
X169593627Y-73166881D01*
X169594347Y-73171734D01*
X169599157Y-73220565D01*
X169599398Y-73225466D01*
X169599398Y-73243889D01*
X169600000Y-73250000D01*
X169600000Y-73750000D01*
X169599039Y-73759755D01*
X169596194Y-73769134D01*
X169591573Y-73777779D01*
X169585355Y-73785355D01*
X169577779Y-73791573D01*
X169569134Y-73796194D01*
X169559755Y-73799039D01*
X169550000Y-73800000D01*
X168050000Y-73800000D01*
X168040245Y-73799039D01*
X168030866Y-73796194D01*
X168022221Y-73791573D01*
X168014645Y-73785355D01*
X168008427Y-73777779D01*
X168003806Y-73769134D01*
X168000961Y-73759755D01*
X168000000Y-73750000D01*
X168000000Y-73250000D01*
X168000602Y-73243889D01*
G37*
G36*
X173400961Y-74040245D02*
G01*
X173403806Y-74030866D01*
X173408427Y-74022221D01*
X173414645Y-74014645D01*
X173422221Y-74008427D01*
X173430866Y-74003806D01*
X173440245Y-74000961D01*
X173450000Y-74000000D01*
X174950000Y-74000000D01*
X174959755Y-74000961D01*
X174969134Y-74003806D01*
X174977779Y-74008427D01*
X174985355Y-74014645D01*
X174991573Y-74022221D01*
X174996194Y-74030866D01*
X174999039Y-74040245D01*
X175000000Y-74050000D01*
X175000000Y-74550000D01*
X174999398Y-74556111D01*
X174999398Y-74574534D01*
X174999157Y-74579435D01*
X174994347Y-74628266D01*
X174993627Y-74633119D01*
X174984055Y-74681244D01*
X174982863Y-74686005D01*
X174968619Y-74732960D01*
X174966966Y-74737579D01*
X174948189Y-74782912D01*
X174946091Y-74787349D01*
X174922960Y-74830622D01*
X174920438Y-74834829D01*
X174893178Y-74875628D01*
X174890254Y-74879570D01*
X174859126Y-74917499D01*
X174855831Y-74921134D01*
X174821134Y-74955831D01*
X174817499Y-74959126D01*
X174779570Y-74990254D01*
X174775628Y-74993178D01*
X174734829Y-75020438D01*
X174730622Y-75022960D01*
X174687349Y-75046091D01*
X174682912Y-75048189D01*
X174637579Y-75066966D01*
X174632960Y-75068619D01*
X174586005Y-75082863D01*
X174581244Y-75084055D01*
X174533119Y-75093627D01*
X174528266Y-75094347D01*
X174479435Y-75099157D01*
X174474534Y-75099398D01*
X174456111Y-75099398D01*
X174450000Y-75100000D01*
X173950000Y-75100000D01*
X173943889Y-75099398D01*
X173925466Y-75099398D01*
X173920565Y-75099157D01*
X173871734Y-75094347D01*
X173866881Y-75093627D01*
X173818756Y-75084055D01*
X173813995Y-75082863D01*
X173767040Y-75068619D01*
X173762421Y-75066966D01*
X173717088Y-75048189D01*
X173712651Y-75046091D01*
X173669378Y-75022960D01*
X173665171Y-75020438D01*
X173624372Y-74993178D01*
X173620430Y-74990254D01*
X173582501Y-74959126D01*
X173578866Y-74955831D01*
X173544169Y-74921134D01*
X173540874Y-74917499D01*
X173509746Y-74879570D01*
X173506822Y-74875628D01*
X173479562Y-74834829D01*
X173477040Y-74830622D01*
X173453909Y-74787349D01*
X173451811Y-74782912D01*
X173433034Y-74737579D01*
X173431381Y-74732960D01*
X173417137Y-74686005D01*
X173415945Y-74681244D01*
X173406373Y-74633119D01*
X173405653Y-74628266D01*
X173400843Y-74579435D01*
X173400602Y-74574534D01*
X173400602Y-74556111D01*
X173400000Y-74550000D01*
X173400000Y-74050000D01*
X173400961Y-74040245D01*
G37*
G36*
X173400602Y-73243889D02*
G01*
X173400602Y-73225466D01*
X173400843Y-73220565D01*
X173405653Y-73171734D01*
X173406373Y-73166881D01*
X173415945Y-73118756D01*
X173417137Y-73113995D01*
X173431381Y-73067040D01*
X173433034Y-73062421D01*
X173451811Y-73017088D01*
X173453909Y-73012651D01*
X173477040Y-72969378D01*
X173479562Y-72965171D01*
X173506822Y-72924372D01*
X173509746Y-72920430D01*
X173540874Y-72882501D01*
X173544169Y-72878866D01*
X173578866Y-72844169D01*
X173582501Y-72840874D01*
X173620430Y-72809746D01*
X173624372Y-72806822D01*
X173665171Y-72779562D01*
X173669378Y-72777040D01*
X173712651Y-72753909D01*
X173717088Y-72751811D01*
X173762421Y-72733034D01*
X173767040Y-72731381D01*
X173813995Y-72717137D01*
X173818756Y-72715945D01*
X173866881Y-72706373D01*
X173871734Y-72705653D01*
X173920565Y-72700843D01*
X173925466Y-72700602D01*
X173943889Y-72700602D01*
X173950000Y-72700000D01*
X174450000Y-72700000D01*
X174456111Y-72700602D01*
X174474534Y-72700602D01*
X174479435Y-72700843D01*
X174528266Y-72705653D01*
X174533119Y-72706373D01*
X174581244Y-72715945D01*
X174586005Y-72717137D01*
X174632960Y-72731381D01*
X174637579Y-72733034D01*
X174682912Y-72751811D01*
X174687349Y-72753909D01*
X174730622Y-72777040D01*
X174734829Y-72779562D01*
X174775628Y-72806822D01*
X174779570Y-72809746D01*
X174817499Y-72840874D01*
X174821134Y-72844169D01*
X174855831Y-72878866D01*
X174859126Y-72882501D01*
X174890254Y-72920430D01*
X174893178Y-72924372D01*
X174920438Y-72965171D01*
X174922960Y-72969378D01*
X174946091Y-73012651D01*
X174948189Y-73017088D01*
X174966966Y-73062421D01*
X174968619Y-73067040D01*
X174982863Y-73113995D01*
X174984055Y-73118756D01*
X174993627Y-73166881D01*
X174994347Y-73171734D01*
X174999157Y-73220565D01*
X174999398Y-73225466D01*
X174999398Y-73243889D01*
X175000000Y-73250000D01*
X175000000Y-73750000D01*
X174999039Y-73759755D01*
X174996194Y-73769134D01*
X174991573Y-73777779D01*
X174985355Y-73785355D01*
X174977779Y-73791573D01*
X174969134Y-73796194D01*
X174959755Y-73799039D01*
X174950000Y-73800000D01*
X173450000Y-73800000D01*
X173440245Y-73799039D01*
X173430866Y-73796194D01*
X173422221Y-73791573D01*
X173414645Y-73785355D01*
X173408427Y-73777779D01*
X173403806Y-73769134D01*
X173400961Y-73759755D01*
X173400000Y-73750000D01*
X173400000Y-73250000D01*
X173400602Y-73243889D01*
G37*
M02*
