G04 #@! TF.GenerationSoftware,KiCad,Pcbnew,(5.1.9)-1*
G04 #@! TF.CreationDate,2022-04-26T12:58:29-07:00*
G04 #@! TF.ProjectId,NES-CN-ROM-256-05,4e45532d-434e-42d5-924f-4d2d3235362d,v01*
G04 #@! TF.SameCoordinates,Original*
G04 #@! TF.FileFunction,Soldermask,Bot*
G04 #@! TF.FilePolarity,Negative*
%FSLAX46Y46*%
G04 Gerber Fmt 4.6, Leading zero omitted, Abs format (unit mm)*
G04 Created by KiCad (PCBNEW (5.1.9)-1) date 2022-04-26 12:58:29*
%MOMM*%
%LPD*%
G01*
G04 APERTURE LIST*
%ADD10C,0.100000*%
%ADD11C,1.300000*%
%ADD12O,1.700000X1.700000*%
%ADD13C,1.700000*%
G04 APERTURE END LIST*
D10*
G36*
X210000000Y-125000000D02*
G01*
X116500000Y-125000000D01*
X116500000Y-113700000D01*
X210000000Y-113700000D01*
X210000000Y-125000000D01*
G37*
X210000000Y-125000000D02*
X116500000Y-125000000D01*
X116500000Y-113700000D01*
X210000000Y-113700000D01*
X210000000Y-125000000D01*
G36*
G01*
X167700000Y-88150000D02*
X167700000Y-86950000D01*
G75*
G02*
X167750000Y-86900000I50000J0D01*
G01*
X168950000Y-86900000D01*
G75*
G02*
X169000000Y-86950000I0J-50000D01*
G01*
X169000000Y-88150000D01*
G75*
G02*
X168950000Y-88200000I-50000J0D01*
G01*
X167750000Y-88200000D01*
G75*
G02*
X167700000Y-88150000I0J50000D01*
G01*
G37*
D11*
X169850000Y-87550000D03*
D12*
X116800000Y-94900000D03*
D13*
X116800000Y-102400000D03*
X210450000Y-101550000D03*
D12*
X210450000Y-94050000D03*
X178920000Y-78700000D03*
G36*
G01*
X170450000Y-79500000D02*
X170450000Y-77900000D01*
G75*
G02*
X170500000Y-77850000I50000J0D01*
G01*
X172100000Y-77850000D01*
G75*
G02*
X172150000Y-77900000I0J-50000D01*
G01*
X172150000Y-79500000D01*
G75*
G02*
X172100000Y-79550000I-50000J0D01*
G01*
X170500000Y-79550000D01*
G75*
G02*
X170450000Y-79500000I0J50000D01*
G01*
G37*
G36*
G01*
X170450000Y-82200000D02*
X170450000Y-80600000D01*
G75*
G02*
X170500000Y-80550000I50000J0D01*
G01*
X172100000Y-80550000D01*
G75*
G02*
X172150000Y-80600000I0J-50000D01*
G01*
X172150000Y-82200000D01*
G75*
G02*
X172100000Y-82250000I-50000J0D01*
G01*
X170500000Y-82250000D01*
G75*
G02*
X170450000Y-82200000I0J50000D01*
G01*
G37*
X178920000Y-81400000D03*
X201500000Y-81920000D03*
X183720000Y-74300000D03*
X198960000Y-81920000D03*
X186260000Y-74300000D03*
X196420000Y-81920000D03*
X188800000Y-74300000D03*
X193880000Y-81920000D03*
X191340000Y-74300000D03*
X191340000Y-81920000D03*
X193880000Y-74300000D03*
X188800000Y-81920000D03*
X196420000Y-74300000D03*
X186260000Y-81920000D03*
X198960000Y-74300000D03*
X183720000Y-81920000D03*
G36*
G01*
X200700000Y-73450000D02*
X202300000Y-73450000D01*
G75*
G02*
X202350000Y-73500000I0J-50000D01*
G01*
X202350000Y-75100000D01*
G75*
G02*
X202300000Y-75150000I-50000J0D01*
G01*
X200700000Y-75150000D01*
G75*
G02*
X200650000Y-75100000I0J50000D01*
G01*
X200650000Y-73500000D01*
G75*
G02*
X200700000Y-73450000I50000J0D01*
G01*
G37*
G36*
G01*
X127250000Y-93900000D02*
X128850000Y-93900000D01*
G75*
G02*
X128900000Y-93950000I0J-50000D01*
G01*
X128900000Y-95550000D01*
G75*
G02*
X128850000Y-95600000I-50000J0D01*
G01*
X127250000Y-95600000D01*
G75*
G02*
X127200000Y-95550000I0J50000D01*
G01*
X127200000Y-93950000D01*
G75*
G02*
X127250000Y-93900000I50000J0D01*
G01*
G37*
X120430000Y-102370000D03*
X125510000Y-94750000D03*
X122970000Y-102370000D03*
X122970000Y-94750000D03*
X125510000Y-102370000D03*
X120430000Y-94750000D03*
X128050000Y-102370000D03*
G36*
G01*
X164350000Y-89100000D02*
X165950000Y-89100000D01*
G75*
G02*
X166000000Y-89150000I0J-50000D01*
G01*
X166000000Y-90750000D01*
G75*
G02*
X165950000Y-90800000I-50000J0D01*
G01*
X164350000Y-90800000D01*
G75*
G02*
X164300000Y-90750000I0J50000D01*
G01*
X164300000Y-89150000D01*
G75*
G02*
X164350000Y-89100000I50000J0D01*
G01*
G37*
X132130000Y-105190000D03*
X162610000Y-89950000D03*
X134670000Y-105190000D03*
X160070000Y-89950000D03*
X137210000Y-105190000D03*
X157530000Y-89950000D03*
X139750000Y-105190000D03*
X154990000Y-89950000D03*
X142290000Y-105190000D03*
X152450000Y-89950000D03*
X144830000Y-105190000D03*
X149910000Y-89950000D03*
X147370000Y-105190000D03*
X147370000Y-89950000D03*
X149910000Y-105190000D03*
X144830000Y-89950000D03*
X152450000Y-105190000D03*
X142290000Y-89950000D03*
X154990000Y-105190000D03*
X139750000Y-89950000D03*
X157530000Y-105190000D03*
X137210000Y-89950000D03*
X160070000Y-105190000D03*
X134670000Y-89950000D03*
X162610000Y-105190000D03*
X132130000Y-89950000D03*
X165150000Y-105190000D03*
X206720000Y-105190000D03*
X173700000Y-89950000D03*
X204180000Y-105190000D03*
X176240000Y-89950000D03*
X201640000Y-105190000D03*
X178780000Y-89950000D03*
X199100000Y-105190000D03*
X181320000Y-89950000D03*
X196560000Y-105190000D03*
X183860000Y-89950000D03*
X194020000Y-105190000D03*
X186400000Y-89950000D03*
X191480000Y-105190000D03*
X188940000Y-89950000D03*
X188940000Y-105190000D03*
X191480000Y-89950000D03*
X186400000Y-105190000D03*
X194020000Y-89950000D03*
X183860000Y-105190000D03*
X196560000Y-89950000D03*
X181320000Y-105190000D03*
X199100000Y-89950000D03*
X178780000Y-105190000D03*
X201640000Y-89950000D03*
X176240000Y-105190000D03*
X204180000Y-89950000D03*
X173700000Y-105190000D03*
G36*
G01*
X205920000Y-89100000D02*
X207520000Y-89100000D01*
G75*
G02*
X207570000Y-89150000I0J-50000D01*
G01*
X207570000Y-90750000D01*
G75*
G02*
X207520000Y-90800000I-50000J0D01*
G01*
X205920000Y-90800000D01*
G75*
G02*
X205870000Y-90750000I0J50000D01*
G01*
X205870000Y-89150000D01*
G75*
G02*
X205920000Y-89100000I50000J0D01*
G01*
G37*
M02*
