G04 #@! TF.GenerationSoftware,KiCad,Pcbnew,(5.1.9)-1*
G04 #@! TF.CreationDate,2022-04-26T12:58:29-07:00*
G04 #@! TF.ProjectId,NES-CN-ROM-256-05,4e45532d-434e-42d5-924f-4d2d3235362d,v01*
G04 #@! TF.SameCoordinates,Original*
G04 #@! TF.FileFunction,Legend,Bot*
G04 #@! TF.FilePolarity,Positive*
%FSLAX46Y46*%
G04 Gerber Fmt 4.6, Leading zero omitted, Abs format (unit mm)*
G04 Created by KiCad (PCBNEW (5.1.9)-1) date 2022-04-26 12:58:29*
%MOMM*%
%LPD*%
G01*
G04 APERTURE LIST*
%ADD10C,0.150000*%
%ADD11C,0.100000*%
%ADD12C,1.300000*%
%ADD13O,1.700000X1.700000*%
%ADD14C,1.700000*%
G04 APERTURE END LIST*
D10*
X134390476Y-86485714D02*
X134152380Y-87152380D01*
X133914285Y-86485714D01*
X133342857Y-86152380D02*
X133247619Y-86152380D01*
X133152380Y-86200000D01*
X133104761Y-86247619D01*
X133057142Y-86342857D01*
X133009523Y-86533333D01*
X133009523Y-86771428D01*
X133057142Y-86961904D01*
X133104761Y-87057142D01*
X133152380Y-87104761D01*
X133247619Y-87152380D01*
X133342857Y-87152380D01*
X133438095Y-87104761D01*
X133485714Y-87057142D01*
X133533333Y-86961904D01*
X133580952Y-86771428D01*
X133580952Y-86533333D01*
X133533333Y-86342857D01*
X133485714Y-86247619D01*
X133438095Y-86200000D01*
X133342857Y-86152380D01*
X132057142Y-87152380D02*
X132628571Y-87152380D01*
X132342857Y-87152380D02*
X132342857Y-86152380D01*
X132438095Y-86295238D01*
X132533333Y-86390476D01*
X132628571Y-86438095D01*
X129069047Y-86152380D02*
X129069047Y-86866666D01*
X129116666Y-87009523D01*
X129211904Y-87104761D01*
X129354761Y-87152380D01*
X129450000Y-87152380D01*
X128116666Y-87152380D02*
X128592857Y-87152380D01*
X128592857Y-86152380D01*
X127211904Y-87057142D02*
X127259523Y-87104761D01*
X127402380Y-87152380D01*
X127497619Y-87152380D01*
X127640476Y-87104761D01*
X127735714Y-87009523D01*
X127783333Y-86914285D01*
X127830952Y-86723809D01*
X127830952Y-86580952D01*
X127783333Y-86390476D01*
X127735714Y-86295238D01*
X127640476Y-86200000D01*
X127497619Y-86152380D01*
X127402380Y-86152380D01*
X127259523Y-86200000D01*
X127211904Y-86247619D01*
X126497619Y-86152380D02*
X126497619Y-86866666D01*
X126545238Y-87009523D01*
X126640476Y-87104761D01*
X126783333Y-87152380D01*
X126878571Y-87152380D01*
X125545238Y-87152380D02*
X126021428Y-87152380D01*
X126021428Y-86152380D01*
X124640476Y-87057142D02*
X124688095Y-87104761D01*
X124830952Y-87152380D01*
X124926190Y-87152380D01*
X125069047Y-87104761D01*
X125164285Y-87009523D01*
X125211904Y-86914285D01*
X125259523Y-86723809D01*
X125259523Y-86580952D01*
X125211904Y-86390476D01*
X125164285Y-86295238D01*
X125069047Y-86200000D01*
X124926190Y-86152380D01*
X124830952Y-86152380D01*
X124688095Y-86200000D01*
X124640476Y-86247619D01*
X123926190Y-86152380D02*
X123926190Y-86866666D01*
X123973809Y-87009523D01*
X124069047Y-87104761D01*
X124211904Y-87152380D01*
X124307142Y-87152380D01*
X122973809Y-87152380D02*
X123450000Y-87152380D01*
X123450000Y-86152380D01*
X122069047Y-87057142D02*
X122116666Y-87104761D01*
X122259523Y-87152380D01*
X122354761Y-87152380D01*
X122497619Y-87104761D01*
X122592857Y-87009523D01*
X122640476Y-86914285D01*
X122688095Y-86723809D01*
X122688095Y-86580952D01*
X122640476Y-86390476D01*
X122592857Y-86295238D01*
X122497619Y-86200000D01*
X122354761Y-86152380D01*
X122259523Y-86152380D01*
X122116666Y-86200000D01*
X122069047Y-86247619D01*
X121354761Y-86152380D02*
X121354761Y-86866666D01*
X121402380Y-87009523D01*
X121497619Y-87104761D01*
X121640476Y-87152380D01*
X121735714Y-87152380D01*
X120402380Y-87152380D02*
X120878571Y-87152380D01*
X120878571Y-86152380D01*
X119497619Y-87057142D02*
X119545238Y-87104761D01*
X119688095Y-87152380D01*
X119783333Y-87152380D01*
X119926190Y-87104761D01*
X120021428Y-87009523D01*
X120069047Y-86914285D01*
X120116666Y-86723809D01*
X120116666Y-86580952D01*
X120069047Y-86390476D01*
X120021428Y-86295238D01*
X119926190Y-86200000D01*
X119783333Y-86152380D01*
X119688095Y-86152380D01*
X119545238Y-86200000D01*
X119497619Y-86247619D01*
X125309523Y-112202380D02*
X124642857Y-112202380D01*
X125071428Y-113202380D01*
X124071428Y-112202380D02*
X123976190Y-112202380D01*
X123880952Y-112250000D01*
X123833333Y-112297619D01*
X123785714Y-112392857D01*
X123738095Y-112583333D01*
X123738095Y-112821428D01*
X123785714Y-113011904D01*
X123833333Y-113107142D01*
X123880952Y-113154761D01*
X123976190Y-113202380D01*
X124071428Y-113202380D01*
X124166666Y-113154761D01*
X124214285Y-113107142D01*
X124261904Y-113011904D01*
X124309523Y-112821428D01*
X124309523Y-112583333D01*
X124261904Y-112392857D01*
X124214285Y-112297619D01*
X124166666Y-112250000D01*
X124071428Y-112202380D01*
X137285714Y-112202380D02*
X137476190Y-112202380D01*
X137571428Y-112250000D01*
X137619047Y-112297619D01*
X137714285Y-112440476D01*
X137761904Y-112630952D01*
X137761904Y-113011904D01*
X137714285Y-113107142D01*
X137666666Y-113154761D01*
X137571428Y-113202380D01*
X137380952Y-113202380D01*
X137285714Y-113154761D01*
X137238095Y-113107142D01*
X137190476Y-113011904D01*
X137190476Y-112773809D01*
X137238095Y-112678571D01*
X137285714Y-112630952D01*
X137380952Y-112583333D01*
X137571428Y-112583333D01*
X137666666Y-112630952D01*
X137714285Y-112678571D01*
X137761904Y-112773809D01*
X136285714Y-112202380D02*
X136761904Y-112202380D01*
X136809523Y-112678571D01*
X136761904Y-112630952D01*
X136666666Y-112583333D01*
X136428571Y-112583333D01*
X136333333Y-112630952D01*
X136285714Y-112678571D01*
X136238095Y-112773809D01*
X136238095Y-113011904D01*
X136285714Y-113107142D01*
X136333333Y-113154761D01*
X136428571Y-113202380D01*
X136666666Y-113202380D01*
X136761904Y-113154761D01*
X136809523Y-113107142D01*
X149785714Y-112202380D02*
X149976190Y-112202380D01*
X150071428Y-112250000D01*
X150119047Y-112297619D01*
X150214285Y-112440476D01*
X150261904Y-112630952D01*
X150261904Y-113011904D01*
X150214285Y-113107142D01*
X150166666Y-113154761D01*
X150071428Y-113202380D01*
X149880952Y-113202380D01*
X149785714Y-113154761D01*
X149738095Y-113107142D01*
X149690476Y-113011904D01*
X149690476Y-112773809D01*
X149738095Y-112678571D01*
X149785714Y-112630952D01*
X149880952Y-112583333D01*
X150071428Y-112583333D01*
X150166666Y-112630952D01*
X150214285Y-112678571D01*
X150261904Y-112773809D01*
X149071428Y-112202380D02*
X148976190Y-112202380D01*
X148880952Y-112250000D01*
X148833333Y-112297619D01*
X148785714Y-112392857D01*
X148738095Y-112583333D01*
X148738095Y-112821428D01*
X148785714Y-113011904D01*
X148833333Y-113107142D01*
X148880952Y-113154761D01*
X148976190Y-113202380D01*
X149071428Y-113202380D01*
X149166666Y-113154761D01*
X149214285Y-113107142D01*
X149261904Y-113011904D01*
X149309523Y-112821428D01*
X149309523Y-112583333D01*
X149261904Y-112392857D01*
X149214285Y-112297619D01*
X149166666Y-112250000D01*
X149071428Y-112202380D01*
X162238095Y-112202380D02*
X162714285Y-112202380D01*
X162761904Y-112678571D01*
X162714285Y-112630952D01*
X162619047Y-112583333D01*
X162380952Y-112583333D01*
X162285714Y-112630952D01*
X162238095Y-112678571D01*
X162190476Y-112773809D01*
X162190476Y-113011904D01*
X162238095Y-113107142D01*
X162285714Y-113154761D01*
X162380952Y-113202380D01*
X162619047Y-113202380D01*
X162714285Y-113154761D01*
X162761904Y-113107142D01*
X161285714Y-112202380D02*
X161761904Y-112202380D01*
X161809523Y-112678571D01*
X161761904Y-112630952D01*
X161666666Y-112583333D01*
X161428571Y-112583333D01*
X161333333Y-112630952D01*
X161285714Y-112678571D01*
X161238095Y-112773809D01*
X161238095Y-113011904D01*
X161285714Y-113107142D01*
X161333333Y-113154761D01*
X161428571Y-113202380D01*
X161666666Y-113202380D01*
X161761904Y-113154761D01*
X161809523Y-113107142D01*
X174738095Y-112202380D02*
X175214285Y-112202380D01*
X175261904Y-112678571D01*
X175214285Y-112630952D01*
X175119047Y-112583333D01*
X174880952Y-112583333D01*
X174785714Y-112630952D01*
X174738095Y-112678571D01*
X174690476Y-112773809D01*
X174690476Y-113011904D01*
X174738095Y-113107142D01*
X174785714Y-113154761D01*
X174880952Y-113202380D01*
X175119047Y-113202380D01*
X175214285Y-113154761D01*
X175261904Y-113107142D01*
X174071428Y-112202380D02*
X173976190Y-112202380D01*
X173880952Y-112250000D01*
X173833333Y-112297619D01*
X173785714Y-112392857D01*
X173738095Y-112583333D01*
X173738095Y-112821428D01*
X173785714Y-113011904D01*
X173833333Y-113107142D01*
X173880952Y-113154761D01*
X173976190Y-113202380D01*
X174071428Y-113202380D01*
X174166666Y-113154761D01*
X174214285Y-113107142D01*
X174261904Y-113011904D01*
X174309523Y-112821428D01*
X174309523Y-112583333D01*
X174261904Y-112392857D01*
X174214285Y-112297619D01*
X174166666Y-112250000D01*
X174071428Y-112202380D01*
X187335714Y-112535714D02*
X187335714Y-113202380D01*
X187573809Y-112154761D02*
X187811904Y-112869047D01*
X187192857Y-112869047D01*
X186335714Y-112202380D02*
X186811904Y-112202380D01*
X186859523Y-112678571D01*
X186811904Y-112630952D01*
X186716666Y-112583333D01*
X186478571Y-112583333D01*
X186383333Y-112630952D01*
X186335714Y-112678571D01*
X186288095Y-112773809D01*
X186288095Y-113011904D01*
X186335714Y-113107142D01*
X186383333Y-113154761D01*
X186478571Y-113202380D01*
X186716666Y-113202380D01*
X186811904Y-113154761D01*
X186859523Y-113107142D01*
X199785714Y-112535714D02*
X199785714Y-113202380D01*
X200023809Y-112154761D02*
X200261904Y-112869047D01*
X199642857Y-112869047D01*
X199071428Y-112202380D02*
X198976190Y-112202380D01*
X198880952Y-112250000D01*
X198833333Y-112297619D01*
X198785714Y-112392857D01*
X198738095Y-112583333D01*
X198738095Y-112821428D01*
X198785714Y-113011904D01*
X198833333Y-113107142D01*
X198880952Y-113154761D01*
X198976190Y-113202380D01*
X199071428Y-113202380D01*
X199166666Y-113154761D01*
X199214285Y-113107142D01*
X199261904Y-113011904D01*
X199309523Y-112821428D01*
X199309523Y-112583333D01*
X199261904Y-112392857D01*
X199214285Y-112297619D01*
X199166666Y-112250000D01*
X199071428Y-112202380D01*
X208359523Y-112202380D02*
X207740476Y-112202380D01*
X208073809Y-112583333D01*
X207930952Y-112583333D01*
X207835714Y-112630952D01*
X207788095Y-112678571D01*
X207740476Y-112773809D01*
X207740476Y-113011904D01*
X207788095Y-113107142D01*
X207835714Y-113154761D01*
X207930952Y-113202380D01*
X208216666Y-113202380D01*
X208311904Y-113154761D01*
X208359523Y-113107142D01*
X207407142Y-112202380D02*
X206740476Y-112202380D01*
X207169047Y-113202380D01*
X119809523Y-112202380D02*
X119142857Y-112202380D01*
X119571428Y-113202380D01*
X118809523Y-112297619D02*
X118761904Y-112250000D01*
X118666666Y-112202380D01*
X118428571Y-112202380D01*
X118333333Y-112250000D01*
X118285714Y-112297619D01*
X118238095Y-112392857D01*
X118238095Y-112488095D01*
X118285714Y-112630952D01*
X118857142Y-113202380D01*
X118238095Y-113202380D01*
%LPC*%
D11*
G36*
X210000000Y-125000000D02*
G01*
X116500000Y-125000000D01*
X116500000Y-113700000D01*
X210000000Y-113700000D01*
X210000000Y-125000000D01*
G37*
X210000000Y-125000000D02*
X116500000Y-125000000D01*
X116500000Y-113700000D01*
X210000000Y-113700000D01*
X210000000Y-125000000D01*
G36*
G01*
X167700000Y-88150000D02*
X167700000Y-86950000D01*
G75*
G02*
X167750000Y-86900000I50000J0D01*
G01*
X168950000Y-86900000D01*
G75*
G02*
X169000000Y-86950000I0J-50000D01*
G01*
X169000000Y-88150000D01*
G75*
G02*
X168950000Y-88200000I-50000J0D01*
G01*
X167750000Y-88200000D01*
G75*
G02*
X167700000Y-88150000I0J50000D01*
G01*
G37*
D12*
X169850000Y-87550000D03*
D13*
X116800000Y-94900000D03*
D14*
X116800000Y-102400000D03*
X210450000Y-101550000D03*
D13*
X210450000Y-94050000D03*
X178920000Y-78700000D03*
G36*
G01*
X170450000Y-79500000D02*
X170450000Y-77900000D01*
G75*
G02*
X170500000Y-77850000I50000J0D01*
G01*
X172100000Y-77850000D01*
G75*
G02*
X172150000Y-77900000I0J-50000D01*
G01*
X172150000Y-79500000D01*
G75*
G02*
X172100000Y-79550000I-50000J0D01*
G01*
X170500000Y-79550000D01*
G75*
G02*
X170450000Y-79500000I0J50000D01*
G01*
G37*
G36*
G01*
X170450000Y-82200000D02*
X170450000Y-80600000D01*
G75*
G02*
X170500000Y-80550000I50000J0D01*
G01*
X172100000Y-80550000D01*
G75*
G02*
X172150000Y-80600000I0J-50000D01*
G01*
X172150000Y-82200000D01*
G75*
G02*
X172100000Y-82250000I-50000J0D01*
G01*
X170500000Y-82250000D01*
G75*
G02*
X170450000Y-82200000I0J50000D01*
G01*
G37*
X178920000Y-81400000D03*
X201500000Y-81920000D03*
X183720000Y-74300000D03*
X198960000Y-81920000D03*
X186260000Y-74300000D03*
X196420000Y-81920000D03*
X188800000Y-74300000D03*
X193880000Y-81920000D03*
X191340000Y-74300000D03*
X191340000Y-81920000D03*
X193880000Y-74300000D03*
X188800000Y-81920000D03*
X196420000Y-74300000D03*
X186260000Y-81920000D03*
X198960000Y-74300000D03*
X183720000Y-81920000D03*
G36*
G01*
X200700000Y-73450000D02*
X202300000Y-73450000D01*
G75*
G02*
X202350000Y-73500000I0J-50000D01*
G01*
X202350000Y-75100000D01*
G75*
G02*
X202300000Y-75150000I-50000J0D01*
G01*
X200700000Y-75150000D01*
G75*
G02*
X200650000Y-75100000I0J50000D01*
G01*
X200650000Y-73500000D01*
G75*
G02*
X200700000Y-73450000I50000J0D01*
G01*
G37*
G36*
G01*
X127250000Y-93900000D02*
X128850000Y-93900000D01*
G75*
G02*
X128900000Y-93950000I0J-50000D01*
G01*
X128900000Y-95550000D01*
G75*
G02*
X128850000Y-95600000I-50000J0D01*
G01*
X127250000Y-95600000D01*
G75*
G02*
X127200000Y-95550000I0J50000D01*
G01*
X127200000Y-93950000D01*
G75*
G02*
X127250000Y-93900000I50000J0D01*
G01*
G37*
X120430000Y-102370000D03*
X125510000Y-94750000D03*
X122970000Y-102370000D03*
X122970000Y-94750000D03*
X125510000Y-102370000D03*
X120430000Y-94750000D03*
X128050000Y-102370000D03*
G36*
G01*
X164350000Y-89100000D02*
X165950000Y-89100000D01*
G75*
G02*
X166000000Y-89150000I0J-50000D01*
G01*
X166000000Y-90750000D01*
G75*
G02*
X165950000Y-90800000I-50000J0D01*
G01*
X164350000Y-90800000D01*
G75*
G02*
X164300000Y-90750000I0J50000D01*
G01*
X164300000Y-89150000D01*
G75*
G02*
X164350000Y-89100000I50000J0D01*
G01*
G37*
X132130000Y-105190000D03*
X162610000Y-89950000D03*
X134670000Y-105190000D03*
X160070000Y-89950000D03*
X137210000Y-105190000D03*
X157530000Y-89950000D03*
X139750000Y-105190000D03*
X154990000Y-89950000D03*
X142290000Y-105190000D03*
X152450000Y-89950000D03*
X144830000Y-105190000D03*
X149910000Y-89950000D03*
X147370000Y-105190000D03*
X147370000Y-89950000D03*
X149910000Y-105190000D03*
X144830000Y-89950000D03*
X152450000Y-105190000D03*
X142290000Y-89950000D03*
X154990000Y-105190000D03*
X139750000Y-89950000D03*
X157530000Y-105190000D03*
X137210000Y-89950000D03*
X160070000Y-105190000D03*
X134670000Y-89950000D03*
X162610000Y-105190000D03*
X132130000Y-89950000D03*
X165150000Y-105190000D03*
X206720000Y-105190000D03*
X173700000Y-89950000D03*
X204180000Y-105190000D03*
X176240000Y-89950000D03*
X201640000Y-105190000D03*
X178780000Y-89950000D03*
X199100000Y-105190000D03*
X181320000Y-89950000D03*
X196560000Y-105190000D03*
X183860000Y-89950000D03*
X194020000Y-105190000D03*
X186400000Y-89950000D03*
X191480000Y-105190000D03*
X188940000Y-89950000D03*
X188940000Y-105190000D03*
X191480000Y-89950000D03*
X186400000Y-105190000D03*
X194020000Y-89950000D03*
X183860000Y-105190000D03*
X196560000Y-89950000D03*
X181320000Y-105190000D03*
X199100000Y-89950000D03*
X178780000Y-105190000D03*
X201640000Y-89950000D03*
X176240000Y-105190000D03*
X204180000Y-89950000D03*
X173700000Y-105190000D03*
G36*
G01*
X205920000Y-89100000D02*
X207520000Y-89100000D01*
G75*
G02*
X207570000Y-89150000I0J-50000D01*
G01*
X207570000Y-90750000D01*
G75*
G02*
X207520000Y-90800000I-50000J0D01*
G01*
X205920000Y-90800000D01*
G75*
G02*
X205870000Y-90750000I0J50000D01*
G01*
X205870000Y-89150000D01*
G75*
G02*
X205920000Y-89100000I50000J0D01*
G01*
G37*
M02*
