G04 #@! TF.GenerationSoftware,KiCad,Pcbnew,(5.1.9)-1*
G04 #@! TF.CreationDate,2022-07-30T12:09:43-07:00*
G04 #@! TF.ProjectId,NES-CN-ROM-256-05,4e45532d-434e-42d5-924f-4d2d3235362d,v02*
G04 #@! TF.SameCoordinates,Original*
G04 #@! TF.FileFunction,Copper,L2,Bot*
G04 #@! TF.FilePolarity,Positive*
%FSLAX46Y46*%
G04 Gerber Fmt 4.6, Leading zero omitted, Abs format (unit mm)*
G04 Created by KiCad (PCBNEW (5.1.9)-1) date 2022-07-30 12:09:43*
%MOMM*%
%LPD*%
G01*
G04 APERTURE LIST*
G04 #@! TA.AperFunction,SMDPad,CuDef*
%ADD10R,2.000000X12.300000*%
G04 #@! TD*
G04 #@! TA.AperFunction,SMDPad,CuDef*
%ADD11R,3.000000X12.300000*%
G04 #@! TD*
G04 #@! TA.AperFunction,ComponentPad*
%ADD12R,1.200000X1.200000*%
G04 #@! TD*
G04 #@! TA.AperFunction,ComponentPad*
%ADD13C,1.200000*%
G04 #@! TD*
G04 #@! TA.AperFunction,ComponentPad*
%ADD14O,1.600000X1.600000*%
G04 #@! TD*
G04 #@! TA.AperFunction,ComponentPad*
%ADD15C,1.600000*%
G04 #@! TD*
G04 #@! TA.AperFunction,ComponentPad*
%ADD16R,1.600000X1.600000*%
G04 #@! TD*
G04 #@! TA.AperFunction,ViaPad*
%ADD17C,1.600000*%
G04 #@! TD*
G04 #@! TA.AperFunction,Conductor*
%ADD18C,0.300000*%
G04 #@! TD*
G04 #@! TA.AperFunction,Conductor*
%ADD19C,0.200000*%
G04 #@! TD*
G04 #@! TA.AperFunction,Conductor*
%ADD20C,0.100000*%
G04 #@! TD*
G04 APERTURE END LIST*
D10*
X204500000Y-117850000D03*
X202000000Y-117850000D03*
X199500000Y-117850000D03*
X197000000Y-117850000D03*
X194500000Y-117850000D03*
X192000000Y-117850000D03*
X189500000Y-117850000D03*
X187000000Y-117850000D03*
X184500000Y-117850000D03*
X182000000Y-117850000D03*
X179500000Y-117850000D03*
X177000000Y-117850000D03*
X174500000Y-117850000D03*
X172000000Y-117850000D03*
X169500000Y-117850000D03*
X167000000Y-117850000D03*
X164500000Y-117850000D03*
X162000000Y-117850000D03*
X159500000Y-117850000D03*
X157000000Y-117850000D03*
X154500000Y-117850000D03*
X152000000Y-117850000D03*
X149500000Y-117850000D03*
X147000000Y-117850000D03*
X144500000Y-117850000D03*
X142000000Y-117850000D03*
X139500000Y-117850000D03*
X137000000Y-117850000D03*
X134500000Y-117850000D03*
X132000000Y-117850000D03*
X129500000Y-117850000D03*
X127000000Y-117850000D03*
X124500000Y-117850000D03*
X122000000Y-117850000D03*
D11*
X207500000Y-117850000D03*
X119000000Y-117850000D03*
D12*
X163900000Y-85400000D03*
D13*
X165400000Y-85400000D03*
D14*
X135250000Y-77550000D03*
D15*
X135250000Y-85050000D03*
X210200000Y-101500000D03*
D14*
X210200000Y-94000000D03*
X179420000Y-75250000D03*
D16*
X171800000Y-75250000D03*
X171800000Y-78300000D03*
D14*
X179420000Y-78300000D03*
X200600000Y-80570000D03*
X182820000Y-72950000D03*
X198060000Y-80570000D03*
X185360000Y-72950000D03*
X195520000Y-80570000D03*
X187900000Y-72950000D03*
X192980000Y-80570000D03*
X190440000Y-72950000D03*
X190440000Y-80570000D03*
X192980000Y-72950000D03*
X187900000Y-80570000D03*
X195520000Y-72950000D03*
X185360000Y-80570000D03*
X198060000Y-72950000D03*
X182820000Y-80570000D03*
D16*
X200600000Y-72950000D03*
X131050000Y-77500000D03*
D14*
X123430000Y-85120000D03*
X128510000Y-77500000D03*
X125970000Y-85120000D03*
X125970000Y-77500000D03*
X128510000Y-85120000D03*
X123430000Y-77500000D03*
X131050000Y-85120000D03*
D16*
X161550000Y-89100000D03*
D14*
X123450000Y-104340000D03*
X159010000Y-89100000D03*
X125990000Y-104340000D03*
X156470000Y-89100000D03*
X128530000Y-104340000D03*
X153930000Y-89100000D03*
X131070000Y-104340000D03*
X151390000Y-89100000D03*
X133610000Y-104340000D03*
X148850000Y-89100000D03*
X136150000Y-104340000D03*
X146310000Y-89100000D03*
X138690000Y-104340000D03*
X143770000Y-89100000D03*
X141230000Y-104340000D03*
X141230000Y-89100000D03*
X143770000Y-104340000D03*
X138690000Y-89100000D03*
X146310000Y-104340000D03*
X136150000Y-89100000D03*
X148850000Y-104340000D03*
X133610000Y-89100000D03*
X151390000Y-104340000D03*
X131070000Y-89100000D03*
X153930000Y-104340000D03*
X128530000Y-89100000D03*
X156470000Y-104340000D03*
X125990000Y-89100000D03*
X159010000Y-104340000D03*
X123450000Y-89100000D03*
X161550000Y-104340000D03*
X205750000Y-104340000D03*
X167650000Y-89100000D03*
X203210000Y-104340000D03*
X170190000Y-89100000D03*
X200670000Y-104340000D03*
X172730000Y-89100000D03*
X198130000Y-104340000D03*
X175270000Y-89100000D03*
X195590000Y-104340000D03*
X177810000Y-89100000D03*
X193050000Y-104340000D03*
X180350000Y-89100000D03*
X190510000Y-104340000D03*
X182890000Y-89100000D03*
X187970000Y-104340000D03*
X185430000Y-89100000D03*
X185430000Y-104340000D03*
X187970000Y-89100000D03*
X182890000Y-104340000D03*
X190510000Y-89100000D03*
X180350000Y-104340000D03*
X193050000Y-89100000D03*
X177810000Y-104340000D03*
X195590000Y-89100000D03*
X175270000Y-104340000D03*
X198130000Y-89100000D03*
X172730000Y-104340000D03*
X200670000Y-89100000D03*
X170190000Y-104340000D03*
X203210000Y-89100000D03*
X167650000Y-104340000D03*
D16*
X205750000Y-89100000D03*
D17*
X123250000Y-93850000D03*
X123250000Y-96500000D03*
X123250000Y-99050000D03*
X123250000Y-101650000D03*
X201050000Y-92650000D03*
X205050000Y-92650000D03*
X201050000Y-96650000D03*
X205050000Y-96650000D03*
X201050000Y-100650000D03*
X205050000Y-100650000D03*
X181650000Y-91200000D03*
X198150000Y-75350000D03*
X198150000Y-78050000D03*
X196950000Y-83700000D03*
X194850000Y-86700000D03*
X191350000Y-86700000D03*
X163700000Y-107600000D03*
X165600000Y-109350000D03*
X118000000Y-90400000D03*
X150100000Y-87350000D03*
X171450000Y-86350000D03*
X129850000Y-87200000D03*
X132400000Y-87200000D03*
X128150000Y-81050000D03*
X189150000Y-75500000D03*
X189200000Y-78200000D03*
X189250000Y-91200000D03*
X191800000Y-91150000D03*
X194350000Y-91150000D03*
X196900000Y-91150000D03*
X193150000Y-75400000D03*
X193150000Y-78250000D03*
X165250000Y-91600000D03*
X208900000Y-108300000D03*
X211400000Y-108300000D03*
X209300000Y-87150000D03*
X209350000Y-90250000D03*
X205850000Y-83150000D03*
X205800000Y-79200000D03*
X210150000Y-79150000D03*
X210100000Y-72950000D03*
X205700000Y-72950000D03*
X147550000Y-87350000D03*
X168300000Y-80800000D03*
X175100000Y-80850000D03*
X153050000Y-99600000D03*
X158450000Y-78300000D03*
X206200000Y-109750000D03*
X206200000Y-107949997D03*
X184126827Y-101946827D03*
X193509174Y-107209174D03*
X194751828Y-109448172D03*
X175850000Y-91700000D03*
X157000000Y-106450000D03*
X125800000Y-108700000D03*
X153050000Y-102250000D03*
X174500000Y-110350070D03*
X175200000Y-102350000D03*
X168900000Y-109200000D03*
X186600000Y-86800000D03*
X167400000Y-107550000D03*
X185400000Y-85300000D03*
X165500000Y-106400000D03*
X173950000Y-91700000D03*
X177750000Y-91700000D03*
X198350000Y-109500000D03*
X196838173Y-107200000D03*
X161700000Y-108900000D03*
X160250000Y-107600000D03*
D18*
X119000000Y-81930000D02*
X123430000Y-77500000D01*
X119000000Y-117850000D02*
X119000000Y-81930000D01*
X142000000Y-107650000D02*
X138690000Y-104340000D01*
X142000000Y-117850000D02*
X142000000Y-107650000D01*
X139500000Y-117850000D02*
X139500000Y-107250000D01*
X139500000Y-107250000D02*
X137400000Y-105150000D01*
X137400000Y-105150000D02*
X137400000Y-103927998D01*
X137400000Y-103927998D02*
X137400000Y-103550000D01*
X138000000Y-102950000D02*
X141912880Y-102950000D01*
X137400000Y-103550000D02*
X138000000Y-102950000D01*
X142812890Y-102049990D02*
X150642890Y-102049990D01*
X141912880Y-102950000D02*
X142812890Y-102049990D01*
X153050000Y-99642880D02*
X153050000Y-99600000D01*
X150642890Y-102049990D02*
X153050000Y-99642880D01*
X158450000Y-78300000D02*
X171800000Y-78300000D01*
X189120001Y-103189999D02*
X187970000Y-104340000D01*
X196142001Y-103189999D02*
X189120001Y-103189999D01*
X196740001Y-103787999D02*
X196142001Y-103189999D01*
X196740001Y-104652003D02*
X196740001Y-103787999D01*
X201837998Y-109750000D02*
X196740001Y-104652003D01*
X206200000Y-109750000D02*
X201837998Y-109750000D01*
X198181991Y-102689989D02*
X184869989Y-102689989D01*
X199280001Y-103787999D02*
X198181991Y-102689989D01*
X199280001Y-104830001D02*
X199280001Y-103787999D01*
X184869989Y-102689989D02*
X184126827Y-101946827D01*
X202399997Y-107949997D02*
X199280001Y-104830001D01*
X206200000Y-107949997D02*
X202399997Y-107949997D01*
X193379174Y-107209174D02*
X190510000Y-104340000D01*
X193509174Y-107209174D02*
X193379174Y-107209174D01*
X194751828Y-106041828D02*
X193050000Y-104340000D01*
X194751828Y-109448172D02*
X194751828Y-106041828D01*
X176659999Y-86730001D02*
X182820000Y-80570000D01*
X176659999Y-90890001D02*
X176659999Y-86730001D01*
X175850000Y-91700000D02*
X176659999Y-90890001D01*
X150850000Y-102550000D02*
X143020000Y-102550000D01*
X152400001Y-100999999D02*
X150850000Y-102550000D01*
X153749999Y-100999999D02*
X152400001Y-100999999D01*
X155080001Y-102330001D02*
X153749999Y-100999999D01*
X143020000Y-102550000D02*
X141230000Y-104340000D01*
X155080001Y-105180001D02*
X155080001Y-102330001D01*
X156350000Y-106450000D02*
X155080001Y-105180001D01*
X157000000Y-106450000D02*
X156350000Y-106450000D01*
X125800000Y-106690000D02*
X123450000Y-104340000D01*
X125800000Y-108700000D02*
X125800000Y-106690000D01*
X122000000Y-117850000D02*
X122000000Y-105907120D01*
X122000000Y-105907120D02*
X120799990Y-104707110D01*
X120799990Y-104707110D02*
X120799990Y-85210010D01*
X120799990Y-85210010D02*
X128510000Y-77500000D01*
X124500000Y-117850000D02*
X124500000Y-107700000D01*
X124500000Y-107700000D02*
X121300000Y-104500000D01*
X121300000Y-104500000D02*
X121300000Y-92200000D01*
X121300000Y-92200000D02*
X122550000Y-90950000D01*
X127379999Y-86250001D02*
X128510000Y-85120000D01*
X127379999Y-89412003D02*
X127379999Y-86250001D01*
X125842002Y-90950000D02*
X127379999Y-89412003D01*
X122550000Y-90950000D02*
X125842002Y-90950000D01*
X127000000Y-105350000D02*
X125990000Y-104340000D01*
X127000000Y-117850000D02*
X127000000Y-105350000D01*
X129500000Y-117850000D02*
X129500000Y-107100000D01*
X128530000Y-106130000D02*
X128530000Y-104340000D01*
X129500000Y-107100000D02*
X128530000Y-106130000D01*
X132000000Y-117850000D02*
X132000000Y-106850000D01*
X131070000Y-105920000D02*
X131070000Y-104340000D01*
X132000000Y-106850000D02*
X131070000Y-105920000D01*
X134500000Y-117850000D02*
X134500000Y-107100000D01*
X133610000Y-106210000D02*
X133610000Y-104340000D01*
X134500000Y-107100000D02*
X133610000Y-106210000D01*
X137000000Y-117850000D02*
X137000000Y-107200000D01*
X136150000Y-106350000D02*
X136150000Y-104340000D01*
X137000000Y-107200000D02*
X136150000Y-106350000D01*
X144500000Y-117850000D02*
X144500000Y-106900000D01*
X143770000Y-106170000D02*
X143770000Y-104340000D01*
X144500000Y-106900000D02*
X143770000Y-106170000D01*
X147000000Y-117850000D02*
X147000000Y-106850000D01*
X146310000Y-106160000D02*
X146310000Y-104340000D01*
X147000000Y-106850000D02*
X146310000Y-106160000D01*
X149500000Y-117850000D02*
X149500000Y-106650000D01*
X148850000Y-106000000D02*
X148850000Y-104340000D01*
X149500000Y-106650000D02*
X148850000Y-106000000D01*
X152000000Y-117850000D02*
X152000000Y-107250000D01*
X152000000Y-107250000D02*
X150100000Y-105350000D01*
X150100000Y-103927998D02*
X150927998Y-103100000D01*
X150100000Y-105350000D02*
X150100000Y-103927998D01*
X152200000Y-103100000D02*
X153050000Y-102250000D01*
X150927998Y-103100000D02*
X152200000Y-103100000D01*
X174500000Y-117850000D02*
X174500000Y-110350070D01*
X175200000Y-102350000D02*
X175950000Y-103100000D01*
X184190000Y-103100000D02*
X185430000Y-104340000D01*
X175950000Y-103100000D02*
X184190000Y-103100000D01*
X177000000Y-110900000D02*
X175300070Y-109200070D01*
X177000000Y-117850000D02*
X177000000Y-110900000D01*
X168900070Y-109200070D02*
X168900000Y-109200000D01*
X175300070Y-109200070D02*
X168900070Y-109200070D01*
X194369999Y-74100001D02*
X195520000Y-72950000D01*
X194369999Y-81122001D02*
X194369999Y-74100001D01*
X188692000Y-86800000D02*
X194369999Y-81122001D01*
X186600000Y-86800000D02*
X188692000Y-86800000D01*
X179500000Y-109750000D02*
X178450060Y-108700060D01*
X179500000Y-117850000D02*
X179500000Y-109750000D01*
X170142940Y-108700060D02*
X170142938Y-108700058D01*
X178450060Y-108700060D02*
X170142940Y-108700060D01*
X168992880Y-107550000D02*
X167400000Y-107550000D01*
X170142938Y-108700058D02*
X168992880Y-107550000D01*
X185450000Y-85250000D02*
X189534880Y-85250000D01*
X185400000Y-85300000D02*
X185450000Y-85250000D01*
X191829999Y-74100001D02*
X192980000Y-72950000D01*
X191829999Y-82954881D02*
X191829999Y-74100001D01*
X189534880Y-85250000D02*
X191829999Y-82954881D01*
X182000000Y-109350000D02*
X180850050Y-108200050D01*
X182000000Y-117850000D02*
X182000000Y-109350000D01*
X180850050Y-108200050D02*
X170350050Y-108200050D01*
X168550000Y-106400000D02*
X165500000Y-106400000D01*
X170350050Y-108200050D02*
X168550000Y-106400000D01*
X171010040Y-107700040D02*
X167650000Y-104340000D01*
X183300040Y-107700040D02*
X171010040Y-107700040D01*
X184500000Y-108900000D02*
X183300040Y-107700040D01*
X184500000Y-117850000D02*
X184500000Y-108900000D01*
X184850030Y-107200030D02*
X173050030Y-107200030D01*
X187000000Y-109350000D02*
X184850030Y-107200030D01*
X173050030Y-107200030D02*
X170190000Y-104340000D01*
X187000000Y-117850000D02*
X187000000Y-109350000D01*
X173950000Y-91700000D02*
X173950000Y-86192878D01*
X173950000Y-86192878D02*
X186510001Y-73632877D01*
X186510001Y-73632877D02*
X186510001Y-73629999D01*
X186749999Y-73380001D02*
X186749999Y-72397999D01*
X186510001Y-73619999D02*
X186749999Y-73380001D01*
X186510001Y-73632877D02*
X186510001Y-73619999D01*
X189289999Y-71799999D02*
X190440000Y-72950000D01*
X187347999Y-71799999D02*
X189289999Y-71799999D01*
X186749999Y-72397999D02*
X187347999Y-71799999D01*
X175090020Y-106700020D02*
X172730000Y-104340000D01*
X189500000Y-117850000D02*
X189500000Y-109400000D01*
X189500000Y-109400000D02*
X186800020Y-106700020D01*
X186800020Y-106700020D02*
X175090020Y-106700020D01*
X184209999Y-80882003D02*
X184209999Y-76640001D01*
X184209999Y-76640001D02*
X187900000Y-72950000D01*
X179199999Y-85892003D02*
X184209999Y-80882003D01*
X179199999Y-90250001D02*
X179199999Y-85892003D01*
X177750000Y-91700000D02*
X179199999Y-90250001D01*
X177130010Y-106200010D02*
X175270000Y-104340000D01*
X188100010Y-106200010D02*
X177130010Y-106200010D01*
X192000000Y-110100000D02*
X188100010Y-106200010D01*
X192000000Y-117850000D02*
X192000000Y-110100000D01*
X194500000Y-117850000D02*
X194500000Y-110950000D01*
X194500000Y-110950000D02*
X189250000Y-105700000D01*
X179170000Y-105700000D02*
X177810000Y-104340000D01*
X189250000Y-105700000D02*
X179170000Y-105700000D01*
X197000000Y-110850000D02*
X198350000Y-109500000D01*
X197000000Y-117850000D02*
X197000000Y-110850000D01*
X199500000Y-117850000D02*
X199500000Y-112569998D01*
X199500001Y-108947999D02*
X198902002Y-108350000D01*
X199500000Y-117850000D02*
X199500001Y-108947999D01*
X198902002Y-108350000D02*
X196300000Y-108350000D01*
X195590000Y-107640000D02*
X195590000Y-104340000D01*
X196300000Y-108350000D02*
X195590000Y-107640000D01*
X202000000Y-117850000D02*
X202000000Y-112569998D01*
X202000000Y-117850000D02*
X202000000Y-112000000D01*
X202000000Y-110740878D02*
X202000000Y-117850000D01*
X198459122Y-107200000D02*
X202000000Y-110740878D01*
X196838173Y-107200000D02*
X198459122Y-107200000D01*
X155950000Y-108900000D02*
X161700000Y-108900000D01*
X151390000Y-104340000D02*
X155950000Y-108900000D01*
X153930000Y-104340000D02*
X153930000Y-105030000D01*
X156500000Y-107600000D02*
X160250000Y-107600000D01*
X153930000Y-105030000D02*
X156500000Y-107600000D01*
D19*
X212775000Y-82275000D02*
X208115961Y-82275000D01*
X208100000Y-82273428D01*
X208084040Y-82275000D01*
X208084039Y-82275000D01*
X208036289Y-82279703D01*
X207975026Y-82298287D01*
X207918566Y-82328465D01*
X207869079Y-82369079D01*
X207828465Y-82418566D01*
X207798287Y-82475026D01*
X207779703Y-82536289D01*
X207773428Y-82600000D01*
X207775001Y-82615971D01*
X207775000Y-85184039D01*
X207773428Y-85200000D01*
X207779703Y-85263711D01*
X207798287Y-85324974D01*
X207828465Y-85381434D01*
X207850548Y-85408341D01*
X207869079Y-85430921D01*
X207918566Y-85471535D01*
X207975026Y-85501713D01*
X208036289Y-85520297D01*
X208100000Y-85526572D01*
X208115960Y-85525000D01*
X211175001Y-85525000D01*
X211175000Y-91184039D01*
X211173428Y-91200000D01*
X211179703Y-91263711D01*
X211198287Y-91324974D01*
X211228465Y-91381434D01*
X211245488Y-91402176D01*
X211269079Y-91430921D01*
X211318566Y-91471535D01*
X211375026Y-91501713D01*
X211436289Y-91520297D01*
X211500000Y-91526572D01*
X211515960Y-91525000D01*
X212775001Y-91525000D01*
X212775000Y-110375000D01*
X210015961Y-110375000D01*
X210000000Y-110373428D01*
X209984040Y-110375000D01*
X209984039Y-110375000D01*
X209936289Y-110379703D01*
X209875026Y-110398287D01*
X209818566Y-110428465D01*
X209769079Y-110469079D01*
X209728465Y-110518566D01*
X209698287Y-110575026D01*
X209679703Y-110636289D01*
X209678522Y-110648277D01*
X206837690Y-110646867D01*
X206901209Y-110604425D01*
X207054425Y-110451209D01*
X207174807Y-110271045D01*
X207257727Y-110070858D01*
X207300000Y-109858341D01*
X207300000Y-109641659D01*
X207257727Y-109429142D01*
X207174807Y-109228955D01*
X207054425Y-109048791D01*
X206901209Y-108895575D01*
X206832999Y-108849999D01*
X206901209Y-108804422D01*
X207054425Y-108651206D01*
X207174807Y-108471042D01*
X207257727Y-108270855D01*
X207300000Y-108058338D01*
X207300000Y-107841656D01*
X207257727Y-107629139D01*
X207174807Y-107428952D01*
X207054425Y-107248788D01*
X206901209Y-107095572D01*
X206721045Y-106975190D01*
X206520858Y-106892270D01*
X206308341Y-106849997D01*
X206091659Y-106849997D01*
X205879142Y-106892270D01*
X205678955Y-106975190D01*
X205498791Y-107095572D01*
X205345575Y-107248788D01*
X205225193Y-107428952D01*
X205195765Y-107499997D01*
X202586393Y-107499997D01*
X201059218Y-105972823D01*
X206651941Y-105972823D01*
X206698942Y-105969118D01*
X206838205Y-105947027D01*
X206872845Y-105939409D01*
X206927595Y-105917935D01*
X207053185Y-105853829D01*
X207093363Y-105829162D01*
X211491422Y-102627325D01*
X211527155Y-102596751D01*
X211626529Y-102497218D01*
X211649911Y-102470871D01*
X211681595Y-102421324D01*
X211745388Y-102295974D01*
X211759494Y-102263696D01*
X211774334Y-102206789D01*
X211796314Y-102067869D01*
X211800000Y-102020986D01*
X211800000Y-100650000D01*
X211796306Y-100603069D01*
X211774281Y-100464011D01*
X211766712Y-100429511D01*
X211745277Y-100374746D01*
X211681360Y-100249301D01*
X211663499Y-100218826D01*
X211626190Y-100173365D01*
X211526635Y-100073810D01*
X211500231Y-100050346D01*
X211450699Y-100018640D01*
X211325254Y-99954723D01*
X211292894Y-99940568D01*
X211235989Y-99925719D01*
X211096931Y-99903694D01*
X211050000Y-99900000D01*
X207321638Y-99900000D01*
X207253003Y-99889159D01*
X207212309Y-99868490D01*
X207179964Y-99836283D01*
X207159122Y-99795677D01*
X207147990Y-99727092D01*
X207124903Y-94301532D01*
X208935449Y-94301532D01*
X209018573Y-94542440D01*
X209147099Y-94762502D01*
X209316087Y-94953262D01*
X209519043Y-95107388D01*
X209748168Y-95218958D01*
X209898469Y-95264547D01*
X210100000Y-95170737D01*
X210100000Y-94100000D01*
X210300000Y-94100000D01*
X210300000Y-95170737D01*
X210501531Y-95264547D01*
X210651832Y-95218958D01*
X210880957Y-95107388D01*
X211083913Y-94953262D01*
X211252901Y-94762502D01*
X211381427Y-94542440D01*
X211464551Y-94301532D01*
X211371152Y-94100000D01*
X210300000Y-94100000D01*
X210100000Y-94100000D01*
X209028848Y-94100000D01*
X208935449Y-94301532D01*
X207124903Y-94301532D01*
X207122337Y-93698468D01*
X208935449Y-93698468D01*
X209028848Y-93900000D01*
X210100000Y-93900000D01*
X210100000Y-92829263D01*
X210300000Y-92829263D01*
X210300000Y-93900000D01*
X211371152Y-93900000D01*
X211464551Y-93698468D01*
X211381427Y-93457560D01*
X211252901Y-93237498D01*
X211083913Y-93046738D01*
X210880957Y-92892612D01*
X210651832Y-92781042D01*
X210501531Y-92735453D01*
X210300000Y-92829263D01*
X210100000Y-92829263D01*
X209898469Y-92735453D01*
X209748168Y-92781042D01*
X209519043Y-92892612D01*
X209316087Y-93046738D01*
X209147099Y-93237498D01*
X209018573Y-93457560D01*
X208935449Y-93698468D01*
X207122337Y-93698468D01*
X207100298Y-88519631D01*
X207096425Y-88472842D01*
X207073928Y-88334243D01*
X207066297Y-88300018D01*
X207044699Y-88245317D01*
X206980581Y-88120399D01*
X206962771Y-88090189D01*
X206925366Y-88044808D01*
X206825868Y-87945733D01*
X206799616Y-87922485D01*
X206750045Y-87890841D01*
X206624855Y-87827254D01*
X206592713Y-87813227D01*
X206535802Y-87798402D01*
X206397109Y-87776496D01*
X206350305Y-87772823D01*
X199748394Y-87772823D01*
X199701463Y-87776517D01*
X199562405Y-87798542D01*
X199527905Y-87806111D01*
X199473140Y-87827546D01*
X199347695Y-87891463D01*
X199317220Y-87909324D01*
X199271759Y-87946633D01*
X199172204Y-88046188D01*
X199148740Y-88072592D01*
X199117034Y-88122124D01*
X199053117Y-88247569D01*
X199038962Y-88279929D01*
X199024113Y-88336834D01*
X199008575Y-88434934D01*
X198984425Y-88398791D01*
X198831209Y-88245575D01*
X198651045Y-88125193D01*
X198450858Y-88042273D01*
X198238341Y-88000000D01*
X198021659Y-88000000D01*
X197809142Y-88042273D01*
X197608955Y-88125193D01*
X197428791Y-88245575D01*
X197275575Y-88398791D01*
X197155193Y-88578955D01*
X197072273Y-88779142D01*
X197030000Y-88991659D01*
X197030000Y-89208341D01*
X197072273Y-89420858D01*
X197155193Y-89621045D01*
X197275575Y-89801209D01*
X197428791Y-89954425D01*
X197608955Y-90074807D01*
X197809142Y-90157727D01*
X198021659Y-90200000D01*
X198238341Y-90200000D01*
X198450858Y-90157727D01*
X198651045Y-90074807D01*
X198831209Y-89954425D01*
X198984425Y-89801209D01*
X198998394Y-89780303D01*
X198998394Y-92399215D01*
X198987496Y-92468021D01*
X198966722Y-92508792D01*
X198934363Y-92541151D01*
X198893592Y-92561925D01*
X198824786Y-92572823D01*
X178423675Y-92572823D01*
X178451209Y-92554425D01*
X178604425Y-92401209D01*
X178724807Y-92221045D01*
X178807727Y-92020858D01*
X178850000Y-91808341D01*
X178850000Y-91591659D01*
X178807727Y-91379142D01*
X178778299Y-91308096D01*
X179502572Y-90583824D01*
X179519736Y-90569738D01*
X179533823Y-90552573D01*
X179533827Y-90552569D01*
X179575970Y-90501218D01*
X179617756Y-90423042D01*
X179635500Y-90364547D01*
X179643488Y-90338216D01*
X179649999Y-90272106D01*
X179649999Y-90272096D01*
X179652175Y-90250002D01*
X179649999Y-90227908D01*
X179649999Y-89955232D01*
X179828955Y-90074807D01*
X180029142Y-90157727D01*
X180241659Y-90200000D01*
X180458341Y-90200000D01*
X180670858Y-90157727D01*
X180871045Y-90074807D01*
X181051209Y-89954425D01*
X181204425Y-89801209D01*
X181324807Y-89621045D01*
X181407727Y-89420858D01*
X181450000Y-89208341D01*
X181450000Y-88991659D01*
X181790000Y-88991659D01*
X181790000Y-89208341D01*
X181832273Y-89420858D01*
X181915193Y-89621045D01*
X182035575Y-89801209D01*
X182188791Y-89954425D01*
X182368955Y-90074807D01*
X182569142Y-90157727D01*
X182781659Y-90200000D01*
X182998341Y-90200000D01*
X183210858Y-90157727D01*
X183411045Y-90074807D01*
X183591209Y-89954425D01*
X183744425Y-89801209D01*
X183864807Y-89621045D01*
X183947727Y-89420858D01*
X183990000Y-89208341D01*
X183990000Y-88991659D01*
X184330000Y-88991659D01*
X184330000Y-89208341D01*
X184372273Y-89420858D01*
X184455193Y-89621045D01*
X184575575Y-89801209D01*
X184728791Y-89954425D01*
X184908955Y-90074807D01*
X185109142Y-90157727D01*
X185321659Y-90200000D01*
X185538341Y-90200000D01*
X185750858Y-90157727D01*
X185951045Y-90074807D01*
X186131209Y-89954425D01*
X186284425Y-89801209D01*
X186404807Y-89621045D01*
X186487727Y-89420858D01*
X186530000Y-89208341D01*
X186530000Y-88991659D01*
X186870000Y-88991659D01*
X186870000Y-89208341D01*
X186912273Y-89420858D01*
X186995193Y-89621045D01*
X187115575Y-89801209D01*
X187268791Y-89954425D01*
X187448955Y-90074807D01*
X187649142Y-90157727D01*
X187861659Y-90200000D01*
X188078341Y-90200000D01*
X188290858Y-90157727D01*
X188491045Y-90074807D01*
X188671209Y-89954425D01*
X188824425Y-89801209D01*
X188944807Y-89621045D01*
X189027727Y-89420858D01*
X189070000Y-89208341D01*
X189070000Y-88991659D01*
X189410000Y-88991659D01*
X189410000Y-89208341D01*
X189452273Y-89420858D01*
X189535193Y-89621045D01*
X189655575Y-89801209D01*
X189808791Y-89954425D01*
X189988955Y-90074807D01*
X190189142Y-90157727D01*
X190401659Y-90200000D01*
X190618341Y-90200000D01*
X190830858Y-90157727D01*
X191031045Y-90074807D01*
X191211209Y-89954425D01*
X191364425Y-89801209D01*
X191484807Y-89621045D01*
X191567727Y-89420858D01*
X191610000Y-89208341D01*
X191610000Y-88991659D01*
X191950000Y-88991659D01*
X191950000Y-89208341D01*
X191992273Y-89420858D01*
X192075193Y-89621045D01*
X192195575Y-89801209D01*
X192348791Y-89954425D01*
X192528955Y-90074807D01*
X192729142Y-90157727D01*
X192941659Y-90200000D01*
X193158341Y-90200000D01*
X193370858Y-90157727D01*
X193571045Y-90074807D01*
X193751209Y-89954425D01*
X193904425Y-89801209D01*
X194024807Y-89621045D01*
X194107727Y-89420858D01*
X194150000Y-89208341D01*
X194150000Y-88991659D01*
X194490000Y-88991659D01*
X194490000Y-89208341D01*
X194532273Y-89420858D01*
X194615193Y-89621045D01*
X194735575Y-89801209D01*
X194888791Y-89954425D01*
X195068955Y-90074807D01*
X195269142Y-90157727D01*
X195481659Y-90200000D01*
X195698341Y-90200000D01*
X195910858Y-90157727D01*
X196111045Y-90074807D01*
X196291209Y-89954425D01*
X196444425Y-89801209D01*
X196564807Y-89621045D01*
X196647727Y-89420858D01*
X196690000Y-89208341D01*
X196690000Y-88991659D01*
X196647727Y-88779142D01*
X196564807Y-88578955D01*
X196444425Y-88398791D01*
X196291209Y-88245575D01*
X196111045Y-88125193D01*
X195910858Y-88042273D01*
X195698341Y-88000000D01*
X195481659Y-88000000D01*
X195269142Y-88042273D01*
X195068955Y-88125193D01*
X194888791Y-88245575D01*
X194735575Y-88398791D01*
X194615193Y-88578955D01*
X194532273Y-88779142D01*
X194490000Y-88991659D01*
X194150000Y-88991659D01*
X194107727Y-88779142D01*
X194024807Y-88578955D01*
X193904425Y-88398791D01*
X193751209Y-88245575D01*
X193571045Y-88125193D01*
X193370858Y-88042273D01*
X193158341Y-88000000D01*
X192941659Y-88000000D01*
X192729142Y-88042273D01*
X192528955Y-88125193D01*
X192348791Y-88245575D01*
X192195575Y-88398791D01*
X192075193Y-88578955D01*
X191992273Y-88779142D01*
X191950000Y-88991659D01*
X191610000Y-88991659D01*
X191567727Y-88779142D01*
X191484807Y-88578955D01*
X191364425Y-88398791D01*
X191211209Y-88245575D01*
X191031045Y-88125193D01*
X190830858Y-88042273D01*
X190618341Y-88000000D01*
X190401659Y-88000000D01*
X190189142Y-88042273D01*
X189988955Y-88125193D01*
X189808791Y-88245575D01*
X189655575Y-88398791D01*
X189535193Y-88578955D01*
X189452273Y-88779142D01*
X189410000Y-88991659D01*
X189070000Y-88991659D01*
X189027727Y-88779142D01*
X188944807Y-88578955D01*
X188824425Y-88398791D01*
X188671209Y-88245575D01*
X188491045Y-88125193D01*
X188290858Y-88042273D01*
X188078341Y-88000000D01*
X187861659Y-88000000D01*
X187649142Y-88042273D01*
X187448955Y-88125193D01*
X187268791Y-88245575D01*
X187115575Y-88398791D01*
X186995193Y-88578955D01*
X186912273Y-88779142D01*
X186870000Y-88991659D01*
X186530000Y-88991659D01*
X186487727Y-88779142D01*
X186404807Y-88578955D01*
X186284425Y-88398791D01*
X186131209Y-88245575D01*
X185951045Y-88125193D01*
X185750858Y-88042273D01*
X185538341Y-88000000D01*
X185321659Y-88000000D01*
X185109142Y-88042273D01*
X184908955Y-88125193D01*
X184728791Y-88245575D01*
X184575575Y-88398791D01*
X184455193Y-88578955D01*
X184372273Y-88779142D01*
X184330000Y-88991659D01*
X183990000Y-88991659D01*
X183947727Y-88779142D01*
X183864807Y-88578955D01*
X183744425Y-88398791D01*
X183591209Y-88245575D01*
X183411045Y-88125193D01*
X183210858Y-88042273D01*
X182998341Y-88000000D01*
X182781659Y-88000000D01*
X182569142Y-88042273D01*
X182368955Y-88125193D01*
X182188791Y-88245575D01*
X182035575Y-88398791D01*
X181915193Y-88578955D01*
X181832273Y-88779142D01*
X181790000Y-88991659D01*
X181450000Y-88991659D01*
X181407727Y-88779142D01*
X181324807Y-88578955D01*
X181204425Y-88398791D01*
X181051209Y-88245575D01*
X180871045Y-88125193D01*
X180670858Y-88042273D01*
X180458341Y-88000000D01*
X180241659Y-88000000D01*
X180029142Y-88042273D01*
X179828955Y-88125193D01*
X179649999Y-88244768D01*
X179649999Y-86078398D01*
X180536738Y-85191659D01*
X184300000Y-85191659D01*
X184300000Y-85408341D01*
X184342273Y-85620858D01*
X184425193Y-85821045D01*
X184545575Y-86001209D01*
X184698791Y-86154425D01*
X184878955Y-86274807D01*
X185079142Y-86357727D01*
X185291659Y-86400000D01*
X185508341Y-86400000D01*
X185581045Y-86385538D01*
X185542273Y-86479142D01*
X185500000Y-86691659D01*
X185500000Y-86908341D01*
X185542273Y-87120858D01*
X185625193Y-87321045D01*
X185745575Y-87501209D01*
X185898791Y-87654425D01*
X186078955Y-87774807D01*
X186279142Y-87857727D01*
X186491659Y-87900000D01*
X186708341Y-87900000D01*
X186920858Y-87857727D01*
X187121045Y-87774807D01*
X187301209Y-87654425D01*
X187454425Y-87501209D01*
X187574807Y-87321045D01*
X187604235Y-87250000D01*
X188669906Y-87250000D01*
X188692000Y-87252176D01*
X188714094Y-87250000D01*
X188714105Y-87250000D01*
X188780215Y-87243489D01*
X188865041Y-87217757D01*
X188943216Y-87175971D01*
X189011737Y-87119737D01*
X189025829Y-87102566D01*
X194672572Y-81455824D01*
X194689736Y-81441738D01*
X194703823Y-81424573D01*
X194703827Y-81424569D01*
X194745970Y-81373218D01*
X194753499Y-81359133D01*
X194818791Y-81424425D01*
X194998955Y-81544807D01*
X195199142Y-81627727D01*
X195411659Y-81670000D01*
X195628341Y-81670000D01*
X195840858Y-81627727D01*
X196041045Y-81544807D01*
X196221209Y-81424425D01*
X196374425Y-81271209D01*
X196494807Y-81091045D01*
X196577727Y-80890858D01*
X196620000Y-80678341D01*
X196620000Y-80461659D01*
X196960000Y-80461659D01*
X196960000Y-80678341D01*
X197002273Y-80890858D01*
X197085193Y-81091045D01*
X197205575Y-81271209D01*
X197358791Y-81424425D01*
X197538955Y-81544807D01*
X197739142Y-81627727D01*
X197951659Y-81670000D01*
X198168341Y-81670000D01*
X198380858Y-81627727D01*
X198581045Y-81544807D01*
X198761209Y-81424425D01*
X198914425Y-81271209D01*
X199034807Y-81091045D01*
X199117727Y-80890858D01*
X199160000Y-80678341D01*
X199160000Y-80461659D01*
X199500000Y-80461659D01*
X199500000Y-80678341D01*
X199542273Y-80890858D01*
X199625193Y-81091045D01*
X199745575Y-81271209D01*
X199898791Y-81424425D01*
X200078955Y-81544807D01*
X200279142Y-81627727D01*
X200491659Y-81670000D01*
X200708341Y-81670000D01*
X200920858Y-81627727D01*
X201121045Y-81544807D01*
X201301209Y-81424425D01*
X201454425Y-81271209D01*
X201574807Y-81091045D01*
X201657727Y-80890858D01*
X201700000Y-80678341D01*
X201700000Y-80461659D01*
X201657727Y-80249142D01*
X201574807Y-80048955D01*
X201454425Y-79868791D01*
X201301209Y-79715575D01*
X201121045Y-79595193D01*
X200920858Y-79512273D01*
X200708341Y-79470000D01*
X200491659Y-79470000D01*
X200279142Y-79512273D01*
X200078955Y-79595193D01*
X199898791Y-79715575D01*
X199745575Y-79868791D01*
X199625193Y-80048955D01*
X199542273Y-80249142D01*
X199500000Y-80461659D01*
X199160000Y-80461659D01*
X199117727Y-80249142D01*
X199034807Y-80048955D01*
X198914425Y-79868791D01*
X198761209Y-79715575D01*
X198581045Y-79595193D01*
X198380858Y-79512273D01*
X198168341Y-79470000D01*
X197951659Y-79470000D01*
X197739142Y-79512273D01*
X197538955Y-79595193D01*
X197358791Y-79715575D01*
X197205575Y-79868791D01*
X197085193Y-80048955D01*
X197002273Y-80249142D01*
X196960000Y-80461659D01*
X196620000Y-80461659D01*
X196577727Y-80249142D01*
X196494807Y-80048955D01*
X196374425Y-79868791D01*
X196221209Y-79715575D01*
X196041045Y-79595193D01*
X195840858Y-79512273D01*
X195628341Y-79470000D01*
X195411659Y-79470000D01*
X195199142Y-79512273D01*
X194998955Y-79595193D01*
X194819999Y-79714768D01*
X194819999Y-74286396D01*
X195128096Y-73978299D01*
X195199142Y-74007727D01*
X195411659Y-74050000D01*
X195628341Y-74050000D01*
X195840858Y-74007727D01*
X196041045Y-73924807D01*
X196221209Y-73804425D01*
X196374425Y-73651209D01*
X196494807Y-73471045D01*
X196577727Y-73270858D01*
X196620000Y-73058341D01*
X196620000Y-72841659D01*
X196960000Y-72841659D01*
X196960000Y-73058341D01*
X197002273Y-73270858D01*
X197085193Y-73471045D01*
X197205575Y-73651209D01*
X197358791Y-73804425D01*
X197538955Y-73924807D01*
X197739142Y-74007727D01*
X197951659Y-74050000D01*
X198168341Y-74050000D01*
X198380858Y-74007727D01*
X198581045Y-73924807D01*
X198761209Y-73804425D01*
X198914425Y-73651209D01*
X199034807Y-73471045D01*
X199117727Y-73270858D01*
X199160000Y-73058341D01*
X199160000Y-72841659D01*
X199117727Y-72629142D01*
X199034807Y-72428955D01*
X198914425Y-72248791D01*
X198815634Y-72150000D01*
X199498549Y-72150000D01*
X199498549Y-73750000D01*
X199504341Y-73808810D01*
X199521496Y-73865360D01*
X199549353Y-73917477D01*
X199586842Y-73963158D01*
X199632523Y-74000647D01*
X199684640Y-74028504D01*
X199741190Y-74045659D01*
X199800000Y-74051451D01*
X201400000Y-74051451D01*
X201458810Y-74045659D01*
X201515360Y-74028504D01*
X201567477Y-74000647D01*
X201613158Y-73963158D01*
X201650647Y-73917477D01*
X201678504Y-73865360D01*
X201695659Y-73808810D01*
X201701451Y-73750000D01*
X201701451Y-72150000D01*
X201695659Y-72091190D01*
X201678504Y-72034640D01*
X201650647Y-71982523D01*
X201613158Y-71936842D01*
X201567477Y-71899353D01*
X201515360Y-71871496D01*
X201458810Y-71854341D01*
X201400000Y-71848549D01*
X199800000Y-71848549D01*
X199741190Y-71854341D01*
X199684640Y-71871496D01*
X199632523Y-71899353D01*
X199586842Y-71936842D01*
X199549353Y-71982523D01*
X199521496Y-72034640D01*
X199504341Y-72091190D01*
X199498549Y-72150000D01*
X198815634Y-72150000D01*
X198761209Y-72095575D01*
X198581045Y-71975193D01*
X198380858Y-71892273D01*
X198168341Y-71850000D01*
X197951659Y-71850000D01*
X197739142Y-71892273D01*
X197538955Y-71975193D01*
X197358791Y-72095575D01*
X197205575Y-72248791D01*
X197085193Y-72428955D01*
X197002273Y-72629142D01*
X196960000Y-72841659D01*
X196620000Y-72841659D01*
X196577727Y-72629142D01*
X196494807Y-72428955D01*
X196374425Y-72248791D01*
X196221209Y-72095575D01*
X196041045Y-71975193D01*
X195840858Y-71892273D01*
X195628341Y-71850000D01*
X195411659Y-71850000D01*
X195199142Y-71892273D01*
X194998955Y-71975193D01*
X194818791Y-72095575D01*
X194665575Y-72248791D01*
X194545193Y-72428955D01*
X194462273Y-72629142D01*
X194420000Y-72841659D01*
X194420000Y-73058341D01*
X194462273Y-73270858D01*
X194491701Y-73341904D01*
X194067428Y-73766177D01*
X194050263Y-73780264D01*
X194036176Y-73797429D01*
X194036171Y-73797434D01*
X193994028Y-73848785D01*
X193952242Y-73926961D01*
X193941262Y-73963158D01*
X193926511Y-74011786D01*
X193922605Y-74051451D01*
X193917823Y-74100001D01*
X193920000Y-74122105D01*
X193919999Y-79996862D01*
X193834425Y-79868791D01*
X193681209Y-79715575D01*
X193501045Y-79595193D01*
X193300858Y-79512273D01*
X193088341Y-79470000D01*
X192871659Y-79470000D01*
X192659142Y-79512273D01*
X192458955Y-79595193D01*
X192279999Y-79714768D01*
X192279999Y-74286396D01*
X192588096Y-73978299D01*
X192659142Y-74007727D01*
X192871659Y-74050000D01*
X193088341Y-74050000D01*
X193300858Y-74007727D01*
X193501045Y-73924807D01*
X193681209Y-73804425D01*
X193834425Y-73651209D01*
X193954807Y-73471045D01*
X194037727Y-73270858D01*
X194080000Y-73058341D01*
X194080000Y-72841659D01*
X194037727Y-72629142D01*
X193954807Y-72428955D01*
X193834425Y-72248791D01*
X193681209Y-72095575D01*
X193501045Y-71975193D01*
X193300858Y-71892273D01*
X193088341Y-71850000D01*
X192871659Y-71850000D01*
X192659142Y-71892273D01*
X192458955Y-71975193D01*
X192278791Y-72095575D01*
X192125575Y-72248791D01*
X192005193Y-72428955D01*
X191922273Y-72629142D01*
X191880000Y-72841659D01*
X191880000Y-73058341D01*
X191922273Y-73270858D01*
X191951701Y-73341904D01*
X191527428Y-73766177D01*
X191510263Y-73780264D01*
X191496176Y-73797429D01*
X191496171Y-73797434D01*
X191454028Y-73848785D01*
X191412242Y-73926961D01*
X191401262Y-73963158D01*
X191386511Y-74011786D01*
X191382605Y-74051451D01*
X191377823Y-74100001D01*
X191380000Y-74122105D01*
X191379999Y-79996862D01*
X191294425Y-79868791D01*
X191141209Y-79715575D01*
X190961045Y-79595193D01*
X190760858Y-79512273D01*
X190548341Y-79470000D01*
X190331659Y-79470000D01*
X190119142Y-79512273D01*
X189918955Y-79595193D01*
X189738791Y-79715575D01*
X189585575Y-79868791D01*
X189465193Y-80048955D01*
X189382273Y-80249142D01*
X189340000Y-80461659D01*
X189340000Y-80678341D01*
X189382273Y-80890858D01*
X189465193Y-81091045D01*
X189585575Y-81271209D01*
X189738791Y-81424425D01*
X189918955Y-81544807D01*
X190119142Y-81627727D01*
X190331659Y-81670000D01*
X190548341Y-81670000D01*
X190760858Y-81627727D01*
X190961045Y-81544807D01*
X191141209Y-81424425D01*
X191294425Y-81271209D01*
X191379999Y-81143138D01*
X191379999Y-82768485D01*
X189348485Y-84800000D01*
X186383524Y-84800000D01*
X186374807Y-84778955D01*
X186254425Y-84598791D01*
X186101209Y-84445575D01*
X185921045Y-84325193D01*
X185720858Y-84242273D01*
X185508341Y-84200000D01*
X185291659Y-84200000D01*
X185079142Y-84242273D01*
X184878955Y-84325193D01*
X184698791Y-84445575D01*
X184545575Y-84598791D01*
X184425193Y-84778955D01*
X184342273Y-84979142D01*
X184300000Y-85191659D01*
X180536738Y-85191659D01*
X184348810Y-81379587D01*
X184476087Y-81523262D01*
X184679043Y-81677388D01*
X184908168Y-81788958D01*
X185058469Y-81834547D01*
X185260000Y-81740737D01*
X185260000Y-80670000D01*
X185460000Y-80670000D01*
X185460000Y-81740737D01*
X185661531Y-81834547D01*
X185811832Y-81788958D01*
X186040957Y-81677388D01*
X186243913Y-81523262D01*
X186412901Y-81332502D01*
X186541427Y-81112440D01*
X186624551Y-80871532D01*
X186531152Y-80670000D01*
X185460000Y-80670000D01*
X185260000Y-80670000D01*
X185240000Y-80670000D01*
X185240000Y-80470000D01*
X185260000Y-80470000D01*
X185260000Y-79399263D01*
X185460000Y-79399263D01*
X185460000Y-80470000D01*
X186531152Y-80470000D01*
X186535017Y-80461659D01*
X186800000Y-80461659D01*
X186800000Y-80678341D01*
X186842273Y-80890858D01*
X186925193Y-81091045D01*
X187045575Y-81271209D01*
X187198791Y-81424425D01*
X187378955Y-81544807D01*
X187579142Y-81627727D01*
X187791659Y-81670000D01*
X188008341Y-81670000D01*
X188220858Y-81627727D01*
X188421045Y-81544807D01*
X188601209Y-81424425D01*
X188754425Y-81271209D01*
X188874807Y-81091045D01*
X188957727Y-80890858D01*
X189000000Y-80678341D01*
X189000000Y-80461659D01*
X188957727Y-80249142D01*
X188874807Y-80048955D01*
X188754425Y-79868791D01*
X188601209Y-79715575D01*
X188421045Y-79595193D01*
X188220858Y-79512273D01*
X188008341Y-79470000D01*
X187791659Y-79470000D01*
X187579142Y-79512273D01*
X187378955Y-79595193D01*
X187198791Y-79715575D01*
X187045575Y-79868791D01*
X186925193Y-80048955D01*
X186842273Y-80249142D01*
X186800000Y-80461659D01*
X186535017Y-80461659D01*
X186624551Y-80268468D01*
X186541427Y-80027560D01*
X186412901Y-79807498D01*
X186243913Y-79616738D01*
X186040957Y-79462612D01*
X185811832Y-79351042D01*
X185661531Y-79305453D01*
X185460000Y-79399263D01*
X185260000Y-79399263D01*
X185058469Y-79305453D01*
X184908168Y-79351042D01*
X184679043Y-79462612D01*
X184659999Y-79477074D01*
X184659999Y-76826396D01*
X187508097Y-73978299D01*
X187579142Y-74007727D01*
X187791659Y-74050000D01*
X188008341Y-74050000D01*
X188220858Y-74007727D01*
X188421045Y-73924807D01*
X188601209Y-73804425D01*
X188754425Y-73651209D01*
X188874807Y-73471045D01*
X188957727Y-73270858D01*
X189000000Y-73058341D01*
X189000000Y-72841659D01*
X188957727Y-72629142D01*
X188874807Y-72428955D01*
X188755232Y-72249999D01*
X189103604Y-72249999D01*
X189411701Y-72558096D01*
X189382273Y-72629142D01*
X189340000Y-72841659D01*
X189340000Y-73058341D01*
X189382273Y-73270858D01*
X189465193Y-73471045D01*
X189585575Y-73651209D01*
X189738791Y-73804425D01*
X189918955Y-73924807D01*
X190119142Y-74007727D01*
X190331659Y-74050000D01*
X190548341Y-74050000D01*
X190760858Y-74007727D01*
X190961045Y-73924807D01*
X191141209Y-73804425D01*
X191294425Y-73651209D01*
X191414807Y-73471045D01*
X191497727Y-73270858D01*
X191540000Y-73058341D01*
X191540000Y-72841659D01*
X191497727Y-72629142D01*
X191414807Y-72428955D01*
X191294425Y-72248791D01*
X191141209Y-72095575D01*
X190961045Y-71975193D01*
X190760858Y-71892273D01*
X190548341Y-71850000D01*
X190331659Y-71850000D01*
X190119142Y-71892273D01*
X190048096Y-71921701D01*
X189623828Y-71497433D01*
X189609736Y-71480262D01*
X189541215Y-71424028D01*
X189463040Y-71382242D01*
X189378214Y-71356510D01*
X189312104Y-71349999D01*
X189312093Y-71349999D01*
X189289999Y-71347823D01*
X189267905Y-71349999D01*
X187370093Y-71349999D01*
X187347999Y-71347823D01*
X187325905Y-71349999D01*
X187325894Y-71349999D01*
X187259784Y-71356510D01*
X187174958Y-71382242D01*
X187096782Y-71424028D01*
X187045431Y-71466171D01*
X187045427Y-71466175D01*
X187028262Y-71480262D01*
X187014175Y-71497427D01*
X186447428Y-72064175D01*
X186430263Y-72078262D01*
X186416176Y-72095427D01*
X186416171Y-72095432D01*
X186375377Y-72145139D01*
X186243913Y-71996738D01*
X186040957Y-71842612D01*
X185811832Y-71731042D01*
X185661531Y-71685453D01*
X185460000Y-71779263D01*
X185460000Y-72850000D01*
X185480000Y-72850000D01*
X185480000Y-73050000D01*
X185460000Y-73050000D01*
X185460000Y-73070000D01*
X185260000Y-73070000D01*
X185260000Y-73050000D01*
X184188848Y-73050000D01*
X184095449Y-73251532D01*
X184178573Y-73492440D01*
X184307099Y-73712502D01*
X184476087Y-73903262D01*
X184679043Y-74057388D01*
X184908168Y-74168958D01*
X185058469Y-74214547D01*
X185259998Y-74120738D01*
X185259998Y-74246484D01*
X173647429Y-85859054D01*
X173630264Y-85873141D01*
X173616177Y-85890306D01*
X173616172Y-85890311D01*
X173574029Y-85941662D01*
X173532243Y-86019838D01*
X173506512Y-86104663D01*
X173497824Y-86192878D01*
X173500001Y-86214982D01*
X173500001Y-88314367D01*
X173431209Y-88245575D01*
X173251045Y-88125193D01*
X173050858Y-88042273D01*
X172838341Y-88000000D01*
X172621659Y-88000000D01*
X172409142Y-88042273D01*
X172208955Y-88125193D01*
X172028791Y-88245575D01*
X171875575Y-88398791D01*
X171755193Y-88578955D01*
X171672273Y-88779142D01*
X171630000Y-88991659D01*
X171630000Y-89208341D01*
X171672273Y-89420858D01*
X171755193Y-89621045D01*
X171875575Y-89801209D01*
X172028791Y-89954425D01*
X172208955Y-90074807D01*
X172409142Y-90157727D01*
X172621659Y-90200000D01*
X172838341Y-90200000D01*
X173050858Y-90157727D01*
X173251045Y-90074807D01*
X173431209Y-89954425D01*
X173500000Y-89885634D01*
X173500000Y-90695765D01*
X173428955Y-90725193D01*
X173248791Y-90845575D01*
X173095575Y-90998791D01*
X172975193Y-91178955D01*
X172892273Y-91379142D01*
X172850000Y-91591659D01*
X172850000Y-91808341D01*
X172892273Y-92020858D01*
X172975193Y-92221045D01*
X173095575Y-92401209D01*
X173248791Y-92554425D01*
X173276325Y-92572823D01*
X163323608Y-92572823D01*
X163254802Y-92561925D01*
X163214031Y-92541151D01*
X163181672Y-92508792D01*
X163160898Y-92468021D01*
X163150000Y-92399215D01*
X163150000Y-89401532D01*
X166385449Y-89401532D01*
X166468573Y-89642440D01*
X166597099Y-89862502D01*
X166766087Y-90053262D01*
X166969043Y-90207388D01*
X167198168Y-90318958D01*
X167348469Y-90364547D01*
X167550000Y-90270737D01*
X167550000Y-89200000D01*
X167750000Y-89200000D01*
X167750000Y-90270737D01*
X167951531Y-90364547D01*
X168101832Y-90318958D01*
X168330957Y-90207388D01*
X168533913Y-90053262D01*
X168702901Y-89862502D01*
X168831427Y-89642440D01*
X168914551Y-89401532D01*
X168821152Y-89200000D01*
X167750000Y-89200000D01*
X167550000Y-89200000D01*
X166478848Y-89200000D01*
X166385449Y-89401532D01*
X163150000Y-89401532D01*
X163150000Y-88798468D01*
X166385449Y-88798468D01*
X166478848Y-89000000D01*
X167550000Y-89000000D01*
X167550000Y-87929263D01*
X167750000Y-87929263D01*
X167750000Y-89000000D01*
X168821152Y-89000000D01*
X168825017Y-88991659D01*
X169090000Y-88991659D01*
X169090000Y-89208341D01*
X169132273Y-89420858D01*
X169215193Y-89621045D01*
X169335575Y-89801209D01*
X169488791Y-89954425D01*
X169668955Y-90074807D01*
X169869142Y-90157727D01*
X170081659Y-90200000D01*
X170298341Y-90200000D01*
X170510858Y-90157727D01*
X170711045Y-90074807D01*
X170891209Y-89954425D01*
X171044425Y-89801209D01*
X171164807Y-89621045D01*
X171247727Y-89420858D01*
X171290000Y-89208341D01*
X171290000Y-88991659D01*
X171247727Y-88779142D01*
X171164807Y-88578955D01*
X171044425Y-88398791D01*
X170891209Y-88245575D01*
X170711045Y-88125193D01*
X170510858Y-88042273D01*
X170298341Y-88000000D01*
X170081659Y-88000000D01*
X169869142Y-88042273D01*
X169668955Y-88125193D01*
X169488791Y-88245575D01*
X169335575Y-88398791D01*
X169215193Y-88578955D01*
X169132273Y-88779142D01*
X169090000Y-88991659D01*
X168825017Y-88991659D01*
X168914551Y-88798468D01*
X168831427Y-88557560D01*
X168702901Y-88337498D01*
X168533913Y-88146738D01*
X168330957Y-87992612D01*
X168101832Y-87881042D01*
X167951531Y-87835453D01*
X167750000Y-87929263D01*
X167550000Y-87929263D01*
X167348469Y-87835453D01*
X167198168Y-87881042D01*
X166969043Y-87992612D01*
X166766087Y-88146738D01*
X166597099Y-88337498D01*
X166468573Y-88557560D01*
X166385449Y-88798468D01*
X163150000Y-88798468D01*
X163150000Y-88114119D01*
X163158151Y-88054341D01*
X163173886Y-88017799D01*
X163211712Y-87970797D01*
X164765400Y-86501091D01*
X164792956Y-86471238D01*
X164869195Y-86376504D01*
X164874152Y-86368275D01*
X165029958Y-86441540D01*
X165240263Y-86493719D01*
X165456706Y-86503867D01*
X165670970Y-86471593D01*
X165874821Y-86398139D01*
X165966126Y-86349335D01*
X166018866Y-86160287D01*
X165400000Y-85541421D01*
X165385858Y-85555564D01*
X165244437Y-85414143D01*
X165258579Y-85400000D01*
X165541421Y-85400000D01*
X166160287Y-86018866D01*
X166349335Y-85966126D01*
X166441540Y-85770042D01*
X166493719Y-85559737D01*
X166503867Y-85343294D01*
X166471593Y-85129030D01*
X166398139Y-84925179D01*
X166349335Y-84833874D01*
X166160287Y-84781134D01*
X165541421Y-85400000D01*
X165258579Y-85400000D01*
X165244437Y-85385858D01*
X165385858Y-85244437D01*
X165400000Y-85258579D01*
X166018866Y-84639713D01*
X165966126Y-84450665D01*
X165770042Y-84358460D01*
X165559737Y-84306281D01*
X165343294Y-84296133D01*
X165129030Y-84328407D01*
X165000000Y-84374901D01*
X165000000Y-80399356D01*
X164996313Y-80352468D01*
X164974328Y-80213533D01*
X164966787Y-80179113D01*
X164945376Y-80124339D01*
X164881570Y-79998979D01*
X164863769Y-79968568D01*
X164826492Y-79923080D01*
X164727099Y-79823545D01*
X164700781Y-79800118D01*
X164651282Y-79768361D01*
X164526014Y-79704375D01*
X164493747Y-79690217D01*
X164436861Y-79675294D01*
X164297958Y-79653110D01*
X164251075Y-79649356D01*
X130251075Y-79600646D01*
X130204097Y-79604279D01*
X130064885Y-79626144D01*
X130030291Y-79633693D01*
X129975505Y-79655072D01*
X129849882Y-79718921D01*
X129819318Y-79736800D01*
X129773830Y-79774076D01*
X129674114Y-79873649D01*
X129650579Y-79900103D01*
X129618851Y-79949621D01*
X129554821Y-80075153D01*
X129540621Y-80107590D01*
X129525764Y-80164493D01*
X129503700Y-80303673D01*
X129500000Y-80350645D01*
X129500000Y-84635634D01*
X129484807Y-84598955D01*
X129364425Y-84418791D01*
X129211209Y-84265575D01*
X129031045Y-84145193D01*
X128830858Y-84062273D01*
X128618341Y-84020000D01*
X128401659Y-84020000D01*
X128189142Y-84062273D01*
X127988955Y-84145193D01*
X127808791Y-84265575D01*
X127655575Y-84418791D01*
X127535193Y-84598955D01*
X127452273Y-84799142D01*
X127410000Y-85011659D01*
X127410000Y-85228341D01*
X127452273Y-85440858D01*
X127481701Y-85511904D01*
X127077428Y-85916177D01*
X127060263Y-85930264D01*
X127046176Y-85947429D01*
X127046171Y-85947434D01*
X127004028Y-85998785D01*
X126962242Y-86076961D01*
X126936511Y-86161786D01*
X126927823Y-86250001D01*
X126930000Y-86272105D01*
X126929999Y-88526862D01*
X126844425Y-88398791D01*
X126691209Y-88245575D01*
X126511045Y-88125193D01*
X126310858Y-88042273D01*
X126098341Y-88000000D01*
X125881659Y-88000000D01*
X125669142Y-88042273D01*
X125468955Y-88125193D01*
X125288791Y-88245575D01*
X125135575Y-88398791D01*
X125015193Y-88578955D01*
X124932273Y-88779142D01*
X124890000Y-88991659D01*
X124890000Y-89208341D01*
X124932273Y-89420858D01*
X125015193Y-89621045D01*
X125135575Y-89801209D01*
X125288791Y-89954425D01*
X125468955Y-90074807D01*
X125669142Y-90157727D01*
X125881659Y-90200000D01*
X125955607Y-90200000D01*
X125655607Y-90500000D01*
X122572094Y-90500000D01*
X122550000Y-90497824D01*
X122527905Y-90500000D01*
X122527895Y-90500000D01*
X122461785Y-90506511D01*
X122376959Y-90532243D01*
X122298783Y-90574029D01*
X122247432Y-90616172D01*
X122247428Y-90616176D01*
X122230263Y-90630263D01*
X122216176Y-90647428D01*
X121249990Y-91613615D01*
X121249990Y-89401532D01*
X122185449Y-89401532D01*
X122268573Y-89642440D01*
X122397099Y-89862502D01*
X122566087Y-90053262D01*
X122769043Y-90207388D01*
X122998168Y-90318958D01*
X123148469Y-90364547D01*
X123350000Y-90270737D01*
X123350000Y-89200000D01*
X123550000Y-89200000D01*
X123550000Y-90270737D01*
X123751531Y-90364547D01*
X123901832Y-90318958D01*
X124130957Y-90207388D01*
X124333913Y-90053262D01*
X124502901Y-89862502D01*
X124631427Y-89642440D01*
X124714551Y-89401532D01*
X124621152Y-89200000D01*
X123550000Y-89200000D01*
X123350000Y-89200000D01*
X122278848Y-89200000D01*
X122185449Y-89401532D01*
X121249990Y-89401532D01*
X121249990Y-88798468D01*
X122185449Y-88798468D01*
X122278848Y-89000000D01*
X123350000Y-89000000D01*
X123350000Y-87929263D01*
X123550000Y-87929263D01*
X123550000Y-89000000D01*
X124621152Y-89000000D01*
X124714551Y-88798468D01*
X124631427Y-88557560D01*
X124502901Y-88337498D01*
X124333913Y-88146738D01*
X124130957Y-87992612D01*
X123901832Y-87881042D01*
X123751531Y-87835453D01*
X123550000Y-87929263D01*
X123350000Y-87929263D01*
X123148469Y-87835453D01*
X122998168Y-87881042D01*
X122769043Y-87992612D01*
X122566087Y-88146738D01*
X122397099Y-88337498D01*
X122268573Y-88557560D01*
X122185449Y-88798468D01*
X121249990Y-88798468D01*
X121249990Y-85396405D01*
X121634736Y-85011659D01*
X122330000Y-85011659D01*
X122330000Y-85228341D01*
X122372273Y-85440858D01*
X122455193Y-85641045D01*
X122575575Y-85821209D01*
X122728791Y-85974425D01*
X122908955Y-86094807D01*
X123109142Y-86177727D01*
X123321659Y-86220000D01*
X123538341Y-86220000D01*
X123750858Y-86177727D01*
X123951045Y-86094807D01*
X124131209Y-85974425D01*
X124284425Y-85821209D01*
X124404807Y-85641045D01*
X124487727Y-85440858D01*
X124530000Y-85228341D01*
X124530000Y-85011659D01*
X124870000Y-85011659D01*
X124870000Y-85228341D01*
X124912273Y-85440858D01*
X124995193Y-85641045D01*
X125115575Y-85821209D01*
X125268791Y-85974425D01*
X125448955Y-86094807D01*
X125649142Y-86177727D01*
X125861659Y-86220000D01*
X126078341Y-86220000D01*
X126290858Y-86177727D01*
X126491045Y-86094807D01*
X126671209Y-85974425D01*
X126824425Y-85821209D01*
X126944807Y-85641045D01*
X127027727Y-85440858D01*
X127070000Y-85228341D01*
X127070000Y-85011659D01*
X127027727Y-84799142D01*
X126944807Y-84598955D01*
X126824425Y-84418791D01*
X126671209Y-84265575D01*
X126491045Y-84145193D01*
X126290858Y-84062273D01*
X126078341Y-84020000D01*
X125861659Y-84020000D01*
X125649142Y-84062273D01*
X125448955Y-84145193D01*
X125268791Y-84265575D01*
X125115575Y-84418791D01*
X124995193Y-84598955D01*
X124912273Y-84799142D01*
X124870000Y-85011659D01*
X124530000Y-85011659D01*
X124487727Y-84799142D01*
X124404807Y-84598955D01*
X124284425Y-84418791D01*
X124131209Y-84265575D01*
X123951045Y-84145193D01*
X123750858Y-84062273D01*
X123538341Y-84020000D01*
X123321659Y-84020000D01*
X123109142Y-84062273D01*
X122908955Y-84145193D01*
X122728791Y-84265575D01*
X122575575Y-84418791D01*
X122455193Y-84598955D01*
X122372273Y-84799142D01*
X122330000Y-85011659D01*
X121634736Y-85011659D01*
X128118097Y-78528299D01*
X128189142Y-78557727D01*
X128401659Y-78600000D01*
X128618341Y-78600000D01*
X128830858Y-78557727D01*
X129031045Y-78474807D01*
X129211209Y-78354425D01*
X129364425Y-78201209D01*
X129484807Y-78021045D01*
X129567727Y-77820858D01*
X129610000Y-77608341D01*
X129610000Y-77391659D01*
X129567727Y-77179142D01*
X129484807Y-76978955D01*
X129364425Y-76798791D01*
X129265634Y-76700000D01*
X129948549Y-76700000D01*
X129948549Y-78300000D01*
X129954341Y-78358810D01*
X129971496Y-78415360D01*
X129999353Y-78467477D01*
X130036842Y-78513158D01*
X130082523Y-78550647D01*
X130134640Y-78578504D01*
X130191190Y-78595659D01*
X130250000Y-78601451D01*
X131850000Y-78601451D01*
X131908810Y-78595659D01*
X131965360Y-78578504D01*
X132017477Y-78550647D01*
X132063158Y-78513158D01*
X132100647Y-78467477D01*
X132128504Y-78415360D01*
X132145659Y-78358810D01*
X132151451Y-78300000D01*
X132151451Y-77851532D01*
X133985449Y-77851532D01*
X134068573Y-78092440D01*
X134197099Y-78312502D01*
X134366087Y-78503262D01*
X134569043Y-78657388D01*
X134798168Y-78768958D01*
X134948469Y-78814547D01*
X135150000Y-78720737D01*
X135150000Y-77650000D01*
X135350000Y-77650000D01*
X135350000Y-78720737D01*
X135551531Y-78814547D01*
X135701832Y-78768958D01*
X135930957Y-78657388D01*
X136133913Y-78503262D01*
X136302901Y-78312502D01*
X136373478Y-78191659D01*
X157350000Y-78191659D01*
X157350000Y-78408341D01*
X157392273Y-78620858D01*
X157475193Y-78821045D01*
X157595575Y-79001209D01*
X157748791Y-79154425D01*
X157928955Y-79274807D01*
X158129142Y-79357727D01*
X158341659Y-79400000D01*
X158558341Y-79400000D01*
X158770858Y-79357727D01*
X158971045Y-79274807D01*
X159151209Y-79154425D01*
X159304425Y-79001209D01*
X159424807Y-78821045D01*
X159454235Y-78750000D01*
X170698549Y-78750000D01*
X170698549Y-79100000D01*
X170704341Y-79158810D01*
X170721496Y-79215360D01*
X170749353Y-79267477D01*
X170786842Y-79313158D01*
X170832523Y-79350647D01*
X170884640Y-79378504D01*
X170941190Y-79395659D01*
X171000000Y-79401451D01*
X172600000Y-79401451D01*
X172658810Y-79395659D01*
X172715360Y-79378504D01*
X172767477Y-79350647D01*
X172813158Y-79313158D01*
X172850647Y-79267477D01*
X172878504Y-79215360D01*
X172895659Y-79158810D01*
X172901451Y-79100000D01*
X172901451Y-78191659D01*
X178320000Y-78191659D01*
X178320000Y-78408341D01*
X178362273Y-78620858D01*
X178445193Y-78821045D01*
X178565575Y-79001209D01*
X178718791Y-79154425D01*
X178898955Y-79274807D01*
X179099142Y-79357727D01*
X179311659Y-79400000D01*
X179528341Y-79400000D01*
X179740858Y-79357727D01*
X179941045Y-79274807D01*
X180121209Y-79154425D01*
X180274425Y-79001209D01*
X180394807Y-78821045D01*
X180477727Y-78620858D01*
X180520000Y-78408341D01*
X180520000Y-78191659D01*
X180477727Y-77979142D01*
X180394807Y-77778955D01*
X180274425Y-77598791D01*
X180121209Y-77445575D01*
X179941045Y-77325193D01*
X179740858Y-77242273D01*
X179528341Y-77200000D01*
X179311659Y-77200000D01*
X179099142Y-77242273D01*
X178898955Y-77325193D01*
X178718791Y-77445575D01*
X178565575Y-77598791D01*
X178445193Y-77778955D01*
X178362273Y-77979142D01*
X178320000Y-78191659D01*
X172901451Y-78191659D01*
X172901451Y-77500000D01*
X172895659Y-77441190D01*
X172878504Y-77384640D01*
X172850647Y-77332523D01*
X172813158Y-77286842D01*
X172767477Y-77249353D01*
X172715360Y-77221496D01*
X172658810Y-77204341D01*
X172600000Y-77198549D01*
X171000000Y-77198549D01*
X170941190Y-77204341D01*
X170884640Y-77221496D01*
X170832523Y-77249353D01*
X170786842Y-77286842D01*
X170749353Y-77332523D01*
X170721496Y-77384640D01*
X170704341Y-77441190D01*
X170698549Y-77500000D01*
X170698549Y-77850000D01*
X159454235Y-77850000D01*
X159424807Y-77778955D01*
X159304425Y-77598791D01*
X159151209Y-77445575D01*
X158971045Y-77325193D01*
X158770858Y-77242273D01*
X158558341Y-77200000D01*
X158341659Y-77200000D01*
X158129142Y-77242273D01*
X157928955Y-77325193D01*
X157748791Y-77445575D01*
X157595575Y-77598791D01*
X157475193Y-77778955D01*
X157392273Y-77979142D01*
X157350000Y-78191659D01*
X136373478Y-78191659D01*
X136431427Y-78092440D01*
X136514551Y-77851532D01*
X136421152Y-77650000D01*
X135350000Y-77650000D01*
X135150000Y-77650000D01*
X134078848Y-77650000D01*
X133985449Y-77851532D01*
X132151451Y-77851532D01*
X132151451Y-77248468D01*
X133985449Y-77248468D01*
X134078848Y-77450000D01*
X135150000Y-77450000D01*
X135150000Y-76379263D01*
X135350000Y-76379263D01*
X135350000Y-77450000D01*
X136421152Y-77450000D01*
X136514551Y-77248468D01*
X136431427Y-77007560D01*
X136302901Y-76787498D01*
X136133913Y-76596738D01*
X135930957Y-76442612D01*
X135701832Y-76331042D01*
X135551531Y-76285453D01*
X135350000Y-76379263D01*
X135150000Y-76379263D01*
X134948469Y-76285453D01*
X134798168Y-76331042D01*
X134569043Y-76442612D01*
X134366087Y-76596738D01*
X134197099Y-76787498D01*
X134068573Y-77007560D01*
X133985449Y-77248468D01*
X132151451Y-77248468D01*
X132151451Y-76700000D01*
X132145659Y-76641190D01*
X132128504Y-76584640D01*
X132100647Y-76532523D01*
X132063158Y-76486842D01*
X132017477Y-76449353D01*
X131965360Y-76421496D01*
X131908810Y-76404341D01*
X131850000Y-76398549D01*
X130250000Y-76398549D01*
X130191190Y-76404341D01*
X130134640Y-76421496D01*
X130082523Y-76449353D01*
X130036842Y-76486842D01*
X129999353Y-76532523D01*
X129971496Y-76584640D01*
X129954341Y-76641190D01*
X129948549Y-76700000D01*
X129265634Y-76700000D01*
X129211209Y-76645575D01*
X129031045Y-76525193D01*
X128830858Y-76442273D01*
X128618341Y-76400000D01*
X128401659Y-76400000D01*
X128189142Y-76442273D01*
X127988955Y-76525193D01*
X127808791Y-76645575D01*
X127655575Y-76798791D01*
X127535193Y-76978955D01*
X127452273Y-77179142D01*
X127410000Y-77391659D01*
X127410000Y-77608341D01*
X127452273Y-77820858D01*
X127481701Y-77891903D01*
X120497419Y-84876186D01*
X120480254Y-84890273D01*
X120466167Y-84907438D01*
X120466162Y-84907443D01*
X120424019Y-84958794D01*
X120382233Y-85036970D01*
X120356502Y-85121795D01*
X120352564Y-85161785D01*
X120347814Y-85210010D01*
X120349991Y-85232114D01*
X120349990Y-104685016D01*
X120347814Y-104707110D01*
X120349990Y-104729204D01*
X120349990Y-104729214D01*
X120356501Y-104795324D01*
X120380965Y-104875971D01*
X120382233Y-104880150D01*
X120424019Y-104958326D01*
X120439312Y-104976960D01*
X120480253Y-105026847D01*
X120497424Y-105040939D01*
X121550001Y-106093517D01*
X121550001Y-110604531D01*
X120950273Y-110604233D01*
X120934623Y-110605457D01*
X120795512Y-110627427D01*
X120776542Y-110632369D01*
X120765744Y-110637087D01*
X120640237Y-110700981D01*
X120623723Y-110711544D01*
X120614912Y-110719369D01*
X120515302Y-110818930D01*
X120502862Y-110834081D01*
X120496901Y-110844245D01*
X120432944Y-110969720D01*
X120425797Y-110987974D01*
X120423270Y-110999485D01*
X120401232Y-111138585D01*
X120400000Y-111154233D01*
X120400000Y-113192128D01*
X120381684Y-113307771D01*
X120332148Y-113404991D01*
X120254991Y-113482148D01*
X120157771Y-113531684D01*
X120042128Y-113550000D01*
X117957872Y-113550000D01*
X117842229Y-113531684D01*
X117745009Y-113482148D01*
X117667852Y-113404991D01*
X117618316Y-113307771D01*
X117600000Y-113192128D01*
X117600000Y-111850000D01*
X117598709Y-111833981D01*
X117575616Y-111691679D01*
X117570594Y-111672730D01*
X117565485Y-111661288D01*
X117498578Y-111533590D01*
X117490000Y-111520000D01*
X116965000Y-110820000D01*
X116954810Y-110808400D01*
X116855615Y-110711684D01*
X116840306Y-110699441D01*
X116830527Y-110693841D01*
X116825729Y-110691442D01*
X116820297Y-110636289D01*
X116801713Y-110575026D01*
X116771535Y-110518566D01*
X116730921Y-110469079D01*
X116681434Y-110428465D01*
X116624974Y-110398287D01*
X116563711Y-110379703D01*
X116515961Y-110375000D01*
X116515960Y-110375000D01*
X116500000Y-110373428D01*
X116484039Y-110375000D01*
X113725000Y-110375000D01*
X113725000Y-93925000D01*
X115034040Y-93925000D01*
X115050000Y-93926572D01*
X115113711Y-93920297D01*
X115174974Y-93901713D01*
X115231434Y-93871535D01*
X115280921Y-93830921D01*
X115321535Y-93781434D01*
X115351713Y-93724974D01*
X115370297Y-93663711D01*
X115375000Y-93615961D01*
X115376572Y-93600000D01*
X115375000Y-93584039D01*
X115375000Y-87925000D01*
X118284040Y-87925000D01*
X118300000Y-87926572D01*
X118363711Y-87920297D01*
X118424974Y-87901713D01*
X118481434Y-87871535D01*
X118530921Y-87830921D01*
X118571535Y-87781434D01*
X118601713Y-87724974D01*
X118620297Y-87663711D01*
X118625000Y-87615961D01*
X118626572Y-87600000D01*
X118625000Y-87584039D01*
X118625000Y-85015960D01*
X118626572Y-85000000D01*
X118620297Y-84936289D01*
X118601713Y-84875026D01*
X118571535Y-84818566D01*
X118530921Y-84769079D01*
X118481434Y-84728465D01*
X118424974Y-84698287D01*
X118363711Y-84679703D01*
X118315961Y-84675000D01*
X118315960Y-84675000D01*
X118300000Y-84673428D01*
X118284039Y-84675000D01*
X113725000Y-84675000D01*
X113725000Y-77801532D01*
X122165449Y-77801532D01*
X122248573Y-78042440D01*
X122377099Y-78262502D01*
X122546087Y-78453262D01*
X122749043Y-78607388D01*
X122978168Y-78718958D01*
X123128469Y-78764547D01*
X123330000Y-78670737D01*
X123330000Y-77600000D01*
X123530000Y-77600000D01*
X123530000Y-78670737D01*
X123731531Y-78764547D01*
X123881832Y-78718958D01*
X124110957Y-78607388D01*
X124313913Y-78453262D01*
X124482901Y-78262502D01*
X124611427Y-78042440D01*
X124694551Y-77801532D01*
X124601152Y-77600000D01*
X123530000Y-77600000D01*
X123330000Y-77600000D01*
X122258848Y-77600000D01*
X122165449Y-77801532D01*
X113725000Y-77801532D01*
X113725000Y-77198468D01*
X122165449Y-77198468D01*
X122258848Y-77400000D01*
X123330000Y-77400000D01*
X123330000Y-76329263D01*
X123530000Y-76329263D01*
X123530000Y-77400000D01*
X124601152Y-77400000D01*
X124605017Y-77391659D01*
X124870000Y-77391659D01*
X124870000Y-77608341D01*
X124912273Y-77820858D01*
X124995193Y-78021045D01*
X125115575Y-78201209D01*
X125268791Y-78354425D01*
X125448955Y-78474807D01*
X125649142Y-78557727D01*
X125861659Y-78600000D01*
X126078341Y-78600000D01*
X126290858Y-78557727D01*
X126491045Y-78474807D01*
X126671209Y-78354425D01*
X126824425Y-78201209D01*
X126944807Y-78021045D01*
X127027727Y-77820858D01*
X127070000Y-77608341D01*
X127070000Y-77391659D01*
X127027727Y-77179142D01*
X126944807Y-76978955D01*
X126824425Y-76798791D01*
X126671209Y-76645575D01*
X126491045Y-76525193D01*
X126290858Y-76442273D01*
X126078341Y-76400000D01*
X125861659Y-76400000D01*
X125649142Y-76442273D01*
X125448955Y-76525193D01*
X125268791Y-76645575D01*
X125115575Y-76798791D01*
X124995193Y-76978955D01*
X124912273Y-77179142D01*
X124870000Y-77391659D01*
X124605017Y-77391659D01*
X124694551Y-77198468D01*
X124611427Y-76957560D01*
X124482901Y-76737498D01*
X124313913Y-76546738D01*
X124110957Y-76392612D01*
X123881832Y-76281042D01*
X123731531Y-76235453D01*
X123530000Y-76329263D01*
X123330000Y-76329263D01*
X123128469Y-76235453D01*
X122978168Y-76281042D01*
X122749043Y-76392612D01*
X122546087Y-76546738D01*
X122377099Y-76737498D01*
X122248573Y-76957560D01*
X122165449Y-77198468D01*
X113725000Y-77198468D01*
X113725000Y-74450000D01*
X170698549Y-74450000D01*
X170698549Y-76050000D01*
X170704341Y-76108810D01*
X170721496Y-76165360D01*
X170749353Y-76217477D01*
X170786842Y-76263158D01*
X170832523Y-76300647D01*
X170884640Y-76328504D01*
X170941190Y-76345659D01*
X171000000Y-76351451D01*
X172600000Y-76351451D01*
X172658810Y-76345659D01*
X172715360Y-76328504D01*
X172767477Y-76300647D01*
X172813158Y-76263158D01*
X172850647Y-76217477D01*
X172878504Y-76165360D01*
X172895659Y-76108810D01*
X172901451Y-76050000D01*
X172901451Y-75141659D01*
X178320000Y-75141659D01*
X178320000Y-75358341D01*
X178362273Y-75570858D01*
X178445193Y-75771045D01*
X178565575Y-75951209D01*
X178718791Y-76104425D01*
X178898955Y-76224807D01*
X179099142Y-76307727D01*
X179311659Y-76350000D01*
X179528341Y-76350000D01*
X179740858Y-76307727D01*
X179941045Y-76224807D01*
X180121209Y-76104425D01*
X180274425Y-75951209D01*
X180394807Y-75771045D01*
X180477727Y-75570858D01*
X180520000Y-75358341D01*
X180520000Y-75141659D01*
X180477727Y-74929142D01*
X180394807Y-74728955D01*
X180274425Y-74548791D01*
X180121209Y-74395575D01*
X179941045Y-74275193D01*
X179740858Y-74192273D01*
X179528341Y-74150000D01*
X179311659Y-74150000D01*
X179099142Y-74192273D01*
X178898955Y-74275193D01*
X178718791Y-74395575D01*
X178565575Y-74548791D01*
X178445193Y-74728955D01*
X178362273Y-74929142D01*
X178320000Y-75141659D01*
X172901451Y-75141659D01*
X172901451Y-74450000D01*
X172895659Y-74391190D01*
X172878504Y-74334640D01*
X172850647Y-74282523D01*
X172813158Y-74236842D01*
X172767477Y-74199353D01*
X172715360Y-74171496D01*
X172658810Y-74154341D01*
X172600000Y-74148549D01*
X171000000Y-74148549D01*
X170941190Y-74154341D01*
X170884640Y-74171496D01*
X170832523Y-74199353D01*
X170786842Y-74236842D01*
X170749353Y-74282523D01*
X170721496Y-74334640D01*
X170704341Y-74391190D01*
X170698549Y-74450000D01*
X113725000Y-74450000D01*
X113725000Y-73251532D01*
X181555449Y-73251532D01*
X181638573Y-73492440D01*
X181767099Y-73712502D01*
X181936087Y-73903262D01*
X182139043Y-74057388D01*
X182368168Y-74168958D01*
X182518469Y-74214547D01*
X182720000Y-74120737D01*
X182720000Y-73050000D01*
X182920000Y-73050000D01*
X182920000Y-74120737D01*
X183121531Y-74214547D01*
X183271832Y-74168958D01*
X183500957Y-74057388D01*
X183703913Y-73903262D01*
X183872901Y-73712502D01*
X184001427Y-73492440D01*
X184084551Y-73251532D01*
X183991152Y-73050000D01*
X182920000Y-73050000D01*
X182720000Y-73050000D01*
X181648848Y-73050000D01*
X181555449Y-73251532D01*
X113725000Y-73251532D01*
X113725000Y-72648468D01*
X181555449Y-72648468D01*
X181648848Y-72850000D01*
X182720000Y-72850000D01*
X182720000Y-71779263D01*
X182920000Y-71779263D01*
X182920000Y-72850000D01*
X183991152Y-72850000D01*
X184084551Y-72648468D01*
X184095449Y-72648468D01*
X184188848Y-72850000D01*
X185260000Y-72850000D01*
X185260000Y-71779263D01*
X185058469Y-71685453D01*
X184908168Y-71731042D01*
X184679043Y-71842612D01*
X184476087Y-71996738D01*
X184307099Y-72187498D01*
X184178573Y-72407560D01*
X184095449Y-72648468D01*
X184084551Y-72648468D01*
X184001427Y-72407560D01*
X183872901Y-72187498D01*
X183703913Y-71996738D01*
X183500957Y-71842612D01*
X183271832Y-71731042D01*
X183121531Y-71685453D01*
X182920000Y-71779263D01*
X182720000Y-71779263D01*
X182518469Y-71685453D01*
X182368168Y-71731042D01*
X182139043Y-71842612D01*
X181936087Y-71996738D01*
X181767099Y-72187498D01*
X181638573Y-72407560D01*
X181555449Y-72648468D01*
X113725000Y-72648468D01*
X113725000Y-61425000D01*
X212775001Y-61425000D01*
X212775000Y-82275000D01*
G04 #@! TA.AperFunction,Conductor*
D20*
G36*
X212775000Y-82275000D02*
G01*
X208115961Y-82275000D01*
X208100000Y-82273428D01*
X208084040Y-82275000D01*
X208084039Y-82275000D01*
X208036289Y-82279703D01*
X207975026Y-82298287D01*
X207918566Y-82328465D01*
X207869079Y-82369079D01*
X207828465Y-82418566D01*
X207798287Y-82475026D01*
X207779703Y-82536289D01*
X207773428Y-82600000D01*
X207775001Y-82615971D01*
X207775000Y-85184039D01*
X207773428Y-85200000D01*
X207779703Y-85263711D01*
X207798287Y-85324974D01*
X207828465Y-85381434D01*
X207850548Y-85408341D01*
X207869079Y-85430921D01*
X207918566Y-85471535D01*
X207975026Y-85501713D01*
X208036289Y-85520297D01*
X208100000Y-85526572D01*
X208115960Y-85525000D01*
X211175001Y-85525000D01*
X211175000Y-91184039D01*
X211173428Y-91200000D01*
X211179703Y-91263711D01*
X211198287Y-91324974D01*
X211228465Y-91381434D01*
X211245488Y-91402176D01*
X211269079Y-91430921D01*
X211318566Y-91471535D01*
X211375026Y-91501713D01*
X211436289Y-91520297D01*
X211500000Y-91526572D01*
X211515960Y-91525000D01*
X212775001Y-91525000D01*
X212775000Y-110375000D01*
X210015961Y-110375000D01*
X210000000Y-110373428D01*
X209984040Y-110375000D01*
X209984039Y-110375000D01*
X209936289Y-110379703D01*
X209875026Y-110398287D01*
X209818566Y-110428465D01*
X209769079Y-110469079D01*
X209728465Y-110518566D01*
X209698287Y-110575026D01*
X209679703Y-110636289D01*
X209678522Y-110648277D01*
X206837690Y-110646867D01*
X206901209Y-110604425D01*
X207054425Y-110451209D01*
X207174807Y-110271045D01*
X207257727Y-110070858D01*
X207300000Y-109858341D01*
X207300000Y-109641659D01*
X207257727Y-109429142D01*
X207174807Y-109228955D01*
X207054425Y-109048791D01*
X206901209Y-108895575D01*
X206832999Y-108849999D01*
X206901209Y-108804422D01*
X207054425Y-108651206D01*
X207174807Y-108471042D01*
X207257727Y-108270855D01*
X207300000Y-108058338D01*
X207300000Y-107841656D01*
X207257727Y-107629139D01*
X207174807Y-107428952D01*
X207054425Y-107248788D01*
X206901209Y-107095572D01*
X206721045Y-106975190D01*
X206520858Y-106892270D01*
X206308341Y-106849997D01*
X206091659Y-106849997D01*
X205879142Y-106892270D01*
X205678955Y-106975190D01*
X205498791Y-107095572D01*
X205345575Y-107248788D01*
X205225193Y-107428952D01*
X205195765Y-107499997D01*
X202586393Y-107499997D01*
X201059218Y-105972823D01*
X206651941Y-105972823D01*
X206698942Y-105969118D01*
X206838205Y-105947027D01*
X206872845Y-105939409D01*
X206927595Y-105917935D01*
X207053185Y-105853829D01*
X207093363Y-105829162D01*
X211491422Y-102627325D01*
X211527155Y-102596751D01*
X211626529Y-102497218D01*
X211649911Y-102470871D01*
X211681595Y-102421324D01*
X211745388Y-102295974D01*
X211759494Y-102263696D01*
X211774334Y-102206789D01*
X211796314Y-102067869D01*
X211800000Y-102020986D01*
X211800000Y-100650000D01*
X211796306Y-100603069D01*
X211774281Y-100464011D01*
X211766712Y-100429511D01*
X211745277Y-100374746D01*
X211681360Y-100249301D01*
X211663499Y-100218826D01*
X211626190Y-100173365D01*
X211526635Y-100073810D01*
X211500231Y-100050346D01*
X211450699Y-100018640D01*
X211325254Y-99954723D01*
X211292894Y-99940568D01*
X211235989Y-99925719D01*
X211096931Y-99903694D01*
X211050000Y-99900000D01*
X207321638Y-99900000D01*
X207253003Y-99889159D01*
X207212309Y-99868490D01*
X207179964Y-99836283D01*
X207159122Y-99795677D01*
X207147990Y-99727092D01*
X207124903Y-94301532D01*
X208935449Y-94301532D01*
X209018573Y-94542440D01*
X209147099Y-94762502D01*
X209316087Y-94953262D01*
X209519043Y-95107388D01*
X209748168Y-95218958D01*
X209898469Y-95264547D01*
X210100000Y-95170737D01*
X210100000Y-94100000D01*
X210300000Y-94100000D01*
X210300000Y-95170737D01*
X210501531Y-95264547D01*
X210651832Y-95218958D01*
X210880957Y-95107388D01*
X211083913Y-94953262D01*
X211252901Y-94762502D01*
X211381427Y-94542440D01*
X211464551Y-94301532D01*
X211371152Y-94100000D01*
X210300000Y-94100000D01*
X210100000Y-94100000D01*
X209028848Y-94100000D01*
X208935449Y-94301532D01*
X207124903Y-94301532D01*
X207122337Y-93698468D01*
X208935449Y-93698468D01*
X209028848Y-93900000D01*
X210100000Y-93900000D01*
X210100000Y-92829263D01*
X210300000Y-92829263D01*
X210300000Y-93900000D01*
X211371152Y-93900000D01*
X211464551Y-93698468D01*
X211381427Y-93457560D01*
X211252901Y-93237498D01*
X211083913Y-93046738D01*
X210880957Y-92892612D01*
X210651832Y-92781042D01*
X210501531Y-92735453D01*
X210300000Y-92829263D01*
X210100000Y-92829263D01*
X209898469Y-92735453D01*
X209748168Y-92781042D01*
X209519043Y-92892612D01*
X209316087Y-93046738D01*
X209147099Y-93237498D01*
X209018573Y-93457560D01*
X208935449Y-93698468D01*
X207122337Y-93698468D01*
X207100298Y-88519631D01*
X207096425Y-88472842D01*
X207073928Y-88334243D01*
X207066297Y-88300018D01*
X207044699Y-88245317D01*
X206980581Y-88120399D01*
X206962771Y-88090189D01*
X206925366Y-88044808D01*
X206825868Y-87945733D01*
X206799616Y-87922485D01*
X206750045Y-87890841D01*
X206624855Y-87827254D01*
X206592713Y-87813227D01*
X206535802Y-87798402D01*
X206397109Y-87776496D01*
X206350305Y-87772823D01*
X199748394Y-87772823D01*
X199701463Y-87776517D01*
X199562405Y-87798542D01*
X199527905Y-87806111D01*
X199473140Y-87827546D01*
X199347695Y-87891463D01*
X199317220Y-87909324D01*
X199271759Y-87946633D01*
X199172204Y-88046188D01*
X199148740Y-88072592D01*
X199117034Y-88122124D01*
X199053117Y-88247569D01*
X199038962Y-88279929D01*
X199024113Y-88336834D01*
X199008575Y-88434934D01*
X198984425Y-88398791D01*
X198831209Y-88245575D01*
X198651045Y-88125193D01*
X198450858Y-88042273D01*
X198238341Y-88000000D01*
X198021659Y-88000000D01*
X197809142Y-88042273D01*
X197608955Y-88125193D01*
X197428791Y-88245575D01*
X197275575Y-88398791D01*
X197155193Y-88578955D01*
X197072273Y-88779142D01*
X197030000Y-88991659D01*
X197030000Y-89208341D01*
X197072273Y-89420858D01*
X197155193Y-89621045D01*
X197275575Y-89801209D01*
X197428791Y-89954425D01*
X197608955Y-90074807D01*
X197809142Y-90157727D01*
X198021659Y-90200000D01*
X198238341Y-90200000D01*
X198450858Y-90157727D01*
X198651045Y-90074807D01*
X198831209Y-89954425D01*
X198984425Y-89801209D01*
X198998394Y-89780303D01*
X198998394Y-92399215D01*
X198987496Y-92468021D01*
X198966722Y-92508792D01*
X198934363Y-92541151D01*
X198893592Y-92561925D01*
X198824786Y-92572823D01*
X178423675Y-92572823D01*
X178451209Y-92554425D01*
X178604425Y-92401209D01*
X178724807Y-92221045D01*
X178807727Y-92020858D01*
X178850000Y-91808341D01*
X178850000Y-91591659D01*
X178807727Y-91379142D01*
X178778299Y-91308096D01*
X179502572Y-90583824D01*
X179519736Y-90569738D01*
X179533823Y-90552573D01*
X179533827Y-90552569D01*
X179575970Y-90501218D01*
X179617756Y-90423042D01*
X179635500Y-90364547D01*
X179643488Y-90338216D01*
X179649999Y-90272106D01*
X179649999Y-90272096D01*
X179652175Y-90250002D01*
X179649999Y-90227908D01*
X179649999Y-89955232D01*
X179828955Y-90074807D01*
X180029142Y-90157727D01*
X180241659Y-90200000D01*
X180458341Y-90200000D01*
X180670858Y-90157727D01*
X180871045Y-90074807D01*
X181051209Y-89954425D01*
X181204425Y-89801209D01*
X181324807Y-89621045D01*
X181407727Y-89420858D01*
X181450000Y-89208341D01*
X181450000Y-88991659D01*
X181790000Y-88991659D01*
X181790000Y-89208341D01*
X181832273Y-89420858D01*
X181915193Y-89621045D01*
X182035575Y-89801209D01*
X182188791Y-89954425D01*
X182368955Y-90074807D01*
X182569142Y-90157727D01*
X182781659Y-90200000D01*
X182998341Y-90200000D01*
X183210858Y-90157727D01*
X183411045Y-90074807D01*
X183591209Y-89954425D01*
X183744425Y-89801209D01*
X183864807Y-89621045D01*
X183947727Y-89420858D01*
X183990000Y-89208341D01*
X183990000Y-88991659D01*
X184330000Y-88991659D01*
X184330000Y-89208341D01*
X184372273Y-89420858D01*
X184455193Y-89621045D01*
X184575575Y-89801209D01*
X184728791Y-89954425D01*
X184908955Y-90074807D01*
X185109142Y-90157727D01*
X185321659Y-90200000D01*
X185538341Y-90200000D01*
X185750858Y-90157727D01*
X185951045Y-90074807D01*
X186131209Y-89954425D01*
X186284425Y-89801209D01*
X186404807Y-89621045D01*
X186487727Y-89420858D01*
X186530000Y-89208341D01*
X186530000Y-88991659D01*
X186870000Y-88991659D01*
X186870000Y-89208341D01*
X186912273Y-89420858D01*
X186995193Y-89621045D01*
X187115575Y-89801209D01*
X187268791Y-89954425D01*
X187448955Y-90074807D01*
X187649142Y-90157727D01*
X187861659Y-90200000D01*
X188078341Y-90200000D01*
X188290858Y-90157727D01*
X188491045Y-90074807D01*
X188671209Y-89954425D01*
X188824425Y-89801209D01*
X188944807Y-89621045D01*
X189027727Y-89420858D01*
X189070000Y-89208341D01*
X189070000Y-88991659D01*
X189410000Y-88991659D01*
X189410000Y-89208341D01*
X189452273Y-89420858D01*
X189535193Y-89621045D01*
X189655575Y-89801209D01*
X189808791Y-89954425D01*
X189988955Y-90074807D01*
X190189142Y-90157727D01*
X190401659Y-90200000D01*
X190618341Y-90200000D01*
X190830858Y-90157727D01*
X191031045Y-90074807D01*
X191211209Y-89954425D01*
X191364425Y-89801209D01*
X191484807Y-89621045D01*
X191567727Y-89420858D01*
X191610000Y-89208341D01*
X191610000Y-88991659D01*
X191950000Y-88991659D01*
X191950000Y-89208341D01*
X191992273Y-89420858D01*
X192075193Y-89621045D01*
X192195575Y-89801209D01*
X192348791Y-89954425D01*
X192528955Y-90074807D01*
X192729142Y-90157727D01*
X192941659Y-90200000D01*
X193158341Y-90200000D01*
X193370858Y-90157727D01*
X193571045Y-90074807D01*
X193751209Y-89954425D01*
X193904425Y-89801209D01*
X194024807Y-89621045D01*
X194107727Y-89420858D01*
X194150000Y-89208341D01*
X194150000Y-88991659D01*
X194490000Y-88991659D01*
X194490000Y-89208341D01*
X194532273Y-89420858D01*
X194615193Y-89621045D01*
X194735575Y-89801209D01*
X194888791Y-89954425D01*
X195068955Y-90074807D01*
X195269142Y-90157727D01*
X195481659Y-90200000D01*
X195698341Y-90200000D01*
X195910858Y-90157727D01*
X196111045Y-90074807D01*
X196291209Y-89954425D01*
X196444425Y-89801209D01*
X196564807Y-89621045D01*
X196647727Y-89420858D01*
X196690000Y-89208341D01*
X196690000Y-88991659D01*
X196647727Y-88779142D01*
X196564807Y-88578955D01*
X196444425Y-88398791D01*
X196291209Y-88245575D01*
X196111045Y-88125193D01*
X195910858Y-88042273D01*
X195698341Y-88000000D01*
X195481659Y-88000000D01*
X195269142Y-88042273D01*
X195068955Y-88125193D01*
X194888791Y-88245575D01*
X194735575Y-88398791D01*
X194615193Y-88578955D01*
X194532273Y-88779142D01*
X194490000Y-88991659D01*
X194150000Y-88991659D01*
X194107727Y-88779142D01*
X194024807Y-88578955D01*
X193904425Y-88398791D01*
X193751209Y-88245575D01*
X193571045Y-88125193D01*
X193370858Y-88042273D01*
X193158341Y-88000000D01*
X192941659Y-88000000D01*
X192729142Y-88042273D01*
X192528955Y-88125193D01*
X192348791Y-88245575D01*
X192195575Y-88398791D01*
X192075193Y-88578955D01*
X191992273Y-88779142D01*
X191950000Y-88991659D01*
X191610000Y-88991659D01*
X191567727Y-88779142D01*
X191484807Y-88578955D01*
X191364425Y-88398791D01*
X191211209Y-88245575D01*
X191031045Y-88125193D01*
X190830858Y-88042273D01*
X190618341Y-88000000D01*
X190401659Y-88000000D01*
X190189142Y-88042273D01*
X189988955Y-88125193D01*
X189808791Y-88245575D01*
X189655575Y-88398791D01*
X189535193Y-88578955D01*
X189452273Y-88779142D01*
X189410000Y-88991659D01*
X189070000Y-88991659D01*
X189027727Y-88779142D01*
X188944807Y-88578955D01*
X188824425Y-88398791D01*
X188671209Y-88245575D01*
X188491045Y-88125193D01*
X188290858Y-88042273D01*
X188078341Y-88000000D01*
X187861659Y-88000000D01*
X187649142Y-88042273D01*
X187448955Y-88125193D01*
X187268791Y-88245575D01*
X187115575Y-88398791D01*
X186995193Y-88578955D01*
X186912273Y-88779142D01*
X186870000Y-88991659D01*
X186530000Y-88991659D01*
X186487727Y-88779142D01*
X186404807Y-88578955D01*
X186284425Y-88398791D01*
X186131209Y-88245575D01*
X185951045Y-88125193D01*
X185750858Y-88042273D01*
X185538341Y-88000000D01*
X185321659Y-88000000D01*
X185109142Y-88042273D01*
X184908955Y-88125193D01*
X184728791Y-88245575D01*
X184575575Y-88398791D01*
X184455193Y-88578955D01*
X184372273Y-88779142D01*
X184330000Y-88991659D01*
X183990000Y-88991659D01*
X183947727Y-88779142D01*
X183864807Y-88578955D01*
X183744425Y-88398791D01*
X183591209Y-88245575D01*
X183411045Y-88125193D01*
X183210858Y-88042273D01*
X182998341Y-88000000D01*
X182781659Y-88000000D01*
X182569142Y-88042273D01*
X182368955Y-88125193D01*
X182188791Y-88245575D01*
X182035575Y-88398791D01*
X181915193Y-88578955D01*
X181832273Y-88779142D01*
X181790000Y-88991659D01*
X181450000Y-88991659D01*
X181407727Y-88779142D01*
X181324807Y-88578955D01*
X181204425Y-88398791D01*
X181051209Y-88245575D01*
X180871045Y-88125193D01*
X180670858Y-88042273D01*
X180458341Y-88000000D01*
X180241659Y-88000000D01*
X180029142Y-88042273D01*
X179828955Y-88125193D01*
X179649999Y-88244768D01*
X179649999Y-86078398D01*
X180536738Y-85191659D01*
X184300000Y-85191659D01*
X184300000Y-85408341D01*
X184342273Y-85620858D01*
X184425193Y-85821045D01*
X184545575Y-86001209D01*
X184698791Y-86154425D01*
X184878955Y-86274807D01*
X185079142Y-86357727D01*
X185291659Y-86400000D01*
X185508341Y-86400000D01*
X185581045Y-86385538D01*
X185542273Y-86479142D01*
X185500000Y-86691659D01*
X185500000Y-86908341D01*
X185542273Y-87120858D01*
X185625193Y-87321045D01*
X185745575Y-87501209D01*
X185898791Y-87654425D01*
X186078955Y-87774807D01*
X186279142Y-87857727D01*
X186491659Y-87900000D01*
X186708341Y-87900000D01*
X186920858Y-87857727D01*
X187121045Y-87774807D01*
X187301209Y-87654425D01*
X187454425Y-87501209D01*
X187574807Y-87321045D01*
X187604235Y-87250000D01*
X188669906Y-87250000D01*
X188692000Y-87252176D01*
X188714094Y-87250000D01*
X188714105Y-87250000D01*
X188780215Y-87243489D01*
X188865041Y-87217757D01*
X188943216Y-87175971D01*
X189011737Y-87119737D01*
X189025829Y-87102566D01*
X194672572Y-81455824D01*
X194689736Y-81441738D01*
X194703823Y-81424573D01*
X194703827Y-81424569D01*
X194745970Y-81373218D01*
X194753499Y-81359133D01*
X194818791Y-81424425D01*
X194998955Y-81544807D01*
X195199142Y-81627727D01*
X195411659Y-81670000D01*
X195628341Y-81670000D01*
X195840858Y-81627727D01*
X196041045Y-81544807D01*
X196221209Y-81424425D01*
X196374425Y-81271209D01*
X196494807Y-81091045D01*
X196577727Y-80890858D01*
X196620000Y-80678341D01*
X196620000Y-80461659D01*
X196960000Y-80461659D01*
X196960000Y-80678341D01*
X197002273Y-80890858D01*
X197085193Y-81091045D01*
X197205575Y-81271209D01*
X197358791Y-81424425D01*
X197538955Y-81544807D01*
X197739142Y-81627727D01*
X197951659Y-81670000D01*
X198168341Y-81670000D01*
X198380858Y-81627727D01*
X198581045Y-81544807D01*
X198761209Y-81424425D01*
X198914425Y-81271209D01*
X199034807Y-81091045D01*
X199117727Y-80890858D01*
X199160000Y-80678341D01*
X199160000Y-80461659D01*
X199500000Y-80461659D01*
X199500000Y-80678341D01*
X199542273Y-80890858D01*
X199625193Y-81091045D01*
X199745575Y-81271209D01*
X199898791Y-81424425D01*
X200078955Y-81544807D01*
X200279142Y-81627727D01*
X200491659Y-81670000D01*
X200708341Y-81670000D01*
X200920858Y-81627727D01*
X201121045Y-81544807D01*
X201301209Y-81424425D01*
X201454425Y-81271209D01*
X201574807Y-81091045D01*
X201657727Y-80890858D01*
X201700000Y-80678341D01*
X201700000Y-80461659D01*
X201657727Y-80249142D01*
X201574807Y-80048955D01*
X201454425Y-79868791D01*
X201301209Y-79715575D01*
X201121045Y-79595193D01*
X200920858Y-79512273D01*
X200708341Y-79470000D01*
X200491659Y-79470000D01*
X200279142Y-79512273D01*
X200078955Y-79595193D01*
X199898791Y-79715575D01*
X199745575Y-79868791D01*
X199625193Y-80048955D01*
X199542273Y-80249142D01*
X199500000Y-80461659D01*
X199160000Y-80461659D01*
X199117727Y-80249142D01*
X199034807Y-80048955D01*
X198914425Y-79868791D01*
X198761209Y-79715575D01*
X198581045Y-79595193D01*
X198380858Y-79512273D01*
X198168341Y-79470000D01*
X197951659Y-79470000D01*
X197739142Y-79512273D01*
X197538955Y-79595193D01*
X197358791Y-79715575D01*
X197205575Y-79868791D01*
X197085193Y-80048955D01*
X197002273Y-80249142D01*
X196960000Y-80461659D01*
X196620000Y-80461659D01*
X196577727Y-80249142D01*
X196494807Y-80048955D01*
X196374425Y-79868791D01*
X196221209Y-79715575D01*
X196041045Y-79595193D01*
X195840858Y-79512273D01*
X195628341Y-79470000D01*
X195411659Y-79470000D01*
X195199142Y-79512273D01*
X194998955Y-79595193D01*
X194819999Y-79714768D01*
X194819999Y-74286396D01*
X195128096Y-73978299D01*
X195199142Y-74007727D01*
X195411659Y-74050000D01*
X195628341Y-74050000D01*
X195840858Y-74007727D01*
X196041045Y-73924807D01*
X196221209Y-73804425D01*
X196374425Y-73651209D01*
X196494807Y-73471045D01*
X196577727Y-73270858D01*
X196620000Y-73058341D01*
X196620000Y-72841659D01*
X196960000Y-72841659D01*
X196960000Y-73058341D01*
X197002273Y-73270858D01*
X197085193Y-73471045D01*
X197205575Y-73651209D01*
X197358791Y-73804425D01*
X197538955Y-73924807D01*
X197739142Y-74007727D01*
X197951659Y-74050000D01*
X198168341Y-74050000D01*
X198380858Y-74007727D01*
X198581045Y-73924807D01*
X198761209Y-73804425D01*
X198914425Y-73651209D01*
X199034807Y-73471045D01*
X199117727Y-73270858D01*
X199160000Y-73058341D01*
X199160000Y-72841659D01*
X199117727Y-72629142D01*
X199034807Y-72428955D01*
X198914425Y-72248791D01*
X198815634Y-72150000D01*
X199498549Y-72150000D01*
X199498549Y-73750000D01*
X199504341Y-73808810D01*
X199521496Y-73865360D01*
X199549353Y-73917477D01*
X199586842Y-73963158D01*
X199632523Y-74000647D01*
X199684640Y-74028504D01*
X199741190Y-74045659D01*
X199800000Y-74051451D01*
X201400000Y-74051451D01*
X201458810Y-74045659D01*
X201515360Y-74028504D01*
X201567477Y-74000647D01*
X201613158Y-73963158D01*
X201650647Y-73917477D01*
X201678504Y-73865360D01*
X201695659Y-73808810D01*
X201701451Y-73750000D01*
X201701451Y-72150000D01*
X201695659Y-72091190D01*
X201678504Y-72034640D01*
X201650647Y-71982523D01*
X201613158Y-71936842D01*
X201567477Y-71899353D01*
X201515360Y-71871496D01*
X201458810Y-71854341D01*
X201400000Y-71848549D01*
X199800000Y-71848549D01*
X199741190Y-71854341D01*
X199684640Y-71871496D01*
X199632523Y-71899353D01*
X199586842Y-71936842D01*
X199549353Y-71982523D01*
X199521496Y-72034640D01*
X199504341Y-72091190D01*
X199498549Y-72150000D01*
X198815634Y-72150000D01*
X198761209Y-72095575D01*
X198581045Y-71975193D01*
X198380858Y-71892273D01*
X198168341Y-71850000D01*
X197951659Y-71850000D01*
X197739142Y-71892273D01*
X197538955Y-71975193D01*
X197358791Y-72095575D01*
X197205575Y-72248791D01*
X197085193Y-72428955D01*
X197002273Y-72629142D01*
X196960000Y-72841659D01*
X196620000Y-72841659D01*
X196577727Y-72629142D01*
X196494807Y-72428955D01*
X196374425Y-72248791D01*
X196221209Y-72095575D01*
X196041045Y-71975193D01*
X195840858Y-71892273D01*
X195628341Y-71850000D01*
X195411659Y-71850000D01*
X195199142Y-71892273D01*
X194998955Y-71975193D01*
X194818791Y-72095575D01*
X194665575Y-72248791D01*
X194545193Y-72428955D01*
X194462273Y-72629142D01*
X194420000Y-72841659D01*
X194420000Y-73058341D01*
X194462273Y-73270858D01*
X194491701Y-73341904D01*
X194067428Y-73766177D01*
X194050263Y-73780264D01*
X194036176Y-73797429D01*
X194036171Y-73797434D01*
X193994028Y-73848785D01*
X193952242Y-73926961D01*
X193941262Y-73963158D01*
X193926511Y-74011786D01*
X193922605Y-74051451D01*
X193917823Y-74100001D01*
X193920000Y-74122105D01*
X193919999Y-79996862D01*
X193834425Y-79868791D01*
X193681209Y-79715575D01*
X193501045Y-79595193D01*
X193300858Y-79512273D01*
X193088341Y-79470000D01*
X192871659Y-79470000D01*
X192659142Y-79512273D01*
X192458955Y-79595193D01*
X192279999Y-79714768D01*
X192279999Y-74286396D01*
X192588096Y-73978299D01*
X192659142Y-74007727D01*
X192871659Y-74050000D01*
X193088341Y-74050000D01*
X193300858Y-74007727D01*
X193501045Y-73924807D01*
X193681209Y-73804425D01*
X193834425Y-73651209D01*
X193954807Y-73471045D01*
X194037727Y-73270858D01*
X194080000Y-73058341D01*
X194080000Y-72841659D01*
X194037727Y-72629142D01*
X193954807Y-72428955D01*
X193834425Y-72248791D01*
X193681209Y-72095575D01*
X193501045Y-71975193D01*
X193300858Y-71892273D01*
X193088341Y-71850000D01*
X192871659Y-71850000D01*
X192659142Y-71892273D01*
X192458955Y-71975193D01*
X192278791Y-72095575D01*
X192125575Y-72248791D01*
X192005193Y-72428955D01*
X191922273Y-72629142D01*
X191880000Y-72841659D01*
X191880000Y-73058341D01*
X191922273Y-73270858D01*
X191951701Y-73341904D01*
X191527428Y-73766177D01*
X191510263Y-73780264D01*
X191496176Y-73797429D01*
X191496171Y-73797434D01*
X191454028Y-73848785D01*
X191412242Y-73926961D01*
X191401262Y-73963158D01*
X191386511Y-74011786D01*
X191382605Y-74051451D01*
X191377823Y-74100001D01*
X191380000Y-74122105D01*
X191379999Y-79996862D01*
X191294425Y-79868791D01*
X191141209Y-79715575D01*
X190961045Y-79595193D01*
X190760858Y-79512273D01*
X190548341Y-79470000D01*
X190331659Y-79470000D01*
X190119142Y-79512273D01*
X189918955Y-79595193D01*
X189738791Y-79715575D01*
X189585575Y-79868791D01*
X189465193Y-80048955D01*
X189382273Y-80249142D01*
X189340000Y-80461659D01*
X189340000Y-80678341D01*
X189382273Y-80890858D01*
X189465193Y-81091045D01*
X189585575Y-81271209D01*
X189738791Y-81424425D01*
X189918955Y-81544807D01*
X190119142Y-81627727D01*
X190331659Y-81670000D01*
X190548341Y-81670000D01*
X190760858Y-81627727D01*
X190961045Y-81544807D01*
X191141209Y-81424425D01*
X191294425Y-81271209D01*
X191379999Y-81143138D01*
X191379999Y-82768485D01*
X189348485Y-84800000D01*
X186383524Y-84800000D01*
X186374807Y-84778955D01*
X186254425Y-84598791D01*
X186101209Y-84445575D01*
X185921045Y-84325193D01*
X185720858Y-84242273D01*
X185508341Y-84200000D01*
X185291659Y-84200000D01*
X185079142Y-84242273D01*
X184878955Y-84325193D01*
X184698791Y-84445575D01*
X184545575Y-84598791D01*
X184425193Y-84778955D01*
X184342273Y-84979142D01*
X184300000Y-85191659D01*
X180536738Y-85191659D01*
X184348810Y-81379587D01*
X184476087Y-81523262D01*
X184679043Y-81677388D01*
X184908168Y-81788958D01*
X185058469Y-81834547D01*
X185260000Y-81740737D01*
X185260000Y-80670000D01*
X185460000Y-80670000D01*
X185460000Y-81740737D01*
X185661531Y-81834547D01*
X185811832Y-81788958D01*
X186040957Y-81677388D01*
X186243913Y-81523262D01*
X186412901Y-81332502D01*
X186541427Y-81112440D01*
X186624551Y-80871532D01*
X186531152Y-80670000D01*
X185460000Y-80670000D01*
X185260000Y-80670000D01*
X185240000Y-80670000D01*
X185240000Y-80470000D01*
X185260000Y-80470000D01*
X185260000Y-79399263D01*
X185460000Y-79399263D01*
X185460000Y-80470000D01*
X186531152Y-80470000D01*
X186535017Y-80461659D01*
X186800000Y-80461659D01*
X186800000Y-80678341D01*
X186842273Y-80890858D01*
X186925193Y-81091045D01*
X187045575Y-81271209D01*
X187198791Y-81424425D01*
X187378955Y-81544807D01*
X187579142Y-81627727D01*
X187791659Y-81670000D01*
X188008341Y-81670000D01*
X188220858Y-81627727D01*
X188421045Y-81544807D01*
X188601209Y-81424425D01*
X188754425Y-81271209D01*
X188874807Y-81091045D01*
X188957727Y-80890858D01*
X189000000Y-80678341D01*
X189000000Y-80461659D01*
X188957727Y-80249142D01*
X188874807Y-80048955D01*
X188754425Y-79868791D01*
X188601209Y-79715575D01*
X188421045Y-79595193D01*
X188220858Y-79512273D01*
X188008341Y-79470000D01*
X187791659Y-79470000D01*
X187579142Y-79512273D01*
X187378955Y-79595193D01*
X187198791Y-79715575D01*
X187045575Y-79868791D01*
X186925193Y-80048955D01*
X186842273Y-80249142D01*
X186800000Y-80461659D01*
X186535017Y-80461659D01*
X186624551Y-80268468D01*
X186541427Y-80027560D01*
X186412901Y-79807498D01*
X186243913Y-79616738D01*
X186040957Y-79462612D01*
X185811832Y-79351042D01*
X185661531Y-79305453D01*
X185460000Y-79399263D01*
X185260000Y-79399263D01*
X185058469Y-79305453D01*
X184908168Y-79351042D01*
X184679043Y-79462612D01*
X184659999Y-79477074D01*
X184659999Y-76826396D01*
X187508097Y-73978299D01*
X187579142Y-74007727D01*
X187791659Y-74050000D01*
X188008341Y-74050000D01*
X188220858Y-74007727D01*
X188421045Y-73924807D01*
X188601209Y-73804425D01*
X188754425Y-73651209D01*
X188874807Y-73471045D01*
X188957727Y-73270858D01*
X189000000Y-73058341D01*
X189000000Y-72841659D01*
X188957727Y-72629142D01*
X188874807Y-72428955D01*
X188755232Y-72249999D01*
X189103604Y-72249999D01*
X189411701Y-72558096D01*
X189382273Y-72629142D01*
X189340000Y-72841659D01*
X189340000Y-73058341D01*
X189382273Y-73270858D01*
X189465193Y-73471045D01*
X189585575Y-73651209D01*
X189738791Y-73804425D01*
X189918955Y-73924807D01*
X190119142Y-74007727D01*
X190331659Y-74050000D01*
X190548341Y-74050000D01*
X190760858Y-74007727D01*
X190961045Y-73924807D01*
X191141209Y-73804425D01*
X191294425Y-73651209D01*
X191414807Y-73471045D01*
X191497727Y-73270858D01*
X191540000Y-73058341D01*
X191540000Y-72841659D01*
X191497727Y-72629142D01*
X191414807Y-72428955D01*
X191294425Y-72248791D01*
X191141209Y-72095575D01*
X190961045Y-71975193D01*
X190760858Y-71892273D01*
X190548341Y-71850000D01*
X190331659Y-71850000D01*
X190119142Y-71892273D01*
X190048096Y-71921701D01*
X189623828Y-71497433D01*
X189609736Y-71480262D01*
X189541215Y-71424028D01*
X189463040Y-71382242D01*
X189378214Y-71356510D01*
X189312104Y-71349999D01*
X189312093Y-71349999D01*
X189289999Y-71347823D01*
X189267905Y-71349999D01*
X187370093Y-71349999D01*
X187347999Y-71347823D01*
X187325905Y-71349999D01*
X187325894Y-71349999D01*
X187259784Y-71356510D01*
X187174958Y-71382242D01*
X187096782Y-71424028D01*
X187045431Y-71466171D01*
X187045427Y-71466175D01*
X187028262Y-71480262D01*
X187014175Y-71497427D01*
X186447428Y-72064175D01*
X186430263Y-72078262D01*
X186416176Y-72095427D01*
X186416171Y-72095432D01*
X186375377Y-72145139D01*
X186243913Y-71996738D01*
X186040957Y-71842612D01*
X185811832Y-71731042D01*
X185661531Y-71685453D01*
X185460000Y-71779263D01*
X185460000Y-72850000D01*
X185480000Y-72850000D01*
X185480000Y-73050000D01*
X185460000Y-73050000D01*
X185460000Y-73070000D01*
X185260000Y-73070000D01*
X185260000Y-73050000D01*
X184188848Y-73050000D01*
X184095449Y-73251532D01*
X184178573Y-73492440D01*
X184307099Y-73712502D01*
X184476087Y-73903262D01*
X184679043Y-74057388D01*
X184908168Y-74168958D01*
X185058469Y-74214547D01*
X185259998Y-74120738D01*
X185259998Y-74246484D01*
X173647429Y-85859054D01*
X173630264Y-85873141D01*
X173616177Y-85890306D01*
X173616172Y-85890311D01*
X173574029Y-85941662D01*
X173532243Y-86019838D01*
X173506512Y-86104663D01*
X173497824Y-86192878D01*
X173500001Y-86214982D01*
X173500001Y-88314367D01*
X173431209Y-88245575D01*
X173251045Y-88125193D01*
X173050858Y-88042273D01*
X172838341Y-88000000D01*
X172621659Y-88000000D01*
X172409142Y-88042273D01*
X172208955Y-88125193D01*
X172028791Y-88245575D01*
X171875575Y-88398791D01*
X171755193Y-88578955D01*
X171672273Y-88779142D01*
X171630000Y-88991659D01*
X171630000Y-89208341D01*
X171672273Y-89420858D01*
X171755193Y-89621045D01*
X171875575Y-89801209D01*
X172028791Y-89954425D01*
X172208955Y-90074807D01*
X172409142Y-90157727D01*
X172621659Y-90200000D01*
X172838341Y-90200000D01*
X173050858Y-90157727D01*
X173251045Y-90074807D01*
X173431209Y-89954425D01*
X173500000Y-89885634D01*
X173500000Y-90695765D01*
X173428955Y-90725193D01*
X173248791Y-90845575D01*
X173095575Y-90998791D01*
X172975193Y-91178955D01*
X172892273Y-91379142D01*
X172850000Y-91591659D01*
X172850000Y-91808341D01*
X172892273Y-92020858D01*
X172975193Y-92221045D01*
X173095575Y-92401209D01*
X173248791Y-92554425D01*
X173276325Y-92572823D01*
X163323608Y-92572823D01*
X163254802Y-92561925D01*
X163214031Y-92541151D01*
X163181672Y-92508792D01*
X163160898Y-92468021D01*
X163150000Y-92399215D01*
X163150000Y-89401532D01*
X166385449Y-89401532D01*
X166468573Y-89642440D01*
X166597099Y-89862502D01*
X166766087Y-90053262D01*
X166969043Y-90207388D01*
X167198168Y-90318958D01*
X167348469Y-90364547D01*
X167550000Y-90270737D01*
X167550000Y-89200000D01*
X167750000Y-89200000D01*
X167750000Y-90270737D01*
X167951531Y-90364547D01*
X168101832Y-90318958D01*
X168330957Y-90207388D01*
X168533913Y-90053262D01*
X168702901Y-89862502D01*
X168831427Y-89642440D01*
X168914551Y-89401532D01*
X168821152Y-89200000D01*
X167750000Y-89200000D01*
X167550000Y-89200000D01*
X166478848Y-89200000D01*
X166385449Y-89401532D01*
X163150000Y-89401532D01*
X163150000Y-88798468D01*
X166385449Y-88798468D01*
X166478848Y-89000000D01*
X167550000Y-89000000D01*
X167550000Y-87929263D01*
X167750000Y-87929263D01*
X167750000Y-89000000D01*
X168821152Y-89000000D01*
X168825017Y-88991659D01*
X169090000Y-88991659D01*
X169090000Y-89208341D01*
X169132273Y-89420858D01*
X169215193Y-89621045D01*
X169335575Y-89801209D01*
X169488791Y-89954425D01*
X169668955Y-90074807D01*
X169869142Y-90157727D01*
X170081659Y-90200000D01*
X170298341Y-90200000D01*
X170510858Y-90157727D01*
X170711045Y-90074807D01*
X170891209Y-89954425D01*
X171044425Y-89801209D01*
X171164807Y-89621045D01*
X171247727Y-89420858D01*
X171290000Y-89208341D01*
X171290000Y-88991659D01*
X171247727Y-88779142D01*
X171164807Y-88578955D01*
X171044425Y-88398791D01*
X170891209Y-88245575D01*
X170711045Y-88125193D01*
X170510858Y-88042273D01*
X170298341Y-88000000D01*
X170081659Y-88000000D01*
X169869142Y-88042273D01*
X169668955Y-88125193D01*
X169488791Y-88245575D01*
X169335575Y-88398791D01*
X169215193Y-88578955D01*
X169132273Y-88779142D01*
X169090000Y-88991659D01*
X168825017Y-88991659D01*
X168914551Y-88798468D01*
X168831427Y-88557560D01*
X168702901Y-88337498D01*
X168533913Y-88146738D01*
X168330957Y-87992612D01*
X168101832Y-87881042D01*
X167951531Y-87835453D01*
X167750000Y-87929263D01*
X167550000Y-87929263D01*
X167348469Y-87835453D01*
X167198168Y-87881042D01*
X166969043Y-87992612D01*
X166766087Y-88146738D01*
X166597099Y-88337498D01*
X166468573Y-88557560D01*
X166385449Y-88798468D01*
X163150000Y-88798468D01*
X163150000Y-88114119D01*
X163158151Y-88054341D01*
X163173886Y-88017799D01*
X163211712Y-87970797D01*
X164765400Y-86501091D01*
X164792956Y-86471238D01*
X164869195Y-86376504D01*
X164874152Y-86368275D01*
X165029958Y-86441540D01*
X165240263Y-86493719D01*
X165456706Y-86503867D01*
X165670970Y-86471593D01*
X165874821Y-86398139D01*
X165966126Y-86349335D01*
X166018866Y-86160287D01*
X165400000Y-85541421D01*
X165385858Y-85555564D01*
X165244437Y-85414143D01*
X165258579Y-85400000D01*
X165541421Y-85400000D01*
X166160287Y-86018866D01*
X166349335Y-85966126D01*
X166441540Y-85770042D01*
X166493719Y-85559737D01*
X166503867Y-85343294D01*
X166471593Y-85129030D01*
X166398139Y-84925179D01*
X166349335Y-84833874D01*
X166160287Y-84781134D01*
X165541421Y-85400000D01*
X165258579Y-85400000D01*
X165244437Y-85385858D01*
X165385858Y-85244437D01*
X165400000Y-85258579D01*
X166018866Y-84639713D01*
X165966126Y-84450665D01*
X165770042Y-84358460D01*
X165559737Y-84306281D01*
X165343294Y-84296133D01*
X165129030Y-84328407D01*
X165000000Y-84374901D01*
X165000000Y-80399356D01*
X164996313Y-80352468D01*
X164974328Y-80213533D01*
X164966787Y-80179113D01*
X164945376Y-80124339D01*
X164881570Y-79998979D01*
X164863769Y-79968568D01*
X164826492Y-79923080D01*
X164727099Y-79823545D01*
X164700781Y-79800118D01*
X164651282Y-79768361D01*
X164526014Y-79704375D01*
X164493747Y-79690217D01*
X164436861Y-79675294D01*
X164297958Y-79653110D01*
X164251075Y-79649356D01*
X130251075Y-79600646D01*
X130204097Y-79604279D01*
X130064885Y-79626144D01*
X130030291Y-79633693D01*
X129975505Y-79655072D01*
X129849882Y-79718921D01*
X129819318Y-79736800D01*
X129773830Y-79774076D01*
X129674114Y-79873649D01*
X129650579Y-79900103D01*
X129618851Y-79949621D01*
X129554821Y-80075153D01*
X129540621Y-80107590D01*
X129525764Y-80164493D01*
X129503700Y-80303673D01*
X129500000Y-80350645D01*
X129500000Y-84635634D01*
X129484807Y-84598955D01*
X129364425Y-84418791D01*
X129211209Y-84265575D01*
X129031045Y-84145193D01*
X128830858Y-84062273D01*
X128618341Y-84020000D01*
X128401659Y-84020000D01*
X128189142Y-84062273D01*
X127988955Y-84145193D01*
X127808791Y-84265575D01*
X127655575Y-84418791D01*
X127535193Y-84598955D01*
X127452273Y-84799142D01*
X127410000Y-85011659D01*
X127410000Y-85228341D01*
X127452273Y-85440858D01*
X127481701Y-85511904D01*
X127077428Y-85916177D01*
X127060263Y-85930264D01*
X127046176Y-85947429D01*
X127046171Y-85947434D01*
X127004028Y-85998785D01*
X126962242Y-86076961D01*
X126936511Y-86161786D01*
X126927823Y-86250001D01*
X126930000Y-86272105D01*
X126929999Y-88526862D01*
X126844425Y-88398791D01*
X126691209Y-88245575D01*
X126511045Y-88125193D01*
X126310858Y-88042273D01*
X126098341Y-88000000D01*
X125881659Y-88000000D01*
X125669142Y-88042273D01*
X125468955Y-88125193D01*
X125288791Y-88245575D01*
X125135575Y-88398791D01*
X125015193Y-88578955D01*
X124932273Y-88779142D01*
X124890000Y-88991659D01*
X124890000Y-89208341D01*
X124932273Y-89420858D01*
X125015193Y-89621045D01*
X125135575Y-89801209D01*
X125288791Y-89954425D01*
X125468955Y-90074807D01*
X125669142Y-90157727D01*
X125881659Y-90200000D01*
X125955607Y-90200000D01*
X125655607Y-90500000D01*
X122572094Y-90500000D01*
X122550000Y-90497824D01*
X122527905Y-90500000D01*
X122527895Y-90500000D01*
X122461785Y-90506511D01*
X122376959Y-90532243D01*
X122298783Y-90574029D01*
X122247432Y-90616172D01*
X122247428Y-90616176D01*
X122230263Y-90630263D01*
X122216176Y-90647428D01*
X121249990Y-91613615D01*
X121249990Y-89401532D01*
X122185449Y-89401532D01*
X122268573Y-89642440D01*
X122397099Y-89862502D01*
X122566087Y-90053262D01*
X122769043Y-90207388D01*
X122998168Y-90318958D01*
X123148469Y-90364547D01*
X123350000Y-90270737D01*
X123350000Y-89200000D01*
X123550000Y-89200000D01*
X123550000Y-90270737D01*
X123751531Y-90364547D01*
X123901832Y-90318958D01*
X124130957Y-90207388D01*
X124333913Y-90053262D01*
X124502901Y-89862502D01*
X124631427Y-89642440D01*
X124714551Y-89401532D01*
X124621152Y-89200000D01*
X123550000Y-89200000D01*
X123350000Y-89200000D01*
X122278848Y-89200000D01*
X122185449Y-89401532D01*
X121249990Y-89401532D01*
X121249990Y-88798468D01*
X122185449Y-88798468D01*
X122278848Y-89000000D01*
X123350000Y-89000000D01*
X123350000Y-87929263D01*
X123550000Y-87929263D01*
X123550000Y-89000000D01*
X124621152Y-89000000D01*
X124714551Y-88798468D01*
X124631427Y-88557560D01*
X124502901Y-88337498D01*
X124333913Y-88146738D01*
X124130957Y-87992612D01*
X123901832Y-87881042D01*
X123751531Y-87835453D01*
X123550000Y-87929263D01*
X123350000Y-87929263D01*
X123148469Y-87835453D01*
X122998168Y-87881042D01*
X122769043Y-87992612D01*
X122566087Y-88146738D01*
X122397099Y-88337498D01*
X122268573Y-88557560D01*
X122185449Y-88798468D01*
X121249990Y-88798468D01*
X121249990Y-85396405D01*
X121634736Y-85011659D01*
X122330000Y-85011659D01*
X122330000Y-85228341D01*
X122372273Y-85440858D01*
X122455193Y-85641045D01*
X122575575Y-85821209D01*
X122728791Y-85974425D01*
X122908955Y-86094807D01*
X123109142Y-86177727D01*
X123321659Y-86220000D01*
X123538341Y-86220000D01*
X123750858Y-86177727D01*
X123951045Y-86094807D01*
X124131209Y-85974425D01*
X124284425Y-85821209D01*
X124404807Y-85641045D01*
X124487727Y-85440858D01*
X124530000Y-85228341D01*
X124530000Y-85011659D01*
X124870000Y-85011659D01*
X124870000Y-85228341D01*
X124912273Y-85440858D01*
X124995193Y-85641045D01*
X125115575Y-85821209D01*
X125268791Y-85974425D01*
X125448955Y-86094807D01*
X125649142Y-86177727D01*
X125861659Y-86220000D01*
X126078341Y-86220000D01*
X126290858Y-86177727D01*
X126491045Y-86094807D01*
X126671209Y-85974425D01*
X126824425Y-85821209D01*
X126944807Y-85641045D01*
X127027727Y-85440858D01*
X127070000Y-85228341D01*
X127070000Y-85011659D01*
X127027727Y-84799142D01*
X126944807Y-84598955D01*
X126824425Y-84418791D01*
X126671209Y-84265575D01*
X126491045Y-84145193D01*
X126290858Y-84062273D01*
X126078341Y-84020000D01*
X125861659Y-84020000D01*
X125649142Y-84062273D01*
X125448955Y-84145193D01*
X125268791Y-84265575D01*
X125115575Y-84418791D01*
X124995193Y-84598955D01*
X124912273Y-84799142D01*
X124870000Y-85011659D01*
X124530000Y-85011659D01*
X124487727Y-84799142D01*
X124404807Y-84598955D01*
X124284425Y-84418791D01*
X124131209Y-84265575D01*
X123951045Y-84145193D01*
X123750858Y-84062273D01*
X123538341Y-84020000D01*
X123321659Y-84020000D01*
X123109142Y-84062273D01*
X122908955Y-84145193D01*
X122728791Y-84265575D01*
X122575575Y-84418791D01*
X122455193Y-84598955D01*
X122372273Y-84799142D01*
X122330000Y-85011659D01*
X121634736Y-85011659D01*
X128118097Y-78528299D01*
X128189142Y-78557727D01*
X128401659Y-78600000D01*
X128618341Y-78600000D01*
X128830858Y-78557727D01*
X129031045Y-78474807D01*
X129211209Y-78354425D01*
X129364425Y-78201209D01*
X129484807Y-78021045D01*
X129567727Y-77820858D01*
X129610000Y-77608341D01*
X129610000Y-77391659D01*
X129567727Y-77179142D01*
X129484807Y-76978955D01*
X129364425Y-76798791D01*
X129265634Y-76700000D01*
X129948549Y-76700000D01*
X129948549Y-78300000D01*
X129954341Y-78358810D01*
X129971496Y-78415360D01*
X129999353Y-78467477D01*
X130036842Y-78513158D01*
X130082523Y-78550647D01*
X130134640Y-78578504D01*
X130191190Y-78595659D01*
X130250000Y-78601451D01*
X131850000Y-78601451D01*
X131908810Y-78595659D01*
X131965360Y-78578504D01*
X132017477Y-78550647D01*
X132063158Y-78513158D01*
X132100647Y-78467477D01*
X132128504Y-78415360D01*
X132145659Y-78358810D01*
X132151451Y-78300000D01*
X132151451Y-77851532D01*
X133985449Y-77851532D01*
X134068573Y-78092440D01*
X134197099Y-78312502D01*
X134366087Y-78503262D01*
X134569043Y-78657388D01*
X134798168Y-78768958D01*
X134948469Y-78814547D01*
X135150000Y-78720737D01*
X135150000Y-77650000D01*
X135350000Y-77650000D01*
X135350000Y-78720737D01*
X135551531Y-78814547D01*
X135701832Y-78768958D01*
X135930957Y-78657388D01*
X136133913Y-78503262D01*
X136302901Y-78312502D01*
X136373478Y-78191659D01*
X157350000Y-78191659D01*
X157350000Y-78408341D01*
X157392273Y-78620858D01*
X157475193Y-78821045D01*
X157595575Y-79001209D01*
X157748791Y-79154425D01*
X157928955Y-79274807D01*
X158129142Y-79357727D01*
X158341659Y-79400000D01*
X158558341Y-79400000D01*
X158770858Y-79357727D01*
X158971045Y-79274807D01*
X159151209Y-79154425D01*
X159304425Y-79001209D01*
X159424807Y-78821045D01*
X159454235Y-78750000D01*
X170698549Y-78750000D01*
X170698549Y-79100000D01*
X170704341Y-79158810D01*
X170721496Y-79215360D01*
X170749353Y-79267477D01*
X170786842Y-79313158D01*
X170832523Y-79350647D01*
X170884640Y-79378504D01*
X170941190Y-79395659D01*
X171000000Y-79401451D01*
X172600000Y-79401451D01*
X172658810Y-79395659D01*
X172715360Y-79378504D01*
X172767477Y-79350647D01*
X172813158Y-79313158D01*
X172850647Y-79267477D01*
X172878504Y-79215360D01*
X172895659Y-79158810D01*
X172901451Y-79100000D01*
X172901451Y-78191659D01*
X178320000Y-78191659D01*
X178320000Y-78408341D01*
X178362273Y-78620858D01*
X178445193Y-78821045D01*
X178565575Y-79001209D01*
X178718791Y-79154425D01*
X178898955Y-79274807D01*
X179099142Y-79357727D01*
X179311659Y-79400000D01*
X179528341Y-79400000D01*
X179740858Y-79357727D01*
X179941045Y-79274807D01*
X180121209Y-79154425D01*
X180274425Y-79001209D01*
X180394807Y-78821045D01*
X180477727Y-78620858D01*
X180520000Y-78408341D01*
X180520000Y-78191659D01*
X180477727Y-77979142D01*
X180394807Y-77778955D01*
X180274425Y-77598791D01*
X180121209Y-77445575D01*
X179941045Y-77325193D01*
X179740858Y-77242273D01*
X179528341Y-77200000D01*
X179311659Y-77200000D01*
X179099142Y-77242273D01*
X178898955Y-77325193D01*
X178718791Y-77445575D01*
X178565575Y-77598791D01*
X178445193Y-77778955D01*
X178362273Y-77979142D01*
X178320000Y-78191659D01*
X172901451Y-78191659D01*
X172901451Y-77500000D01*
X172895659Y-77441190D01*
X172878504Y-77384640D01*
X172850647Y-77332523D01*
X172813158Y-77286842D01*
X172767477Y-77249353D01*
X172715360Y-77221496D01*
X172658810Y-77204341D01*
X172600000Y-77198549D01*
X171000000Y-77198549D01*
X170941190Y-77204341D01*
X170884640Y-77221496D01*
X170832523Y-77249353D01*
X170786842Y-77286842D01*
X170749353Y-77332523D01*
X170721496Y-77384640D01*
X170704341Y-77441190D01*
X170698549Y-77500000D01*
X170698549Y-77850000D01*
X159454235Y-77850000D01*
X159424807Y-77778955D01*
X159304425Y-77598791D01*
X159151209Y-77445575D01*
X158971045Y-77325193D01*
X158770858Y-77242273D01*
X158558341Y-77200000D01*
X158341659Y-77200000D01*
X158129142Y-77242273D01*
X157928955Y-77325193D01*
X157748791Y-77445575D01*
X157595575Y-77598791D01*
X157475193Y-77778955D01*
X157392273Y-77979142D01*
X157350000Y-78191659D01*
X136373478Y-78191659D01*
X136431427Y-78092440D01*
X136514551Y-77851532D01*
X136421152Y-77650000D01*
X135350000Y-77650000D01*
X135150000Y-77650000D01*
X134078848Y-77650000D01*
X133985449Y-77851532D01*
X132151451Y-77851532D01*
X132151451Y-77248468D01*
X133985449Y-77248468D01*
X134078848Y-77450000D01*
X135150000Y-77450000D01*
X135150000Y-76379263D01*
X135350000Y-76379263D01*
X135350000Y-77450000D01*
X136421152Y-77450000D01*
X136514551Y-77248468D01*
X136431427Y-77007560D01*
X136302901Y-76787498D01*
X136133913Y-76596738D01*
X135930957Y-76442612D01*
X135701832Y-76331042D01*
X135551531Y-76285453D01*
X135350000Y-76379263D01*
X135150000Y-76379263D01*
X134948469Y-76285453D01*
X134798168Y-76331042D01*
X134569043Y-76442612D01*
X134366087Y-76596738D01*
X134197099Y-76787498D01*
X134068573Y-77007560D01*
X133985449Y-77248468D01*
X132151451Y-77248468D01*
X132151451Y-76700000D01*
X132145659Y-76641190D01*
X132128504Y-76584640D01*
X132100647Y-76532523D01*
X132063158Y-76486842D01*
X132017477Y-76449353D01*
X131965360Y-76421496D01*
X131908810Y-76404341D01*
X131850000Y-76398549D01*
X130250000Y-76398549D01*
X130191190Y-76404341D01*
X130134640Y-76421496D01*
X130082523Y-76449353D01*
X130036842Y-76486842D01*
X129999353Y-76532523D01*
X129971496Y-76584640D01*
X129954341Y-76641190D01*
X129948549Y-76700000D01*
X129265634Y-76700000D01*
X129211209Y-76645575D01*
X129031045Y-76525193D01*
X128830858Y-76442273D01*
X128618341Y-76400000D01*
X128401659Y-76400000D01*
X128189142Y-76442273D01*
X127988955Y-76525193D01*
X127808791Y-76645575D01*
X127655575Y-76798791D01*
X127535193Y-76978955D01*
X127452273Y-77179142D01*
X127410000Y-77391659D01*
X127410000Y-77608341D01*
X127452273Y-77820858D01*
X127481701Y-77891903D01*
X120497419Y-84876186D01*
X120480254Y-84890273D01*
X120466167Y-84907438D01*
X120466162Y-84907443D01*
X120424019Y-84958794D01*
X120382233Y-85036970D01*
X120356502Y-85121795D01*
X120352564Y-85161785D01*
X120347814Y-85210010D01*
X120349991Y-85232114D01*
X120349990Y-104685016D01*
X120347814Y-104707110D01*
X120349990Y-104729204D01*
X120349990Y-104729214D01*
X120356501Y-104795324D01*
X120380965Y-104875971D01*
X120382233Y-104880150D01*
X120424019Y-104958326D01*
X120439312Y-104976960D01*
X120480253Y-105026847D01*
X120497424Y-105040939D01*
X121550001Y-106093517D01*
X121550001Y-110604531D01*
X120950273Y-110604233D01*
X120934623Y-110605457D01*
X120795512Y-110627427D01*
X120776542Y-110632369D01*
X120765744Y-110637087D01*
X120640237Y-110700981D01*
X120623723Y-110711544D01*
X120614912Y-110719369D01*
X120515302Y-110818930D01*
X120502862Y-110834081D01*
X120496901Y-110844245D01*
X120432944Y-110969720D01*
X120425797Y-110987974D01*
X120423270Y-110999485D01*
X120401232Y-111138585D01*
X120400000Y-111154233D01*
X120400000Y-113192128D01*
X120381684Y-113307771D01*
X120332148Y-113404991D01*
X120254991Y-113482148D01*
X120157771Y-113531684D01*
X120042128Y-113550000D01*
X117957872Y-113550000D01*
X117842229Y-113531684D01*
X117745009Y-113482148D01*
X117667852Y-113404991D01*
X117618316Y-113307771D01*
X117600000Y-113192128D01*
X117600000Y-111850000D01*
X117598709Y-111833981D01*
X117575616Y-111691679D01*
X117570594Y-111672730D01*
X117565485Y-111661288D01*
X117498578Y-111533590D01*
X117490000Y-111520000D01*
X116965000Y-110820000D01*
X116954810Y-110808400D01*
X116855615Y-110711684D01*
X116840306Y-110699441D01*
X116830527Y-110693841D01*
X116825729Y-110691442D01*
X116820297Y-110636289D01*
X116801713Y-110575026D01*
X116771535Y-110518566D01*
X116730921Y-110469079D01*
X116681434Y-110428465D01*
X116624974Y-110398287D01*
X116563711Y-110379703D01*
X116515961Y-110375000D01*
X116515960Y-110375000D01*
X116500000Y-110373428D01*
X116484039Y-110375000D01*
X113725000Y-110375000D01*
X113725000Y-93925000D01*
X115034040Y-93925000D01*
X115050000Y-93926572D01*
X115113711Y-93920297D01*
X115174974Y-93901713D01*
X115231434Y-93871535D01*
X115280921Y-93830921D01*
X115321535Y-93781434D01*
X115351713Y-93724974D01*
X115370297Y-93663711D01*
X115375000Y-93615961D01*
X115376572Y-93600000D01*
X115375000Y-93584039D01*
X115375000Y-87925000D01*
X118284040Y-87925000D01*
X118300000Y-87926572D01*
X118363711Y-87920297D01*
X118424974Y-87901713D01*
X118481434Y-87871535D01*
X118530921Y-87830921D01*
X118571535Y-87781434D01*
X118601713Y-87724974D01*
X118620297Y-87663711D01*
X118625000Y-87615961D01*
X118626572Y-87600000D01*
X118625000Y-87584039D01*
X118625000Y-85015960D01*
X118626572Y-85000000D01*
X118620297Y-84936289D01*
X118601713Y-84875026D01*
X118571535Y-84818566D01*
X118530921Y-84769079D01*
X118481434Y-84728465D01*
X118424974Y-84698287D01*
X118363711Y-84679703D01*
X118315961Y-84675000D01*
X118315960Y-84675000D01*
X118300000Y-84673428D01*
X118284039Y-84675000D01*
X113725000Y-84675000D01*
X113725000Y-77801532D01*
X122165449Y-77801532D01*
X122248573Y-78042440D01*
X122377099Y-78262502D01*
X122546087Y-78453262D01*
X122749043Y-78607388D01*
X122978168Y-78718958D01*
X123128469Y-78764547D01*
X123330000Y-78670737D01*
X123330000Y-77600000D01*
X123530000Y-77600000D01*
X123530000Y-78670737D01*
X123731531Y-78764547D01*
X123881832Y-78718958D01*
X124110957Y-78607388D01*
X124313913Y-78453262D01*
X124482901Y-78262502D01*
X124611427Y-78042440D01*
X124694551Y-77801532D01*
X124601152Y-77600000D01*
X123530000Y-77600000D01*
X123330000Y-77600000D01*
X122258848Y-77600000D01*
X122165449Y-77801532D01*
X113725000Y-77801532D01*
X113725000Y-77198468D01*
X122165449Y-77198468D01*
X122258848Y-77400000D01*
X123330000Y-77400000D01*
X123330000Y-76329263D01*
X123530000Y-76329263D01*
X123530000Y-77400000D01*
X124601152Y-77400000D01*
X124605017Y-77391659D01*
X124870000Y-77391659D01*
X124870000Y-77608341D01*
X124912273Y-77820858D01*
X124995193Y-78021045D01*
X125115575Y-78201209D01*
X125268791Y-78354425D01*
X125448955Y-78474807D01*
X125649142Y-78557727D01*
X125861659Y-78600000D01*
X126078341Y-78600000D01*
X126290858Y-78557727D01*
X126491045Y-78474807D01*
X126671209Y-78354425D01*
X126824425Y-78201209D01*
X126944807Y-78021045D01*
X127027727Y-77820858D01*
X127070000Y-77608341D01*
X127070000Y-77391659D01*
X127027727Y-77179142D01*
X126944807Y-76978955D01*
X126824425Y-76798791D01*
X126671209Y-76645575D01*
X126491045Y-76525193D01*
X126290858Y-76442273D01*
X126078341Y-76400000D01*
X125861659Y-76400000D01*
X125649142Y-76442273D01*
X125448955Y-76525193D01*
X125268791Y-76645575D01*
X125115575Y-76798791D01*
X124995193Y-76978955D01*
X124912273Y-77179142D01*
X124870000Y-77391659D01*
X124605017Y-77391659D01*
X124694551Y-77198468D01*
X124611427Y-76957560D01*
X124482901Y-76737498D01*
X124313913Y-76546738D01*
X124110957Y-76392612D01*
X123881832Y-76281042D01*
X123731531Y-76235453D01*
X123530000Y-76329263D01*
X123330000Y-76329263D01*
X123128469Y-76235453D01*
X122978168Y-76281042D01*
X122749043Y-76392612D01*
X122546087Y-76546738D01*
X122377099Y-76737498D01*
X122248573Y-76957560D01*
X122165449Y-77198468D01*
X113725000Y-77198468D01*
X113725000Y-74450000D01*
X170698549Y-74450000D01*
X170698549Y-76050000D01*
X170704341Y-76108810D01*
X170721496Y-76165360D01*
X170749353Y-76217477D01*
X170786842Y-76263158D01*
X170832523Y-76300647D01*
X170884640Y-76328504D01*
X170941190Y-76345659D01*
X171000000Y-76351451D01*
X172600000Y-76351451D01*
X172658810Y-76345659D01*
X172715360Y-76328504D01*
X172767477Y-76300647D01*
X172813158Y-76263158D01*
X172850647Y-76217477D01*
X172878504Y-76165360D01*
X172895659Y-76108810D01*
X172901451Y-76050000D01*
X172901451Y-75141659D01*
X178320000Y-75141659D01*
X178320000Y-75358341D01*
X178362273Y-75570858D01*
X178445193Y-75771045D01*
X178565575Y-75951209D01*
X178718791Y-76104425D01*
X178898955Y-76224807D01*
X179099142Y-76307727D01*
X179311659Y-76350000D01*
X179528341Y-76350000D01*
X179740858Y-76307727D01*
X179941045Y-76224807D01*
X180121209Y-76104425D01*
X180274425Y-75951209D01*
X180394807Y-75771045D01*
X180477727Y-75570858D01*
X180520000Y-75358341D01*
X180520000Y-75141659D01*
X180477727Y-74929142D01*
X180394807Y-74728955D01*
X180274425Y-74548791D01*
X180121209Y-74395575D01*
X179941045Y-74275193D01*
X179740858Y-74192273D01*
X179528341Y-74150000D01*
X179311659Y-74150000D01*
X179099142Y-74192273D01*
X178898955Y-74275193D01*
X178718791Y-74395575D01*
X178565575Y-74548791D01*
X178445193Y-74728955D01*
X178362273Y-74929142D01*
X178320000Y-75141659D01*
X172901451Y-75141659D01*
X172901451Y-74450000D01*
X172895659Y-74391190D01*
X172878504Y-74334640D01*
X172850647Y-74282523D01*
X172813158Y-74236842D01*
X172767477Y-74199353D01*
X172715360Y-74171496D01*
X172658810Y-74154341D01*
X172600000Y-74148549D01*
X171000000Y-74148549D01*
X170941190Y-74154341D01*
X170884640Y-74171496D01*
X170832523Y-74199353D01*
X170786842Y-74236842D01*
X170749353Y-74282523D01*
X170721496Y-74334640D01*
X170704341Y-74391190D01*
X170698549Y-74450000D01*
X113725000Y-74450000D01*
X113725000Y-73251532D01*
X181555449Y-73251532D01*
X181638573Y-73492440D01*
X181767099Y-73712502D01*
X181936087Y-73903262D01*
X182139043Y-74057388D01*
X182368168Y-74168958D01*
X182518469Y-74214547D01*
X182720000Y-74120737D01*
X182720000Y-73050000D01*
X182920000Y-73050000D01*
X182920000Y-74120737D01*
X183121531Y-74214547D01*
X183271832Y-74168958D01*
X183500957Y-74057388D01*
X183703913Y-73903262D01*
X183872901Y-73712502D01*
X184001427Y-73492440D01*
X184084551Y-73251532D01*
X183991152Y-73050000D01*
X182920000Y-73050000D01*
X182720000Y-73050000D01*
X181648848Y-73050000D01*
X181555449Y-73251532D01*
X113725000Y-73251532D01*
X113725000Y-72648468D01*
X181555449Y-72648468D01*
X181648848Y-72850000D01*
X182720000Y-72850000D01*
X182720000Y-71779263D01*
X182920000Y-71779263D01*
X182920000Y-72850000D01*
X183991152Y-72850000D01*
X184084551Y-72648468D01*
X184095449Y-72648468D01*
X184188848Y-72850000D01*
X185260000Y-72850000D01*
X185260000Y-71779263D01*
X185058469Y-71685453D01*
X184908168Y-71731042D01*
X184679043Y-71842612D01*
X184476087Y-71996738D01*
X184307099Y-72187498D01*
X184178573Y-72407560D01*
X184095449Y-72648468D01*
X184084551Y-72648468D01*
X184001427Y-72407560D01*
X183872901Y-72187498D01*
X183703913Y-71996738D01*
X183500957Y-71842612D01*
X183271832Y-71731042D01*
X183121531Y-71685453D01*
X182920000Y-71779263D01*
X182720000Y-71779263D01*
X182518469Y-71685453D01*
X182368168Y-71731042D01*
X182139043Y-71842612D01*
X181936087Y-71996738D01*
X181767099Y-72187498D01*
X181638573Y-72407560D01*
X181555449Y-72648468D01*
X113725000Y-72648468D01*
X113725000Y-61425000D01*
X212775001Y-61425000D01*
X212775000Y-82275000D01*
G37*
G04 #@! TD.AperFunction*
D19*
X166931807Y-103502559D02*
X166795575Y-103638791D01*
X166675193Y-103818955D01*
X166592273Y-104019142D01*
X166550000Y-104231659D01*
X166550000Y-104448341D01*
X166592273Y-104660858D01*
X166675193Y-104861045D01*
X166795575Y-105041209D01*
X166948791Y-105194425D01*
X167128955Y-105314807D01*
X167329142Y-105397727D01*
X167541659Y-105440000D01*
X167758341Y-105440000D01*
X167970858Y-105397727D01*
X168041904Y-105368299D01*
X168629231Y-105955626D01*
X168572105Y-105950000D01*
X168572094Y-105950000D01*
X168550000Y-105947824D01*
X168527906Y-105950000D01*
X166504235Y-105950000D01*
X166474807Y-105878955D01*
X166354425Y-105698791D01*
X166201209Y-105545575D01*
X166021045Y-105425193D01*
X165820858Y-105342273D01*
X165608341Y-105300000D01*
X165391659Y-105300000D01*
X165179142Y-105342273D01*
X164978955Y-105425193D01*
X164798791Y-105545575D01*
X164645575Y-105698791D01*
X164525193Y-105878955D01*
X164442273Y-106079142D01*
X164400000Y-106291659D01*
X164400000Y-106508341D01*
X164442273Y-106720858D01*
X164525193Y-106921045D01*
X164645575Y-107101209D01*
X164798791Y-107254425D01*
X164978955Y-107374807D01*
X165179142Y-107457727D01*
X165391659Y-107500000D01*
X165608341Y-107500000D01*
X165820858Y-107457727D01*
X166021045Y-107374807D01*
X166201209Y-107254425D01*
X166354425Y-107101209D01*
X166474807Y-106921045D01*
X166504235Y-106850000D01*
X166544767Y-106850000D01*
X166425193Y-107028955D01*
X166342273Y-107229142D01*
X166300000Y-107441659D01*
X166300000Y-107658341D01*
X166342273Y-107870858D01*
X166425193Y-108071045D01*
X166545575Y-108251209D01*
X166698791Y-108404425D01*
X166878955Y-108524807D01*
X167079142Y-108607727D01*
X167291659Y-108650000D01*
X167508341Y-108650000D01*
X167720858Y-108607727D01*
X167921045Y-108524807D01*
X168101209Y-108404425D01*
X168254425Y-108251209D01*
X168374807Y-108071045D01*
X168404235Y-108000000D01*
X168806485Y-108000000D01*
X168906485Y-108100000D01*
X168791659Y-108100000D01*
X168579142Y-108142273D01*
X168378955Y-108225193D01*
X168198791Y-108345575D01*
X168045575Y-108498791D01*
X167925193Y-108678955D01*
X167842273Y-108879142D01*
X167800000Y-109091659D01*
X167800000Y-109308341D01*
X167842273Y-109520858D01*
X167925193Y-109721045D01*
X168045575Y-109901209D01*
X168198791Y-110054425D01*
X168378955Y-110174807D01*
X168579142Y-110257727D01*
X168791659Y-110300000D01*
X169008341Y-110300000D01*
X169220858Y-110257727D01*
X169421045Y-110174807D01*
X169601209Y-110054425D01*
X169754425Y-109901209D01*
X169874807Y-109721045D01*
X169904206Y-109650070D01*
X173644767Y-109650070D01*
X173525193Y-109829025D01*
X173442273Y-110029212D01*
X173400000Y-110241729D01*
X173400000Y-110458411D01*
X173434189Y-110630286D01*
X152450000Y-110619869D01*
X152450000Y-107272094D01*
X152452176Y-107250000D01*
X152450000Y-107227906D01*
X152450000Y-107227895D01*
X152443489Y-107161785D01*
X152417757Y-107076959D01*
X152395935Y-107036133D01*
X152375971Y-106998783D01*
X152333828Y-106947432D01*
X152333824Y-106947428D01*
X152319737Y-106930263D01*
X152302572Y-106916176D01*
X150550000Y-105163605D01*
X150550000Y-105055634D01*
X150688791Y-105194425D01*
X150868955Y-105314807D01*
X151069142Y-105397727D01*
X151281659Y-105440000D01*
X151498341Y-105440000D01*
X151710858Y-105397727D01*
X151781904Y-105368299D01*
X155616176Y-109202572D01*
X155630263Y-109219737D01*
X155647428Y-109233824D01*
X155647432Y-109233828D01*
X155698783Y-109275971D01*
X155759343Y-109308341D01*
X155776959Y-109317757D01*
X155861785Y-109343489D01*
X155927895Y-109350000D01*
X155927906Y-109350000D01*
X155950000Y-109352176D01*
X155972094Y-109350000D01*
X160695765Y-109350000D01*
X160725193Y-109421045D01*
X160845575Y-109601209D01*
X160998791Y-109754425D01*
X161178955Y-109874807D01*
X161379142Y-109957727D01*
X161591659Y-110000000D01*
X161808341Y-110000000D01*
X162020858Y-109957727D01*
X162221045Y-109874807D01*
X162401209Y-109754425D01*
X162554425Y-109601209D01*
X162674807Y-109421045D01*
X162757727Y-109220858D01*
X162800000Y-109008341D01*
X162800000Y-108791659D01*
X162757727Y-108579142D01*
X162674807Y-108378955D01*
X162554425Y-108198791D01*
X162401209Y-108045575D01*
X162221045Y-107925193D01*
X162020858Y-107842273D01*
X161808341Y-107800000D01*
X161591659Y-107800000D01*
X161379142Y-107842273D01*
X161318350Y-107867454D01*
X161350000Y-107708341D01*
X161350000Y-107491659D01*
X161307727Y-107279142D01*
X161224807Y-107078955D01*
X161104425Y-106898791D01*
X160951209Y-106745575D01*
X160771045Y-106625193D01*
X160570858Y-106542273D01*
X160358341Y-106500000D01*
X160141659Y-106500000D01*
X159929142Y-106542273D01*
X159728955Y-106625193D01*
X159548791Y-106745575D01*
X159395575Y-106898791D01*
X159275193Y-107078955D01*
X159245765Y-107150000D01*
X157855233Y-107150000D01*
X157974807Y-106971045D01*
X158057727Y-106770858D01*
X158100000Y-106558341D01*
X158100000Y-106341659D01*
X158057727Y-106129142D01*
X157974807Y-105928955D01*
X157922051Y-105850000D01*
X162400000Y-105850000D01*
X162446931Y-105846306D01*
X162585989Y-105824281D01*
X162620489Y-105816712D01*
X162675254Y-105795277D01*
X162800699Y-105731360D01*
X162831174Y-105713499D01*
X162876635Y-105676190D01*
X162976190Y-105576635D01*
X162999654Y-105550231D01*
X163031360Y-105500699D01*
X163095277Y-105375254D01*
X163109432Y-105342894D01*
X163124281Y-105285989D01*
X163146306Y-105146931D01*
X163150000Y-105100000D01*
X163150000Y-103673905D01*
X163160907Y-103605068D01*
X163181697Y-103564285D01*
X163214077Y-103531926D01*
X163254875Y-103511160D01*
X163323715Y-103500297D01*
X166931807Y-103502559D01*
G04 #@! TA.AperFunction,Conductor*
D20*
G36*
X166931807Y-103502559D02*
G01*
X166795575Y-103638791D01*
X166675193Y-103818955D01*
X166592273Y-104019142D01*
X166550000Y-104231659D01*
X166550000Y-104448341D01*
X166592273Y-104660858D01*
X166675193Y-104861045D01*
X166795575Y-105041209D01*
X166948791Y-105194425D01*
X167128955Y-105314807D01*
X167329142Y-105397727D01*
X167541659Y-105440000D01*
X167758341Y-105440000D01*
X167970858Y-105397727D01*
X168041904Y-105368299D01*
X168629231Y-105955626D01*
X168572105Y-105950000D01*
X168572094Y-105950000D01*
X168550000Y-105947824D01*
X168527906Y-105950000D01*
X166504235Y-105950000D01*
X166474807Y-105878955D01*
X166354425Y-105698791D01*
X166201209Y-105545575D01*
X166021045Y-105425193D01*
X165820858Y-105342273D01*
X165608341Y-105300000D01*
X165391659Y-105300000D01*
X165179142Y-105342273D01*
X164978955Y-105425193D01*
X164798791Y-105545575D01*
X164645575Y-105698791D01*
X164525193Y-105878955D01*
X164442273Y-106079142D01*
X164400000Y-106291659D01*
X164400000Y-106508341D01*
X164442273Y-106720858D01*
X164525193Y-106921045D01*
X164645575Y-107101209D01*
X164798791Y-107254425D01*
X164978955Y-107374807D01*
X165179142Y-107457727D01*
X165391659Y-107500000D01*
X165608341Y-107500000D01*
X165820858Y-107457727D01*
X166021045Y-107374807D01*
X166201209Y-107254425D01*
X166354425Y-107101209D01*
X166474807Y-106921045D01*
X166504235Y-106850000D01*
X166544767Y-106850000D01*
X166425193Y-107028955D01*
X166342273Y-107229142D01*
X166300000Y-107441659D01*
X166300000Y-107658341D01*
X166342273Y-107870858D01*
X166425193Y-108071045D01*
X166545575Y-108251209D01*
X166698791Y-108404425D01*
X166878955Y-108524807D01*
X167079142Y-108607727D01*
X167291659Y-108650000D01*
X167508341Y-108650000D01*
X167720858Y-108607727D01*
X167921045Y-108524807D01*
X168101209Y-108404425D01*
X168254425Y-108251209D01*
X168374807Y-108071045D01*
X168404235Y-108000000D01*
X168806485Y-108000000D01*
X168906485Y-108100000D01*
X168791659Y-108100000D01*
X168579142Y-108142273D01*
X168378955Y-108225193D01*
X168198791Y-108345575D01*
X168045575Y-108498791D01*
X167925193Y-108678955D01*
X167842273Y-108879142D01*
X167800000Y-109091659D01*
X167800000Y-109308341D01*
X167842273Y-109520858D01*
X167925193Y-109721045D01*
X168045575Y-109901209D01*
X168198791Y-110054425D01*
X168378955Y-110174807D01*
X168579142Y-110257727D01*
X168791659Y-110300000D01*
X169008341Y-110300000D01*
X169220858Y-110257727D01*
X169421045Y-110174807D01*
X169601209Y-110054425D01*
X169754425Y-109901209D01*
X169874807Y-109721045D01*
X169904206Y-109650070D01*
X173644767Y-109650070D01*
X173525193Y-109829025D01*
X173442273Y-110029212D01*
X173400000Y-110241729D01*
X173400000Y-110458411D01*
X173434189Y-110630286D01*
X152450000Y-110619869D01*
X152450000Y-107272094D01*
X152452176Y-107250000D01*
X152450000Y-107227906D01*
X152450000Y-107227895D01*
X152443489Y-107161785D01*
X152417757Y-107076959D01*
X152395935Y-107036133D01*
X152375971Y-106998783D01*
X152333828Y-106947432D01*
X152333824Y-106947428D01*
X152319737Y-106930263D01*
X152302572Y-106916176D01*
X150550000Y-105163605D01*
X150550000Y-105055634D01*
X150688791Y-105194425D01*
X150868955Y-105314807D01*
X151069142Y-105397727D01*
X151281659Y-105440000D01*
X151498341Y-105440000D01*
X151710858Y-105397727D01*
X151781904Y-105368299D01*
X155616176Y-109202572D01*
X155630263Y-109219737D01*
X155647428Y-109233824D01*
X155647432Y-109233828D01*
X155698783Y-109275971D01*
X155759343Y-109308341D01*
X155776959Y-109317757D01*
X155861785Y-109343489D01*
X155927895Y-109350000D01*
X155927906Y-109350000D01*
X155950000Y-109352176D01*
X155972094Y-109350000D01*
X160695765Y-109350000D01*
X160725193Y-109421045D01*
X160845575Y-109601209D01*
X160998791Y-109754425D01*
X161178955Y-109874807D01*
X161379142Y-109957727D01*
X161591659Y-110000000D01*
X161808341Y-110000000D01*
X162020858Y-109957727D01*
X162221045Y-109874807D01*
X162401209Y-109754425D01*
X162554425Y-109601209D01*
X162674807Y-109421045D01*
X162757727Y-109220858D01*
X162800000Y-109008341D01*
X162800000Y-108791659D01*
X162757727Y-108579142D01*
X162674807Y-108378955D01*
X162554425Y-108198791D01*
X162401209Y-108045575D01*
X162221045Y-107925193D01*
X162020858Y-107842273D01*
X161808341Y-107800000D01*
X161591659Y-107800000D01*
X161379142Y-107842273D01*
X161318350Y-107867454D01*
X161350000Y-107708341D01*
X161350000Y-107491659D01*
X161307727Y-107279142D01*
X161224807Y-107078955D01*
X161104425Y-106898791D01*
X160951209Y-106745575D01*
X160771045Y-106625193D01*
X160570858Y-106542273D01*
X160358341Y-106500000D01*
X160141659Y-106500000D01*
X159929142Y-106542273D01*
X159728955Y-106625193D01*
X159548791Y-106745575D01*
X159395575Y-106898791D01*
X159275193Y-107078955D01*
X159245765Y-107150000D01*
X157855233Y-107150000D01*
X157974807Y-106971045D01*
X158057727Y-106770858D01*
X158100000Y-106558341D01*
X158100000Y-106341659D01*
X158057727Y-106129142D01*
X157974807Y-105928955D01*
X157922051Y-105850000D01*
X162400000Y-105850000D01*
X162446931Y-105846306D01*
X162585989Y-105824281D01*
X162620489Y-105816712D01*
X162675254Y-105795277D01*
X162800699Y-105731360D01*
X162831174Y-105713499D01*
X162876635Y-105676190D01*
X162976190Y-105576635D01*
X162999654Y-105550231D01*
X163031360Y-105500699D01*
X163095277Y-105375254D01*
X163109432Y-105342894D01*
X163124281Y-105285989D01*
X163146306Y-105146931D01*
X163150000Y-105100000D01*
X163150000Y-103673905D01*
X163160907Y-103605068D01*
X163181697Y-103564285D01*
X163214077Y-103531926D01*
X163254875Y-103511160D01*
X163323715Y-103500297D01*
X166931807Y-103502559D01*
G37*
G04 #@! TD.AperFunction*
D19*
X179297099Y-103577498D02*
X179168573Y-103797560D01*
X179085449Y-104038468D01*
X179178848Y-104240000D01*
X180250000Y-104240000D01*
X180250000Y-104220000D01*
X180450000Y-104220000D01*
X180450000Y-104240000D01*
X181521152Y-104240000D01*
X181614551Y-104038468D01*
X181531427Y-103797560D01*
X181402901Y-103577498D01*
X181378541Y-103550000D01*
X182124366Y-103550000D01*
X182035575Y-103638791D01*
X181915193Y-103818955D01*
X181832273Y-104019142D01*
X181790000Y-104231659D01*
X181790000Y-104448341D01*
X181832273Y-104660858D01*
X181915193Y-104861045D01*
X182035575Y-105041209D01*
X182188791Y-105194425D01*
X182271965Y-105250000D01*
X181272237Y-105250000D01*
X181402901Y-105102502D01*
X181531427Y-104882440D01*
X181614551Y-104641532D01*
X181521152Y-104440000D01*
X180450000Y-104440000D01*
X180450000Y-104460000D01*
X180250000Y-104460000D01*
X180250000Y-104440000D01*
X179178848Y-104440000D01*
X179085449Y-104641532D01*
X179168573Y-104882440D01*
X179297099Y-105102502D01*
X179427763Y-105250000D01*
X179356396Y-105250000D01*
X178838299Y-104731904D01*
X178867727Y-104660858D01*
X178910000Y-104448341D01*
X178910000Y-104231659D01*
X178867727Y-104019142D01*
X178784807Y-103818955D01*
X178664425Y-103638791D01*
X178575634Y-103550000D01*
X179321459Y-103550000D01*
X179297099Y-103577498D01*
G04 #@! TA.AperFunction,Conductor*
D20*
G36*
X179297099Y-103577498D02*
G01*
X179168573Y-103797560D01*
X179085449Y-104038468D01*
X179178848Y-104240000D01*
X180250000Y-104240000D01*
X180250000Y-104220000D01*
X180450000Y-104220000D01*
X180450000Y-104240000D01*
X181521152Y-104240000D01*
X181614551Y-104038468D01*
X181531427Y-103797560D01*
X181402901Y-103577498D01*
X181378541Y-103550000D01*
X182124366Y-103550000D01*
X182035575Y-103638791D01*
X181915193Y-103818955D01*
X181832273Y-104019142D01*
X181790000Y-104231659D01*
X181790000Y-104448341D01*
X181832273Y-104660858D01*
X181915193Y-104861045D01*
X182035575Y-105041209D01*
X182188791Y-105194425D01*
X182271965Y-105250000D01*
X181272237Y-105250000D01*
X181402901Y-105102502D01*
X181531427Y-104882440D01*
X181614551Y-104641532D01*
X181521152Y-104440000D01*
X180450000Y-104440000D01*
X180450000Y-104460000D01*
X180250000Y-104460000D01*
X180250000Y-104440000D01*
X179178848Y-104440000D01*
X179085449Y-104641532D01*
X179168573Y-104882440D01*
X179297099Y-105102502D01*
X179427763Y-105250000D01*
X179356396Y-105250000D01*
X178838299Y-104731904D01*
X178867727Y-104660858D01*
X178910000Y-104448341D01*
X178910000Y-104231659D01*
X178867727Y-104019142D01*
X178784807Y-103818955D01*
X178664425Y-103638791D01*
X178575634Y-103550000D01*
X179321459Y-103550000D01*
X179297099Y-103577498D01*
G37*
G04 #@! TD.AperFunction*
D19*
X129500000Y-85750000D02*
X129503694Y-85796931D01*
X129525719Y-85935989D01*
X129533288Y-85970489D01*
X129554723Y-86025254D01*
X129618640Y-86150699D01*
X129636501Y-86181174D01*
X129673810Y-86226635D01*
X129773365Y-86326190D01*
X129799769Y-86349654D01*
X129849301Y-86381360D01*
X129974746Y-86445277D01*
X130007106Y-86459432D01*
X130064011Y-86474281D01*
X130203069Y-86496306D01*
X130250000Y-86500000D01*
X154676392Y-86500000D01*
X154745198Y-86510898D01*
X154785969Y-86531672D01*
X154818328Y-86564031D01*
X154839102Y-86604802D01*
X154850000Y-86673608D01*
X154850000Y-88496931D01*
X154784425Y-88398791D01*
X154631209Y-88245575D01*
X154451045Y-88125193D01*
X154250858Y-88042273D01*
X154038341Y-88000000D01*
X153821659Y-88000000D01*
X153609142Y-88042273D01*
X153408955Y-88125193D01*
X153228791Y-88245575D01*
X153075575Y-88398791D01*
X152955193Y-88578955D01*
X152872273Y-88779142D01*
X152830000Y-88991659D01*
X152830000Y-89208341D01*
X152872273Y-89420858D01*
X152955193Y-89621045D01*
X153075575Y-89801209D01*
X153228791Y-89954425D01*
X153408955Y-90074807D01*
X153609142Y-90157727D01*
X153821659Y-90200000D01*
X154038341Y-90200000D01*
X154250858Y-90157727D01*
X154451045Y-90074807D01*
X154631209Y-89954425D01*
X154784425Y-89801209D01*
X154850000Y-89703069D01*
X154850000Y-92399215D01*
X154839102Y-92468021D01*
X154818328Y-92508792D01*
X154785969Y-92541151D01*
X154745198Y-92561925D01*
X154676392Y-92572823D01*
X121848394Y-92572823D01*
X121801463Y-92576517D01*
X121750000Y-92584668D01*
X121750000Y-92386395D01*
X122736396Y-91400000D01*
X125819908Y-91400000D01*
X125842002Y-91402176D01*
X125864096Y-91400000D01*
X125864107Y-91400000D01*
X125930217Y-91393489D01*
X126015043Y-91367757D01*
X126093218Y-91325971D01*
X126161739Y-91269737D01*
X126175831Y-91252566D01*
X127656194Y-89772204D01*
X127675575Y-89801209D01*
X127828791Y-89954425D01*
X128008955Y-90074807D01*
X128209142Y-90157727D01*
X128421659Y-90200000D01*
X128638341Y-90200000D01*
X128850858Y-90157727D01*
X129051045Y-90074807D01*
X129231209Y-89954425D01*
X129384425Y-89801209D01*
X129504807Y-89621045D01*
X129587727Y-89420858D01*
X129630000Y-89208341D01*
X129630000Y-88991659D01*
X129970000Y-88991659D01*
X129970000Y-89208341D01*
X130012273Y-89420858D01*
X130095193Y-89621045D01*
X130215575Y-89801209D01*
X130368791Y-89954425D01*
X130548955Y-90074807D01*
X130749142Y-90157727D01*
X130961659Y-90200000D01*
X131178341Y-90200000D01*
X131390858Y-90157727D01*
X131591045Y-90074807D01*
X131771209Y-89954425D01*
X131924425Y-89801209D01*
X132044807Y-89621045D01*
X132127727Y-89420858D01*
X132170000Y-89208341D01*
X132170000Y-88991659D01*
X132510000Y-88991659D01*
X132510000Y-89208341D01*
X132552273Y-89420858D01*
X132635193Y-89621045D01*
X132755575Y-89801209D01*
X132908791Y-89954425D01*
X133088955Y-90074807D01*
X133289142Y-90157727D01*
X133501659Y-90200000D01*
X133718341Y-90200000D01*
X133930858Y-90157727D01*
X134131045Y-90074807D01*
X134311209Y-89954425D01*
X134464425Y-89801209D01*
X134584807Y-89621045D01*
X134667727Y-89420858D01*
X134710000Y-89208341D01*
X134710000Y-88991659D01*
X135050000Y-88991659D01*
X135050000Y-89208341D01*
X135092273Y-89420858D01*
X135175193Y-89621045D01*
X135295575Y-89801209D01*
X135448791Y-89954425D01*
X135628955Y-90074807D01*
X135829142Y-90157727D01*
X136041659Y-90200000D01*
X136258341Y-90200000D01*
X136470858Y-90157727D01*
X136671045Y-90074807D01*
X136851209Y-89954425D01*
X137004425Y-89801209D01*
X137124807Y-89621045D01*
X137207727Y-89420858D01*
X137250000Y-89208341D01*
X137250000Y-88991659D01*
X137590000Y-88991659D01*
X137590000Y-89208341D01*
X137632273Y-89420858D01*
X137715193Y-89621045D01*
X137835575Y-89801209D01*
X137988791Y-89954425D01*
X138168955Y-90074807D01*
X138369142Y-90157727D01*
X138581659Y-90200000D01*
X138798341Y-90200000D01*
X139010858Y-90157727D01*
X139211045Y-90074807D01*
X139391209Y-89954425D01*
X139544425Y-89801209D01*
X139664807Y-89621045D01*
X139747727Y-89420858D01*
X139790000Y-89208341D01*
X139790000Y-88991659D01*
X140130000Y-88991659D01*
X140130000Y-89208341D01*
X140172273Y-89420858D01*
X140255193Y-89621045D01*
X140375575Y-89801209D01*
X140528791Y-89954425D01*
X140708955Y-90074807D01*
X140909142Y-90157727D01*
X141121659Y-90200000D01*
X141338341Y-90200000D01*
X141550858Y-90157727D01*
X141751045Y-90074807D01*
X141931209Y-89954425D01*
X142084425Y-89801209D01*
X142204807Y-89621045D01*
X142287727Y-89420858D01*
X142330000Y-89208341D01*
X142330000Y-88991659D01*
X142670000Y-88991659D01*
X142670000Y-89208341D01*
X142712273Y-89420858D01*
X142795193Y-89621045D01*
X142915575Y-89801209D01*
X143068791Y-89954425D01*
X143248955Y-90074807D01*
X143449142Y-90157727D01*
X143661659Y-90200000D01*
X143878341Y-90200000D01*
X144090858Y-90157727D01*
X144291045Y-90074807D01*
X144471209Y-89954425D01*
X144624425Y-89801209D01*
X144744807Y-89621045D01*
X144827727Y-89420858D01*
X144870000Y-89208341D01*
X144870000Y-88991659D01*
X145210000Y-88991659D01*
X145210000Y-89208341D01*
X145252273Y-89420858D01*
X145335193Y-89621045D01*
X145455575Y-89801209D01*
X145608791Y-89954425D01*
X145788955Y-90074807D01*
X145989142Y-90157727D01*
X146201659Y-90200000D01*
X146418341Y-90200000D01*
X146630858Y-90157727D01*
X146831045Y-90074807D01*
X147011209Y-89954425D01*
X147164425Y-89801209D01*
X147284807Y-89621045D01*
X147367727Y-89420858D01*
X147410000Y-89208341D01*
X147410000Y-88991659D01*
X147750000Y-88991659D01*
X147750000Y-89208341D01*
X147792273Y-89420858D01*
X147875193Y-89621045D01*
X147995575Y-89801209D01*
X148148791Y-89954425D01*
X148328955Y-90074807D01*
X148529142Y-90157727D01*
X148741659Y-90200000D01*
X148958341Y-90200000D01*
X149170858Y-90157727D01*
X149371045Y-90074807D01*
X149551209Y-89954425D01*
X149704425Y-89801209D01*
X149824807Y-89621045D01*
X149907727Y-89420858D01*
X149950000Y-89208341D01*
X149950000Y-88991659D01*
X150290000Y-88991659D01*
X150290000Y-89208341D01*
X150332273Y-89420858D01*
X150415193Y-89621045D01*
X150535575Y-89801209D01*
X150688791Y-89954425D01*
X150868955Y-90074807D01*
X151069142Y-90157727D01*
X151281659Y-90200000D01*
X151498341Y-90200000D01*
X151710858Y-90157727D01*
X151911045Y-90074807D01*
X152091209Y-89954425D01*
X152244425Y-89801209D01*
X152364807Y-89621045D01*
X152447727Y-89420858D01*
X152490000Y-89208341D01*
X152490000Y-88991659D01*
X152447727Y-88779142D01*
X152364807Y-88578955D01*
X152244425Y-88398791D01*
X152091209Y-88245575D01*
X151911045Y-88125193D01*
X151710858Y-88042273D01*
X151498341Y-88000000D01*
X151281659Y-88000000D01*
X151069142Y-88042273D01*
X150868955Y-88125193D01*
X150688791Y-88245575D01*
X150535575Y-88398791D01*
X150415193Y-88578955D01*
X150332273Y-88779142D01*
X150290000Y-88991659D01*
X149950000Y-88991659D01*
X149907727Y-88779142D01*
X149824807Y-88578955D01*
X149704425Y-88398791D01*
X149551209Y-88245575D01*
X149371045Y-88125193D01*
X149170858Y-88042273D01*
X148958341Y-88000000D01*
X148741659Y-88000000D01*
X148529142Y-88042273D01*
X148328955Y-88125193D01*
X148148791Y-88245575D01*
X147995575Y-88398791D01*
X147875193Y-88578955D01*
X147792273Y-88779142D01*
X147750000Y-88991659D01*
X147410000Y-88991659D01*
X147367727Y-88779142D01*
X147284807Y-88578955D01*
X147164425Y-88398791D01*
X147011209Y-88245575D01*
X146831045Y-88125193D01*
X146630858Y-88042273D01*
X146418341Y-88000000D01*
X146201659Y-88000000D01*
X145989142Y-88042273D01*
X145788955Y-88125193D01*
X145608791Y-88245575D01*
X145455575Y-88398791D01*
X145335193Y-88578955D01*
X145252273Y-88779142D01*
X145210000Y-88991659D01*
X144870000Y-88991659D01*
X144827727Y-88779142D01*
X144744807Y-88578955D01*
X144624425Y-88398791D01*
X144471209Y-88245575D01*
X144291045Y-88125193D01*
X144090858Y-88042273D01*
X143878341Y-88000000D01*
X143661659Y-88000000D01*
X143449142Y-88042273D01*
X143248955Y-88125193D01*
X143068791Y-88245575D01*
X142915575Y-88398791D01*
X142795193Y-88578955D01*
X142712273Y-88779142D01*
X142670000Y-88991659D01*
X142330000Y-88991659D01*
X142287727Y-88779142D01*
X142204807Y-88578955D01*
X142084425Y-88398791D01*
X141931209Y-88245575D01*
X141751045Y-88125193D01*
X141550858Y-88042273D01*
X141338341Y-88000000D01*
X141121659Y-88000000D01*
X140909142Y-88042273D01*
X140708955Y-88125193D01*
X140528791Y-88245575D01*
X140375575Y-88398791D01*
X140255193Y-88578955D01*
X140172273Y-88779142D01*
X140130000Y-88991659D01*
X139790000Y-88991659D01*
X139747727Y-88779142D01*
X139664807Y-88578955D01*
X139544425Y-88398791D01*
X139391209Y-88245575D01*
X139211045Y-88125193D01*
X139010858Y-88042273D01*
X138798341Y-88000000D01*
X138581659Y-88000000D01*
X138369142Y-88042273D01*
X138168955Y-88125193D01*
X137988791Y-88245575D01*
X137835575Y-88398791D01*
X137715193Y-88578955D01*
X137632273Y-88779142D01*
X137590000Y-88991659D01*
X137250000Y-88991659D01*
X137207727Y-88779142D01*
X137124807Y-88578955D01*
X137004425Y-88398791D01*
X136851209Y-88245575D01*
X136671045Y-88125193D01*
X136470858Y-88042273D01*
X136258341Y-88000000D01*
X136041659Y-88000000D01*
X135829142Y-88042273D01*
X135628955Y-88125193D01*
X135448791Y-88245575D01*
X135295575Y-88398791D01*
X135175193Y-88578955D01*
X135092273Y-88779142D01*
X135050000Y-88991659D01*
X134710000Y-88991659D01*
X134667727Y-88779142D01*
X134584807Y-88578955D01*
X134464425Y-88398791D01*
X134311209Y-88245575D01*
X134131045Y-88125193D01*
X133930858Y-88042273D01*
X133718341Y-88000000D01*
X133501659Y-88000000D01*
X133289142Y-88042273D01*
X133088955Y-88125193D01*
X132908791Y-88245575D01*
X132755575Y-88398791D01*
X132635193Y-88578955D01*
X132552273Y-88779142D01*
X132510000Y-88991659D01*
X132170000Y-88991659D01*
X132127727Y-88779142D01*
X132044807Y-88578955D01*
X131924425Y-88398791D01*
X131771209Y-88245575D01*
X131591045Y-88125193D01*
X131390858Y-88042273D01*
X131178341Y-88000000D01*
X130961659Y-88000000D01*
X130749142Y-88042273D01*
X130548955Y-88125193D01*
X130368791Y-88245575D01*
X130215575Y-88398791D01*
X130095193Y-88578955D01*
X130012273Y-88779142D01*
X129970000Y-88991659D01*
X129630000Y-88991659D01*
X129587727Y-88779142D01*
X129504807Y-88578955D01*
X129384425Y-88398791D01*
X129231209Y-88245575D01*
X129051045Y-88125193D01*
X128850858Y-88042273D01*
X128638341Y-88000000D01*
X128421659Y-88000000D01*
X128209142Y-88042273D01*
X128008955Y-88125193D01*
X127829999Y-88244768D01*
X127829999Y-86436396D01*
X128118096Y-86148299D01*
X128189142Y-86177727D01*
X128401659Y-86220000D01*
X128618341Y-86220000D01*
X128830858Y-86177727D01*
X129031045Y-86094807D01*
X129211209Y-85974425D01*
X129364425Y-85821209D01*
X129484807Y-85641045D01*
X129500000Y-85604366D01*
X129500000Y-85750000D01*
G04 #@! TA.AperFunction,Conductor*
D20*
G36*
X129500000Y-85750000D02*
G01*
X129503694Y-85796931D01*
X129525719Y-85935989D01*
X129533288Y-85970489D01*
X129554723Y-86025254D01*
X129618640Y-86150699D01*
X129636501Y-86181174D01*
X129673810Y-86226635D01*
X129773365Y-86326190D01*
X129799769Y-86349654D01*
X129849301Y-86381360D01*
X129974746Y-86445277D01*
X130007106Y-86459432D01*
X130064011Y-86474281D01*
X130203069Y-86496306D01*
X130250000Y-86500000D01*
X154676392Y-86500000D01*
X154745198Y-86510898D01*
X154785969Y-86531672D01*
X154818328Y-86564031D01*
X154839102Y-86604802D01*
X154850000Y-86673608D01*
X154850000Y-88496931D01*
X154784425Y-88398791D01*
X154631209Y-88245575D01*
X154451045Y-88125193D01*
X154250858Y-88042273D01*
X154038341Y-88000000D01*
X153821659Y-88000000D01*
X153609142Y-88042273D01*
X153408955Y-88125193D01*
X153228791Y-88245575D01*
X153075575Y-88398791D01*
X152955193Y-88578955D01*
X152872273Y-88779142D01*
X152830000Y-88991659D01*
X152830000Y-89208341D01*
X152872273Y-89420858D01*
X152955193Y-89621045D01*
X153075575Y-89801209D01*
X153228791Y-89954425D01*
X153408955Y-90074807D01*
X153609142Y-90157727D01*
X153821659Y-90200000D01*
X154038341Y-90200000D01*
X154250858Y-90157727D01*
X154451045Y-90074807D01*
X154631209Y-89954425D01*
X154784425Y-89801209D01*
X154850000Y-89703069D01*
X154850000Y-92399215D01*
X154839102Y-92468021D01*
X154818328Y-92508792D01*
X154785969Y-92541151D01*
X154745198Y-92561925D01*
X154676392Y-92572823D01*
X121848394Y-92572823D01*
X121801463Y-92576517D01*
X121750000Y-92584668D01*
X121750000Y-92386395D01*
X122736396Y-91400000D01*
X125819908Y-91400000D01*
X125842002Y-91402176D01*
X125864096Y-91400000D01*
X125864107Y-91400000D01*
X125930217Y-91393489D01*
X126015043Y-91367757D01*
X126093218Y-91325971D01*
X126161739Y-91269737D01*
X126175831Y-91252566D01*
X127656194Y-89772204D01*
X127675575Y-89801209D01*
X127828791Y-89954425D01*
X128008955Y-90074807D01*
X128209142Y-90157727D01*
X128421659Y-90200000D01*
X128638341Y-90200000D01*
X128850858Y-90157727D01*
X129051045Y-90074807D01*
X129231209Y-89954425D01*
X129384425Y-89801209D01*
X129504807Y-89621045D01*
X129587727Y-89420858D01*
X129630000Y-89208341D01*
X129630000Y-88991659D01*
X129970000Y-88991659D01*
X129970000Y-89208341D01*
X130012273Y-89420858D01*
X130095193Y-89621045D01*
X130215575Y-89801209D01*
X130368791Y-89954425D01*
X130548955Y-90074807D01*
X130749142Y-90157727D01*
X130961659Y-90200000D01*
X131178341Y-90200000D01*
X131390858Y-90157727D01*
X131591045Y-90074807D01*
X131771209Y-89954425D01*
X131924425Y-89801209D01*
X132044807Y-89621045D01*
X132127727Y-89420858D01*
X132170000Y-89208341D01*
X132170000Y-88991659D01*
X132510000Y-88991659D01*
X132510000Y-89208341D01*
X132552273Y-89420858D01*
X132635193Y-89621045D01*
X132755575Y-89801209D01*
X132908791Y-89954425D01*
X133088955Y-90074807D01*
X133289142Y-90157727D01*
X133501659Y-90200000D01*
X133718341Y-90200000D01*
X133930858Y-90157727D01*
X134131045Y-90074807D01*
X134311209Y-89954425D01*
X134464425Y-89801209D01*
X134584807Y-89621045D01*
X134667727Y-89420858D01*
X134710000Y-89208341D01*
X134710000Y-88991659D01*
X135050000Y-88991659D01*
X135050000Y-89208341D01*
X135092273Y-89420858D01*
X135175193Y-89621045D01*
X135295575Y-89801209D01*
X135448791Y-89954425D01*
X135628955Y-90074807D01*
X135829142Y-90157727D01*
X136041659Y-90200000D01*
X136258341Y-90200000D01*
X136470858Y-90157727D01*
X136671045Y-90074807D01*
X136851209Y-89954425D01*
X137004425Y-89801209D01*
X137124807Y-89621045D01*
X137207727Y-89420858D01*
X137250000Y-89208341D01*
X137250000Y-88991659D01*
X137590000Y-88991659D01*
X137590000Y-89208341D01*
X137632273Y-89420858D01*
X137715193Y-89621045D01*
X137835575Y-89801209D01*
X137988791Y-89954425D01*
X138168955Y-90074807D01*
X138369142Y-90157727D01*
X138581659Y-90200000D01*
X138798341Y-90200000D01*
X139010858Y-90157727D01*
X139211045Y-90074807D01*
X139391209Y-89954425D01*
X139544425Y-89801209D01*
X139664807Y-89621045D01*
X139747727Y-89420858D01*
X139790000Y-89208341D01*
X139790000Y-88991659D01*
X140130000Y-88991659D01*
X140130000Y-89208341D01*
X140172273Y-89420858D01*
X140255193Y-89621045D01*
X140375575Y-89801209D01*
X140528791Y-89954425D01*
X140708955Y-90074807D01*
X140909142Y-90157727D01*
X141121659Y-90200000D01*
X141338341Y-90200000D01*
X141550858Y-90157727D01*
X141751045Y-90074807D01*
X141931209Y-89954425D01*
X142084425Y-89801209D01*
X142204807Y-89621045D01*
X142287727Y-89420858D01*
X142330000Y-89208341D01*
X142330000Y-88991659D01*
X142670000Y-88991659D01*
X142670000Y-89208341D01*
X142712273Y-89420858D01*
X142795193Y-89621045D01*
X142915575Y-89801209D01*
X143068791Y-89954425D01*
X143248955Y-90074807D01*
X143449142Y-90157727D01*
X143661659Y-90200000D01*
X143878341Y-90200000D01*
X144090858Y-90157727D01*
X144291045Y-90074807D01*
X144471209Y-89954425D01*
X144624425Y-89801209D01*
X144744807Y-89621045D01*
X144827727Y-89420858D01*
X144870000Y-89208341D01*
X144870000Y-88991659D01*
X145210000Y-88991659D01*
X145210000Y-89208341D01*
X145252273Y-89420858D01*
X145335193Y-89621045D01*
X145455575Y-89801209D01*
X145608791Y-89954425D01*
X145788955Y-90074807D01*
X145989142Y-90157727D01*
X146201659Y-90200000D01*
X146418341Y-90200000D01*
X146630858Y-90157727D01*
X146831045Y-90074807D01*
X147011209Y-89954425D01*
X147164425Y-89801209D01*
X147284807Y-89621045D01*
X147367727Y-89420858D01*
X147410000Y-89208341D01*
X147410000Y-88991659D01*
X147750000Y-88991659D01*
X147750000Y-89208341D01*
X147792273Y-89420858D01*
X147875193Y-89621045D01*
X147995575Y-89801209D01*
X148148791Y-89954425D01*
X148328955Y-90074807D01*
X148529142Y-90157727D01*
X148741659Y-90200000D01*
X148958341Y-90200000D01*
X149170858Y-90157727D01*
X149371045Y-90074807D01*
X149551209Y-89954425D01*
X149704425Y-89801209D01*
X149824807Y-89621045D01*
X149907727Y-89420858D01*
X149950000Y-89208341D01*
X149950000Y-88991659D01*
X150290000Y-88991659D01*
X150290000Y-89208341D01*
X150332273Y-89420858D01*
X150415193Y-89621045D01*
X150535575Y-89801209D01*
X150688791Y-89954425D01*
X150868955Y-90074807D01*
X151069142Y-90157727D01*
X151281659Y-90200000D01*
X151498341Y-90200000D01*
X151710858Y-90157727D01*
X151911045Y-90074807D01*
X152091209Y-89954425D01*
X152244425Y-89801209D01*
X152364807Y-89621045D01*
X152447727Y-89420858D01*
X152490000Y-89208341D01*
X152490000Y-88991659D01*
X152447727Y-88779142D01*
X152364807Y-88578955D01*
X152244425Y-88398791D01*
X152091209Y-88245575D01*
X151911045Y-88125193D01*
X151710858Y-88042273D01*
X151498341Y-88000000D01*
X151281659Y-88000000D01*
X151069142Y-88042273D01*
X150868955Y-88125193D01*
X150688791Y-88245575D01*
X150535575Y-88398791D01*
X150415193Y-88578955D01*
X150332273Y-88779142D01*
X150290000Y-88991659D01*
X149950000Y-88991659D01*
X149907727Y-88779142D01*
X149824807Y-88578955D01*
X149704425Y-88398791D01*
X149551209Y-88245575D01*
X149371045Y-88125193D01*
X149170858Y-88042273D01*
X148958341Y-88000000D01*
X148741659Y-88000000D01*
X148529142Y-88042273D01*
X148328955Y-88125193D01*
X148148791Y-88245575D01*
X147995575Y-88398791D01*
X147875193Y-88578955D01*
X147792273Y-88779142D01*
X147750000Y-88991659D01*
X147410000Y-88991659D01*
X147367727Y-88779142D01*
X147284807Y-88578955D01*
X147164425Y-88398791D01*
X147011209Y-88245575D01*
X146831045Y-88125193D01*
X146630858Y-88042273D01*
X146418341Y-88000000D01*
X146201659Y-88000000D01*
X145989142Y-88042273D01*
X145788955Y-88125193D01*
X145608791Y-88245575D01*
X145455575Y-88398791D01*
X145335193Y-88578955D01*
X145252273Y-88779142D01*
X145210000Y-88991659D01*
X144870000Y-88991659D01*
X144827727Y-88779142D01*
X144744807Y-88578955D01*
X144624425Y-88398791D01*
X144471209Y-88245575D01*
X144291045Y-88125193D01*
X144090858Y-88042273D01*
X143878341Y-88000000D01*
X143661659Y-88000000D01*
X143449142Y-88042273D01*
X143248955Y-88125193D01*
X143068791Y-88245575D01*
X142915575Y-88398791D01*
X142795193Y-88578955D01*
X142712273Y-88779142D01*
X142670000Y-88991659D01*
X142330000Y-88991659D01*
X142287727Y-88779142D01*
X142204807Y-88578955D01*
X142084425Y-88398791D01*
X141931209Y-88245575D01*
X141751045Y-88125193D01*
X141550858Y-88042273D01*
X141338341Y-88000000D01*
X141121659Y-88000000D01*
X140909142Y-88042273D01*
X140708955Y-88125193D01*
X140528791Y-88245575D01*
X140375575Y-88398791D01*
X140255193Y-88578955D01*
X140172273Y-88779142D01*
X140130000Y-88991659D01*
X139790000Y-88991659D01*
X139747727Y-88779142D01*
X139664807Y-88578955D01*
X139544425Y-88398791D01*
X139391209Y-88245575D01*
X139211045Y-88125193D01*
X139010858Y-88042273D01*
X138798341Y-88000000D01*
X138581659Y-88000000D01*
X138369142Y-88042273D01*
X138168955Y-88125193D01*
X137988791Y-88245575D01*
X137835575Y-88398791D01*
X137715193Y-88578955D01*
X137632273Y-88779142D01*
X137590000Y-88991659D01*
X137250000Y-88991659D01*
X137207727Y-88779142D01*
X137124807Y-88578955D01*
X137004425Y-88398791D01*
X136851209Y-88245575D01*
X136671045Y-88125193D01*
X136470858Y-88042273D01*
X136258341Y-88000000D01*
X136041659Y-88000000D01*
X135829142Y-88042273D01*
X135628955Y-88125193D01*
X135448791Y-88245575D01*
X135295575Y-88398791D01*
X135175193Y-88578955D01*
X135092273Y-88779142D01*
X135050000Y-88991659D01*
X134710000Y-88991659D01*
X134667727Y-88779142D01*
X134584807Y-88578955D01*
X134464425Y-88398791D01*
X134311209Y-88245575D01*
X134131045Y-88125193D01*
X133930858Y-88042273D01*
X133718341Y-88000000D01*
X133501659Y-88000000D01*
X133289142Y-88042273D01*
X133088955Y-88125193D01*
X132908791Y-88245575D01*
X132755575Y-88398791D01*
X132635193Y-88578955D01*
X132552273Y-88779142D01*
X132510000Y-88991659D01*
X132170000Y-88991659D01*
X132127727Y-88779142D01*
X132044807Y-88578955D01*
X131924425Y-88398791D01*
X131771209Y-88245575D01*
X131591045Y-88125193D01*
X131390858Y-88042273D01*
X131178341Y-88000000D01*
X130961659Y-88000000D01*
X130749142Y-88042273D01*
X130548955Y-88125193D01*
X130368791Y-88245575D01*
X130215575Y-88398791D01*
X130095193Y-88578955D01*
X130012273Y-88779142D01*
X129970000Y-88991659D01*
X129630000Y-88991659D01*
X129587727Y-88779142D01*
X129504807Y-88578955D01*
X129384425Y-88398791D01*
X129231209Y-88245575D01*
X129051045Y-88125193D01*
X128850858Y-88042273D01*
X128638341Y-88000000D01*
X128421659Y-88000000D01*
X128209142Y-88042273D01*
X128008955Y-88125193D01*
X127829999Y-88244768D01*
X127829999Y-86436396D01*
X128118096Y-86148299D01*
X128189142Y-86177727D01*
X128401659Y-86220000D01*
X128618341Y-86220000D01*
X128830858Y-86177727D01*
X129031045Y-86094807D01*
X129211209Y-85974425D01*
X129364425Y-85821209D01*
X129484807Y-85641045D01*
X129500000Y-85604366D01*
X129500000Y-85750000D01*
G37*
G04 #@! TD.AperFunction*
D19*
X157900000Y-118500000D02*
X156100000Y-118500000D01*
X156100000Y-113300000D01*
X156098079Y-113280491D01*
X156092388Y-113261732D01*
X156083147Y-113244443D01*
X156070711Y-113229289D01*
X156055557Y-113216853D01*
X156038268Y-113207612D01*
X156019509Y-113201921D01*
X156000000Y-113200000D01*
X155500000Y-113200000D01*
X155480491Y-113201921D01*
X155461732Y-113207612D01*
X155444443Y-113216853D01*
X155429289Y-113229289D01*
X155416853Y-113244443D01*
X155407612Y-113261732D01*
X155401921Y-113280491D01*
X155400000Y-113300000D01*
X155400000Y-118500000D01*
X153600000Y-118500000D01*
X153600000Y-111800000D01*
X157900000Y-111800000D01*
X157900000Y-118500000D01*
G04 #@! TA.AperFunction,Conductor*
D20*
G36*
X157900000Y-118500000D02*
G01*
X156100000Y-118500000D01*
X156100000Y-113300000D01*
X156098079Y-113280491D01*
X156092388Y-113261732D01*
X156083147Y-113244443D01*
X156070711Y-113229289D01*
X156055557Y-113216853D01*
X156038268Y-113207612D01*
X156019509Y-113201921D01*
X156000000Y-113200000D01*
X155500000Y-113200000D01*
X155480491Y-113201921D01*
X155461732Y-113207612D01*
X155444443Y-113216853D01*
X155429289Y-113229289D01*
X155416853Y-113244443D01*
X155407612Y-113261732D01*
X155401921Y-113280491D01*
X155400000Y-113300000D01*
X155400000Y-118500000D01*
X153600000Y-118500000D01*
X153600000Y-111800000D01*
X157900000Y-111800000D01*
X157900000Y-118500000D01*
G37*
G04 #@! TD.AperFunction*
D19*
X164242636Y-80049345D02*
X164358152Y-80067794D01*
X164455237Y-80117384D01*
X164532266Y-80194523D01*
X164581717Y-80291680D01*
X164600000Y-80407218D01*
X164600000Y-84307837D01*
X164598017Y-84307235D01*
X164500000Y-84297581D01*
X164125000Y-84300000D01*
X164000000Y-84425000D01*
X164000000Y-85300000D01*
X164020000Y-85300000D01*
X164020000Y-85500000D01*
X164000000Y-85500000D01*
X164000000Y-86375000D01*
X164125000Y-86500000D01*
X164184079Y-86500381D01*
X162922040Y-87694202D01*
X162912855Y-87704153D01*
X162836616Y-87798887D01*
X162822673Y-87822035D01*
X162774582Y-87933724D01*
X162767347Y-87959761D01*
X162760258Y-88011747D01*
X162705264Y-87944736D01*
X162629129Y-87882254D01*
X162542267Y-87835825D01*
X162448017Y-87807235D01*
X162350000Y-87797581D01*
X161775000Y-87800000D01*
X161650000Y-87925000D01*
X161650000Y-89000000D01*
X161670000Y-89000000D01*
X161670000Y-89200000D01*
X161650000Y-89200000D01*
X161650000Y-90275000D01*
X161775000Y-90400000D01*
X162350000Y-90402419D01*
X162448017Y-90392765D01*
X162542267Y-90364175D01*
X162629129Y-90317746D01*
X162705264Y-90255264D01*
X162750000Y-90200753D01*
X162750000Y-92422823D01*
X162751231Y-92438467D01*
X162773256Y-92577525D01*
X162778206Y-92596493D01*
X162782924Y-92607280D01*
X162846841Y-92732725D01*
X162857410Y-92749235D01*
X162865231Y-92758037D01*
X162964786Y-92857592D01*
X162979940Y-92870028D01*
X162990098Y-92875982D01*
X163115543Y-92939899D01*
X163133798Y-92947044D01*
X163145298Y-92949567D01*
X163284356Y-92971592D01*
X163300000Y-92972823D01*
X198848394Y-92972823D01*
X198864038Y-92971592D01*
X199003096Y-92949567D01*
X199022064Y-92944617D01*
X199032851Y-92939899D01*
X199158296Y-92875982D01*
X199174806Y-92865413D01*
X199183608Y-92857592D01*
X199283163Y-92758037D01*
X199295599Y-92742883D01*
X199301553Y-92732725D01*
X199365470Y-92607280D01*
X199372615Y-92589025D01*
X199375138Y-92577525D01*
X199397163Y-92438467D01*
X199398394Y-92422823D01*
X199398394Y-89200002D01*
X199498847Y-89200002D01*
X199405449Y-89401532D01*
X199488573Y-89642440D01*
X199617099Y-89862502D01*
X199786087Y-90053262D01*
X199989043Y-90207388D01*
X200218168Y-90318958D01*
X200368469Y-90364547D01*
X200570000Y-90270737D01*
X200570000Y-89200000D01*
X200770000Y-89200000D01*
X200770000Y-90270737D01*
X200971531Y-90364547D01*
X201121832Y-90318958D01*
X201350957Y-90207388D01*
X201553913Y-90053262D01*
X201722901Y-89862502D01*
X201851427Y-89642440D01*
X201934551Y-89401532D01*
X201945449Y-89401532D01*
X202028573Y-89642440D01*
X202157099Y-89862502D01*
X202326087Y-90053262D01*
X202529043Y-90207388D01*
X202758168Y-90318958D01*
X202908469Y-90364547D01*
X203110000Y-90270737D01*
X203110000Y-89200000D01*
X203310000Y-89200000D01*
X203310000Y-90270737D01*
X203511531Y-90364547D01*
X203661832Y-90318958D01*
X203890957Y-90207388D01*
X204093913Y-90053262D01*
X204262901Y-89862502D01*
X204391427Y-89642440D01*
X204449371Y-89474508D01*
X204447581Y-89900000D01*
X204457235Y-89998017D01*
X204485825Y-90092267D01*
X204532254Y-90179129D01*
X204594736Y-90255264D01*
X204670871Y-90317746D01*
X204757733Y-90364175D01*
X204851983Y-90392765D01*
X204950000Y-90402419D01*
X205525000Y-90400000D01*
X205650000Y-90275000D01*
X205650000Y-89200000D01*
X204575000Y-89200000D01*
X204450000Y-89325000D01*
X204449902Y-89348345D01*
X204381152Y-89200000D01*
X203310000Y-89200000D01*
X203110000Y-89200000D01*
X202038848Y-89200000D01*
X201945449Y-89401532D01*
X201934551Y-89401532D01*
X201841152Y-89200000D01*
X200770000Y-89200000D01*
X200570000Y-89200000D01*
X200550000Y-89200000D01*
X200550000Y-89000000D01*
X200570000Y-89000000D01*
X200570000Y-88980000D01*
X200770000Y-88980000D01*
X200770000Y-89000000D01*
X201841152Y-89000000D01*
X201934551Y-88798468D01*
X201851427Y-88557560D01*
X201722901Y-88337498D01*
X201577021Y-88172823D01*
X202302979Y-88172823D01*
X202157099Y-88337498D01*
X202028573Y-88557560D01*
X201945449Y-88798468D01*
X202038848Y-89000000D01*
X203110000Y-89000000D01*
X203110000Y-88980000D01*
X203310000Y-88980000D01*
X203310000Y-89000000D01*
X204381152Y-89000000D01*
X204449902Y-88851655D01*
X204450000Y-88875000D01*
X204575000Y-89000000D01*
X205650000Y-89000000D01*
X205650000Y-88980000D01*
X205850000Y-88980000D01*
X205850000Y-89000000D01*
X205870000Y-89000000D01*
X205870000Y-89200000D01*
X205850000Y-89200000D01*
X205850000Y-90275000D01*
X205975000Y-90400000D01*
X206550000Y-90402419D01*
X206648017Y-90392765D01*
X206708188Y-90374513D01*
X206748094Y-99752341D01*
X206749385Y-99767937D01*
X206771882Y-99906536D01*
X206776904Y-99925485D01*
X206781625Y-99936178D01*
X206845743Y-100061096D01*
X206856361Y-100077575D01*
X206864148Y-100086293D01*
X206963646Y-100185368D01*
X206978826Y-100197772D01*
X206988920Y-100203665D01*
X207114110Y-100267252D01*
X207132374Y-100274374D01*
X207143795Y-100276870D01*
X207282488Y-100298776D01*
X207298089Y-100300000D01*
X209692108Y-100300000D01*
X209655379Y-100312658D01*
X209515337Y-100387512D01*
X209438411Y-100596989D01*
X210200000Y-101358579D01*
X210961589Y-100596989D01*
X210884663Y-100387512D01*
X210705114Y-100300000D01*
X211042128Y-100300000D01*
X211157771Y-100318316D01*
X211254991Y-100367852D01*
X211332148Y-100445009D01*
X211381684Y-100542229D01*
X211400000Y-100657872D01*
X211400000Y-100992108D01*
X211387342Y-100955379D01*
X211312488Y-100815337D01*
X211103011Y-100738411D01*
X210341421Y-101500000D01*
X210355564Y-101514142D01*
X210214142Y-101655564D01*
X210200000Y-101641421D01*
X209438411Y-102403011D01*
X209515337Y-102612488D01*
X209745528Y-102724683D01*
X209993185Y-102789814D01*
X210248789Y-102805379D01*
X210502518Y-102770778D01*
X210715643Y-102697329D01*
X206864314Y-105501139D01*
X206759868Y-105554453D01*
X206644060Y-105572823D01*
X206156121Y-105572823D01*
X206201832Y-105558958D01*
X206430957Y-105447388D01*
X206633913Y-105293262D01*
X206802901Y-105102502D01*
X206931427Y-104882440D01*
X207014551Y-104641532D01*
X206921152Y-104440000D01*
X205850000Y-104440000D01*
X205850000Y-104460000D01*
X205650000Y-104460000D01*
X205650000Y-104440000D01*
X204578848Y-104440000D01*
X204485449Y-104641532D01*
X204568573Y-104882440D01*
X204697099Y-105102502D01*
X204866087Y-105293262D01*
X205069043Y-105447388D01*
X205298168Y-105558958D01*
X205343879Y-105572823D01*
X203616121Y-105572823D01*
X203661832Y-105558958D01*
X203890957Y-105447388D01*
X204093913Y-105293262D01*
X204262901Y-105102502D01*
X204391427Y-104882440D01*
X204474551Y-104641532D01*
X204381152Y-104440000D01*
X203310000Y-104440000D01*
X203310000Y-104460000D01*
X203110000Y-104460000D01*
X203110000Y-104440000D01*
X202038848Y-104440000D01*
X201945449Y-104641532D01*
X202028573Y-104882440D01*
X202157099Y-105102502D01*
X202326087Y-105293262D01*
X202529043Y-105447388D01*
X202758168Y-105558958D01*
X202803879Y-105572823D01*
X201076121Y-105572823D01*
X201121832Y-105558958D01*
X201350957Y-105447388D01*
X201553913Y-105293262D01*
X201722901Y-105102502D01*
X201851427Y-104882440D01*
X201934551Y-104641532D01*
X201841152Y-104440000D01*
X200770000Y-104440000D01*
X200770000Y-104460000D01*
X200570000Y-104460000D01*
X200570000Y-104440000D01*
X200550000Y-104440000D01*
X200550000Y-104240000D01*
X200570000Y-104240000D01*
X200570000Y-103169263D01*
X200770000Y-103169263D01*
X200770000Y-104240000D01*
X201841152Y-104240000D01*
X201934551Y-104038468D01*
X201945449Y-104038468D01*
X202038848Y-104240000D01*
X203110000Y-104240000D01*
X203110000Y-103169263D01*
X203310000Y-103169263D01*
X203310000Y-104240000D01*
X204381152Y-104240000D01*
X204474551Y-104038468D01*
X204485449Y-104038468D01*
X204578848Y-104240000D01*
X205650000Y-104240000D01*
X205650000Y-103169263D01*
X205850000Y-103169263D01*
X205850000Y-104240000D01*
X206921152Y-104240000D01*
X207014551Y-104038468D01*
X206931427Y-103797560D01*
X206802901Y-103577498D01*
X206633913Y-103386738D01*
X206430957Y-103232612D01*
X206201832Y-103121042D01*
X206051531Y-103075453D01*
X205850000Y-103169263D01*
X205650000Y-103169263D01*
X205448469Y-103075453D01*
X205298168Y-103121042D01*
X205069043Y-103232612D01*
X204866087Y-103386738D01*
X204697099Y-103577498D01*
X204568573Y-103797560D01*
X204485449Y-104038468D01*
X204474551Y-104038468D01*
X204391427Y-103797560D01*
X204262901Y-103577498D01*
X204093913Y-103386738D01*
X203890957Y-103232612D01*
X203661832Y-103121042D01*
X203511531Y-103075453D01*
X203310000Y-103169263D01*
X203110000Y-103169263D01*
X202908469Y-103075453D01*
X202758168Y-103121042D01*
X202529043Y-103232612D01*
X202326087Y-103386738D01*
X202157099Y-103577498D01*
X202028573Y-103797560D01*
X201945449Y-104038468D01*
X201934551Y-104038468D01*
X201851427Y-103797560D01*
X201722901Y-103577498D01*
X201553913Y-103386738D01*
X201350957Y-103232612D01*
X201121832Y-103121042D01*
X200971531Y-103075453D01*
X200770000Y-103169263D01*
X200570000Y-103169263D01*
X200368469Y-103075453D01*
X200218168Y-103121042D01*
X199989043Y-103232612D01*
X199786087Y-103386738D01*
X199654624Y-103535139D01*
X199613829Y-103485431D01*
X199613825Y-103485427D01*
X199599738Y-103468262D01*
X199582573Y-103454175D01*
X198515818Y-102387421D01*
X198501728Y-102370252D01*
X198433207Y-102314018D01*
X198355032Y-102272232D01*
X198270206Y-102246500D01*
X198204096Y-102239989D01*
X198204085Y-102239989D01*
X198181991Y-102237813D01*
X198159897Y-102239989D01*
X185190063Y-102239989D01*
X185226827Y-102055168D01*
X185226827Y-101838486D01*
X185184554Y-101625969D01*
X185152586Y-101548789D01*
X208894621Y-101548789D01*
X208929222Y-101802518D01*
X209012658Y-102044621D01*
X209087512Y-102184663D01*
X209296989Y-102261589D01*
X210058579Y-101500000D01*
X209296989Y-100738411D01*
X209087512Y-100815337D01*
X208975317Y-101045528D01*
X208910186Y-101293185D01*
X208894621Y-101548789D01*
X185152586Y-101548789D01*
X185101634Y-101425782D01*
X184981252Y-101245618D01*
X184828036Y-101092402D01*
X184647872Y-100972020D01*
X184447685Y-100889100D01*
X184235168Y-100846827D01*
X184018486Y-100846827D01*
X183805969Y-100889100D01*
X183605782Y-100972020D01*
X183425618Y-101092402D01*
X183272402Y-101245618D01*
X183152020Y-101425782D01*
X183069100Y-101625969D01*
X183026827Y-101838486D01*
X183026827Y-102055168D01*
X183069100Y-102267685D01*
X183152020Y-102467872D01*
X183272402Y-102648036D01*
X183274366Y-102650000D01*
X176261876Y-102650000D01*
X176300000Y-102458341D01*
X176300000Y-102241659D01*
X176257727Y-102029142D01*
X176174807Y-101828955D01*
X176054425Y-101648791D01*
X175901209Y-101495575D01*
X175721045Y-101375193D01*
X175520858Y-101292273D01*
X175308341Y-101250000D01*
X175091659Y-101250000D01*
X174879142Y-101292273D01*
X174678955Y-101375193D01*
X174498791Y-101495575D01*
X174345575Y-101648791D01*
X174225193Y-101828955D01*
X174142273Y-102029142D01*
X174100000Y-102241659D01*
X174100000Y-102458341D01*
X174142273Y-102670858D01*
X174225193Y-102871045D01*
X174345575Y-103051209D01*
X174401609Y-103107243D01*
X163300345Y-103100282D01*
X163284694Y-103101504D01*
X163145569Y-103123459D01*
X163126598Y-103128398D01*
X163115797Y-103133116D01*
X162990274Y-103197004D01*
X162973759Y-103207566D01*
X162964945Y-103215392D01*
X162865320Y-103314955D01*
X162852879Y-103330105D01*
X162846917Y-103340272D01*
X162782950Y-103465755D01*
X162775802Y-103484009D01*
X162773274Y-103495521D01*
X162751232Y-103634632D01*
X162750000Y-103650282D01*
X162750000Y-103851388D01*
X162731427Y-103797560D01*
X162602901Y-103577498D01*
X162433913Y-103386738D01*
X162230957Y-103232612D01*
X162001832Y-103121042D01*
X161851531Y-103075453D01*
X161650000Y-103169263D01*
X161650000Y-104240000D01*
X161670000Y-104240000D01*
X161670000Y-104440000D01*
X161650000Y-104440000D01*
X161650000Y-104460000D01*
X161450000Y-104460000D01*
X161450000Y-104440000D01*
X160378848Y-104440000D01*
X160285449Y-104641532D01*
X160368573Y-104882440D01*
X160497099Y-105102502D01*
X160666087Y-105293262D01*
X160869043Y-105447388D01*
X160874407Y-105450000D01*
X159685593Y-105450000D01*
X159690957Y-105447388D01*
X159893913Y-105293262D01*
X160062901Y-105102502D01*
X160191427Y-104882440D01*
X160274551Y-104641532D01*
X160181152Y-104440000D01*
X159110000Y-104440000D01*
X159110000Y-104460000D01*
X158910000Y-104460000D01*
X158910000Y-104440000D01*
X157838848Y-104440000D01*
X157745449Y-104641532D01*
X157828573Y-104882440D01*
X157957099Y-105102502D01*
X158126087Y-105293262D01*
X158329043Y-105447388D01*
X158334407Y-105450000D01*
X157460224Y-105450000D01*
X157320858Y-105392273D01*
X157243735Y-105376932D01*
X157353913Y-105293262D01*
X157522901Y-105102502D01*
X157651427Y-104882440D01*
X157734551Y-104641532D01*
X157641152Y-104440000D01*
X156570000Y-104440000D01*
X156570000Y-104460000D01*
X156370000Y-104460000D01*
X156370000Y-104440000D01*
X156350000Y-104440000D01*
X156350000Y-104240000D01*
X156370000Y-104240000D01*
X156370000Y-103169263D01*
X156570000Y-103169263D01*
X156570000Y-104240000D01*
X157641152Y-104240000D01*
X157734551Y-104038468D01*
X157745449Y-104038468D01*
X157838848Y-104240000D01*
X158910000Y-104240000D01*
X158910000Y-103169263D01*
X159110000Y-103169263D01*
X159110000Y-104240000D01*
X160181152Y-104240000D01*
X160274551Y-104038468D01*
X160285449Y-104038468D01*
X160378848Y-104240000D01*
X161450000Y-104240000D01*
X161450000Y-103169263D01*
X161248469Y-103075453D01*
X161098168Y-103121042D01*
X160869043Y-103232612D01*
X160666087Y-103386738D01*
X160497099Y-103577498D01*
X160368573Y-103797560D01*
X160285449Y-104038468D01*
X160274551Y-104038468D01*
X160191427Y-103797560D01*
X160062901Y-103577498D01*
X159893913Y-103386738D01*
X159690957Y-103232612D01*
X159461832Y-103121042D01*
X159311531Y-103075453D01*
X159110000Y-103169263D01*
X158910000Y-103169263D01*
X158708469Y-103075453D01*
X158558168Y-103121042D01*
X158329043Y-103232612D01*
X158126087Y-103386738D01*
X157957099Y-103577498D01*
X157828573Y-103797560D01*
X157745449Y-104038468D01*
X157734551Y-104038468D01*
X157651427Y-103797560D01*
X157522901Y-103577498D01*
X157353913Y-103386738D01*
X157150957Y-103232612D01*
X156921832Y-103121042D01*
X156771531Y-103075453D01*
X156570000Y-103169263D01*
X156370000Y-103169263D01*
X156168469Y-103075453D01*
X156018168Y-103121042D01*
X155789043Y-103232612D01*
X155586087Y-103386738D01*
X155530001Y-103450050D01*
X155530001Y-102352095D01*
X155532177Y-102330001D01*
X155530001Y-102307906D01*
X155530001Y-102307896D01*
X155523490Y-102241786D01*
X155497758Y-102156960D01*
X155466149Y-102097824D01*
X155455972Y-102078784D01*
X155413829Y-102027433D01*
X155413825Y-102027429D01*
X155399738Y-102010264D01*
X155382573Y-101996177D01*
X154083828Y-100697433D01*
X154069736Y-100680262D01*
X154001215Y-100624028D01*
X153923040Y-100582242D01*
X153838214Y-100556510D01*
X153772104Y-100549999D01*
X153772093Y-100549999D01*
X153749999Y-100547823D01*
X153727905Y-100549999D01*
X153608173Y-100549999D01*
X153751209Y-100454425D01*
X153904425Y-100301209D01*
X154024807Y-100121045D01*
X154107727Y-99920858D01*
X154150000Y-99708341D01*
X154150000Y-99491659D01*
X154107727Y-99279142D01*
X154024807Y-99078955D01*
X153904425Y-98898791D01*
X153751209Y-98745575D01*
X153571045Y-98625193D01*
X153370858Y-98542273D01*
X153158341Y-98500000D01*
X152941659Y-98500000D01*
X152729142Y-98542273D01*
X152528955Y-98625193D01*
X152348791Y-98745575D01*
X152195575Y-98898791D01*
X152075193Y-99078955D01*
X151992273Y-99279142D01*
X151950000Y-99491659D01*
X151950000Y-99708341D01*
X151992273Y-99920858D01*
X152034260Y-100022224D01*
X150456495Y-101599990D01*
X142834981Y-101599990D01*
X142812889Y-101597814D01*
X142790797Y-101599990D01*
X142790785Y-101599990D01*
X142724675Y-101606501D01*
X142639849Y-101632233D01*
X142561673Y-101674019D01*
X142510322Y-101716162D01*
X142510318Y-101716166D01*
X142493153Y-101730253D01*
X142479066Y-101747418D01*
X141726485Y-102500000D01*
X138022094Y-102500000D01*
X137999999Y-102497824D01*
X137977905Y-102500000D01*
X137977895Y-102500000D01*
X137911785Y-102506511D01*
X137826959Y-102532243D01*
X137748783Y-102574029D01*
X137697432Y-102616172D01*
X137697428Y-102616176D01*
X137680263Y-102630263D01*
X137666176Y-102647428D01*
X137240782Y-103072823D01*
X121856266Y-103072823D01*
X121750000Y-103055992D01*
X121750000Y-92989654D01*
X121856266Y-92972823D01*
X154700000Y-92972823D01*
X154715644Y-92971592D01*
X154854702Y-92949567D01*
X154873670Y-92944617D01*
X154884457Y-92939899D01*
X155009902Y-92875982D01*
X155026412Y-92865413D01*
X155035214Y-92857592D01*
X155134769Y-92758037D01*
X155147205Y-92742883D01*
X155153159Y-92732725D01*
X155217076Y-92607280D01*
X155224221Y-92589025D01*
X155226744Y-92577525D01*
X155248769Y-92438467D01*
X155250000Y-92422823D01*
X155250000Y-89530649D01*
X155288573Y-89642440D01*
X155417099Y-89862502D01*
X155586087Y-90053262D01*
X155789043Y-90207388D01*
X156018168Y-90318958D01*
X156168469Y-90364547D01*
X156370000Y-90270737D01*
X156370000Y-89200000D01*
X156570000Y-89200000D01*
X156570000Y-90270737D01*
X156771531Y-90364547D01*
X156921832Y-90318958D01*
X157150957Y-90207388D01*
X157353913Y-90053262D01*
X157522901Y-89862502D01*
X157651427Y-89642440D01*
X157734551Y-89401532D01*
X157745449Y-89401532D01*
X157828573Y-89642440D01*
X157957099Y-89862502D01*
X158126087Y-90053262D01*
X158329043Y-90207388D01*
X158558168Y-90318958D01*
X158708469Y-90364547D01*
X158910000Y-90270737D01*
X158910000Y-89200000D01*
X159110000Y-89200000D01*
X159110000Y-90270737D01*
X159311531Y-90364547D01*
X159461832Y-90318958D01*
X159690957Y-90207388D01*
X159893913Y-90053262D01*
X160062901Y-89862502D01*
X160191427Y-89642440D01*
X160249371Y-89474508D01*
X160247581Y-89900000D01*
X160257235Y-89998017D01*
X160285825Y-90092267D01*
X160332254Y-90179129D01*
X160394736Y-90255264D01*
X160470871Y-90317746D01*
X160557733Y-90364175D01*
X160651983Y-90392765D01*
X160750000Y-90402419D01*
X161325000Y-90400000D01*
X161450000Y-90275000D01*
X161450000Y-89200000D01*
X160375000Y-89200000D01*
X160250000Y-89325000D01*
X160249902Y-89348345D01*
X160181152Y-89200000D01*
X159110000Y-89200000D01*
X158910000Y-89200000D01*
X157838848Y-89200000D01*
X157745449Y-89401532D01*
X157734551Y-89401532D01*
X157641152Y-89200000D01*
X156570000Y-89200000D01*
X156370000Y-89200000D01*
X156350000Y-89200000D01*
X156350000Y-89000000D01*
X156370000Y-89000000D01*
X156370000Y-87929263D01*
X156570000Y-87929263D01*
X156570000Y-89000000D01*
X157641152Y-89000000D01*
X157734551Y-88798468D01*
X157745449Y-88798468D01*
X157838848Y-89000000D01*
X158910000Y-89000000D01*
X158910000Y-87929263D01*
X159110000Y-87929263D01*
X159110000Y-89000000D01*
X160181152Y-89000000D01*
X160249902Y-88851655D01*
X160250000Y-88875000D01*
X160375000Y-89000000D01*
X161450000Y-89000000D01*
X161450000Y-87925000D01*
X161325000Y-87800000D01*
X160750000Y-87797581D01*
X160651983Y-87807235D01*
X160557733Y-87835825D01*
X160470871Y-87882254D01*
X160394736Y-87944736D01*
X160332254Y-88020871D01*
X160285825Y-88107733D01*
X160257235Y-88201983D01*
X160247581Y-88300000D01*
X160249371Y-88725492D01*
X160191427Y-88557560D01*
X160062901Y-88337498D01*
X159893913Y-88146738D01*
X159690957Y-87992612D01*
X159461832Y-87881042D01*
X159311531Y-87835453D01*
X159110000Y-87929263D01*
X158910000Y-87929263D01*
X158708469Y-87835453D01*
X158558168Y-87881042D01*
X158329043Y-87992612D01*
X158126087Y-88146738D01*
X157957099Y-88337498D01*
X157828573Y-88557560D01*
X157745449Y-88798468D01*
X157734551Y-88798468D01*
X157651427Y-88557560D01*
X157522901Y-88337498D01*
X157353913Y-88146738D01*
X157150957Y-87992612D01*
X156921832Y-87881042D01*
X156771531Y-87835453D01*
X156570000Y-87929263D01*
X156370000Y-87929263D01*
X156168469Y-87835453D01*
X156018168Y-87881042D01*
X155789043Y-87992612D01*
X155586087Y-88146738D01*
X155417099Y-88337498D01*
X155288573Y-88557560D01*
X155250000Y-88669351D01*
X155250000Y-86650000D01*
X155248769Y-86634356D01*
X155226744Y-86495298D01*
X155221794Y-86476330D01*
X155217076Y-86465543D01*
X155153159Y-86340098D01*
X155142590Y-86323588D01*
X155134769Y-86314786D01*
X155035214Y-86215231D01*
X155020060Y-86202795D01*
X155009902Y-86196841D01*
X154884457Y-86132924D01*
X154866202Y-86125779D01*
X154854702Y-86123256D01*
X154715644Y-86101231D01*
X154700000Y-86100000D01*
X135957610Y-86100000D01*
X135994333Y-86000000D01*
X162797581Y-86000000D01*
X162807235Y-86098017D01*
X162835825Y-86192267D01*
X162882254Y-86279129D01*
X162944736Y-86355264D01*
X163020871Y-86417746D01*
X163107733Y-86464175D01*
X163201983Y-86492765D01*
X163300000Y-86502419D01*
X163675000Y-86500000D01*
X163800000Y-86375000D01*
X163800000Y-85500000D01*
X162925000Y-85500000D01*
X162800000Y-85625000D01*
X162797581Y-86000000D01*
X135994333Y-86000000D01*
X136011589Y-85953011D01*
X135250000Y-85191421D01*
X134488411Y-85953011D01*
X134542390Y-86100000D01*
X131898704Y-86100000D01*
X131933913Y-86073262D01*
X132102901Y-85882502D01*
X132231427Y-85662440D01*
X132314551Y-85421532D01*
X132221152Y-85220000D01*
X131150000Y-85220000D01*
X131150000Y-85240000D01*
X130950000Y-85240000D01*
X130950000Y-85220000D01*
X130930000Y-85220000D01*
X130930000Y-85098789D01*
X133944621Y-85098789D01*
X133979222Y-85352518D01*
X134062658Y-85594621D01*
X134137512Y-85734663D01*
X134346989Y-85811589D01*
X135108579Y-85050000D01*
X135391421Y-85050000D01*
X136153011Y-85811589D01*
X136362488Y-85734663D01*
X136474683Y-85504472D01*
X136539814Y-85256815D01*
X136555379Y-85001211D01*
X136527940Y-84800000D01*
X162797581Y-84800000D01*
X162800000Y-85175000D01*
X162925000Y-85300000D01*
X163800000Y-85300000D01*
X163800000Y-84425000D01*
X163675000Y-84300000D01*
X163300000Y-84297581D01*
X163201983Y-84307235D01*
X163107733Y-84335825D01*
X163020871Y-84382254D01*
X162944736Y-84444736D01*
X162882254Y-84520871D01*
X162835825Y-84607733D01*
X162807235Y-84701983D01*
X162797581Y-84800000D01*
X136527940Y-84800000D01*
X136520778Y-84747482D01*
X136437342Y-84505379D01*
X136362488Y-84365337D01*
X136153011Y-84288411D01*
X135391421Y-85050000D01*
X135108579Y-85050000D01*
X134346989Y-84288411D01*
X134137512Y-84365337D01*
X134025317Y-84595528D01*
X133960186Y-84843185D01*
X133944621Y-85098789D01*
X130930000Y-85098789D01*
X130930000Y-85020000D01*
X130950000Y-85020000D01*
X130950000Y-83949263D01*
X131150000Y-83949263D01*
X131150000Y-85020000D01*
X132221152Y-85020000D01*
X132314551Y-84818468D01*
X132231427Y-84577560D01*
X132102901Y-84357498D01*
X131933913Y-84166738D01*
X131907908Y-84146989D01*
X134488411Y-84146989D01*
X135250000Y-84908579D01*
X136011589Y-84146989D01*
X135934663Y-83937512D01*
X135704472Y-83825317D01*
X135456815Y-83760186D01*
X135201211Y-83744621D01*
X134947482Y-83779222D01*
X134705379Y-83862658D01*
X134565337Y-83937512D01*
X134488411Y-84146989D01*
X131907908Y-84146989D01*
X131730957Y-84012612D01*
X131501832Y-83901042D01*
X131351531Y-83855453D01*
X131150000Y-83949263D01*
X130950000Y-83949263D01*
X130748469Y-83855453D01*
X130598168Y-83901042D01*
X130369043Y-84012612D01*
X130166087Y-84166738D01*
X129997099Y-84357498D01*
X129900000Y-84523751D01*
X129900000Y-80358524D01*
X129918349Y-80242778D01*
X129967972Y-80145493D01*
X130045252Y-80068323D01*
X130142608Y-80018840D01*
X130258379Y-80000657D01*
X164242636Y-80049345D01*
G04 #@! TA.AperFunction,Conductor*
D20*
G36*
X164242636Y-80049345D02*
G01*
X164358152Y-80067794D01*
X164455237Y-80117384D01*
X164532266Y-80194523D01*
X164581717Y-80291680D01*
X164600000Y-80407218D01*
X164600000Y-84307837D01*
X164598017Y-84307235D01*
X164500000Y-84297581D01*
X164125000Y-84300000D01*
X164000000Y-84425000D01*
X164000000Y-85300000D01*
X164020000Y-85300000D01*
X164020000Y-85500000D01*
X164000000Y-85500000D01*
X164000000Y-86375000D01*
X164125000Y-86500000D01*
X164184079Y-86500381D01*
X162922040Y-87694202D01*
X162912855Y-87704153D01*
X162836616Y-87798887D01*
X162822673Y-87822035D01*
X162774582Y-87933724D01*
X162767347Y-87959761D01*
X162760258Y-88011747D01*
X162705264Y-87944736D01*
X162629129Y-87882254D01*
X162542267Y-87835825D01*
X162448017Y-87807235D01*
X162350000Y-87797581D01*
X161775000Y-87800000D01*
X161650000Y-87925000D01*
X161650000Y-89000000D01*
X161670000Y-89000000D01*
X161670000Y-89200000D01*
X161650000Y-89200000D01*
X161650000Y-90275000D01*
X161775000Y-90400000D01*
X162350000Y-90402419D01*
X162448017Y-90392765D01*
X162542267Y-90364175D01*
X162629129Y-90317746D01*
X162705264Y-90255264D01*
X162750000Y-90200753D01*
X162750000Y-92422823D01*
X162751231Y-92438467D01*
X162773256Y-92577525D01*
X162778206Y-92596493D01*
X162782924Y-92607280D01*
X162846841Y-92732725D01*
X162857410Y-92749235D01*
X162865231Y-92758037D01*
X162964786Y-92857592D01*
X162979940Y-92870028D01*
X162990098Y-92875982D01*
X163115543Y-92939899D01*
X163133798Y-92947044D01*
X163145298Y-92949567D01*
X163284356Y-92971592D01*
X163300000Y-92972823D01*
X198848394Y-92972823D01*
X198864038Y-92971592D01*
X199003096Y-92949567D01*
X199022064Y-92944617D01*
X199032851Y-92939899D01*
X199158296Y-92875982D01*
X199174806Y-92865413D01*
X199183608Y-92857592D01*
X199283163Y-92758037D01*
X199295599Y-92742883D01*
X199301553Y-92732725D01*
X199365470Y-92607280D01*
X199372615Y-92589025D01*
X199375138Y-92577525D01*
X199397163Y-92438467D01*
X199398394Y-92422823D01*
X199398394Y-89200002D01*
X199498847Y-89200002D01*
X199405449Y-89401532D01*
X199488573Y-89642440D01*
X199617099Y-89862502D01*
X199786087Y-90053262D01*
X199989043Y-90207388D01*
X200218168Y-90318958D01*
X200368469Y-90364547D01*
X200570000Y-90270737D01*
X200570000Y-89200000D01*
X200770000Y-89200000D01*
X200770000Y-90270737D01*
X200971531Y-90364547D01*
X201121832Y-90318958D01*
X201350957Y-90207388D01*
X201553913Y-90053262D01*
X201722901Y-89862502D01*
X201851427Y-89642440D01*
X201934551Y-89401532D01*
X201945449Y-89401532D01*
X202028573Y-89642440D01*
X202157099Y-89862502D01*
X202326087Y-90053262D01*
X202529043Y-90207388D01*
X202758168Y-90318958D01*
X202908469Y-90364547D01*
X203110000Y-90270737D01*
X203110000Y-89200000D01*
X203310000Y-89200000D01*
X203310000Y-90270737D01*
X203511531Y-90364547D01*
X203661832Y-90318958D01*
X203890957Y-90207388D01*
X204093913Y-90053262D01*
X204262901Y-89862502D01*
X204391427Y-89642440D01*
X204449371Y-89474508D01*
X204447581Y-89900000D01*
X204457235Y-89998017D01*
X204485825Y-90092267D01*
X204532254Y-90179129D01*
X204594736Y-90255264D01*
X204670871Y-90317746D01*
X204757733Y-90364175D01*
X204851983Y-90392765D01*
X204950000Y-90402419D01*
X205525000Y-90400000D01*
X205650000Y-90275000D01*
X205650000Y-89200000D01*
X204575000Y-89200000D01*
X204450000Y-89325000D01*
X204449902Y-89348345D01*
X204381152Y-89200000D01*
X203310000Y-89200000D01*
X203110000Y-89200000D01*
X202038848Y-89200000D01*
X201945449Y-89401532D01*
X201934551Y-89401532D01*
X201841152Y-89200000D01*
X200770000Y-89200000D01*
X200570000Y-89200000D01*
X200550000Y-89200000D01*
X200550000Y-89000000D01*
X200570000Y-89000000D01*
X200570000Y-88980000D01*
X200770000Y-88980000D01*
X200770000Y-89000000D01*
X201841152Y-89000000D01*
X201934551Y-88798468D01*
X201851427Y-88557560D01*
X201722901Y-88337498D01*
X201577021Y-88172823D01*
X202302979Y-88172823D01*
X202157099Y-88337498D01*
X202028573Y-88557560D01*
X201945449Y-88798468D01*
X202038848Y-89000000D01*
X203110000Y-89000000D01*
X203110000Y-88980000D01*
X203310000Y-88980000D01*
X203310000Y-89000000D01*
X204381152Y-89000000D01*
X204449902Y-88851655D01*
X204450000Y-88875000D01*
X204575000Y-89000000D01*
X205650000Y-89000000D01*
X205650000Y-88980000D01*
X205850000Y-88980000D01*
X205850000Y-89000000D01*
X205870000Y-89000000D01*
X205870000Y-89200000D01*
X205850000Y-89200000D01*
X205850000Y-90275000D01*
X205975000Y-90400000D01*
X206550000Y-90402419D01*
X206648017Y-90392765D01*
X206708188Y-90374513D01*
X206748094Y-99752341D01*
X206749385Y-99767937D01*
X206771882Y-99906536D01*
X206776904Y-99925485D01*
X206781625Y-99936178D01*
X206845743Y-100061096D01*
X206856361Y-100077575D01*
X206864148Y-100086293D01*
X206963646Y-100185368D01*
X206978826Y-100197772D01*
X206988920Y-100203665D01*
X207114110Y-100267252D01*
X207132374Y-100274374D01*
X207143795Y-100276870D01*
X207282488Y-100298776D01*
X207298089Y-100300000D01*
X209692108Y-100300000D01*
X209655379Y-100312658D01*
X209515337Y-100387512D01*
X209438411Y-100596989D01*
X210200000Y-101358579D01*
X210961589Y-100596989D01*
X210884663Y-100387512D01*
X210705114Y-100300000D01*
X211042128Y-100300000D01*
X211157771Y-100318316D01*
X211254991Y-100367852D01*
X211332148Y-100445009D01*
X211381684Y-100542229D01*
X211400000Y-100657872D01*
X211400000Y-100992108D01*
X211387342Y-100955379D01*
X211312488Y-100815337D01*
X211103011Y-100738411D01*
X210341421Y-101500000D01*
X210355564Y-101514142D01*
X210214142Y-101655564D01*
X210200000Y-101641421D01*
X209438411Y-102403011D01*
X209515337Y-102612488D01*
X209745528Y-102724683D01*
X209993185Y-102789814D01*
X210248789Y-102805379D01*
X210502518Y-102770778D01*
X210715643Y-102697329D01*
X206864314Y-105501139D01*
X206759868Y-105554453D01*
X206644060Y-105572823D01*
X206156121Y-105572823D01*
X206201832Y-105558958D01*
X206430957Y-105447388D01*
X206633913Y-105293262D01*
X206802901Y-105102502D01*
X206931427Y-104882440D01*
X207014551Y-104641532D01*
X206921152Y-104440000D01*
X205850000Y-104440000D01*
X205850000Y-104460000D01*
X205650000Y-104460000D01*
X205650000Y-104440000D01*
X204578848Y-104440000D01*
X204485449Y-104641532D01*
X204568573Y-104882440D01*
X204697099Y-105102502D01*
X204866087Y-105293262D01*
X205069043Y-105447388D01*
X205298168Y-105558958D01*
X205343879Y-105572823D01*
X203616121Y-105572823D01*
X203661832Y-105558958D01*
X203890957Y-105447388D01*
X204093913Y-105293262D01*
X204262901Y-105102502D01*
X204391427Y-104882440D01*
X204474551Y-104641532D01*
X204381152Y-104440000D01*
X203310000Y-104440000D01*
X203310000Y-104460000D01*
X203110000Y-104460000D01*
X203110000Y-104440000D01*
X202038848Y-104440000D01*
X201945449Y-104641532D01*
X202028573Y-104882440D01*
X202157099Y-105102502D01*
X202326087Y-105293262D01*
X202529043Y-105447388D01*
X202758168Y-105558958D01*
X202803879Y-105572823D01*
X201076121Y-105572823D01*
X201121832Y-105558958D01*
X201350957Y-105447388D01*
X201553913Y-105293262D01*
X201722901Y-105102502D01*
X201851427Y-104882440D01*
X201934551Y-104641532D01*
X201841152Y-104440000D01*
X200770000Y-104440000D01*
X200770000Y-104460000D01*
X200570000Y-104460000D01*
X200570000Y-104440000D01*
X200550000Y-104440000D01*
X200550000Y-104240000D01*
X200570000Y-104240000D01*
X200570000Y-103169263D01*
X200770000Y-103169263D01*
X200770000Y-104240000D01*
X201841152Y-104240000D01*
X201934551Y-104038468D01*
X201945449Y-104038468D01*
X202038848Y-104240000D01*
X203110000Y-104240000D01*
X203110000Y-103169263D01*
X203310000Y-103169263D01*
X203310000Y-104240000D01*
X204381152Y-104240000D01*
X204474551Y-104038468D01*
X204485449Y-104038468D01*
X204578848Y-104240000D01*
X205650000Y-104240000D01*
X205650000Y-103169263D01*
X205850000Y-103169263D01*
X205850000Y-104240000D01*
X206921152Y-104240000D01*
X207014551Y-104038468D01*
X206931427Y-103797560D01*
X206802901Y-103577498D01*
X206633913Y-103386738D01*
X206430957Y-103232612D01*
X206201832Y-103121042D01*
X206051531Y-103075453D01*
X205850000Y-103169263D01*
X205650000Y-103169263D01*
X205448469Y-103075453D01*
X205298168Y-103121042D01*
X205069043Y-103232612D01*
X204866087Y-103386738D01*
X204697099Y-103577498D01*
X204568573Y-103797560D01*
X204485449Y-104038468D01*
X204474551Y-104038468D01*
X204391427Y-103797560D01*
X204262901Y-103577498D01*
X204093913Y-103386738D01*
X203890957Y-103232612D01*
X203661832Y-103121042D01*
X203511531Y-103075453D01*
X203310000Y-103169263D01*
X203110000Y-103169263D01*
X202908469Y-103075453D01*
X202758168Y-103121042D01*
X202529043Y-103232612D01*
X202326087Y-103386738D01*
X202157099Y-103577498D01*
X202028573Y-103797560D01*
X201945449Y-104038468D01*
X201934551Y-104038468D01*
X201851427Y-103797560D01*
X201722901Y-103577498D01*
X201553913Y-103386738D01*
X201350957Y-103232612D01*
X201121832Y-103121042D01*
X200971531Y-103075453D01*
X200770000Y-103169263D01*
X200570000Y-103169263D01*
X200368469Y-103075453D01*
X200218168Y-103121042D01*
X199989043Y-103232612D01*
X199786087Y-103386738D01*
X199654624Y-103535139D01*
X199613829Y-103485431D01*
X199613825Y-103485427D01*
X199599738Y-103468262D01*
X199582573Y-103454175D01*
X198515818Y-102387421D01*
X198501728Y-102370252D01*
X198433207Y-102314018D01*
X198355032Y-102272232D01*
X198270206Y-102246500D01*
X198204096Y-102239989D01*
X198204085Y-102239989D01*
X198181991Y-102237813D01*
X198159897Y-102239989D01*
X185190063Y-102239989D01*
X185226827Y-102055168D01*
X185226827Y-101838486D01*
X185184554Y-101625969D01*
X185152586Y-101548789D01*
X208894621Y-101548789D01*
X208929222Y-101802518D01*
X209012658Y-102044621D01*
X209087512Y-102184663D01*
X209296989Y-102261589D01*
X210058579Y-101500000D01*
X209296989Y-100738411D01*
X209087512Y-100815337D01*
X208975317Y-101045528D01*
X208910186Y-101293185D01*
X208894621Y-101548789D01*
X185152586Y-101548789D01*
X185101634Y-101425782D01*
X184981252Y-101245618D01*
X184828036Y-101092402D01*
X184647872Y-100972020D01*
X184447685Y-100889100D01*
X184235168Y-100846827D01*
X184018486Y-100846827D01*
X183805969Y-100889100D01*
X183605782Y-100972020D01*
X183425618Y-101092402D01*
X183272402Y-101245618D01*
X183152020Y-101425782D01*
X183069100Y-101625969D01*
X183026827Y-101838486D01*
X183026827Y-102055168D01*
X183069100Y-102267685D01*
X183152020Y-102467872D01*
X183272402Y-102648036D01*
X183274366Y-102650000D01*
X176261876Y-102650000D01*
X176300000Y-102458341D01*
X176300000Y-102241659D01*
X176257727Y-102029142D01*
X176174807Y-101828955D01*
X176054425Y-101648791D01*
X175901209Y-101495575D01*
X175721045Y-101375193D01*
X175520858Y-101292273D01*
X175308341Y-101250000D01*
X175091659Y-101250000D01*
X174879142Y-101292273D01*
X174678955Y-101375193D01*
X174498791Y-101495575D01*
X174345575Y-101648791D01*
X174225193Y-101828955D01*
X174142273Y-102029142D01*
X174100000Y-102241659D01*
X174100000Y-102458341D01*
X174142273Y-102670858D01*
X174225193Y-102871045D01*
X174345575Y-103051209D01*
X174401609Y-103107243D01*
X163300345Y-103100282D01*
X163284694Y-103101504D01*
X163145569Y-103123459D01*
X163126598Y-103128398D01*
X163115797Y-103133116D01*
X162990274Y-103197004D01*
X162973759Y-103207566D01*
X162964945Y-103215392D01*
X162865320Y-103314955D01*
X162852879Y-103330105D01*
X162846917Y-103340272D01*
X162782950Y-103465755D01*
X162775802Y-103484009D01*
X162773274Y-103495521D01*
X162751232Y-103634632D01*
X162750000Y-103650282D01*
X162750000Y-103851388D01*
X162731427Y-103797560D01*
X162602901Y-103577498D01*
X162433913Y-103386738D01*
X162230957Y-103232612D01*
X162001832Y-103121042D01*
X161851531Y-103075453D01*
X161650000Y-103169263D01*
X161650000Y-104240000D01*
X161670000Y-104240000D01*
X161670000Y-104440000D01*
X161650000Y-104440000D01*
X161650000Y-104460000D01*
X161450000Y-104460000D01*
X161450000Y-104440000D01*
X160378848Y-104440000D01*
X160285449Y-104641532D01*
X160368573Y-104882440D01*
X160497099Y-105102502D01*
X160666087Y-105293262D01*
X160869043Y-105447388D01*
X160874407Y-105450000D01*
X159685593Y-105450000D01*
X159690957Y-105447388D01*
X159893913Y-105293262D01*
X160062901Y-105102502D01*
X160191427Y-104882440D01*
X160274551Y-104641532D01*
X160181152Y-104440000D01*
X159110000Y-104440000D01*
X159110000Y-104460000D01*
X158910000Y-104460000D01*
X158910000Y-104440000D01*
X157838848Y-104440000D01*
X157745449Y-104641532D01*
X157828573Y-104882440D01*
X157957099Y-105102502D01*
X158126087Y-105293262D01*
X158329043Y-105447388D01*
X158334407Y-105450000D01*
X157460224Y-105450000D01*
X157320858Y-105392273D01*
X157243735Y-105376932D01*
X157353913Y-105293262D01*
X157522901Y-105102502D01*
X157651427Y-104882440D01*
X157734551Y-104641532D01*
X157641152Y-104440000D01*
X156570000Y-104440000D01*
X156570000Y-104460000D01*
X156370000Y-104460000D01*
X156370000Y-104440000D01*
X156350000Y-104440000D01*
X156350000Y-104240000D01*
X156370000Y-104240000D01*
X156370000Y-103169263D01*
X156570000Y-103169263D01*
X156570000Y-104240000D01*
X157641152Y-104240000D01*
X157734551Y-104038468D01*
X157745449Y-104038468D01*
X157838848Y-104240000D01*
X158910000Y-104240000D01*
X158910000Y-103169263D01*
X159110000Y-103169263D01*
X159110000Y-104240000D01*
X160181152Y-104240000D01*
X160274551Y-104038468D01*
X160285449Y-104038468D01*
X160378848Y-104240000D01*
X161450000Y-104240000D01*
X161450000Y-103169263D01*
X161248469Y-103075453D01*
X161098168Y-103121042D01*
X160869043Y-103232612D01*
X160666087Y-103386738D01*
X160497099Y-103577498D01*
X160368573Y-103797560D01*
X160285449Y-104038468D01*
X160274551Y-104038468D01*
X160191427Y-103797560D01*
X160062901Y-103577498D01*
X159893913Y-103386738D01*
X159690957Y-103232612D01*
X159461832Y-103121042D01*
X159311531Y-103075453D01*
X159110000Y-103169263D01*
X158910000Y-103169263D01*
X158708469Y-103075453D01*
X158558168Y-103121042D01*
X158329043Y-103232612D01*
X158126087Y-103386738D01*
X157957099Y-103577498D01*
X157828573Y-103797560D01*
X157745449Y-104038468D01*
X157734551Y-104038468D01*
X157651427Y-103797560D01*
X157522901Y-103577498D01*
X157353913Y-103386738D01*
X157150957Y-103232612D01*
X156921832Y-103121042D01*
X156771531Y-103075453D01*
X156570000Y-103169263D01*
X156370000Y-103169263D01*
X156168469Y-103075453D01*
X156018168Y-103121042D01*
X155789043Y-103232612D01*
X155586087Y-103386738D01*
X155530001Y-103450050D01*
X155530001Y-102352095D01*
X155532177Y-102330001D01*
X155530001Y-102307906D01*
X155530001Y-102307896D01*
X155523490Y-102241786D01*
X155497758Y-102156960D01*
X155466149Y-102097824D01*
X155455972Y-102078784D01*
X155413829Y-102027433D01*
X155413825Y-102027429D01*
X155399738Y-102010264D01*
X155382573Y-101996177D01*
X154083828Y-100697433D01*
X154069736Y-100680262D01*
X154001215Y-100624028D01*
X153923040Y-100582242D01*
X153838214Y-100556510D01*
X153772104Y-100549999D01*
X153772093Y-100549999D01*
X153749999Y-100547823D01*
X153727905Y-100549999D01*
X153608173Y-100549999D01*
X153751209Y-100454425D01*
X153904425Y-100301209D01*
X154024807Y-100121045D01*
X154107727Y-99920858D01*
X154150000Y-99708341D01*
X154150000Y-99491659D01*
X154107727Y-99279142D01*
X154024807Y-99078955D01*
X153904425Y-98898791D01*
X153751209Y-98745575D01*
X153571045Y-98625193D01*
X153370858Y-98542273D01*
X153158341Y-98500000D01*
X152941659Y-98500000D01*
X152729142Y-98542273D01*
X152528955Y-98625193D01*
X152348791Y-98745575D01*
X152195575Y-98898791D01*
X152075193Y-99078955D01*
X151992273Y-99279142D01*
X151950000Y-99491659D01*
X151950000Y-99708341D01*
X151992273Y-99920858D01*
X152034260Y-100022224D01*
X150456495Y-101599990D01*
X142834981Y-101599990D01*
X142812889Y-101597814D01*
X142790797Y-101599990D01*
X142790785Y-101599990D01*
X142724675Y-101606501D01*
X142639849Y-101632233D01*
X142561673Y-101674019D01*
X142510322Y-101716162D01*
X142510318Y-101716166D01*
X142493153Y-101730253D01*
X142479066Y-101747418D01*
X141726485Y-102500000D01*
X138022094Y-102500000D01*
X137999999Y-102497824D01*
X137977905Y-102500000D01*
X137977895Y-102500000D01*
X137911785Y-102506511D01*
X137826959Y-102532243D01*
X137748783Y-102574029D01*
X137697432Y-102616172D01*
X137697428Y-102616176D01*
X137680263Y-102630263D01*
X137666176Y-102647428D01*
X137240782Y-103072823D01*
X121856266Y-103072823D01*
X121750000Y-103055992D01*
X121750000Y-92989654D01*
X121856266Y-92972823D01*
X154700000Y-92972823D01*
X154715644Y-92971592D01*
X154854702Y-92949567D01*
X154873670Y-92944617D01*
X154884457Y-92939899D01*
X155009902Y-92875982D01*
X155026412Y-92865413D01*
X155035214Y-92857592D01*
X155134769Y-92758037D01*
X155147205Y-92742883D01*
X155153159Y-92732725D01*
X155217076Y-92607280D01*
X155224221Y-92589025D01*
X155226744Y-92577525D01*
X155248769Y-92438467D01*
X155250000Y-92422823D01*
X155250000Y-89530649D01*
X155288573Y-89642440D01*
X155417099Y-89862502D01*
X155586087Y-90053262D01*
X155789043Y-90207388D01*
X156018168Y-90318958D01*
X156168469Y-90364547D01*
X156370000Y-90270737D01*
X156370000Y-89200000D01*
X156570000Y-89200000D01*
X156570000Y-90270737D01*
X156771531Y-90364547D01*
X156921832Y-90318958D01*
X157150957Y-90207388D01*
X157353913Y-90053262D01*
X157522901Y-89862502D01*
X157651427Y-89642440D01*
X157734551Y-89401532D01*
X157745449Y-89401532D01*
X157828573Y-89642440D01*
X157957099Y-89862502D01*
X158126087Y-90053262D01*
X158329043Y-90207388D01*
X158558168Y-90318958D01*
X158708469Y-90364547D01*
X158910000Y-90270737D01*
X158910000Y-89200000D01*
X159110000Y-89200000D01*
X159110000Y-90270737D01*
X159311531Y-90364547D01*
X159461832Y-90318958D01*
X159690957Y-90207388D01*
X159893913Y-90053262D01*
X160062901Y-89862502D01*
X160191427Y-89642440D01*
X160249371Y-89474508D01*
X160247581Y-89900000D01*
X160257235Y-89998017D01*
X160285825Y-90092267D01*
X160332254Y-90179129D01*
X160394736Y-90255264D01*
X160470871Y-90317746D01*
X160557733Y-90364175D01*
X160651983Y-90392765D01*
X160750000Y-90402419D01*
X161325000Y-90400000D01*
X161450000Y-90275000D01*
X161450000Y-89200000D01*
X160375000Y-89200000D01*
X160250000Y-89325000D01*
X160249902Y-89348345D01*
X160181152Y-89200000D01*
X159110000Y-89200000D01*
X158910000Y-89200000D01*
X157838848Y-89200000D01*
X157745449Y-89401532D01*
X157734551Y-89401532D01*
X157641152Y-89200000D01*
X156570000Y-89200000D01*
X156370000Y-89200000D01*
X156350000Y-89200000D01*
X156350000Y-89000000D01*
X156370000Y-89000000D01*
X156370000Y-87929263D01*
X156570000Y-87929263D01*
X156570000Y-89000000D01*
X157641152Y-89000000D01*
X157734551Y-88798468D01*
X157745449Y-88798468D01*
X157838848Y-89000000D01*
X158910000Y-89000000D01*
X158910000Y-87929263D01*
X159110000Y-87929263D01*
X159110000Y-89000000D01*
X160181152Y-89000000D01*
X160249902Y-88851655D01*
X160250000Y-88875000D01*
X160375000Y-89000000D01*
X161450000Y-89000000D01*
X161450000Y-87925000D01*
X161325000Y-87800000D01*
X160750000Y-87797581D01*
X160651983Y-87807235D01*
X160557733Y-87835825D01*
X160470871Y-87882254D01*
X160394736Y-87944736D01*
X160332254Y-88020871D01*
X160285825Y-88107733D01*
X160257235Y-88201983D01*
X160247581Y-88300000D01*
X160249371Y-88725492D01*
X160191427Y-88557560D01*
X160062901Y-88337498D01*
X159893913Y-88146738D01*
X159690957Y-87992612D01*
X159461832Y-87881042D01*
X159311531Y-87835453D01*
X159110000Y-87929263D01*
X158910000Y-87929263D01*
X158708469Y-87835453D01*
X158558168Y-87881042D01*
X158329043Y-87992612D01*
X158126087Y-88146738D01*
X157957099Y-88337498D01*
X157828573Y-88557560D01*
X157745449Y-88798468D01*
X157734551Y-88798468D01*
X157651427Y-88557560D01*
X157522901Y-88337498D01*
X157353913Y-88146738D01*
X157150957Y-87992612D01*
X156921832Y-87881042D01*
X156771531Y-87835453D01*
X156570000Y-87929263D01*
X156370000Y-87929263D01*
X156168469Y-87835453D01*
X156018168Y-87881042D01*
X155789043Y-87992612D01*
X155586087Y-88146738D01*
X155417099Y-88337498D01*
X155288573Y-88557560D01*
X155250000Y-88669351D01*
X155250000Y-86650000D01*
X155248769Y-86634356D01*
X155226744Y-86495298D01*
X155221794Y-86476330D01*
X155217076Y-86465543D01*
X155153159Y-86340098D01*
X155142590Y-86323588D01*
X155134769Y-86314786D01*
X155035214Y-86215231D01*
X155020060Y-86202795D01*
X155009902Y-86196841D01*
X154884457Y-86132924D01*
X154866202Y-86125779D01*
X154854702Y-86123256D01*
X154715644Y-86101231D01*
X154700000Y-86100000D01*
X135957610Y-86100000D01*
X135994333Y-86000000D01*
X162797581Y-86000000D01*
X162807235Y-86098017D01*
X162835825Y-86192267D01*
X162882254Y-86279129D01*
X162944736Y-86355264D01*
X163020871Y-86417746D01*
X163107733Y-86464175D01*
X163201983Y-86492765D01*
X163300000Y-86502419D01*
X163675000Y-86500000D01*
X163800000Y-86375000D01*
X163800000Y-85500000D01*
X162925000Y-85500000D01*
X162800000Y-85625000D01*
X162797581Y-86000000D01*
X135994333Y-86000000D01*
X136011589Y-85953011D01*
X135250000Y-85191421D01*
X134488411Y-85953011D01*
X134542390Y-86100000D01*
X131898704Y-86100000D01*
X131933913Y-86073262D01*
X132102901Y-85882502D01*
X132231427Y-85662440D01*
X132314551Y-85421532D01*
X132221152Y-85220000D01*
X131150000Y-85220000D01*
X131150000Y-85240000D01*
X130950000Y-85240000D01*
X130950000Y-85220000D01*
X130930000Y-85220000D01*
X130930000Y-85098789D01*
X133944621Y-85098789D01*
X133979222Y-85352518D01*
X134062658Y-85594621D01*
X134137512Y-85734663D01*
X134346989Y-85811589D01*
X135108579Y-85050000D01*
X135391421Y-85050000D01*
X136153011Y-85811589D01*
X136362488Y-85734663D01*
X136474683Y-85504472D01*
X136539814Y-85256815D01*
X136555379Y-85001211D01*
X136527940Y-84800000D01*
X162797581Y-84800000D01*
X162800000Y-85175000D01*
X162925000Y-85300000D01*
X163800000Y-85300000D01*
X163800000Y-84425000D01*
X163675000Y-84300000D01*
X163300000Y-84297581D01*
X163201983Y-84307235D01*
X163107733Y-84335825D01*
X163020871Y-84382254D01*
X162944736Y-84444736D01*
X162882254Y-84520871D01*
X162835825Y-84607733D01*
X162807235Y-84701983D01*
X162797581Y-84800000D01*
X136527940Y-84800000D01*
X136520778Y-84747482D01*
X136437342Y-84505379D01*
X136362488Y-84365337D01*
X136153011Y-84288411D01*
X135391421Y-85050000D01*
X135108579Y-85050000D01*
X134346989Y-84288411D01*
X134137512Y-84365337D01*
X134025317Y-84595528D01*
X133960186Y-84843185D01*
X133944621Y-85098789D01*
X130930000Y-85098789D01*
X130930000Y-85020000D01*
X130950000Y-85020000D01*
X130950000Y-83949263D01*
X131150000Y-83949263D01*
X131150000Y-85020000D01*
X132221152Y-85020000D01*
X132314551Y-84818468D01*
X132231427Y-84577560D01*
X132102901Y-84357498D01*
X131933913Y-84166738D01*
X131907908Y-84146989D01*
X134488411Y-84146989D01*
X135250000Y-84908579D01*
X136011589Y-84146989D01*
X135934663Y-83937512D01*
X135704472Y-83825317D01*
X135456815Y-83760186D01*
X135201211Y-83744621D01*
X134947482Y-83779222D01*
X134705379Y-83862658D01*
X134565337Y-83937512D01*
X134488411Y-84146989D01*
X131907908Y-84146989D01*
X131730957Y-84012612D01*
X131501832Y-83901042D01*
X131351531Y-83855453D01*
X131150000Y-83949263D01*
X130950000Y-83949263D01*
X130748469Y-83855453D01*
X130598168Y-83901042D01*
X130369043Y-84012612D01*
X130166087Y-84166738D01*
X129997099Y-84357498D01*
X129900000Y-84523751D01*
X129900000Y-80358524D01*
X129918349Y-80242778D01*
X129967972Y-80145493D01*
X130045252Y-80068323D01*
X130142608Y-80018840D01*
X130258379Y-80000657D01*
X164242636Y-80049345D01*
G37*
G04 #@! TD.AperFunction*
M02*
