M48
; DRILL file {KiCad (5.1.9)-1} date 07/30/22 12:09:46
; FORMAT={-:-/ absolute / metric / decimal}
; #@! TF.CreationDate,2022-07-30T12:09:46-07:00
; #@! TF.GenerationSoftware,Kicad,Pcbnew,(5.1.9)-1
; #@! TF.FileFunction,Plated,1,2,PTH
FMAT,2
METRIC
T1C0.600
T2C0.800
%
G90
G05
T1
X163.9Y-85.4
X165.4Y-85.4
T2
X118.0Y-90.4
X123.25Y-93.85
X123.25Y-96.5
X123.25Y-99.05
X123.25Y-101.65
X123.43Y-77.5
X123.43Y-85.12
X123.45Y-89.1
X123.45Y-104.34
X125.8Y-108.7
X125.97Y-77.5
X125.97Y-85.12
X125.99Y-89.1
X125.99Y-104.34
X128.15Y-81.05
X128.51Y-77.5
X128.51Y-85.12
X128.53Y-89.1
X128.53Y-104.34
X129.85Y-87.2
X131.05Y-77.5
X131.05Y-85.12
X131.07Y-89.1
X131.07Y-104.34
X132.4Y-87.2
X133.61Y-89.1
X133.61Y-104.34
X135.25Y-77.55
X135.25Y-85.05
X136.15Y-89.1
X136.15Y-104.34
X138.69Y-89.1
X138.69Y-104.34
X141.23Y-89.1
X141.23Y-104.34
X143.77Y-89.1
X143.77Y-104.34
X146.31Y-89.1
X146.31Y-104.34
X147.55Y-87.35
X148.85Y-89.1
X148.85Y-104.34
X150.1Y-87.35
X151.39Y-89.1
X151.39Y-104.34
X153.05Y-99.6
X153.05Y-102.25
X153.93Y-89.1
X153.93Y-104.34
X156.47Y-89.1
X156.47Y-104.34
X157.0Y-106.45
X158.45Y-78.3
X159.01Y-89.1
X159.01Y-104.34
X160.25Y-107.6
X161.55Y-89.1
X161.55Y-104.34
X161.7Y-108.9
X163.7Y-107.6
X165.25Y-91.6
X165.5Y-106.4
X165.6Y-109.35
X167.4Y-107.55
X167.65Y-89.1
X167.65Y-104.34
X168.3Y-80.8
X168.9Y-109.2
X170.19Y-89.1
X170.19Y-104.34
X171.45Y-86.35
X171.8Y-75.25
X171.8Y-78.3
X172.73Y-89.1
X172.73Y-104.34
X173.95Y-91.7
X174.5Y-110.35
X175.1Y-80.85
X175.2Y-102.35
X175.27Y-89.1
X175.27Y-104.34
X175.85Y-91.7
X177.75Y-91.7
X177.81Y-89.1
X177.81Y-104.34
X179.42Y-75.25
X179.42Y-78.3
X180.35Y-89.1
X180.35Y-104.34
X181.65Y-91.2
X182.82Y-72.95
X182.82Y-80.57
X182.89Y-89.1
X182.89Y-104.34
X184.127Y-101.947
X185.36Y-72.95
X185.36Y-80.57
X185.4Y-85.3
X185.43Y-89.1
X185.43Y-104.34
X186.6Y-86.8
X187.9Y-72.95
X187.9Y-80.57
X187.97Y-89.1
X187.97Y-104.34
X189.15Y-75.5
X189.2Y-78.2
X189.25Y-91.2
X190.44Y-72.95
X190.44Y-80.57
X190.51Y-89.1
X190.51Y-104.34
X191.35Y-86.7
X191.8Y-91.15
X192.98Y-72.95
X192.98Y-80.57
X193.05Y-89.1
X193.05Y-104.34
X193.15Y-75.4
X193.15Y-78.25
X193.509Y-107.209
X194.35Y-91.15
X194.752Y-109.448
X194.85Y-86.7
X195.52Y-72.95
X195.52Y-80.57
X195.59Y-89.1
X195.59Y-104.34
X196.838Y-107.2
X196.9Y-91.15
X196.95Y-83.7
X198.06Y-72.95
X198.06Y-80.57
X198.13Y-89.1
X198.13Y-104.34
X198.15Y-75.35
X198.15Y-78.05
X198.35Y-109.5
X200.6Y-72.95
X200.6Y-80.57
X200.67Y-89.1
X200.67Y-104.34
X201.05Y-92.65
X201.05Y-96.65
X201.05Y-100.65
X203.21Y-89.1
X203.21Y-104.34
X205.05Y-92.65
X205.05Y-96.65
X205.05Y-100.65
X205.7Y-72.95
X205.75Y-89.1
X205.75Y-104.34
X205.8Y-79.2
X205.85Y-83.15
X206.2Y-107.95
X206.2Y-109.75
X208.9Y-108.3
X209.3Y-87.15
X209.35Y-90.25
X210.1Y-72.95
X210.15Y-79.15
X210.2Y-94.0
X210.2Y-101.5
X211.4Y-108.3
T0
M30
