M48
; DRILL file {KiCad (5.1.9)-1} date 04/26/22 12:58:32
; FORMAT={-:-/ absolute / metric / decimal}
; #@! TF.CreationDate,2022-04-26T12:58:32-07:00
; #@! TF.GenerationSoftware,Kicad,Pcbnew,(5.1.9)-1
; #@! TF.FileFunction,Plated,1,2,PTH
FMAT,2
METRIC
T1C0.600
T2C0.800
%
G90
G05
T1
X168.35Y-87.55
X169.85Y-87.55
T2
X116.8Y-94.9
X116.8Y-102.4
X120.43Y-94.75
X120.43Y-102.37
X122.97Y-94.75
X122.97Y-102.37
X125.51Y-94.75
X125.51Y-102.37
X128.05Y-94.75
X128.05Y-102.37
X128.05Y-109.0
X132.13Y-89.95
X132.13Y-105.19
X132.7Y-98.05
X134.67Y-89.95
X134.67Y-105.19
X137.21Y-89.95
X137.21Y-105.19
X139.75Y-89.95
X139.75Y-105.19
X142.29Y-89.95
X142.29Y-105.19
X144.83Y-89.95
X144.83Y-105.19
X147.37Y-89.95
X147.37Y-105.19
X149.91Y-89.95
X149.91Y-105.19
X152.45Y-89.95
X152.45Y-105.19
X154.99Y-89.95
X154.99Y-105.19
X156.25Y-103.0
X157.53Y-89.95
X157.53Y-105.19
X158.8Y-95.4
X160.07Y-89.95
X160.07Y-105.19
X161.4Y-108.35
X162.6Y-101.55
X162.61Y-89.95
X162.61Y-105.19
X164.6Y-107.45
X165.15Y-89.95
X165.15Y-105.19
X165.65Y-99.2
X166.5Y-83.15
X166.85Y-109.15
X168.25Y-84.45
X169.05Y-109.1
X170.4Y-95.2
X171.2Y-109.15
X171.3Y-78.7
X171.3Y-81.4
X173.7Y-89.95
X173.7Y-105.19
X176.05Y-86.15
X176.24Y-89.95
X176.24Y-105.19
X178.78Y-89.95
X178.78Y-105.19
X178.92Y-78.7
X178.92Y-81.4
X181.32Y-89.95
X181.32Y-105.19
X183.72Y-74.3
X183.72Y-81.92
X183.86Y-89.95
X183.86Y-105.19
X186.26Y-74.3
X186.26Y-81.92
X186.4Y-89.95
X186.4Y-105.19
X188.8Y-74.3
X188.8Y-81.92
X188.94Y-89.95
X188.94Y-105.19
X191.34Y-74.3
X191.34Y-81.92
X191.48Y-89.95
X191.48Y-105.19
X193.7Y-103.2
X193.88Y-74.3
X193.88Y-81.92
X194.02Y-89.95
X194.02Y-105.19
X196.42Y-74.3
X196.42Y-81.92
X196.56Y-89.95
X196.56Y-105.19
X197.2Y-107.45
X197.2Y-109.5
X197.85Y-87.1
X198.95Y-79.25
X198.96Y-74.3
X198.96Y-81.92
X199.1Y-89.95
X199.1Y-105.19
X201.5Y-74.3
X201.5Y-81.92
X201.64Y-89.95
X201.64Y-105.19
X204.18Y-89.95
X204.18Y-105.19
X206.7Y-100.45
X206.72Y-89.95
X206.72Y-105.19
X210.45Y-94.05
X210.45Y-101.55
T0
M30
