M48
; DRILL file {KiCad (5.1.9)-1} date 04/25/22 20:00:03
; FORMAT={-:-/ absolute / inch / decimal}
; #@! TF.CreationDate,2022-04-25T20:00:03-07:00
; #@! TF.GenerationSoftware,Kicad,Pcbnew,(5.1.9)-1
FMAT,2
INCH
T1C0.0236
T2C0.0315
%
G90
G05
T1
X6.628Y-3.4469
X6.687Y-3.4469
T2
X4.5984Y-3.7362
X4.5984Y-4.0315
X4.7413Y-3.7303
X4.7413Y-4.0303
X4.8413Y-3.7303
X4.8413Y-4.0303
X4.9413Y-3.7303
X4.9413Y-4.0303
X5.0413Y-3.7303
X5.0413Y-4.0303
X5.0413Y-4.2913
X5.202Y-3.5413
X5.202Y-4.1413
X5.2244Y-3.8602
X5.302Y-3.5413
X5.302Y-4.1413
X5.402Y-3.5413
X5.402Y-4.1413
X5.502Y-3.5413
X5.502Y-4.1413
X5.602Y-3.5413
X5.602Y-4.1413
X5.702Y-3.5413
X5.702Y-4.1413
X5.802Y-3.5413
X5.802Y-4.1413
X5.902Y-3.5413
X5.902Y-4.1413
X6.002Y-3.5413
X6.002Y-4.1413
X6.102Y-3.5413
X6.102Y-4.1413
X6.1516Y-4.0551
X6.202Y-3.5413
X6.202Y-4.1413
X6.252Y-3.7559
X6.302Y-3.5413
X6.302Y-4.1413
X6.3543Y-4.2657
X6.4016Y-3.998
X6.402Y-3.5413
X6.402Y-4.1413
X6.4803Y-4.2303
X6.502Y-3.5413
X6.502Y-4.1413
X6.5217Y-3.9055
X6.5551Y-3.2736
X6.5689Y-4.2972
X6.624Y-3.3248
X6.6555Y-4.2953
X6.7087Y-3.748
X6.7402Y-4.2972
X6.7441Y-3.0984
X6.7441Y-3.2047
X6.8386Y-3.5413
X6.8386Y-4.1413
X6.9311Y-3.3917
X6.9386Y-3.5413
X6.9386Y-4.1413
X7.0386Y-3.5413
X7.0386Y-4.1413
X7.0441Y-3.0984
X7.0441Y-3.2047
X7.1386Y-3.5413
X7.1386Y-4.1413
X7.2331Y-2.9252
X7.2331Y-3.2252
X7.2386Y-3.5413
X7.2386Y-4.1413
X7.3331Y-2.9252
X7.3331Y-3.2252
X7.3386Y-3.5413
X7.3386Y-4.1413
X7.4331Y-2.9252
X7.4331Y-3.2252
X7.4386Y-3.5413
X7.4386Y-4.1413
X7.5331Y-2.9252
X7.5331Y-3.2252
X7.5386Y-3.5413
X7.5386Y-4.1413
X7.626Y-4.063
X7.6331Y-2.9252
X7.6331Y-3.2252
X7.6386Y-3.5413
X7.6386Y-4.1413
X7.7331Y-2.9252
X7.7331Y-3.2252
X7.7386Y-3.5413
X7.7386Y-4.1413
X7.7638Y-4.2303
X7.7638Y-4.311
X7.7894Y-3.4291
X7.8327Y-3.1201
X7.8331Y-2.9252
X7.8331Y-3.2252
X7.8386Y-3.5413
X7.8386Y-4.1413
X7.9331Y-2.9252
X7.9331Y-3.2252
X7.9386Y-3.5413
X7.9386Y-4.1413
X8.0386Y-3.5413
X8.0386Y-4.1413
X8.1378Y-3.9547
X8.1386Y-3.5413
X8.1386Y-4.1413
X8.2854Y-3.7028
X8.2854Y-3.998
T0
M30
