%TF.GenerationSoftware,KiCad,Pcbnew,(5.1.9)-1*%
%TF.CreationDate,2022-04-25T20:02:03-07:00*%
%TF.ProjectId,NES-CN-ROM-256-05,4e45532d-434e-42d5-924f-4d2d3235362d,v01*%
%TF.SameCoordinates,Original*%
%TF.FileFunction,Legend,Top*%
%TF.FilePolarity,Positive*%
%FSLAX46Y46*%
G04 Gerber Fmt 4.6, Leading zero omitted, Abs format (unit mm)*
G04 Created by KiCad (PCBNEW (5.1.9)-1) date 2022-04-25 20:02:03*
%MOMM*%
%LPD*%
G01*
G04 APERTURE LIST*
%ADD10C,0.150000*%
%ADD11C,0.120000*%
G04 APERTURE END LIST*
D10*
X183809523Y-72252380D02*
X183809523Y-71252380D01*
X184380952Y-72252380D01*
X184380952Y-71252380D01*
X184857142Y-71728571D02*
X185190476Y-71728571D01*
X185333333Y-72252380D02*
X184857142Y-72252380D01*
X184857142Y-71252380D01*
X185333333Y-71252380D01*
X185714285Y-72204761D02*
X185857142Y-72252380D01*
X186095238Y-72252380D01*
X186190476Y-72204761D01*
X186238095Y-72157142D01*
X186285714Y-72061904D01*
X186285714Y-71966666D01*
X186238095Y-71871428D01*
X186190476Y-71823809D01*
X186095238Y-71776190D01*
X185904761Y-71728571D01*
X185809523Y-71680952D01*
X185761904Y-71633333D01*
X185714285Y-71538095D01*
X185714285Y-71442857D01*
X185761904Y-71347619D01*
X185809523Y-71300000D01*
X185904761Y-71252380D01*
X186142857Y-71252380D01*
X186285714Y-71300000D01*
X186714285Y-71871428D02*
X187476190Y-71871428D01*
X188523809Y-72157142D02*
X188476190Y-72204761D01*
X188333333Y-72252380D01*
X188238095Y-72252380D01*
X188095238Y-72204761D01*
X188000000Y-72109523D01*
X187952380Y-72014285D01*
X187904761Y-71823809D01*
X187904761Y-71680952D01*
X187952380Y-71490476D01*
X188000000Y-71395238D01*
X188095238Y-71300000D01*
X188238095Y-71252380D01*
X188333333Y-71252380D01*
X188476190Y-71300000D01*
X188523809Y-71347619D01*
X188952380Y-72252380D02*
X188952380Y-71252380D01*
X189523809Y-72252380D01*
X189523809Y-71252380D01*
X190000000Y-71871428D02*
X190761904Y-71871428D01*
X191809523Y-72252380D02*
X191476190Y-71776190D01*
X191238095Y-72252380D02*
X191238095Y-71252380D01*
X191619047Y-71252380D01*
X191714285Y-71300000D01*
X191761904Y-71347619D01*
X191809523Y-71442857D01*
X191809523Y-71585714D01*
X191761904Y-71680952D01*
X191714285Y-71728571D01*
X191619047Y-71776190D01*
X191238095Y-71776190D01*
X192428571Y-71252380D02*
X192619047Y-71252380D01*
X192714285Y-71300000D01*
X192809523Y-71395238D01*
X192857142Y-71585714D01*
X192857142Y-71919047D01*
X192809523Y-72109523D01*
X192714285Y-72204761D01*
X192619047Y-72252380D01*
X192428571Y-72252380D01*
X192333333Y-72204761D01*
X192238095Y-72109523D01*
X192190476Y-71919047D01*
X192190476Y-71585714D01*
X192238095Y-71395238D01*
X192333333Y-71300000D01*
X192428571Y-71252380D01*
X193285714Y-72252380D02*
X193285714Y-71252380D01*
X193619047Y-71966666D01*
X193952380Y-71252380D01*
X193952380Y-72252380D01*
X194428571Y-71871428D02*
X195190476Y-71871428D01*
X195619047Y-71347619D02*
X195666666Y-71300000D01*
X195761904Y-71252380D01*
X196000000Y-71252380D01*
X196095238Y-71300000D01*
X196142857Y-71347619D01*
X196190476Y-71442857D01*
X196190476Y-71538095D01*
X196142857Y-71680952D01*
X195571428Y-72252380D01*
X196190476Y-72252380D01*
X197095238Y-71252380D02*
X196619047Y-71252380D01*
X196571428Y-71728571D01*
X196619047Y-71680952D01*
X196714285Y-71633333D01*
X196952380Y-71633333D01*
X197047619Y-71680952D01*
X197095238Y-71728571D01*
X197142857Y-71823809D01*
X197142857Y-72061904D01*
X197095238Y-72157142D01*
X197047619Y-72204761D01*
X196952380Y-72252380D01*
X196714285Y-72252380D01*
X196619047Y-72204761D01*
X196571428Y-72157142D01*
X198000000Y-71252380D02*
X197809523Y-71252380D01*
X197714285Y-71300000D01*
X197666666Y-71347619D01*
X197571428Y-71490476D01*
X197523809Y-71680952D01*
X197523809Y-72061904D01*
X197571428Y-72157142D01*
X197619047Y-72204761D01*
X197714285Y-72252380D01*
X197904761Y-72252380D01*
X198000000Y-72204761D01*
X198047619Y-72157142D01*
X198095238Y-72061904D01*
X198095238Y-71823809D01*
X198047619Y-71728571D01*
X198000000Y-71680952D01*
X197904761Y-71633333D01*
X197714285Y-71633333D01*
X197619047Y-71680952D01*
X197571428Y-71728571D01*
X197523809Y-71823809D01*
X198523809Y-71871428D02*
X199285714Y-71871428D01*
X199952380Y-71252380D02*
X200047619Y-71252380D01*
X200142857Y-71300000D01*
X200190476Y-71347619D01*
X200238095Y-71442857D01*
X200285714Y-71633333D01*
X200285714Y-71871428D01*
X200238095Y-72061904D01*
X200190476Y-72157142D01*
X200142857Y-72204761D01*
X200047619Y-72252380D01*
X199952380Y-72252380D01*
X199857142Y-72204761D01*
X199809523Y-72157142D01*
X199761904Y-72061904D01*
X199714285Y-71871428D01*
X199714285Y-71633333D01*
X199761904Y-71442857D01*
X199809523Y-71347619D01*
X199857142Y-71300000D01*
X199952380Y-71252380D01*
X201190476Y-71252380D02*
X200714285Y-71252380D01*
X200666666Y-71728571D01*
X200714285Y-71680952D01*
X200809523Y-71633333D01*
X201047619Y-71633333D01*
X201142857Y-71680952D01*
X201190476Y-71728571D01*
X201238095Y-71823809D01*
X201238095Y-72061904D01*
X201190476Y-72157142D01*
X201142857Y-72204761D01*
X201047619Y-72252380D01*
X200809523Y-72252380D01*
X200714285Y-72204761D01*
X200666666Y-72157142D01*
X118190476Y-112202380D02*
X118809523Y-112202380D01*
X118476190Y-112583333D01*
X118619047Y-112583333D01*
X118714285Y-112630952D01*
X118761904Y-112678571D01*
X118809523Y-112773809D01*
X118809523Y-113011904D01*
X118761904Y-113107142D01*
X118714285Y-113154761D01*
X118619047Y-113202380D01*
X118333333Y-113202380D01*
X118238095Y-113154761D01*
X118190476Y-113107142D01*
X119666666Y-112202380D02*
X119476190Y-112202380D01*
X119380952Y-112250000D01*
X119333333Y-112297619D01*
X119238095Y-112440476D01*
X119190476Y-112630952D01*
X119190476Y-113011904D01*
X119238095Y-113107142D01*
X119285714Y-113154761D01*
X119380952Y-113202380D01*
X119571428Y-113202380D01*
X119666666Y-113154761D01*
X119714285Y-113107142D01*
X119761904Y-113011904D01*
X119761904Y-112773809D01*
X119714285Y-112678571D01*
X119666666Y-112630952D01*
X119571428Y-112583333D01*
X119380952Y-112583333D01*
X119285714Y-112630952D01*
X119238095Y-112678571D01*
X119190476Y-112773809D01*
X133690476Y-112202380D02*
X134309523Y-112202380D01*
X133976190Y-112583333D01*
X134119047Y-112583333D01*
X134214285Y-112630952D01*
X134261904Y-112678571D01*
X134309523Y-112773809D01*
X134309523Y-113011904D01*
X134261904Y-113107142D01*
X134214285Y-113154761D01*
X134119047Y-113202380D01*
X133833333Y-113202380D01*
X133738095Y-113154761D01*
X133690476Y-113107142D01*
X134928571Y-112202380D02*
X135023809Y-112202380D01*
X135119047Y-112250000D01*
X135166666Y-112297619D01*
X135214285Y-112392857D01*
X135261904Y-112583333D01*
X135261904Y-112821428D01*
X135214285Y-113011904D01*
X135166666Y-113107142D01*
X135119047Y-113154761D01*
X135023809Y-113202380D01*
X134928571Y-113202380D01*
X134833333Y-113154761D01*
X134785714Y-113107142D01*
X134738095Y-113011904D01*
X134690476Y-112821428D01*
X134690476Y-112583333D01*
X134738095Y-112392857D01*
X134785714Y-112297619D01*
X134833333Y-112250000D01*
X134928571Y-112202380D01*
X146238095Y-112297619D02*
X146285714Y-112250000D01*
X146380952Y-112202380D01*
X146619047Y-112202380D01*
X146714285Y-112250000D01*
X146761904Y-112297619D01*
X146809523Y-112392857D01*
X146809523Y-112488095D01*
X146761904Y-112630952D01*
X146190476Y-113202380D01*
X146809523Y-113202380D01*
X147714285Y-112202380D02*
X147238095Y-112202380D01*
X147190476Y-112678571D01*
X147238095Y-112630952D01*
X147333333Y-112583333D01*
X147571428Y-112583333D01*
X147666666Y-112630952D01*
X147714285Y-112678571D01*
X147761904Y-112773809D01*
X147761904Y-113011904D01*
X147714285Y-113107142D01*
X147666666Y-113154761D01*
X147571428Y-113202380D01*
X147333333Y-113202380D01*
X147238095Y-113154761D01*
X147190476Y-113107142D01*
X158738095Y-112297619D02*
X158785714Y-112250000D01*
X158880952Y-112202380D01*
X159119047Y-112202380D01*
X159214285Y-112250000D01*
X159261904Y-112297619D01*
X159309523Y-112392857D01*
X159309523Y-112488095D01*
X159261904Y-112630952D01*
X158690476Y-113202380D01*
X159309523Y-113202380D01*
X159928571Y-112202380D02*
X160023809Y-112202380D01*
X160119047Y-112250000D01*
X160166666Y-112297619D01*
X160214285Y-112392857D01*
X160261904Y-112583333D01*
X160261904Y-112821428D01*
X160214285Y-113011904D01*
X160166666Y-113107142D01*
X160119047Y-113154761D01*
X160023809Y-113202380D01*
X159928571Y-113202380D01*
X159833333Y-113154761D01*
X159785714Y-113107142D01*
X159738095Y-113011904D01*
X159690476Y-112821428D01*
X159690476Y-112583333D01*
X159738095Y-112392857D01*
X159785714Y-112297619D01*
X159833333Y-112250000D01*
X159928571Y-112202380D01*
X171809523Y-113202380D02*
X171238095Y-113202380D01*
X171523809Y-113202380D02*
X171523809Y-112202380D01*
X171428571Y-112345238D01*
X171333333Y-112440476D01*
X171238095Y-112488095D01*
X172714285Y-112202380D02*
X172238095Y-112202380D01*
X172190476Y-112678571D01*
X172238095Y-112630952D01*
X172333333Y-112583333D01*
X172571428Y-112583333D01*
X172666666Y-112630952D01*
X172714285Y-112678571D01*
X172761904Y-112773809D01*
X172761904Y-113011904D01*
X172714285Y-113107142D01*
X172666666Y-113154761D01*
X172571428Y-113202380D01*
X172333333Y-113202380D01*
X172238095Y-113154761D01*
X172190476Y-113107142D01*
X184309523Y-113202380D02*
X183738095Y-113202380D01*
X184023809Y-113202380D02*
X184023809Y-112202380D01*
X183928571Y-112345238D01*
X183833333Y-112440476D01*
X183738095Y-112488095D01*
X184928571Y-112202380D02*
X185023809Y-112202380D01*
X185119047Y-112250000D01*
X185166666Y-112297619D01*
X185214285Y-112392857D01*
X185261904Y-112583333D01*
X185261904Y-112821428D01*
X185214285Y-113011904D01*
X185166666Y-113107142D01*
X185119047Y-113154761D01*
X185023809Y-113202380D01*
X184928571Y-113202380D01*
X184833333Y-113154761D01*
X184785714Y-113107142D01*
X184738095Y-113011904D01*
X184690476Y-112821428D01*
X184690476Y-112583333D01*
X184738095Y-112392857D01*
X184785714Y-112297619D01*
X184833333Y-112250000D01*
X184928571Y-112202380D01*
X207835714Y-113202380D02*
X207264285Y-113202380D01*
X207550000Y-113202380D02*
X207550000Y-112202380D01*
X207454761Y-112345238D01*
X207359523Y-112440476D01*
X207264285Y-112488095D01*
X197288095Y-112202380D02*
X196811904Y-112202380D01*
X196764285Y-112678571D01*
X196811904Y-112630952D01*
X196907142Y-112583333D01*
X197145238Y-112583333D01*
X197240476Y-112630952D01*
X197288095Y-112678571D01*
X197335714Y-112773809D01*
X197335714Y-113011904D01*
X197288095Y-113107142D01*
X197240476Y-113154761D01*
X197145238Y-113202380D01*
X196907142Y-113202380D01*
X196811904Y-113154761D01*
X196764285Y-113107142D01*
X121926190Y-93116666D02*
X122402380Y-93116666D01*
X121830952Y-93402380D02*
X122164285Y-92402380D01*
X122497619Y-93402380D01*
X122688095Y-92402380D02*
X123021428Y-93402380D01*
X123354761Y-92402380D01*
X124259523Y-93402380D02*
X123926190Y-92926190D01*
X123688095Y-93402380D02*
X123688095Y-92402380D01*
X124069047Y-92402380D01*
X124164285Y-92450000D01*
X124211904Y-92497619D01*
X124259523Y-92592857D01*
X124259523Y-92735714D01*
X124211904Y-92830952D01*
X124164285Y-92878571D01*
X124069047Y-92926190D01*
X123688095Y-92926190D01*
X124688095Y-93021428D02*
X125450000Y-93021428D01*
X126497619Y-93307142D02*
X126450000Y-93354761D01*
X126307142Y-93402380D01*
X126211904Y-93402380D01*
X126069047Y-93354761D01*
X125973809Y-93259523D01*
X125926190Y-93164285D01*
X125878571Y-92973809D01*
X125878571Y-92830952D01*
X125926190Y-92640476D01*
X125973809Y-92545238D01*
X126069047Y-92450000D01*
X126211904Y-92402380D01*
X126307142Y-92402380D01*
X126450000Y-92450000D01*
X126497619Y-92497619D01*
X126926190Y-93402380D02*
X126926190Y-92402380D01*
X127973809Y-93307142D02*
X127926190Y-93354761D01*
X127783333Y-93402380D01*
X127688095Y-93402380D01*
X127545238Y-93354761D01*
X127450000Y-93259523D01*
X127402380Y-93164285D01*
X127354761Y-92973809D01*
X127354761Y-92830952D01*
X127402380Y-92640476D01*
X127450000Y-92545238D01*
X127545238Y-92450000D01*
X127688095Y-92402380D01*
X127783333Y-92402380D01*
X127926190Y-92450000D01*
X127973809Y-92497619D01*
D11*
%TO.C,C1*%
X171220000Y-87550000D02*
G75*
G03*
X171220000Y-87550000I-2120000J0D01*
G01*
X169100000Y-88390000D02*
X169100000Y-89630000D01*
X169100000Y-85470000D02*
X169100000Y-86710000D01*
X169140000Y-88390000D02*
X169140000Y-89630000D01*
X169140000Y-85470000D02*
X169140000Y-86710000D01*
X169180000Y-88390000D02*
X169180000Y-89629000D01*
X169180000Y-85471000D02*
X169180000Y-86710000D01*
X169220000Y-85473000D02*
X169220000Y-86710000D01*
X169220000Y-88390000D02*
X169220000Y-89627000D01*
X169260000Y-85476000D02*
X169260000Y-86710000D01*
X169260000Y-88390000D02*
X169260000Y-89624000D01*
X169300000Y-85479000D02*
X169300000Y-86710000D01*
X169300000Y-88390000D02*
X169300000Y-89621000D01*
X169340000Y-85483000D02*
X169340000Y-86710000D01*
X169340000Y-88390000D02*
X169340000Y-89617000D01*
X169380000Y-85488000D02*
X169380000Y-86710000D01*
X169380000Y-88390000D02*
X169380000Y-89612000D01*
X169420000Y-85494000D02*
X169420000Y-86710000D01*
X169420000Y-88390000D02*
X169420000Y-89606000D01*
X169460000Y-85500000D02*
X169460000Y-86710000D01*
X169460000Y-88390000D02*
X169460000Y-89600000D01*
X169500000Y-85508000D02*
X169500000Y-86710000D01*
X169500000Y-88390000D02*
X169500000Y-89592000D01*
X169540000Y-85516000D02*
X169540000Y-86710000D01*
X169540000Y-88390000D02*
X169540000Y-89584000D01*
X169580000Y-85525000D02*
X169580000Y-86710000D01*
X169580000Y-88390000D02*
X169580000Y-89575000D01*
X169620000Y-85534000D02*
X169620000Y-86710000D01*
X169620000Y-88390000D02*
X169620000Y-89566000D01*
X169660000Y-85545000D02*
X169660000Y-86710000D01*
X169660000Y-88390000D02*
X169660000Y-89555000D01*
X169700000Y-85556000D02*
X169700000Y-86710000D01*
X169700000Y-88390000D02*
X169700000Y-89544000D01*
X169740000Y-85568000D02*
X169740000Y-86710000D01*
X169740000Y-88390000D02*
X169740000Y-89532000D01*
X169780000Y-85582000D02*
X169780000Y-86710000D01*
X169780000Y-88390000D02*
X169780000Y-89518000D01*
X169821000Y-85596000D02*
X169821000Y-86710000D01*
X169821000Y-88390000D02*
X169821000Y-89504000D01*
X169861000Y-85610000D02*
X169861000Y-86710000D01*
X169861000Y-88390000D02*
X169861000Y-89490000D01*
X169901000Y-85626000D02*
X169901000Y-86710000D01*
X169901000Y-88390000D02*
X169901000Y-89474000D01*
X169941000Y-85643000D02*
X169941000Y-86710000D01*
X169941000Y-88390000D02*
X169941000Y-89457000D01*
X169981000Y-85661000D02*
X169981000Y-86710000D01*
X169981000Y-88390000D02*
X169981000Y-89439000D01*
X170021000Y-85680000D02*
X170021000Y-86710000D01*
X170021000Y-88390000D02*
X170021000Y-89420000D01*
X170061000Y-85699000D02*
X170061000Y-86710000D01*
X170061000Y-88390000D02*
X170061000Y-89401000D01*
X170101000Y-85720000D02*
X170101000Y-86710000D01*
X170101000Y-88390000D02*
X170101000Y-89380000D01*
X170141000Y-85742000D02*
X170141000Y-86710000D01*
X170141000Y-88390000D02*
X170141000Y-89358000D01*
X170181000Y-85765000D02*
X170181000Y-86710000D01*
X170181000Y-88390000D02*
X170181000Y-89335000D01*
X170221000Y-85790000D02*
X170221000Y-86710000D01*
X170221000Y-88390000D02*
X170221000Y-89310000D01*
X170261000Y-85815000D02*
X170261000Y-86710000D01*
X170261000Y-88390000D02*
X170261000Y-89285000D01*
X170301000Y-85842000D02*
X170301000Y-86710000D01*
X170301000Y-88390000D02*
X170301000Y-89258000D01*
X170341000Y-85870000D02*
X170341000Y-86710000D01*
X170341000Y-88390000D02*
X170341000Y-89230000D01*
X170381000Y-85900000D02*
X170381000Y-86710000D01*
X170381000Y-88390000D02*
X170381000Y-89200000D01*
X170421000Y-85931000D02*
X170421000Y-86710000D01*
X170421000Y-88390000D02*
X170421000Y-89169000D01*
X170461000Y-85963000D02*
X170461000Y-86710000D01*
X170461000Y-88390000D02*
X170461000Y-89137000D01*
X170501000Y-85998000D02*
X170501000Y-86710000D01*
X170501000Y-88390000D02*
X170501000Y-89102000D01*
X170541000Y-86034000D02*
X170541000Y-86710000D01*
X170541000Y-88390000D02*
X170541000Y-89066000D01*
X170581000Y-86072000D02*
X170581000Y-86710000D01*
X170581000Y-88390000D02*
X170581000Y-89028000D01*
X170621000Y-86112000D02*
X170621000Y-86710000D01*
X170621000Y-88390000D02*
X170621000Y-88988000D01*
X170661000Y-86154000D02*
X170661000Y-86710000D01*
X170661000Y-88390000D02*
X170661000Y-88946000D01*
X170701000Y-86199000D02*
X170701000Y-88901000D01*
X170741000Y-86246000D02*
X170741000Y-88854000D01*
X170781000Y-86296000D02*
X170781000Y-88804000D01*
X170821000Y-86350000D02*
X170821000Y-88750000D01*
X170861000Y-86408000D02*
X170861000Y-88692000D01*
X170901000Y-86470000D02*
X170901000Y-88630000D01*
X170941000Y-86537000D02*
X170941000Y-88563000D01*
X170981000Y-86610000D02*
X170981000Y-88490000D01*
X171021000Y-86691000D02*
X171021000Y-88409000D01*
X171061000Y-86782000D02*
X171061000Y-88318000D01*
X171101000Y-86886000D02*
X171101000Y-88214000D01*
X171141000Y-87013000D02*
X171141000Y-88087000D01*
X171181000Y-87180000D02*
X171181000Y-87920000D01*
X166830199Y-86355000D02*
X167230199Y-86355000D01*
X167030199Y-86155000D02*
X167030199Y-86555000D01*
%TO.C,C2*%
X116800000Y-95940000D02*
X116800000Y-95980000D01*
X116800000Y-101360000D02*
X116800000Y-101320000D01*
X115130000Y-95980000D02*
X115130000Y-101320000D01*
X118470000Y-95980000D02*
X115130000Y-95980000D01*
X118470000Y-101320000D02*
X118470000Y-95980000D01*
X115130000Y-101320000D02*
X118470000Y-101320000D01*
%TO.C,C3*%
X208780000Y-100470000D02*
X212120000Y-100470000D01*
X212120000Y-100470000D02*
X212120000Y-95130000D01*
X212120000Y-95130000D02*
X208780000Y-95130000D01*
X208780000Y-95130000D02*
X208780000Y-100470000D01*
X210450000Y-100510000D02*
X210450000Y-100470000D01*
X210450000Y-95090000D02*
X210450000Y-95130000D01*
%TO.C,D1*%
X173590000Y-77580000D02*
X173590000Y-79820000D01*
X173830000Y-77580000D02*
X173830000Y-79820000D01*
X173710000Y-77580000D02*
X173710000Y-79820000D01*
X177880000Y-78700000D02*
X177230000Y-78700000D01*
X172340000Y-78700000D02*
X172990000Y-78700000D01*
X177230000Y-77580000D02*
X172990000Y-77580000D01*
X177230000Y-79820000D02*
X177230000Y-77580000D01*
X172990000Y-79820000D02*
X177230000Y-79820000D01*
X172990000Y-77580000D02*
X172990000Y-79820000D01*
%TO.C,D2*%
X172990000Y-80280000D02*
X172990000Y-82520000D01*
X172990000Y-82520000D02*
X177230000Y-82520000D01*
X177230000Y-82520000D02*
X177230000Y-80280000D01*
X177230000Y-80280000D02*
X172990000Y-80280000D01*
X172340000Y-81400000D02*
X172990000Y-81400000D01*
X177880000Y-81400000D02*
X177230000Y-81400000D01*
X173710000Y-80280000D02*
X173710000Y-82520000D01*
X173830000Y-80280000D02*
X173830000Y-82520000D01*
X173590000Y-80280000D02*
X173590000Y-82520000D01*
%TO.C,U2*%
X202830000Y-80760000D02*
X202830000Y-79110000D01*
X182390000Y-80760000D02*
X202830000Y-80760000D01*
X182390000Y-75460000D02*
X182390000Y-80760000D01*
X202830000Y-75460000D02*
X182390000Y-75460000D01*
X202830000Y-77110000D02*
X202830000Y-75460000D01*
X202830000Y-79110000D02*
G75*
G02*
X202830000Y-77110000I0J1000000D01*
G01*
%TO.C,U3*%
X129380000Y-97560000D02*
X129380000Y-95910000D01*
X129380000Y-95910000D02*
X119100000Y-95910000D01*
X119100000Y-95910000D02*
X119100000Y-101210000D01*
X119100000Y-101210000D02*
X129380000Y-101210000D01*
X129380000Y-101210000D02*
X129380000Y-99560000D01*
X129380000Y-99560000D02*
G75*
G02*
X129380000Y-97560000I0J1000000D01*
G01*
%TO.C,U4*%
X166480000Y-96570000D02*
X166480000Y-91110000D01*
X166480000Y-91110000D02*
X130800000Y-91110000D01*
X130800000Y-91110000D02*
X130800000Y-104030000D01*
X130800000Y-104030000D02*
X166480000Y-104030000D01*
X166480000Y-104030000D02*
X166480000Y-98570000D01*
X166480000Y-98570000D02*
G75*
G02*
X166480000Y-96570000I0J1000000D01*
G01*
%TO.C,U5*%
X208050000Y-104030000D02*
X208050000Y-98570000D01*
X172370000Y-104030000D02*
X208050000Y-104030000D01*
X172370000Y-91110000D02*
X172370000Y-104030000D01*
X208050000Y-91110000D02*
X172370000Y-91110000D01*
X208050000Y-96570000D02*
X208050000Y-91110000D01*
X208050000Y-98570000D02*
G75*
G02*
X208050000Y-96570000I0J1000000D01*
G01*
%TO.C,JP1*%
X196250000Y-109850000D02*
X195650000Y-109850000D01*
X196950000Y-107750000D02*
X196950000Y-109150000D01*
X195650000Y-107050000D02*
X196250000Y-107050000D01*
X194950000Y-109150000D02*
X194950000Y-107750000D01*
X194950000Y-107750000D02*
G75*
G02*
X195650000Y-107050000I700000J0D01*
G01*
X196250000Y-107050000D02*
G75*
G02*
X196950000Y-107750000I0J-700000D01*
G01*
X196950000Y-109150000D02*
G75*
G02*
X196250000Y-109850000I-700000J0D01*
G01*
X195650000Y-109850000D02*
G75*
G02*
X194950000Y-109150000I0J700000D01*
G01*
%TO.C,JP2*%
X204050000Y-109850000D02*
X203450000Y-109850000D01*
X204750000Y-107750000D02*
X204750000Y-109150000D01*
X203450000Y-107050000D02*
X204050000Y-107050000D01*
X202750000Y-109150000D02*
X202750000Y-107750000D01*
X202750000Y-107750000D02*
G75*
G02*
X203450000Y-107050000I700000J0D01*
G01*
X204050000Y-107050000D02*
G75*
G02*
X204750000Y-107750000I0J-700000D01*
G01*
X204750000Y-109150000D02*
G75*
G02*
X204050000Y-109850000I-700000J0D01*
G01*
X203450000Y-109850000D02*
G75*
G02*
X202750000Y-109150000I0J700000D01*
G01*
%TO.C,JP3*%
X169100000Y-75300000D02*
X168500000Y-75300000D01*
X169800000Y-73200000D02*
X169800000Y-74600000D01*
X168500000Y-72500000D02*
X169100000Y-72500000D01*
X167800000Y-74600000D02*
X167800000Y-73200000D01*
X167800000Y-73200000D02*
G75*
G02*
X168500000Y-72500000I700000J0D01*
G01*
X169100000Y-72500000D02*
G75*
G02*
X169800000Y-73200000I0J-700000D01*
G01*
X169800000Y-74600000D02*
G75*
G02*
X169100000Y-75300000I-700000J0D01*
G01*
X168500000Y-75300000D02*
G75*
G02*
X167800000Y-74600000I0J700000D01*
G01*
%TO.C,JP4*%
X174500000Y-75300000D02*
X173900000Y-75300000D01*
X175200000Y-73200000D02*
X175200000Y-74600000D01*
X173900000Y-72500000D02*
X174500000Y-72500000D01*
X173200000Y-74600000D02*
X173200000Y-73200000D01*
X173200000Y-73200000D02*
G75*
G02*
X173900000Y-72500000I700000J0D01*
G01*
X174500000Y-72500000D02*
G75*
G02*
X175200000Y-73200000I0J-700000D01*
G01*
X175200000Y-74600000D02*
G75*
G02*
X174500000Y-75300000I-700000J0D01*
G01*
X173900000Y-75300000D02*
G75*
G02*
X173200000Y-74600000I0J700000D01*
G01*
%TO.C,C1*%
D10*
X168933333Y-90957142D02*
X168885714Y-91004761D01*
X168742857Y-91052380D01*
X168647619Y-91052380D01*
X168504761Y-91004761D01*
X168409523Y-90909523D01*
X168361904Y-90814285D01*
X168314285Y-90623809D01*
X168314285Y-90480952D01*
X168361904Y-90290476D01*
X168409523Y-90195238D01*
X168504761Y-90100000D01*
X168647619Y-90052380D01*
X168742857Y-90052380D01*
X168885714Y-90100000D01*
X168933333Y-90147619D01*
X169885714Y-91052380D02*
X169314285Y-91052380D01*
X169600000Y-91052380D02*
X169600000Y-90052380D01*
X169504761Y-90195238D01*
X169409523Y-90290476D01*
X169314285Y-90338095D01*
%TO.C,C2*%
X116633333Y-104607142D02*
X116585714Y-104654761D01*
X116442857Y-104702380D01*
X116347619Y-104702380D01*
X116204761Y-104654761D01*
X116109523Y-104559523D01*
X116061904Y-104464285D01*
X116014285Y-104273809D01*
X116014285Y-104130952D01*
X116061904Y-103940476D01*
X116109523Y-103845238D01*
X116204761Y-103750000D01*
X116347619Y-103702380D01*
X116442857Y-103702380D01*
X116585714Y-103750000D01*
X116633333Y-103797619D01*
X117014285Y-103797619D02*
X117061904Y-103750000D01*
X117157142Y-103702380D01*
X117395238Y-103702380D01*
X117490476Y-103750000D01*
X117538095Y-103797619D01*
X117585714Y-103892857D01*
X117585714Y-103988095D01*
X117538095Y-104130952D01*
X116966666Y-104702380D01*
X117585714Y-104702380D01*
%TO.C,C3*%
X210283333Y-103757142D02*
X210235714Y-103804761D01*
X210092857Y-103852380D01*
X209997619Y-103852380D01*
X209854761Y-103804761D01*
X209759523Y-103709523D01*
X209711904Y-103614285D01*
X209664285Y-103423809D01*
X209664285Y-103280952D01*
X209711904Y-103090476D01*
X209759523Y-102995238D01*
X209854761Y-102900000D01*
X209997619Y-102852380D01*
X210092857Y-102852380D01*
X210235714Y-102900000D01*
X210283333Y-102947619D01*
X210616666Y-102852380D02*
X211235714Y-102852380D01*
X210902380Y-103233333D01*
X211045238Y-103233333D01*
X211140476Y-103280952D01*
X211188095Y-103328571D01*
X211235714Y-103423809D01*
X211235714Y-103661904D01*
X211188095Y-103757142D01*
X211140476Y-103804761D01*
X211045238Y-103852380D01*
X210759523Y-103852380D01*
X210664285Y-103804761D01*
X210616666Y-103757142D01*
%TO.C,D1*%
X174661904Y-79152380D02*
X174661904Y-78152380D01*
X174900000Y-78152380D01*
X175042857Y-78200000D01*
X175138095Y-78295238D01*
X175185714Y-78390476D01*
X175233333Y-78580952D01*
X175233333Y-78723809D01*
X175185714Y-78914285D01*
X175138095Y-79009523D01*
X175042857Y-79104761D01*
X174900000Y-79152380D01*
X174661904Y-79152380D01*
X176185714Y-79152380D02*
X175614285Y-79152380D01*
X175900000Y-79152380D02*
X175900000Y-78152380D01*
X175804761Y-78295238D01*
X175709523Y-78390476D01*
X175614285Y-78438095D01*
%TO.C,D2*%
X174661904Y-81852380D02*
X174661904Y-80852380D01*
X174900000Y-80852380D01*
X175042857Y-80900000D01*
X175138095Y-80995238D01*
X175185714Y-81090476D01*
X175233333Y-81280952D01*
X175233333Y-81423809D01*
X175185714Y-81614285D01*
X175138095Y-81709523D01*
X175042857Y-81804761D01*
X174900000Y-81852380D01*
X174661904Y-81852380D01*
X175614285Y-80947619D02*
X175661904Y-80900000D01*
X175757142Y-80852380D01*
X175995238Y-80852380D01*
X176090476Y-80900000D01*
X176138095Y-80947619D01*
X176185714Y-81042857D01*
X176185714Y-81138095D01*
X176138095Y-81280952D01*
X175566666Y-81852380D01*
X176185714Y-81852380D01*
%TO.C,U2*%
X203338095Y-77652380D02*
X203338095Y-78461904D01*
X203385714Y-78557142D01*
X203433333Y-78604761D01*
X203528571Y-78652380D01*
X203719047Y-78652380D01*
X203814285Y-78604761D01*
X203861904Y-78557142D01*
X203909523Y-78461904D01*
X203909523Y-77652380D01*
X204338095Y-77747619D02*
X204385714Y-77700000D01*
X204480952Y-77652380D01*
X204719047Y-77652380D01*
X204814285Y-77700000D01*
X204861904Y-77747619D01*
X204909523Y-77842857D01*
X204909523Y-77938095D01*
X204861904Y-78080952D01*
X204290476Y-78652380D01*
X204909523Y-78652380D01*
%TO.C,U3*%
X119238095Y-92402380D02*
X119238095Y-93211904D01*
X119285714Y-93307142D01*
X119333333Y-93354761D01*
X119428571Y-93402380D01*
X119619047Y-93402380D01*
X119714285Y-93354761D01*
X119761904Y-93307142D01*
X119809523Y-93211904D01*
X119809523Y-92402380D01*
X120190476Y-92402380D02*
X120809523Y-92402380D01*
X120476190Y-92783333D01*
X120619047Y-92783333D01*
X120714285Y-92830952D01*
X120761904Y-92878571D01*
X120809523Y-92973809D01*
X120809523Y-93211904D01*
X120761904Y-93307142D01*
X120714285Y-93354761D01*
X120619047Y-93402380D01*
X120333333Y-93402380D01*
X120238095Y-93354761D01*
X120190476Y-93307142D01*
%TO.C,U4*%
X131388095Y-87402380D02*
X131388095Y-88211904D01*
X131435714Y-88307142D01*
X131483333Y-88354761D01*
X131578571Y-88402380D01*
X131769047Y-88402380D01*
X131864285Y-88354761D01*
X131911904Y-88307142D01*
X131959523Y-88211904D01*
X131959523Y-87402380D01*
X132864285Y-87735714D02*
X132864285Y-88402380D01*
X132626190Y-87354761D02*
X132388095Y-88069047D01*
X133007142Y-88069047D01*
%TO.C,U5*%
X172988095Y-87402380D02*
X172988095Y-88211904D01*
X173035714Y-88307142D01*
X173083333Y-88354761D01*
X173178571Y-88402380D01*
X173369047Y-88402380D01*
X173464285Y-88354761D01*
X173511904Y-88307142D01*
X173559523Y-88211904D01*
X173559523Y-87402380D01*
X174511904Y-87402380D02*
X174035714Y-87402380D01*
X173988095Y-87878571D01*
X174035714Y-87830952D01*
X174130952Y-87783333D01*
X174369047Y-87783333D01*
X174464285Y-87830952D01*
X174511904Y-87878571D01*
X174559523Y-87973809D01*
X174559523Y-88211904D01*
X174511904Y-88307142D01*
X174464285Y-88354761D01*
X174369047Y-88402380D01*
X174130952Y-88402380D01*
X174035714Y-88354761D01*
X173988095Y-88307142D01*
%TD*%
M02*
